0
SECTION
2
HEADER
9
$INSUNITS
70
1
9
$ACADVER
1
AC1014
9
$HANDSEED
5
FFFF
0
ENDSEC
0
SECTION
2
TABLES
0
TABLE
2
VPORT
5
8
100
AcDbSymbolTable
0
ENDTAB
0
TABLE
2
LTYPE
5
5
100
AcDbSymbolTable
0
LTYPE
5
14
100
AcDbSymbolTableRecord
100
AcDbLinetypeTableRecord
2
BYBLOCK
70
0
0
LTYPE
5
15
100
AcDbSymbolTableRecord
100
AcDbLinetypeTableRecord
2
BYLAYER
70
0
0
ENDTAB
0
TABLE
2
LAYER
5
2
100
AcDbSymbolTable
70
2
0
LAYER
5
50
100
AcDbSymbolTableRecord
100
AcDbLayerTableRecord
2
0
70
0
6
CONTINUOUS
0
ENDTAB
0
TABLE
2
STYLE
5
3
100
AcDbSymbolTable
70
1
0
STYLE
5
11
100
AcDbSymbolTableRecord
100
AcDbTextStyleTableRecord
2
STANDARD
70
0
0
ENDTAB
0
TABLE
2
VIEW
5
6
100
AcDbSymbolTable
70
0
0
ENDTAB
0
TABLE
2
UCS
5
7
100
AcDbSymbolTable
70
0
0
ENDTAB
0
TABLE
2
APPID
5
9
100
AcDbSymbolTable
70
2
0
APPID
5
12
100
AcDbSymbolTableRecord
100
AcDbRegAppTableRecord
2
ACAD
70
0
0
ENDTAB
0
TABLE
2
DIMSTYLE
5
A
100
AcDbSymbolTable
70
1
0
ENDTAB
0
TABLE
2
BLOCK_RECORD
5
1
100
AcDbSymbolTable
70
1
0
BLOCK_RECORD
5
1F
100
AcDbSymbolTableRecord
100
AcDbBlockTableRecord
2
*MODEL_SPACE
0
BLOCK_RECORD
5
1B
100
AcDbSymbolTableRecord
100
AcDbBlockTableRecord
2
*PAPER_SPACE
0
ENDTAB
0
ENDSEC
0
SECTION
2
BLOCKS
0
BLOCK
5
20
100
AcDbEntity
100
AcDbBlockBegin
2
*MODEL_SPACE
0
ENDBLK
5
21
100
AcDbEntity
100
AcDbBlockEnd
0
BLOCK
5
1C
100
AcDbEntity
100
AcDbBlockBegin
2
*PAPER_SPACE
0
ENDBLK
5
1D
100
AcDbEntity
100
AcDbBlockEnd
0
ENDSEC
0
SECTION
2
ENTITIES
0
CIRCLE
5
100
100
AcDbEntity
8
0
100
AcDbCircle
10
-1.5284068899672945
20
0.64044928152720126
30
0
40
4.9999999999999982
0
ARC
5
101
100
AcDbEntity
8
0
100
AcDbCircle
10
-3.4525773656083407
20
7.486054008524011
30
0
40
4.9771567178281391
100
AcDbArc
50
298.20807425899784
51
328.69561034304633
0
ARC
5
102
100
AcDbEntity
8
0
100
AcDbCircle
10
1.1191949825372871
20
2.6602943077036247
30
0
40
2.2623367806702426
100
AcDbArc
50
98.110972347231865
51
168.79271225481224
0
LINE
5
103
100
AcDbEntity
8
0
100
AcDbLine
10
0.80000002553143834
20
4.9000001563800595
30
0
11
-1.1000000351057277
21
3.1000000989343244
31
0
0
ARC
5
104
100
AcDbEntity
8
0
100
AcDbCircle
10
2.271650435424319
20
-1.8585070805311021
30
0
40
5.996233846693749
100
AcDbArc
50
92.127829555993102
51
124.21464007640444
0
ARC
5
105
100
AcDbEntity
8
0
100
AcDbCircle
10
-0.91904843878016951
20
7.8625044005355837
30
0
40
4.7659406944467193
100
AcDbArc
50
267.8240905674599
51
308.51837906493756
0
LINE
5
106
100
AcDbEntity
8
0
100
AcDbLine
10
2.0490156960767107
20
4.1335922274803449
30
0
11
-1.1000000351057277
21
3.1000000989343244
31
0
0
ARC
5
107
100
AcDbEntity
8
0
100
AcDbCircle
10
-0.10000000319147455
20
-18.400000587223431
30
0
40
21.523243936930175
100
AcDbArc
50
83.865590056076059
51
92.663000766066972
0
ARC
5
108
100
AcDbEntity
8
0
100
AcDbCircle
10
0.7131951147710377
20
7.5822701271000437
30
0
40
4.8174461715514765
100
AcDbArc
50
248.55603082484041
51
287.97664409746517
0
LINE
5
109
100
AcDbEntity
8
0
100
AcDbLine
10
2.2000000702114555
20
3.0000000957428936
30
0
11
-0.98888514653702086
21
3.0755295754528196
31
0
0
ARC
5
110
100
AcDbEntity
8
0
100
AcDbCircle
10
-2.6322945832019591
20
-6.2380289533886542
30
0
40
9.4629125095899571
100
AcDbArc
50
59.325049120381848
51
80.681275873519283
0
ARC
5
111
100
AcDbEntity
8
0
100
AcDbCircle
10
2.4093367700442156
20
7.6161186022848888
30
0
40
5.7193331034558073
100
AcDbArc
50
232.15031935297151
51
267.8560056409296
0
LINE
5
112
100
AcDbEntity
8
0
100
AcDbLine
10
2.1953706359869218
20
1.9007892467917225
30
0
11
-1.1000000351057277
21
3.1000000989343244
31
0
0
ARC
5
113
100
AcDbEntity
8
0
100
AcDbCircle
10
16.200000517012075
20
30.000000957429698
30
0
40
31.982808902444219
100
AcDbArc
50
237.25400991447165
51
244.63678188737396
0
ARC
5
114
100
AcDbEntity
8
0
100
AcDbCircle
10
3.200000102125752
20
6.6000002106343665
30
0
40
5.5443666871962032
100
AcDbArc
50
219.14398641457106
51
262.74680538727466
0
ARC
5
115
100
AcDbEntity
8
0
100
AcDbCircle
10
4.9484023197094089
20
9.7471242022849438
30
0
40
8.9870701505594628
100
AcDbArc
50
227.70007168351995
51
254.19072011832571
0
ARC
5
116
100
AcDbEntity
8
0
100
AcDbCircle
10
28.397345164377629
20
38.074031944573846
30
0
40
45.752336304904759
100
AcDbArc
50
229.85548028789404
51
235.75529570358108
0
ARC
5
117
100
AcDbEntity
8
0
100
AcDbCircle
10
4.5934136026240218
20
6.707385733741555
30
0
40
6.7400437660671413
100
AcDbArc
50
212.35862529550238
51
253.25215069597266
0
ARC
5
118
100
AcDbEntity
8
0
100
AcDbCircle
10
6.40195769696453
20
9.0905199070482645
30
0
40
9.600296734225104
100
AcDbArc
50
218.60832855585883
51
247.00244743561635
0
ARC
5
119
100
AcDbEntity
8
0
100
AcDbCircle
10
5.8190329314307743
20
6.5424530042597366
30
0
40
7.7280980323364306
100
AcDbArc
50
206.45189835595886
51
248.30168075496726
0
ARC
5
120
100
AcDbEntity
8
0
100
AcDbCircle
10
15.940258145068389
20
17.540257651340649
30
0
40
22.335877798439334
100
AcDbArc
50
220.27861215169202
51
234.47496695923445
0
ARC
5
121
100
AcDbEntity
8
0
100
AcDbCircle
10
-5.2872126994616977
20
-8.1849143142351366
30
0
40
11.180398776162702
100
AcDbArc
50
42.454752592051157
51
53.165908986338714
0
ARC
5
122
100
AcDbEntity
8
0
100
AcDbCircle
10
7.3154600922151207
20
5.8961346403413373
30
0
40
8.8678259752983788
100
AcDbArc
50
198.37966765576576
51
239.79137974058526
0
ARC
5
123
100
AcDbEntity
8
0
100
AcDbCircle
10
-8.2798151698192815
20
-8.3446076905130759
30
0
40
12.931066052107573
100
AcDbArc
50
30.572858966914954
51
54.228339551955337
0
ARC
5
124
100
AcDbEntity
8
0
100
AcDbCircle
10
15.942788610764575
20
13.362892923587459
30
0
40
20.006330328422624
100
AcDbArc
50
214.59423171688832
51
229.13706848306617
0
ARC
5
125
100
AcDbEntity
8
0
100
AcDbCircle
10
-93.958413936689169
20
-53.819051257628445
30
0
40
108.91493671503871
100
AcDbArc
50
28.001579201719174
51
31.506881556796039
0
ARC
5
126
100
AcDbEntity
8
0
100
AcDbCircle
10
8.2931708801665192
20
4.6325605078669039
30
0
40
9.517373652985567
100
AcDbArc
50
189.26655030571362
51
230.24191045280176
0
ARC
5
127
100
AcDbEntity
8
0
100
AcDbCircle
10
12.61386258048814
20
7.1024625077033408
30
0
40
14.285997801098528
100
AcDbArc
50
196.2701606037854
51
223.23830015472996
0
ARC
5
128
100
AcDbEntity
8
0
100
AcDbCircle
10
-31.716302833775249
20
-9.5090106272568544
30
0
40
33.11110310081849
100
AcDbArc
50
10.03927701133683
51
22.38381171219369
0
ARC
5
129
100
AcDbEntity
8
0
100
AcDbCircle
10
12.292030442631981
20
3.2862082212373505
30
0
40
13.393324971099192
100
AcDbArc
50
180.79661198997036
51
211.62647673356057
0
ARC
5
130
100
AcDbEntity
8
0
100
AcDbCircle
10
46.594328251016712
20
13.682411338364602
30
0
40
48.913393229803418
100
AcDbArc
50
192.81867971111339
51
200.862540636381
0
ARC
5
131
100
AcDbEntity
8
0
100
AcDbCircle
10
-20.835748467544757
20
-3.8474868746640021
30
0
40
20.834848251443987
100
AcDbArc
50
-0.75241569053456392
51
18.693428379646011
0
ARC
5
132
100
AcDbEntity
8
0
100
AcDbCircle
10
27.606234197278315
20
4.5896681336854526
30
0
40
28.950479878628929
100
AcDbArc
50
183.48435798933519
51
197.5107410462513
0
ARC
5
133
100
AcDbEntity
8
0
100
AcDbCircle
10
161.05441563381393
20
29.31692317893102
30
0
40
164.49162235160318
100
AcDbArc
50
189.26621487849445
51
191.72888415709204
0
ARC
5
134
100
AcDbEntity
8
0
100
AcDbCircle
10
15.874856962683193
20
1.0888979296749237
30
0
40
17.253676883181157
100
AcDbArc
50
174.20773738050832
51
198.05555456762818
0
ARC
5
135
100
AcDbEntity
8
0
100
AcDbCircle
10
-428.7603947708273
20
-46.677305932476649
30
0
40
430.3269755654415
100
AcDbArc
50
5.6570027923492798
51
6.6062891557885282
0
ARC
5
136
100
AcDbEntity
8
0
100
AcDbCircle
10
45.349634646747262
20
4.3240119857743347
30
0
40
46.67471570806093
100
AcDbArc
50
182.1983770597715
51
190.59603421690144
0
LINE
5
137
100
AcDbEntity
8
0
100
AcDbLine
10
-1.370748144777066
20
-4.3570644723373171
30
0
11
-1.370748144777066
21
-2.7850665102044108
31
0
0
ARC
5
138
100
AcDbEntity
8
0
100
AcDbCircle
10
91.21691764713502
20
-53.819051257628445
30
0
40
108.9149367150751
100
AcDbArc
50
148.49311844320394
51
151.99842079828082
0
ARC
5
139
100
AcDbEntity
8
0
100
AcDbCircle
10
-7.3349098921781541
20
6.707385733741555
30
0
40
6.7400437660671493
100
AcDbArc
50
286.74784930402728
51
327.64137470449759
0
ARC
5
140
100
AcDbEntity
8
0
100
AcDbCircle
10
28.974806544221117
20
-9.5090106272568544
30
0
40
33.111103100818362
100
AcDbArc
50
157.61618828780632
51
169.96072298866318
0
ARC
5
141
100
AcDbEntity
8
0
100
AcDbCircle
10
-11.034667169720652
20
4.6325605078669048
30
0
40
9.5173736529855795
100
AcDbArc
50
309.75808954719821
51
350.73344969428638
0
ARC
5
142
100
AcDbEntity
8
0
100
AcDbCircle
10
-8.5605292209849058
20
6.5424530042597366
30
0
40
7.7280980323364332
100
AcDbArc
50
291.69831924503274
51
333.54810164404108
0
ARC
5
143
100
AcDbEntity
8
0
100
AcDbCircle
10
-49.33582454057084
20
13.682411338364602
30
0
40
48.913393229804576
100
AcDbArc
50
339.13745936361903
51
347.18132028888664
0
ARC
5
144
100
AcDbEntity
8
0
100
AcDbCircle
10
-15.35535887004227
20
7.1024625077033408
30
0
40
14.285997801098528
100
AcDbArc
50
316.76169984527002
51
343.72983939621463
0
ARC
5
145
100
AcDbEntity
8
0
100
AcDbCircle
10
-7.6898986092635413
20
9.7471242022849438
30
0
40
8.9870701505595285
100
AcDbArc
50
285.80927988167429
51
312.29992831648002
0
ARC
5
146
100
AcDbEntity
8
0
100
AcDbCircle
10
-5.0131467249784514
20
-1.8585070805311021
30
0
40
5.9962338466937455
100
AcDbArc
50
55.785359923595571
51
87.872170444006898
0
ARC
5
147
100
AcDbEntity
8
0
100
AcDbCircle
10
-9.1434539865186615
20
9.0905199070482645
30
0
40
9.6002967342251608
100
AcDbArc
50
292.99755256438368
51
321.3916714441412
0
ARC
5
148
100
AcDbEntity
8
0
100
AcDbCircle
10
-5.150833059598348
20
7.6161186022848888
30
0
40
5.719333103455801
100
AcDbArc
50
272.1439943590704
51
307.84968064702849
0
ARC
5
149
100
AcDbEntity
8
0
100
AcDbCircle
10
-0.10920170635217279
20
-6.2380289533886542
30
0
40
9.4629125095899198
100
AcDbArc
50
99.318724126480717
51
120.67495087961815
0
ARC
5
150
100
AcDbEntity
8
0
100
AcDbCircle
10
-3.4546914043251697
20
7.5822701271000428
30
0
40
4.8174461715514809
100
AcDbArc
50
252.02335590253486
51
291.44396917515962
0
ARC
5
151
100
AcDbEntity
8
0
100
AcDbCircle
10
-2.6414962863626577
20
-18.400000587223431
30
0
40
21.523243936930427
100
AcDbArc
50
87.336999233933014
51
96.134409943923941
0
ARC
5
152
100
AcDbEntity
8
0
100
AcDbCircle
10
-1.8224478507739625
20
7.862504400535582
30
0
40
4.7659406944467166
100
AcDbArc
50
231.48162093506241
51
272.17590943254015
0
ARC
5
153
100
AcDbEntity
8
0
100
AcDbCircle
10
-18.684284900318705
20
13.362892923587459
30
0
40
20.006330328422685
100
AcDbArc
50
310.86293151693383
51
325.40576828311168
0
ARC
5
154
100
AcDbEntity
8
0
100
AcDbCircle
10
-15.033526732186111
20
3.2862082212373513
30
0
40
13.393324971099124
100
AcDbArc
50
328.37352326643935
51
359.2033880100297
0
ARC
5
155
100
AcDbEntity
8
0
100
AcDbCircle
10
-5.941496391679884
20
6.6000002106343665
30
0
40
5.5443666871962085
100
AcDbArc
50
277.25319461272534
51
320.85601358542897
0
ARC
5
156
100
AcDbEntity
8
0
100
AcDbCircle
10
-18.941496806566203
20
30.000000957429698
30
0
40
31.9828089024452
100
AcDbArc
50
295.36321811262604
51
302.74599008552838
0
ARC
5
157
100
AcDbEntity
8
0
100
AcDbCircle
10
-10.056956381769252
20
5.8961346403413382
30
0
40
8.8678259752983717
100
AcDbArc
50
300.20862025941477
51
341.62033234423427
0
ARC
5
158
100
AcDbEntity
8
0
100
AcDbCircle
10
5.53831888026515
20
-8.3446076905130759
30
0
40
12.931066052107553
100
AcDbArc
50
125.77166044804467
51
149.42714103308506
0
ARC
5
159
100
AcDbEntity
8
0
100
AcDbCircle
10
2.5457164099075658
20
-8.1849143142351366
30
0
40
11.180398776162814
100
AcDbArc
50
126.83409101366129
51
137.54524740794886
0
ARC
5
160
100
AcDbEntity
8
0
100
AcDbCircle
10
-18.681754434622519
20
17.540257651340649
30
0
40
22.33587779843943
100
AcDbArc
50
305.52503304076555
51
319.72138784830798
0
LINE
5
161
100
AcDbEntity
8
0
100
AcDbLine
10
-4.7905119856308431
20
4.1335922274803449
30
0
11
-1.6414962544484044
21
3.1000000989343244
31
0
0
LINE
5
162
100
AcDbEntity
8
0
100
AcDbLine
10
-4.9368669255410538
20
1.9007892467917227
30
0
11
-1.6414962544484044
21
3.1000000989343244
31
0
0
ARC
5
163
100
AcDbEntity
8
0
100
AcDbCircle
10
-31.138841453931757
20
38.074031944573846
30
0
40
45.752336304906791
100
AcDbArc
50
304.24470429641889
51
310.14451971210599
0
LINE
5
164
100
AcDbEntity
8
0
100
AcDbLine
10
-4.941496359765587
20
3.0000000957428945
30
0
11
-1.752611143017111
21
3.07552957545282
31
0
0
ARC
5
165
100
AcDbEntity
8
0
100
AcDbCircle
10
18.094252177990626
20
-3.8474868746640021
30
0
40
20.83484825144383
100
AcDbArc
50
161.30657162035399
51
180.75241569053455
0
ARC
5
166
100
AcDbEntity
8
0
100
AcDbCircle
10
-163.7959119233681
20
29.31692317893102
30
0
40
164.4916223516899
100
AcDbArc
50
348.27111584290799
51
350.73378512150555
0
ARC
5
167
100
AcDbEntity
8
0
100
AcDbCircle
10
-30.347730486832447
20
4.5896681336854526
30
0
40
28.950479878629253
100
AcDbArc
50
342.48925895374867
51
356.51564201066475
0
ARC
5
168
100
AcDbEntity
8
0
100
AcDbCircle
10
426.01889848127325
20
-46.677305932476649
30
0
40
430.32697556474818
100
AcDbArc
50
173.39371084421145
51
174.3429972076508
0
ARC
5
169
100
AcDbEntity
8
0
100
AcDbCircle
10
-48.09113093630139
20
4.3240119857743355
30
0
40
46.674715708061569
100
AcDbArc
50
349.40396578309856
51
357.80162294022853
0
ARC
5
170
100
AcDbEntity
8
0
100
AcDbCircle
10
-18.616353252237321
20
1.0888979296749237
30
0
40
17.253676883181132
100
AcDbArc
50
-18.055554567628175
51
5.7922626194917104
0
ARC
5
171
100
AcDbEntity
8
0
100
AcDbCircle
10
-3.8606912720914193
20
2.6602943077036252
30
0
40
2.2623367806702421
100
AcDbArc
50
11.207287745187774
51
81.889027652768149
0
LINE
5
172
100
AcDbEntity
8
0
100
AcDbLine
10
-3.5414963150855705
20
4.9000001563800604
30
0
11
-1.6414962544484044
21
3.1000000989343244
31
0
0
ARC
5
173
100
AcDbEntity
8
0
100
AcDbCircle
10
0.71108107605420878
20
7.4860540085240093
30
0
40
4.9771567178281382
100
AcDbArc
50
211.30438965695373
51
241.79192574100219
0
ENDSEC
0
SECTION
2
OBJECTS
0
DICTIONARY
5
C
100
AcDbDictionary
3
ACAD_GROUP
350
D
3
ACAD_MLINESTYLE
350
17
0
DICTIONARY
5
D
100
AcDbDictionary
0
DICTIONARY
5
1A
330
C
100
AcDbDictionary
0
DICTIONARY
5
17
100
AcDbDictionary
0
ENDSEC
0
EOF
