0
SECTION
2
HEADER
9
$INSUNITS
70
1
9
$ACADVER
1
AC1014
9
$HANDSEED
5
FFFF
0
ENDSEC
0
SECTION
2
TABLES
0
TABLE
2
VPORT
5
8
100
AcDbSymbolTable
0
ENDTAB
0
TABLE
2
LTYPE
5
5
100
AcDbSymbolTable
0
LTYPE
5
14
100
AcDbSymbolTableRecord
100
AcDbLinetypeTableRecord
2
BYBLOCK
70
0
0
LTYPE
5
15
100
AcDbSymbolTableRecord
100
AcDbLinetypeTableRecord
2
BYLAYER
70
0
0
ENDTAB
0
TABLE
2
LAYER
5
2
100
AcDbSymbolTable
70
2
0
LAYER
5
50
100
AcDbSymbolTableRecord
100
AcDbLayerTableRecord
2
0
70
0
6
CONTINUOUS
0
ENDTAB
0
TABLE
2
STYLE
5
3
100
AcDbSymbolTable
70
1
0
STYLE
5
11
100
AcDbSymbolTableRecord
100
AcDbTextStyleTableRecord
2
STANDARD
70
0
0
ENDTAB
0
TABLE
2
VIEW
5
6
100
AcDbSymbolTable
70
0
0
ENDTAB
0
TABLE
2
UCS
5
7
100
AcDbSymbolTable
70
0
0
ENDTAB
0
TABLE
2
APPID
5
9
100
AcDbSymbolTable
70
2
0
APPID
5
12
100
AcDbSymbolTableRecord
100
AcDbRegAppTableRecord
2
ACAD
70
0
0
ENDTAB
0
TABLE
2
DIMSTYLE
5
A
100
AcDbSymbolTable
70
1
0
ENDTAB
0
TABLE
2
BLOCK_RECORD
5
1
100
AcDbSymbolTable
70
1
0
BLOCK_RECORD
5
1F
100
AcDbSymbolTableRecord
100
AcDbBlockTableRecord
2
*MODEL_SPACE
0
BLOCK_RECORD
5
1B
100
AcDbSymbolTableRecord
100
AcDbBlockTableRecord
2
*PAPER_SPACE
0
ENDTAB
0
ENDSEC
0
SECTION
2
BLOCKS
0
BLOCK
5
20
100
AcDbEntity
100
AcDbBlockBegin
2
*MODEL_SPACE
0
ENDBLK
5
21
100
AcDbEntity
100
AcDbBlockEnd
0
BLOCK
5
1C
100
AcDbEntity
100
AcDbBlockBegin
2
*PAPER_SPACE
0
ENDBLK
5
1D
100
AcDbEntity
100
AcDbBlockEnd
0
ENDSEC
0
SECTION
2
ENTITIES
0
LINE
5
100
100
AcDbEntity
8
0
100
AcDbLine
10
-8.0176925922542566
20
-25.247712657923373
30
0
11
-8.0176925922542566
21
-25.535237823368842
31
5.8232842412968386e-32
0
LINE
5
101
100
AcDbEntity
8
0
100
AcDbLine
10
-8.0176925922542566
20
-25.535237823368842
30
5.8232842412968386e-32
11
-6.8426925507656629
21
-25.535237823368842
31
-5.3391089945425765e-32
0
SPLINE
5
102
100
AcDbEntity
8
0
100
AcDbSpline
70
1064
71
5
72
16
73
10
74
0
42
0.000000001
43
0.0000000001
44
0.0000000001
40
-1
40
-1
40
-1
40
-1
40
-1
40
-1
40
-0.98000000000000054
40
-0.96000000000000052
40
-0.9400000000000005
40
-0.92000000000000048
40
-0.91811807344935958
40
-0.91811807344935958
40
-0.91811807344935958
40
-0.91811807344935958
40
-0.91811807344935958
40
-0.91811807344935958
10
-6.8426925507656629
20
-25.535237823368838
30
0
10
-6.866579422129595
20
-25.502563762431343
30
-2.1854783949314103e-17
10
-6.91725617500152
20
-25.438071527968134
30
0
10
-7.001980309332799
20
-25.343900821714616
30
0
10
-7.132375398188759
20
-25.223478661469994
30
-2.1854783949314103e-17
10
-7.2895224582994356
20
-25.107231252409015
30
0
10
-7.4219004453653969
20
-25.02345014896088
30
-2.1854783949314103e-17
10
-7.5175686686034089
20
-24.968592114755715
30
0
10
-7.5691779451160519
20
-24.940430262377131
30
0
10
-7.5736285378588954
20
-24.938011932166955
30
2.1854783949314103e-17
0
SPLINE
5
103
100
AcDbEntity
8
0
100
AcDbSpline
70
1064
71
5
72
13
73
7
74
0
42
0.000000001
43
0.0000000001
44
0.0000000001
40
-0.91811807344652596
40
-0.91811807344652596
40
-0.91811807344652596
40
-0.91811807344652596
40
-0.91811807344652596
40
-0.91811807344652596
40
-0.90000000000000047
40
-0.89335672242179287
40
-0.89335672242179287
40
-0.89335672242179287
40
-0.89335672242179287
40
-0.89335672242179287
40
-0.89335672242179287
10
-7.573628537892402
20
-24.938011932148751
30
2.1854783949314103e-17
10
-7.6164762070372287
20
-24.914729682184991
30
-2.1854783949314103e-17
10
-7.6765552520614255
20
-24.883378449451797
30
0
10
-7.7386773099391339
20
-24.852662149021302
30
2.1854783949314103e-17
10
-7.8027829581446104
20
-24.822573210892315
30
2.1854783949314103e-17
10
-7.8687925764386355
20
-24.793100862272922
30
-2.1854783949314103e-17
10
-7.8866378511484205
20
-24.785237823373663
30
-2.1854783949314103e-17
0
SPLINE
5
104
100
AcDbEntity
8
0
100
AcDbSpline
70
1064
71
5
72
15
73
9
74
0
42
0.000000001
43
0.0000000001
44
0.0000000001
40
-0.90710871113416613
40
-0.90710871113416613
40
-0.90710871113416613
40
-0.90710871113416613
40
-0.90710871113416613
40
-0.90710871113416613
40
-0.90000000000000047
40
-0.88000000000000045
40
-0.86000000000000043
40
-0.85139619853316129
40
-0.85139619853316129
40
-0.85139619853316129
40
-0.85139619853316129
40
-0.85139619853316129
40
-0.85139619853316129
10
-7.8866378511495547
20
-24.785237823373297
30
-2.1854783949314103e-17
10
-7.9107177662009684
20
-24.774472443471328
30
0
10
-8.003620747402584
20
-24.733566609082352
30
0
10
-8.1720990169453618
20
-24.663494924973538
30
0
10
-8.3850193921091858
20
-24.583015725247538
30
0
10
-8.6119926152875621
20
-24.506183359407537
30
2.1854783949314103e-17
10
-8.8183608802693971
20
-24.442820355755529
30
0
10
-8.9421005868322396
20
-24.407029212675454
30
0
10
-8.9795103441230086
20
-24.396405657467479
30
-2.1854783949314103e-17
0
SPLINE
5
105
100
AcDbEntity
8
0
100
AcDbSpline
70
1064
71
5
72
15
73
9
74
0
42
0.000000001
43
0.0000000001
44
0.0000000001
40
-0.85139619853316129
40
-0.85139619853316129
40
-0.85139619853316129
40
-0.85139619853316129
40
-0.85139619853316129
40
-0.85139619853316129
40
-0.84000000000000041
40
-0.8200000000000004
40
-0.80000000000000038
40
-0.79447446841235247
40
-0.79447446841235247
40
-0.79447446841235247
40
-0.79447446841235247
40
-0.79447446841235247
40
-0.79447446841235247
10
-8.9795103441226409
20
-24.396405657465937
30
-2.1854783949314103e-17
10
-9.0290615829333145
20
-24.382334186297676
30
0
10
-9.1664912723278178
20
-24.344254727564277
30
2.1854783949314103e-17
10
-9.3951023294146303
20
-24.285205711992479
30
0
10
-9.652197684154201
20
-24.226777027679951
30
2.1854783949314103e-17
10
-9.9079851043324734
20
-24.178124206662215
30
0
10
-10.108387104028772
20
-24.146571348366059
30
0
10
-10.21887001042797
20
-24.131360723813017
30
0
10
-10.242692565400874
20
-24.128185928648865
30
0
0
SPLINE
5
106
100
AcDbEntity
8
0
100
AcDbSpline
70
1064
71
5
72
18
73
12
74
0
42
0.000000001
43
0.0000000001
44
0.0000000001
40
-0.74648315234533436
40
-0.74648315234533436
40
-0.74648315234533436
40
-0.74648315234533436
40
-0.74648315234533436
40
-0.74648315234533436
40
-0.74000000000000032
40
-0.72000000000000031
40
-0.70000000000000029
40
-0.68000000000000027
40
-0.66000000000000025
40
-0.64000000000000024
40
-0.63224674356803756
40
-0.63224674356803756
40
-0.63224674356803756
40
-0.63224674356803756
40
-0.63224674356803756
40
-0.63224674356803756
10
-10.242692565404061
20
-24.128185928648577
30
0
10
-10.263766227494209
20
-24.124738451003548
30
-2.1854783949314103e-17
10
-10.349557695935028
20
-24.110988318826006
30
2.1854783949314103e-17
10
-10.497934614066796
20
-24.089310123406058
30
-2.1854783949314103e-17
10
-10.703545127364553
20
-24.065239478964092
30
0
10
-10.955292645067003
20
-24.049754126918387
30
0
10
-11.219350184230008
20
-24.058503728578614
30
0
10
-11.424217951269171
20
-24.091907382023045
30
0
10
-11.564136493193438
20
-24.133952975555573
30
0
10
-11.654066777990703
20
-24.170343833954195
30
0
10
-11.703593970893641
20
-24.193295506814508
30
0
10
-11.717221289189464
20
-24.199836381125422
30
-2.1854783949314103e-17
0
SPLINE
5
107
100
AcDbEntity
8
0
100
AcDbSpline
70
1064
71
5
72
13
73
7
74
0
42
0.000000001
43
0.0000000001
44
0.0000000001
40
-0.70678749367385441
40
-0.70678749367385441
40
-0.70678749367385441
40
-0.70678749367385441
40
-0.70678749367385441
40
-0.70678749367385441
40
-0.70000000000000029
40
-0.68831566519963172
40
-0.68831566519963172
40
-0.68831566519963172
40
-0.68831566519963172
40
-0.68831566519963172
40
-0.68831566519963172
10
-11.717221289189457
20
-24.199836381125444
30
-2.1854783949314103e-17
10
-11.731948616338649
20
-24.205566540046192
30
-2.1854783949314103e-17
10
-11.771157107499031
20
-24.221499906966727
30
0
10
-11.808032637529735
20
-24.238297367969
30
-2.1854783949314103e-17
10
-11.842700586807252
20
-24.25578527382001
30
0
10
-11.875352193256095
20
-24.273746993115036
30
-2.1854783949314103e-17
10
-11.895257023949824
20
-24.285237823394016
30
0
0
SPLINE
5
108
100
AcDbEntity
8
0
100
AcDbSpline
70
1064
71
5
72
15
73
9
74
0
42
0.000000001
43
0.0000000001
44
0.0000000001
40
-0.68831566519963172
40
-0.68831566519963172
40
-0.68831566519963172
40
-0.68831566519963172
40
-0.68831566519963172
40
-0.68831566519963172
40
-0.68000000000000027
40
-0.66000000000000025
40
-0.64000000000000024
40
-0.63908219365281804
40
-0.63908219365281804
40
-0.63908219365281804
40
-0.63908219365281804
40
-0.63908219365281804
40
-0.63908219365281804
10
-11.895257023949897
20
-24.285237823393889
30
0
10
-11.909423162693129
20
-24.293415772682259
30
2.1854783949314103e-17
10
-11.956368624241763
20
-24.321485272652009
30
0
10
-12.02938071751117
20
-24.370244363330784
30
0
10
-12.094176541983249
20
-24.41871200883735
30
0
10
-12.155477943056345
20
-24.460380542875505
30
2.1854783949314103e-17
10
-12.207663835990257
20
-24.487642756759115
30
0
10
-12.235084031579786
20
-24.499402571609522
30
0
10
-12.236288605426289
20
-24.499914342605926
30
0
0
SPLINE
5
109
100
AcDbEntity
8
0
100
AcDbSpline
70
1064
71
5
72
15
73
9
74
0
42
0.000000001
43
0.0000000001
44
0.0000000001
40
-0.55913553232052937
40
-0.55913553232052937
40
-0.55913553232052937
40
-0.55913553232052937
40
-0.55913553232052937
40
-0.55913553232052937
40
-0.54000000000000015
40
-0.52000000000000013
40
-0.50000000000000011
40
-0.49183599347025742
40
-0.49183599347025742
40
-0.49183599347025742
40
-0.49183599347025742
40
-0.49183599347025742
40
-0.49183599347025742
10
-12.236288605426569
20
-24.49991434260598
30
0
10
-12.260928667235106
20
-24.508774625619289
30
0
10
-12.311759901324574
20
-24.523736325988022
30
0
10
-12.390781699833735
20
-24.536134094570571
30
2.1854783949314103e-17
10
-12.487295959738539
20
-24.532802712697816
30
0
10
-12.594599869594937
20
-24.514374888295343
30
-2.1854783949314103e-17
10
-12.677448479902152
20
-24.496698052267892
30
2.1854783949314103e-17
10
-12.727901513552972
20
-24.485561882118013
30
0
10
-12.742692527847087
20
-24.48228484630117
30
0
0
SPLINE
5
110
100
AcDbEntity
8
0
100
AcDbSpline
70
1064
71
5
72
15
73
9
74
0
42
0.000000001
43
0.0000000001
44
0.0000000001
40
-0.57982659931714597
40
-0.57982659931714597
40
-0.57982659931714597
40
-0.57982659931714597
40
-0.57982659931714597
40
-0.57982659931714597
40
-0.56000000000000016
40
-0.54000000000000015
40
-0.52000000000000013
40
-0.51804556710228056
40
-0.51804556710228056
40
-0.51804556710228056
40
-0.51804556710228056
40
-0.51804556710228056
40
-0.51804556710228056
10
-12.742692527847062
20
-24.482284846301059
30
0
10
-12.785334213475725
20
-24.471852373951382
30
0
10
-12.873329647721503
20
-24.449784657142356
30
0
10
-13.01125044256219
20
-24.415983394705862
30
0
10
-13.157489865293639
20
-24.389108382228013
30
2.1854783949314103e-17
10
-13.299300857959404
20
-24.382481998679832
30
0
10
-13.391546740443323
20
-24.389205342427367
30
2.1854783949314103e-17
10
-13.438546507743776
20
-24.395794735573777
30
0
10
-13.442720347647144
20
-24.396405658551313
30
0
0
SPLINE
5
111
100
AcDbEntity
8
0
100
AcDbSpline
70
1064
71
5
72
13
73
7
74
0
42
0.000000001
43
0.0000000001
44
0.0000000001
40
-0.51804556710228056
40
-0.51804556710228056
40
-0.51804556710228056
40
-0.51804556710228056
40
-0.51804556710228056
40
-0.51804556710228056
40
-0.50000000000000011
40
-0.49440441346521086
40
-0.49440441346521086
40
-0.49440441346521086
40
-0.49440441346521086
40
-0.49440441346521086
40
-0.49440441346521086
10
-13.442720347647217
20
-24.396405658550815
30
0
10
-13.481258026857544
20
-24.402046400475655
30
0
10
-13.530608000165882
20
-24.412152471473966
30
0
10
-13.578324607039569
20
-24.425792605757227
30
0
10
-13.624347940424716
20
-24.442664437029823
30
0
10
-13.668749259177572
20
-24.462222504816332
30
0
10
-13.679168976252612
20
-24.466994302304528
30
2.1854783949314103e-17
0
SPLINE
5
112
100
AcDbEntity
8
0
100
AcDbSpline
70
1064
71
5
72
17
73
11
74
0
42
0.000000001
43
0.0000000001
44
0.0000000001
40
-0.40069204940316144
40
-0.40069204940316144
40
-0.40069204940316144
40
-0.40069204940316144
40
-0.40069204940316144
40
-0.40069204940316144
40
-0.40000000000000008
40
-0.38000000000000006
40
-0.36000000000000004
40
-0.34000000000000002
40
-0.32000000000000001
40
-0.31335102215611371
40
-0.31335102215611371
40
-0.31335102215611371
40
-0.31335102215611371
40
-0.31335102215611371
40
-0.31335102215611371
10
-13.679168976252617
20
-24.466994302304514
30
2.1854783949314103e-17
10
-13.680576250132685
20
-24.4674568791559
30
2.1854783949314103e-17
10
-13.722632723343832
20
-24.481347129220968
30
0
10
-13.804125754192992
20
-24.51214119094476
30
0
10
-13.921696877413519
20
-24.567207045943722
30
0
10
-14.06948888985826
20
-24.651637386168662
30
0
10
-14.218007390627601
20
-24.738054643994015
30
0
10
-14.328549085046994
20
-24.788668559186629
30
-2.1854783949314103e-17
10
-14.405627668240605
20
-24.812417028555398
30
0
10
-14.44988367875132
20
-24.821770712743248
30
2.1854783949314103e-17
10
-14.460944621390452
20
-24.823837205305676
30
0
0
SPLINE
5
113
100
AcDbEntity
8
0
100
AcDbSpline
70
1064
71
5
72
15
73
9
74
0
42
0.000000001
43
0.0000000001
44
0.0000000001
40
-0.39881629713557099
40
-0.39881629713557099
40
-0.39881629713557099
40
-0.39881629713557099
40
-0.39881629713557099
40
-0.39881629713557099
40
-0.38000000000000006
40
-0.36000000000000004
40
-0.34000000000000002
40
-0.33868479038987132
40
-0.33868479038987132
40
-0.33868479038987132
40
-0.33868479038987132
40
-0.33868479038987132
40
-0.33868479038987132
10
-14.460944621390452
20
-24.823837205305683
30
0
10
-14.494483429266182
20
-24.821441328336558
30
0
10
-14.565418719393064
20
-24.812085638848242
30
0
10
-14.678759997271619
20
-24.784795568745924
30
0
10
-14.804422137307441
20
-24.740013977059125
30
2.1854783949314103e-17
10
-14.939123837068871
20
-24.685603536375496
30
0
10
-15.034832651547015
20
-24.646246648639789
30
0
10
-15.084830854876961
20
-24.625720199057749
30
0
10
-15.087918196971215
20
-24.624452885191317
30
2.1854783949314103e-17
0
SPLINE
5
114
100
AcDbEntity
8
0
100
AcDbSpline
70
1064
71
5
72
13
73
7
74
0
42
0.000000001
43
0.0000000001
44
0.0000000001
40
-0.33868479038987132
40
-0.33868479038987132
40
-0.33868479038987132
40
-0.33868479038987132
40
-0.33868479038987132
40
-0.33868479038987132
40
-0.32000000000000001
40
-0.30841705502710304
40
-0.30841705502710304
40
-0.30841705502710304
40
-0.30841705502710304
40
-0.30841705502710304
40
-0.30841705502710304
10
-15.087918196971245
20
-24.624452885191396
30
2.1854783949314103e-17
10
-15.131779144647346
20
-24.606448535337119
30
0
10
-15.203585133756969
20
-24.577030319397
30
0
10
-15.276218155407797
20
-24.547733615456711
30
-2.1854783949314103e-17
10
-15.348874059378705
20
-24.519292885853968
30
-2.1854783949314103e-17
10
-15.420659091715168
20
-24.492230622587194
30
0
10
-15.447952904156546
20
-24.482101065800094
30
0
0
SPLINE
5
115
100
AcDbEntity
8
0
100
AcDbSpline
70
1064
71
5
72
16
73
10
74
0
42
0.000000001
43
0.0000000001
44
0.0000000001
40
-0.21714596232826597
40
-0.21714596232826597
40
-0.21714596232826597
40
-0.21714596232826597
40
-0.21714596232826597
40
-0.21714596232826597
40
-0.19999999999999998
40
-0.17999999999999999
40
-0.16
40
-0.14000000000000001
40
-0.12912407209009347
40
-0.12912407209009347
40
-0.12912407209009347
40
-0.12912407209009347
40
-0.12912407209009347
40
-0.12912407209009347
10
-15.44795290415677
20
-24.482101065799956
30
0
10
-15.493799210220251
20
-24.459972879320446
30
0
10
-15.595516292630123
20
-24.412011688958437
30
2.1854783949314103e-17
10
-15.759791776624544
20
-24.339216645436082
30
0
10
-15.996144373752601
20
-24.247197924688972
30
0
10
-16.281216517172773
20
-24.158922984688964
30
-2.1854783949314103e-17
10
-16.51485337374158
20
-24.103824113216969
30
0
10
-16.681056783326767
20
-24.073414731364295
30
2.1854783949314103e-17
10
-16.780553138336412
20
-24.058444479023031
30
0
10
-16.815395079632559
20
-24.053607734515083
30
0
0
SPLINE
5
116
100
AcDbEntity
8
0
100
AcDbSpline
70
1064
71
5
72
12
73
6
74
0
42
0.000000001
43
0.0000000001
44
0.0000000001
40
-0.12912407209009347
40
-0.12912407209009347
40
-0.12912407209009347
40
-0.12912407209009347
40
-0.12912407209009347
40
-0.12912407209009347
40
-0.12124472374622068
40
-0.12124472374622068
40
-0.12124472374622068
40
-0.12124472374622068
40
-0.12124472374622068
40
-0.12124472374622068
10
-16.815395079632559
20
-24.053607734515083
30
0
10
-16.840637228598901
20
-24.050103629380867
30
0
10
-16.865771638186029
20
-24.046828612159167
30
0
10
-16.890784905378112
20
-24.043784236198142
30
0
10
-16.915663741506002
20
-24.04097176096332
30
0
10
-16.940395079631212
20
-24.03839220002104
30
-2.1854783949314103e-17
0
SPLINE
5
117
100
AcDbEntity
8
0
100
AcDbSpline
70
1064
71
5
72
13
73
7
74
0
42
0.000000001
43
0.0000000001
44
0.0000000001
40
-0.12124472374622068
40
-0.12124472374622068
40
-0.12124472374622068
40
-0.12124472374622068
40
-0.12124472374622068
40
-0.12124472374622068
40
-0.12000000000000001
40
-0.11922401090390704
40
-0.11922401090390704
40
-0.11922401090390704
40
-0.11922401090390704
40
-0.11922401090390704
40
-0.11922401090390704
10
-16.940395079631212
20
-24.03839220002104
30
-2.1854783949314103e-17
10
-16.944301961583477
20
-24.037984699220267
30
-2.1854783949314103e-17
10
-16.950638506989431
20
-24.037332589263801
30
0
10
-16.956965215670632
20
-24.036695808637983
30
-2.1854783949314103e-17
10
-16.963281867815276
20
-24.036074373783638
30
-2.1854783949314103e-17
10
-16.969588244644083
20
-24.035468300110665
30
0
10
-16.972008476053432
20
-24.035237823368849
30
2.1854783949314103e-17
0
LINE
5
118
100
AcDbEntity
8
0
100
AcDbLine
10
-16.972008476053432
20
-24.035237823368853
30
2.1854783949314109e-17
11
-17.528245354936011
21
-24.035237823368849
31
2.1854783949314119e-17
0
SPLINE
5
119
100
AcDbEntity
8
0
100
AcDbSpline
70
1064
71
5
72
16
73
10
74
0
42
0.000000001
43
0.0000000001
44
0.0000000001
40
-0.080122919260114611
40
-0.080122919260114611
40
-0.080122919260114611
40
-0.080122919260114611
40
-0.080122919260114611
40
-0.080122919260114611
40
-0.080000000000000002
40
-0.059999999999999998
40
-0.040000000000000001
40
-0.02
40
0
40
0
40
0
40
0
40
0
40
0
10
-17.528245354936008
20
-24.035237823368849
30
2.1854783949314103e-17
10
-17.528553044266388
20
-24.035274405472649
30
2.1854783949314103e-17
10
-17.578911691608834
20
-24.041272593764141
30
0
10
-17.675177469044048
20
-24.056297165685063
30
0
10
-17.806275234000907
20
-24.087946497669108
30
0
10
-17.952437160553483
20
-24.148290815395669
30
2.1854783949314103e-17
10
-18.058247483518805
20
-24.232566968119798
30
0
10
-18.114651170027575
20
-24.309249347716538
30
2.1854783949314103e-17
10
-18.142058440470109
20
-24.366356037506431
30
0
10
-18.153213280450057
20
-24.396405658542101
30
0
0
LINE
5
120
100
AcDbEntity
8
0
100
AcDbLine
10
-18.153213280450061
20
-24.396405658542104
30
1.3987267847864179e-32
11
-18.153213280450057
21
-25.535237823368849
31
2.3293136965187354e-31
0
LINE
5
121
100
AcDbEntity
8
0
100
AcDbLine
10
-18.153213280450057
20
-25.535237823368849
30
2.3293136965187354e-31
11
-17.653245354935994
21
-25.535237823368842
31
3.1789215399580425e-32
0
LINE
5
122
100
AcDbEntity
8
0
100
AcDbLine
10
-17.653245354935994
20
-25.535237823368842
30
3.1789215399580425e-32
11
-17.65324535493599
21
-24.910237823381429
31
3.8821894941978924e-32
0
LINE
5
123
100
AcDbEntity
8
0
100
AcDbLine
10
-17.65324535493599
20
-24.910237823381429
30
3.8821894941978924e-32
11
-17.52824535493599
21
-24.910237823381433
31
7.9490589661789241e-33
0
LINE
5
124
100
AcDbEntity
8
0
100
AcDbLine
10
-17.52824535493599
20
-24.910237823381433
30
7.9490589661789241e-33
11
-17.528245354935994
21
-25.535237823368849
31
-3.8821894941978924e-32
0
LINE
5
125
100
AcDbEntity
8
0
100
AcDbLine
10
-17.528245354935994
20
-25.535237823368849
30
-3.8821894941978924e-32
11
-16.940395079631209
21
-25.535237823368842
31
-2.6618881236476425e-32
0
LINE
5
126
100
AcDbEntity
8
0
100
AcDbLine
10
-16.940395079631209
20
-25.535237823368842
30
-2.6618881236476425e-32
11
-16.940395079631212
21
-24.785237823368846
31
-2.1854783949313869e-17
0
LINE
5
127
100
AcDbEntity
8
0
100
AcDbLine
10
-16.940395079631212
20
-24.785237823368846
30
-2.1854783949313869e-17
11
-16.815395079631209
21
-24.785237823368849
31
-2.1854783949314097e-17
0
LINE
5
128
100
AcDbEntity
8
0
100
AcDbLine
10
-16.815395079631209
20
-24.785237823368849
30
-2.1854783949314097e-17
11
-16.815395079631209
21
-25.535237823368849
31
-2.1854783949314337e-17
0
LINE
5
129
100
AcDbEntity
8
0
100
AcDbLine
10
-16.815395079631209
20
-25.535237823368849
30
-2.1854783949314337e-17
11
-16.242692475297762
21
-25.535237823368842
31
-2.1854783949314131e-17
0
LINE
5
130
100
AcDbEntity
8
0
100
AcDbLine
10
-16.242692475297762
20
-25.535237823368842
30
-2.1854783949314131e-17
11
-16.242692475297762
21
-24.910237823381429
31
-2.1854783949314063e-17
0
LINE
5
131
100
AcDbEntity
8
0
100
AcDbLine
10
-16.242692475297762
20
-24.910237823381429
30
-2.1854783949314063e-17
11
-16.117692475297762
21
-24.910237823381433
31
-2.1854783949314097e-17
0
LINE
5
132
100
AcDbEntity
8
0
100
AcDbLine
10
-16.117692475297762
20
-24.910237823381433
30
-2.1854783949314097e-17
11
-16.117692475297762
21
-25.535237823368849
31
-2.1854783949314143e-17
0
LINE
5
133
100
AcDbEntity
8
0
100
AcDbLine
10
-16.117692475297762
20
-25.535237823368849
30
-2.1854783949314143e-17
11
-15.242692490316253
21
-25.535237823368842
31
-2.1854783949314066e-17
0
LINE
5
134
100
AcDbEntity
8
0
100
AcDbLine
10
-15.242692490316253
20
-25.535237823368842
30
-2.1854783949314066e-17
11
-15.242692490316253
21
-25.285237823368846
31
-2.1854783949314122e-17
0
LINE
5
135
100
AcDbEntity
8
0
100
AcDbLine
10
-15.242692490316253
20
-25.285237823368846
30
-2.1854783949314122e-17
11
-15.117692490316253
21
-25.285237823368846
31
7.9490589661789241e-33
0
LINE
5
136
100
AcDbEntity
8
0
100
AcDbLine
10
-15.117692490316253
20
-25.285237823368846
30
7.9490589661789241e-33
11
-15.117692490316253
21
-25.535237823368842
31
1.9410947470989462e-32
0
LINE
5
137
100
AcDbEntity
8
0
100
AcDbLine
10
-15.117692490316253
20
-25.535237823368842
30
1.9410947470989462e-32
11
-14.242692505334745
21
-25.535237823368842
31
-2.1854783949314066e-17
0
LINE
5
138
100
AcDbEntity
8
0
100
AcDbLine
10
-14.242692505334745
20
-25.535237823368842
30
-2.1854783949314066e-17
11
-14.242692505334745
21
-25.285237823368842
31
-2.1854783949314085e-17
0
LINE
5
139
100
AcDbEntity
8
0
100
AcDbLine
10
-14.242692505334745
20
-25.285237823368842
30
-2.1854783949314085e-17
11
-14.117692505334743
21
-25.285237823368842
31
7.9490589661789241e-33
0
LINE
5
140
100
AcDbEntity
8
0
100
AcDbLine
10
-14.117692505334743
20
-25.285237823368842
30
7.9490589661789241e-33
11
-14.117692505334743
21
-25.535237823368842
31
-1.9410947470989462e-32
0
LINE
5
141
100
AcDbEntity
8
0
100
AcDbLine
10
-14.117692505334743
20
-25.535237823368842
30
-1.9410947470989462e-32
11
-13.242692520353234
21
-25.535237823368842
31
-2.1854783949314066e-17
0
LINE
5
142
100
AcDbEntity
8
0
100
AcDbLine
10
-13.242692520353234
20
-25.535237823368842
30
-2.1854783949314066e-17
11
-13.242692520353234
21
-25.035237823368846
31
0
0
LINE
5
143
100
AcDbEntity
8
0
100
AcDbLine
10
-13.242692520353234
20
-25.035237823368846
30
0
11
-13.117692520353234
21
-25.035237823368849
31
7.9490589661789241e-33
0
LINE
5
144
100
AcDbEntity
8
0
100
AcDbLine
10
-13.117692520353234
20
-25.035237823368849
30
7.9490589661789241e-33
11
-13.117692520353234
21
-25.535237823368842
31
0
0
LINE
5
145
100
AcDbEntity
8
0
100
AcDbLine
10
-13.117692520353234
20
-25.535237823368842
30
0
11
-12.742692527862481
21
-25.535237823368842
31
4.4362277839221683e-33
0
LINE
5
146
100
AcDbEntity
8
0
100
AcDbLine
10
-12.742692527862481
20
-25.535237823368842
30
4.4362277839221683e-33
11
-12.742692527862481
21
-25.117277939279319
31
7.7643789883957848e-32
0
LINE
5
147
100
AcDbEntity
8
0
100
AcDbLine
10
-12.742692527862481
20
-25.117277939279319
30
7.7643789883957848e-32
11
-12.617692527862481
21
-25.117277939279319
31
7.9490589661789241e-33
0
LINE
5
148
100
AcDbEntity
8
0
100
AcDbLine
10
-12.617692527862481
20
-25.117277939279319
30
7.9490589661789241e-33
11
-12.617692527862481
21
-25.535237823368842
31
-7.7643789883957848e-32
0
LINE
5
149
100
AcDbEntity
8
0
100
AcDbLine
10
-12.617692527862481
20
-25.535237823368842
30
-7.7643789883957848e-32
11
-11.950094975555643
21
-25.535237823368842
31
-9.1637931394938397e-33
0
LINE
5
150
100
AcDbEntity
8
0
100
AcDbLine
10
-11.950094975555643
20
-25.535237823368842
30
-9.1637931394938397e-33
11
-11.950094975555642
21
-25.035237823369048
31
-2.185478394931418e-17
0
LINE
5
151
100
AcDbEntity
8
0
100
AcDbLine
10
-11.950094975555642
20
-25.035237823369048
30
-2.185478394931418e-17
11
-11.82509497555564
21
-25.035237823369048
31
7.9490589661789241e-33
0
LINE
5
152
100
AcDbEntity
8
0
100
AcDbLine
10
-11.82509497555564
20
-25.035237823369048
30
7.9490589661789241e-33
11
-11.82509497555564
21
-25.535237823368842
31
7.7643789883957848e-32
0
LINE
5
153
100
AcDbEntity
8
0
100
AcDbLine
10
-11.82509497555564
20
-25.535237823368842
30
7.7643789883957848e-32
11
-11.1104738106295
21
-25.535237823368842
31
-2.1854783949314103e-17
0
LINE
5
154
100
AcDbEntity
8
0
100
AcDbLine
10
-11.1104738106295
20
-25.535237823368842
30
-2.1854783949314103e-17
11
-11.110473810629498
21
-25.017576082987386
31
-2.1854783949314026e-17
0
LINE
5
155
100
AcDbEntity
8
0
100
AcDbLine
10
-11.110473810629498
20
-25.017576082987386
30
-2.1854783949314026e-17
11
-10.9854738106295
21
-25.017576082987386
31
7.9490589661783165e-33
0
LINE
5
156
100
AcDbEntity
8
0
100
AcDbLine
10
-10.9854738106295
20
-25.017576082987386
30
7.9490589661783165e-33
11
-10.9854738106295
21
-25.535237823368842
31
-7.7643789883957848e-32
0
LINE
5
157
100
AcDbEntity
8
0
100
AcDbLine
10
-10.9854738106295
20
-25.535237823368842
30
-7.7643789883957848e-32
11
-10.242692565408706
21
-25.535237823368842
31
-2.1854783949314097e-17
0
LINE
5
158
100
AcDbEntity
8
0
100
AcDbLine
10
-10.242692565408706
20
-25.535237823368842
30
-2.1854783949314097e-17
11
-10.242692565408705
21
-25.035237823369823
31
-3.8821894941978924e-32
0
LINE
5
159
100
AcDbEntity
8
0
100
AcDbLine
10
-10.242692565408705
20
-25.035237823369823
30
-3.8821894941978924e-32
11
-10.117692565408705
21
-25.035237823369823
31
7.9490589661789241e-33
0
LINE
5
160
100
AcDbEntity
8
0
100
AcDbLine
10
-10.117692565408705
20
-25.035237823369823
30
7.9490589661789241e-33
11
-10.117692565408705
21
-25.535237823368842
31
3.8821894941978924e-32
0
LINE
5
161
100
AcDbEntity
8
0
100
AcDbLine
10
-10.117692565408705
20
-25.535237823368842
30
3.8821894941978924e-32
11
-9.2593261101956461
21
-25.535237823368842
31
3.2591714152711701e-32
0
LINE
5
162
100
AcDbEntity
8
0
100
AcDbLine
10
-9.2593261101956461
20
-25.535237823368842
30
3.2591714152711701e-32
11
-9.2593261101956461
21
-25.285237823381831
31
1.9410947470989462e-32
0
LINE
5
163
100
AcDbEntity
8
0
100
AcDbLine
10
-9.2593261101956461
20
-25.285237823381831
30
1.9410947470989462e-32
11
-9.1343261101956443
21
-25.285237823381831
31
2.1854783949314113e-17
0
LINE
5
164
100
AcDbEntity
8
0
100
AcDbLine
10
-9.1343261101956443
20
-25.285237823381831
30
2.1854783949314113e-17
11
-9.1343261101956443
21
-25.535237823368842
31
2.1854783949314085e-17
0
LINE
5
165
100
AcDbEntity
8
0
100
AcDbLine
10
-9.1343261101956443
20
-25.535237823368842
30
2.1854783949314085e-17
11
-8.1426925922542548
21
-25.535237823368842
31
-9.3526364062326779e-32
0
LINE
5
166
100
AcDbEntity
8
0
100
AcDbLine
10
-8.1426925922542548
20
-25.535237823368842
30
-9.3526364062326779e-32
11
-8.1426925922542566
21
-25.247712657923373
31
-5.8232842412968386e-32
0
LINE
5
167
100
AcDbEntity
8
0
100
AcDbLine
10
-8.1426925922542566
20
-25.247712657923373
30
-5.8232842412968386e-32
11
-8.0176925922542566
21
-25.247712657923373
31
0
0
LINE
5
168
100
AcDbEntity
8
0
100
AcDbLine
10
-7.885473837475045
20
-28.230050917538634
30
0
11
-7.760473837475045
21
-28.230050917538634
31
-4.7974823473859093e-33
0
LINE
5
169
100
AcDbEntity
8
0
100
AcDbLine
10
-7.760473837475045
20
-28.230050917538634
30
-4.7974823473859093e-33
11
-7.7604738374750433
21
-28.517576082984103
31
-3.8821894941978924e-32
0
LINE
5
170
100
AcDbEntity
8
0
100
AcDbLine
10
-7.7604738374750433
20
-28.517576082984103
30
-3.8821894941978924e-32
11
-6.5854737959864504
21
-28.517576082984103
31
1.373665770122104e-31
0
SPLINE
5
171
100
AcDbEntity
8
0
100
AcDbSpline
70
1064
71
5
72
16
73
10
74
0
42
0.000000001
43
0.0000000001
44
0.0000000001
40
-1
40
-1
40
-1
40
-1
40
-1
40
-1
40
-0.98000000000000054
40
-0.96000000000000052
40
-0.9400000000000005
40
-0.92000000000000048
40
-0.91811807344935958
40
-0.91811807344935958
40
-0.91811807344935958
40
-0.91811807344935958
40
-0.91811807344935958
40
-0.91811807344935958
10
-6.5854737959864504
20
-28.517576082984103
30
0
10
-6.6093606673503826
20
-28.484902022046604
30
0
10
-6.6600374202223076
20
-28.420409787583395
30
0
10
-6.7447615545535866
20
-28.326239081329881
30
0
10
-6.8751566434095466
20
-28.205816921085255
30
2.1854783949314103e-17
10
-7.0323037035202232
20
-28.089569512024273
30
0
10
-7.1646816905861845
20
-28.005788408576144
30
2.1854783949314103e-17
10
-7.2603499138241965
20
-27.950930374370973
30
0
10
-7.3119591903368395
20
-27.922768521992392
30
0
10
-7.316409783079683
20
-27.920350191782216
30
0
0
SPLINE
5
172
100
AcDbEntity
8
0
100
AcDbSpline
70
1064
71
5
72
13
73
7
74
0
42
0.000000001
43
0.0000000001
44
0.0000000001
40
-0.91811807344652596
40
-0.91811807344652596
40
-0.91811807344652596
40
-0.91811807344652596
40
-0.91811807344652596
40
-0.91811807344652596
40
-0.90000000000000047
40
-0.89335672242179287
40
-0.89335672242179287
40
-0.89335672242179287
40
-0.89335672242179287
40
-0.89335672242179287
40
-0.89335672242179287
10
-7.3164097831131887
20
-27.920350191764012
30
0
10
-7.3592574522580163
20
-27.897067941800252
30
0
10
-7.4193364972822131
20
-27.865716709067055
30
-2.1854783949314103e-17
10
-7.4814585551599215
20
-27.835000408636564
30
0
10
-7.5455642033653971
20
-27.804911470507573
30
0
10
-7.6115738216594231
20
-27.77543912188818
30
2.1854783949314103e-17
10
-7.6294190963692081
20
-27.767576082988921
30
2.1854783949314103e-17
0
SPLINE
5
173
100
AcDbEntity
8
0
100
AcDbSpline
70
1064
71
5
72
15
73
9
74
0
42
0.000000001
43
0.0000000001
44
0.0000000001
40
-0.90710871113416613
40
-0.90710871113416613
40
-0.90710871113416613
40
-0.90710871113416613
40
-0.90710871113416613
40
-0.90710871113416613
40
-0.90000000000000047
40
-0.88000000000000045
40
-0.86000000000000043
40
-0.85139619853316129
40
-0.85139619853316129
40
-0.85139619853316129
40
-0.85139619853316129
40
-0.85139619853316129
40
-0.85139619853316129
10
-7.6294190963703423
20
-27.767576082988558
30
2.1854783949314103e-17
10
-7.653499011421756
20
-27.75681070308659
30
0
10
-7.7464019926233716
20
-27.71590486869761
30
0
10
-7.9148802621661494
20
-27.645833184588795
30
0
10
-8.1278006373299743
20
-27.565353984862799
30
0
10
-8.3547738605083488
20
-27.488521619022798
30
0
10
-8.5611421254901838
20
-27.42515861537079
30
0
10
-8.6848818320530281
20
-27.389367472290715
30
0
10
-8.7222915893437953
20
-27.378743917082737
30
2.1854783949314103e-17
0
SPLINE
5
174
100
AcDbEntity
8
0
100
AcDbSpline
70
1064
71
5
72
15
73
9
74
0
42
0.000000001
43
0.0000000001
44
0.0000000001
40
-0.85139619853316129
40
-0.85139619853316129
40
-0.85139619853316129
40
-0.85139619853316129
40
-0.85139619853316129
40
-0.85139619853316129
40
-0.84000000000000041
40
-0.8200000000000004
40
-0.80000000000000038
40
-0.79447446841235247
40
-0.79447446841235247
40
-0.79447446841235247
40
-0.79447446841235247
40
-0.79447446841235247
40
-0.79447446841235247
10
-8.7222915893434294
20
-27.378743917081199
30
2.1854783949314103e-17
10
-8.7718428281541012
20
-27.364672445912934
30
0
10
-8.9092725175486063
20
-27.326592987179534
30
0
10
-9.137883574635417
20
-27.26754397160774
30
-2.1854783949314103e-17
10
-9.3949789293749877
20
-27.209115287295209
30
0
10
-9.6507663495532618
20
-27.160462466277476
30
0
10
-9.8511683492495585
20
-27.128909607981313
30
2.1854783949314103e-17
10
-9.9616512556487571
20
-27.113698983428279
30
-2.1854783949314103e-17
10
-9.9854738106216629
20
-27.110524188264126
30
0
0
SPLINE
5
175
100
AcDbEntity
8
0
100
AcDbSpline
70
1064
71
5
72
18
73
12
74
0
42
0.000000001
43
0.0000000001
44
0.0000000001
40
-0.74648315234533436
40
-0.74648315234533436
40
-0.74648315234533436
40
-0.74648315234533436
40
-0.74648315234533436
40
-0.74648315234533436
40
-0.74000000000000032
40
-0.72000000000000031
40
-0.70000000000000029
40
-0.68000000000000027
40
-0.66000000000000025
40
-0.64000000000000024
40
-0.63224674356803756
40
-0.63224674356803756
40
-0.63224674356803756
40
-0.63224674356803756
40
-0.63224674356803756
40
-0.63224674356803756
10
-9.985473810624848
20
-27.110524188263838
30
0
10
-10.006547472714995
20
-27.107076710618809
30
0
10
-10.092338941155814
20
-27.093326578441264
30
0
10
-10.240715859287585
20
-27.071648383021316
30
0
10
-10.446326372585339
20
-27.047577738579353
30
0
10
-10.698073890287789
20
-27.032092386533645
30
-2.1854783949314103e-17
10
-10.962131429450794
20
-27.040841988193872
30
-2.1854783949314103e-17
10
-11.166999196489959
20
-27.074245641638303
30
0
10
-11.306917738414226
20
-27.116291235170831
30
0
10
-11.396848023211492
20
-27.152682093569453
30
0
10
-11.446375216114427
20
-27.175633766429765
30
0
10
-11.460002534410252
20
-27.18217464074068
30
2.1854783949314103e-17
0
SPLINE
5
176
100
AcDbEntity
8
0
100
AcDbSpline
70
1064
71
5
72
13
73
7
74
0
42
0.000000001
43
0.0000000001
44
0.0000000001
40
-0.70678749367385441
40
-0.70678749367385441
40
-0.70678749367385441
40
-0.70678749367385441
40
-0.70678749367385441
40
-0.70678749367385441
40
-0.70000000000000029
40
-0.68831566519963172
40
-0.68831566519963172
40
-0.68831566519963172
40
-0.68831566519963172
40
-0.68831566519963172
40
-0.68831566519963172
10
-11.460002534410243
20
-27.182174640740701
30
2.1854783949314103e-17
10
-11.474729861559435
20
-27.187904799661453
30
0
10
-11.513938352719817
20
-27.203838166581985
30
0
10
-11.550813882750523
20
-27.220635627584258
30
2.1854783949314103e-17
10
-11.585481832028039
20
-27.238123533435271
30
0
10
-11.618133438476882
20
-27.256085252730294
30
2.1854783949314103e-17
10
-11.638038269170613
20
-27.267576083009271
30
0
0
SPLINE
5
177
100
AcDbEntity
8
0
100
AcDbSpline
70
1064
71
5
72
15
73
9
74
0
42
0.000000001
43
0.0000000001
44
0.0000000001
40
-0.68831566519963172
40
-0.68831566519963172
40
-0.68831566519963172
40
-0.68831566519963172
40
-0.68831566519963172
40
-0.68831566519963172
40
-0.68000000000000027
40
-0.66000000000000025
40
-0.64000000000000024
40
-0.63908219365281804
40
-0.63908219365281804
40
-0.63908219365281804
40
-0.63908219365281804
40
-0.63908219365281804
40
-0.63908219365281804
10
-11.638038269170686
20
-27.267576083009146
30
0
10
-11.652204407913915
20
-27.275754032297517
30
0
10
-11.699149869462552
20
-27.303823532267266
30
-2.1854783949314103e-17
10
-11.772161962731957
20
-27.352582622946041
30
0
10
-11.836957787204035
20
-27.401050268452607
30
0
10
-11.898259188277132
20
-27.442718802490763
30
0
10
-11.950445081211043
20
-27.469981016374376
30
0
10
-11.977865276800573
20
-27.481740831224776
30
0
10
-11.979069850647075
20
-27.482252602221184
30
0
0
SPLINE
5
178
100
AcDbEntity
8
0
100
AcDbSpline
70
1064
71
5
72
15
73
9
74
0
42
0.000000001
43
0.0000000001
44
0.0000000001
40
-0.55913553232052937
40
-0.55913553232052937
40
-0.55913553232052937
40
-0.55913553232052937
40
-0.55913553232052937
40
-0.55913553232052937
40
-0.54000000000000015
40
-0.52000000000000013
40
-0.50000000000000011
40
-0.49183599347025742
40
-0.49183599347025742
40
-0.49183599347025742
40
-0.49183599347025742
40
-0.49183599347025742
40
-0.49183599347025742
10
-11.979069850647356
20
-27.482252602221237
30
0
10
-12.003709912455893
20
-27.491112885234546
30
0
10
-12.054541146545361
20
-27.50607458560328
30
-2.1854783949314103e-17
10
-12.133562945054521
20
-27.518472354185832
30
0
10
-12.230077204959327
20
-27.515140972313077
30
0
10
-12.337381114815726
20
-27.496713147910601
30
2.1854783949314103e-17
10
-12.420229725122939
20
-27.479036311883149
30
0
10
-12.470682758773759
20
-27.467900141733267
30
0
10
-12.485473773067874
20
-27.464623105916427
30
-2.1854783949314103e-17
0
SPLINE
5
179
100
AcDbEntity
8
0
100
AcDbSpline
70
1064
71
5
72
15
73
9
74
0
42
0.000000001
43
0.0000000001
44
0.0000000001
40
-0.57982659931714597
40
-0.57982659931714597
40
-0.57982659931714597
40
-0.57982659931714597
40
-0.57982659931714597
40
-0.57982659931714597
40
-0.56000000000000016
40
-0.54000000000000015
40
-0.52000000000000013
40
-0.51804556710228056
40
-0.51804556710228056
40
-0.51804556710228056
40
-0.51804556710228056
40
-0.51804556710228056
40
-0.51804556710228056
10
-12.485473773067849
20
-27.464623105916321
30
-2.1854783949314103e-17
10
-12.52811545869651
20
-27.454190633566643
30
0
10
-12.61611089294229
20
-27.432122916757613
30
0
10
-12.754031687782978
20
-27.398321654321123
30
0
10
-12.900271110514426
20
-27.371446641843271
30
0
10
-13.04208210318019
20
-27.364820258295094
30
0
10
-13.134327985664109
20
-27.371543602042625
30
0
10
-13.181327752964563
20
-27.378132995189038
30
0
10
-13.185501592867931
20
-27.378743918166574
30
0
0
SPLINE
5
180
100
AcDbEntity
8
0
100
AcDbSpline
70
1064
71
5
72
13
73
7
74
0
42
0.000000001
43
0.0000000001
44
0.0000000001
40
-0.51804556710228056
40
-0.51804556710228056
40
-0.51804556710228056
40
-0.51804556710228056
40
-0.51804556710228056
40
-0.51804556710228056
40
-0.50000000000000011
40
-0.49440441346521086
40
-0.49440441346521086
40
-0.49440441346521086
40
-0.49440441346521086
40
-0.49440441346521086
40
-0.49440441346521086
10
-13.185501592868004
20
-27.378743918166069
30
0
10
-13.224039272078331
20
-27.384384660090912
30
0
10
-13.273389245386669
20
-27.394490731089221
30
0
10
-13.321105852260358
20
-27.408130865372488
30
2.1854783949314103e-17
10
-13.367129185645503
20
-27.425002696645084
30
0
10
-13.41153050439836
20
-27.444560764431593
30
2.1854783949314103e-17
10
-13.421950221473399
20
-27.449332561919785
30
0
0
SPLINE
5
181
100
AcDbEntity
8
0
100
AcDbSpline
70
1064
71
5
72
17
73
11
74
0
42
0.000000001
43
0.0000000001
44
0.0000000001
40
-0.40069204940316144
40
-0.40069204940316144
40
-0.40069204940316144
40
-0.40069204940316144
40
-0.40069204940316144
40
-0.40069204940316144
40
-0.40000000000000008
40
-0.38000000000000006
40
-0.36000000000000004
40
-0.34000000000000002
40
-0.32000000000000001
40
-0.31335102215611371
40
-0.31335102215611371
40
-0.31335102215611371
40
-0.31335102215611371
40
-0.31335102215611371
40
-0.31335102215611371
10
-13.421950221473404
20
-27.449332561919775
30
0
10
-13.423357495353471
20
-27.449795138771155
30
0
10
-13.465413968564619
20
-27.463685388836229
30
0
10
-13.546906999413778
20
-27.494479450560018
30
0
10
-13.664478122634305
20
-27.549545305558983
30
-2.1854783949314103e-17
10
-13.812270135079046
20
-27.63397564578392
30
0
10
-13.960788635848392
20
-27.720392903609273
30
0
10
-14.071330330267784
20
-27.771006818801887
30
2.1854783949314103e-17
10
-14.148408913461395
20
-27.794755288170656
30
0
10
-14.19266492397211
20
-27.804108972358506
30
0
10
-14.203725866611242
20
-27.806175464920933
30
0
0
SPLINE
5
182
100
AcDbEntity
8
0
100
AcDbSpline
70
1064
71
5
72
15
73
9
74
0
42
0.000000001
43
0.0000000001
44
0.0000000001
40
-0.39881629713557099
40
-0.39881629713557099
40
-0.39881629713557099
40
-0.39881629713557099
40
-0.39881629713557099
40
-0.39881629713557099
40
-0.38000000000000006
40
-0.36000000000000004
40
-0.34000000000000002
40
-0.33868479038987132
40
-0.33868479038987132
40
-0.33868479038987132
40
-0.33868479038987132
40
-0.33868479038987132
40
-0.33868479038987132
10
-14.203725866611242
20
-27.806175464920944
30
0
10
-14.237264674486973
20
-27.803779587951819
30
0
10
-14.308199964613854
20
-27.794423898463499
30
0
10
-14.42154124249241
20
-27.767133828361182
30
0
10
-14.547203382528231
20
-27.722352236674382
30
0
10
-14.681905082289658
20
-27.667941795990753
30
0
10
-14.777613896767804
20
-27.628584908255043
30
0
10
-14.827612100097749
20
-27.608058458673007
30
0
10
-14.830699442192001
20
-27.606791144806579
30
0
0
SPLINE
5
183
100
AcDbEntity
8
0
100
AcDbSpline
70
1064
71
5
72
13
73
7
74
0
42
0.000000001
43
0.0000000001
44
0.0000000001
40
-0.33868479038987132
40
-0.33868479038987132
40
-0.33868479038987132
40
-0.33868479038987132
40
-0.33868479038987132
40
-0.33868479038987132
40
-0.32000000000000001
40
-0.30841705502710304
40
-0.30841705502710304
40
-0.30841705502710304
40
-0.30841705502710304
40
-0.30841705502710304
40
-0.30841705502710304
10
-14.830699442192033
20
-27.606791144806657
30
0
10
-14.874560389868133
20
-27.58878679495238
30
0
10
-14.946366378977755
20
-27.559368579012261
30
0
10
-15.018999400628584
20
-27.530071875071968
30
2.1854783949314103e-17
10
-15.091655304599492
20
-27.501631145469226
30
0
10
-15.163440336935954
20
-27.474568882202448
30
0
10
-15.190734149377333
20
-27.464439325415352
30
-2.1854783949314103e-17
0
SPLINE
5
184
100
AcDbEntity
8
0
100
AcDbSpline
70
1064
71
5
72
16
73
10
74
0
42
0.000000001
43
0.0000000001
44
0.0000000001
40
-0.21714596232826597
40
-0.21714596232826597
40
-0.21714596232826597
40
-0.21714596232826597
40
-0.21714596232826597
40
-0.21714596232826597
40
-0.19999999999999998
40
-0.17999999999999999
40
-0.16
40
-0.14000000000000001
40
-0.12912407209009347
40
-0.12912407209009347
40
-0.12912407209009347
40
-0.12912407209009347
40
-0.12912407209009347
40
-0.12912407209009347
10
-15.190734149377557
20
-27.464439325415213
30
-2.1854783949314103e-17
10
-15.23658045544104
20
-27.442311138935704
30
0
10
-15.338297537850911
20
-27.394349948573694
30
0
10
-15.502573021845331
20
-27.321554905051343
30
0
10
-15.738925618973388
20
-27.22953618430423
30
0
10
-16.023997762393563
20
-27.141261244304218
30
2.1854783949314103e-17
10
-16.257634618962378
20
-27.086162372832227
30
0
10
-16.423838028547561
20
-27.055752990979553
30
0
10
-16.523334383557202
20
-27.040782738638288
30
0
10
-16.558176324853342
20
-27.035945994130337
30
0
0
SPLINE
5
185
100
AcDbEntity
8
0
100
AcDbSpline
70
1064
71
5
72
12
73
6
74
0
42
0.000000001
43
0.0000000001
44
0.0000000001
40
-0.12912407209009347
40
-0.12912407209009347
40
-0.12912407209009347
40
-0.12912407209009347
40
-0.12912407209009347
40
-0.12912407209009347
40
-0.12124472374622067
40
-0.12124472374622067
40
-0.12124472374622067
40
-0.12124472374622067
40
-0.12124472374622067
40
-0.12124472374622067
10
-16.558176324853342
20
-27.035945994130337
30
0
10
-16.583418473819684
20
-27.032441888996125
30
-2.1854783949314103e-17
10
-16.608552883406809
20
-27.029166871774425
30
0
10
-16.633566150598895
20
-27.026122495813397
30
2.1854783949314103e-17
10
-16.658444986726789
20
-27.023310020578574
30
0
10
-16.683176324851999
20
-27.020730459636297
30
2.1854783949314103e-17
0
SPLINE
5
186
100
AcDbEntity
8
0
100
AcDbSpline
70
1064
71
5
72
13
73
7
74
0
42
0.000000001
43
0.0000000001
44
0.0000000001
40
-0.12124472374622067
40
-0.12124472374622067
40
-0.12124472374622067
40
-0.12124472374622067
40
-0.12124472374622067
40
-0.12124472374622067
40
-0.12000000000000001
40
-0.11922401090390704
40
-0.11922401090390704
40
-0.11922401090390704
40
-0.11922401090390704
40
-0.11922401090390704
40
-0.11922401090390704
10
-16.683176324851999
20
-27.020730459636297
30
2.1854783949314103e-17
10
-16.68708320680426
20
-27.020322958835528
30
2.1854783949314103e-17
10
-16.693419752210215
20
-27.019670848879056
30
0
10
-16.699746460891415
20
-27.019034068253244
30
0
10
-16.706063113036059
20
-27.018412633398896
30
0
10
-16.712369489864869
20
-27.017806559725926
30
0
10
-16.714789721274222
20
-27.017576082984107
30
0
0
LINE
5
187
100
AcDbEntity
8
0
100
AcDbLine
10
-16.714789721274222
20
-27.017576082984107
30
-7.2299282751711058e-33
11
-17.271026600156798
21
-27.017576082984107
31
-6.7955434271342652e-33
0
SPLINE
5
188
100
AcDbEntity
8
0
100
AcDbSpline
70
1064
71
5
72
16
73
10
74
0
42
0.000000001
43
0.0000000001
44
0.0000000001
40
-0.080122919260114611
40
-0.080122919260114611
40
-0.080122919260114611
40
-0.080122919260114611
40
-0.080122919260114611
40
-0.080122919260114611
40
-0.080000000000000002
40
-0.059999999999999998
40
-0.040000000000000001
40
-0.02
40
0
40
0
40
0
40
0
40
0
40
0
10
-17.271026600156794
20
-27.017576082984107
30
0
10
-17.271334289487175
20
-27.017612665087906
30
0
10
-17.321692936829621
20
-27.023610853379395
30
0
10
-17.417958714264838
20
-27.038635425300324
30
0
10
-17.549056479221694
20
-27.070284757284366
30
-2.1854783949314103e-17
10
-17.69521840577427
20
-27.130629075010923
30
0
10
-17.801028728739592
20
-27.214905227735052
30
0
10
-17.857432415248361
20
-27.291587607331792
30
0
10
-17.884839685690896
20
-27.348694297121686
30
0
10
-17.895994525670844
20
-27.378743918157358
30
0
0
LINE
5
189
100
AcDbEntity
8
0
100
AcDbLine
10
-17.895994525670847
20
-27.378743918157358
30
-8.0853027044159525e-33
11
-17.895994525670844
21
-28.517576082984103
31
-7.7643789883957848e-32
0
LINE
5
190
100
AcDbEntity
8
0
100
AcDbLine
10
-17.895994525670844
20
-28.517576082984103
30
-7.7643789883957848e-32
11
-17.39602660015678
21
-28.517576082984103
31
-1.9193679144596642e-32
0
LINE
5
191
100
AcDbEntity
8
0
100
AcDbLine
10
-17.39602660015678
20
-28.517576082984103
30
-1.9193679144596642e-32
11
-17.396026600156777
21
-27.892576082985507
31
1.1646568482593677e-31
0
LINE
5
192
100
AcDbEntity
8
0
100
AcDbLine
10
-17.396026600156777
20
-27.892576082985507
30
1.1646568482593677e-31
11
-17.27102660015678
21
-27.892576082985507
31
2.1854783949314097e-17
0
LINE
5
193
100
AcDbEntity
8
0
100
AcDbLine
10
-17.27102660015678
20
-27.892576082985507
30
2.1854783949314097e-17
11
-17.271026600156784
21
-28.517576082984103
31
2.1854783949314143e-17
0
LINE
5
194
100
AcDbEntity
8
0
100
AcDbLine
10
-17.271026600156784
20
-28.517576082984103
30
2.1854783949314143e-17
11
-16.683176324851996
21
-28.517576082984103
31
6.8724235968537605e-32
0
LINE
5
195
100
AcDbEntity
8
0
100
AcDbLine
10
-16.683176324851996
20
-28.517576082984103
30
6.8724235968537605e-32
11
-16.683176324851999
21
-27.76757608298502
31
2.1854783949314026e-17
0
LINE
5
196
100
AcDbEntity
8
0
100
AcDbLine
10
-16.683176324851999
20
-27.76757608298502
30
2.1854783949314026e-17
11
-16.558176324851999
21
-27.76757608298502
31
2.1854783949314097e-17
0
LINE
5
197
100
AcDbEntity
8
0
100
AcDbLine
10
-16.558176324851999
20
-27.76757608298502
30
2.1854783949314097e-17
11
-16.558176324851999
21
-28.517576082984103
31
2.185478394931418e-17
0
LINE
5
198
100
AcDbEntity
8
0
100
AcDbLine
10
-16.558176324851999
20
-28.517576082984103
30
2.185478394931418e-17
11
-15.98547372051855
21
-28.517576082984103
31
2.1854783949314171e-17
0
LINE
5
199
100
AcDbEntity
8
0
100
AcDbLine
10
-15.98547372051855
20
-28.517576082984103
30
2.1854783949314171e-17
11
-15.98547372051855
21
-27.89257608299669
31
2.1854783949314143e-17
0
LINE
5
200
100
AcDbEntity
8
0
100
AcDbLine
10
-15.98547372051855
20
-27.89257608299669
30
2.1854783949314143e-17
11
-15.860473720518552
21
-27.89257608299669
31
2.1854783949314097e-17
0
LINE
5
201
100
AcDbEntity
8
0
100
AcDbLine
10
-15.860473720518552
20
-27.89257608299669
30
2.1854783949314097e-17
11
-15.860473720518552
21
-28.517576082984103
31
2.1854783949314063e-17
0
LINE
5
202
100
AcDbEntity
8
0
100
AcDbLine
10
-15.860473720518552
20
-28.517576082984103
30
2.1854783949314063e-17
11
-14.985473735537042
21
-28.517576082984103
31
2.1854783949314051e-17
0
LINE
5
203
100
AcDbEntity
8
0
100
AcDbLine
10
-14.985473735537042
20
-28.517576082984103
30
2.1854783949314051e-17
11
-14.985473735537042
21
-28.26757608299565
31
2.1854783949314026e-17
0
LINE
5
204
100
AcDbEntity
8
0
100
AcDbLine
10
-14.985473735537042
20
-28.26757608299565
30
2.1854783949314026e-17
11
-14.860473735537044
21
-28.26757608299565
31
-4.7974823473857437e-33
0
LINE
5
205
100
AcDbEntity
8
0
100
AcDbLine
10
-14.860473735537044
20
-28.26757608299565
30
-4.7974823473857437e-33
11
-14.860473735537044
21
-28.517576082984103
31
7.7643789883957848e-32
0
LINE
5
206
100
AcDbEntity
8
0
100
AcDbLine
10
-14.860473735537044
20
-28.517576082984103
30
7.7643789883957848e-32
11
-13.985473750555531
21
-28.517576082984103
31
2.1854783949314051e-17
0
LINE
5
207
100
AcDbEntity
8
0
100
AcDbLine
10
-13.985473750555531
20
-28.517576082984103
30
2.1854783949314051e-17
11
-13.985473750555531
21
-28.26757608299565
31
0
0
LINE
5
208
100
AcDbEntity
8
0
100
AcDbLine
10
-13.985473750555531
20
-28.26757608299565
30
0
11
-13.860473750555533
21
-28.26757608299565
31
-4.7974823473857437e-33
0
LINE
5
209
100
AcDbEntity
8
0
100
AcDbLine
10
-13.860473750555533
20
-28.26757608299565
30
-4.7974823473857437e-33
11
-13.860473750555533
21
-28.517576082984103
31
0
0
LINE
5
210
100
AcDbEntity
8
0
100
AcDbLine
10
-13.860473750555533
20
-28.517576082984103
30
0
11
-12.985473765574023
21
-28.517576082984103
31
-5.299332565846843e-32
0
LINE
5
211
100
AcDbEntity
8
0
100
AcDbLine
10
-12.985473765574023
20
-28.517576082984103
30
-5.299332565846843e-32
11
-12.985473765574023
21
-28.015733719333564
31
7.7643789883957848e-32
0
LINE
5
212
100
AcDbEntity
8
0
100
AcDbLine
10
-12.985473765574023
20
-28.015733719333564
30
7.7643789883957848e-32
11
-12.860473765574024
21
-28.015733719333564
31
-2.1854783949314109e-17
0
LINE
5
213
100
AcDbEntity
8
0
100
AcDbLine
10
-12.860473765574024
20
-28.015733719333564
30
-2.1854783949314109e-17
11
-12.860473765574024
21
-28.517576082984103
31
-2.185478394931418e-17
0
LINE
5
214
100
AcDbEntity
8
0
100
AcDbLine
10
-12.860473765574024
20
-28.517576082984103
30
-2.185478394931418e-17
11
-12.485473773083267
21
-28.517576082984103
31
-3.3803395391036069e-32
0
LINE
5
215
100
AcDbEntity
8
0
100
AcDbLine
10
-12.485473773083267
20
-28.517576082984103
30
-3.3803395391036069e-32
11
-12.485473773083267
21
-28.099616198894577
31
0
0
LINE
5
216
100
AcDbEntity
8
0
100
AcDbLine
10
-12.485473773083267
20
-28.099616198894577
30
0
11
-12.360473773083269
21
-28.099616198894577
31
-2.1854783949314109e-17
0
LINE
5
217
100
AcDbEntity
8
0
100
AcDbLine
10
-12.360473773083269
20
-28.099616198894577
30
-2.1854783949314109e-17
11
-12.360473773083269
21
-28.517576082984103
31
-2.1854783949314103e-17
0
LINE
5
218
100
AcDbEntity
8
0
100
AcDbLine
10
-12.360473773083269
20
-28.517576082984103
30
-2.1854783949314103e-17
11
-11.69287622077643
21
-28.517576082984103
31
7.8047308377912582e-32
0
LINE
5
219
100
AcDbEntity
8
0
100
AcDbLine
10
-11.69287622077643
20
-28.517576082984103
30
7.8047308377912582e-32
11
-11.692876220776428
21
-28.01757608298729
31
2.1854783949313986e-17
0
LINE
5
220
100
AcDbEntity
8
0
100
AcDbLine
10
-11.692876220776428
20
-28.01757608298729
30
2.1854783949313986e-17
11
-11.56787622077643
21
-28.01757608298729
31
-4.7974823473857437e-33
0
LINE
5
221
100
AcDbEntity
8
0
100
AcDbLine
10
-11.56787622077643
20
-28.01757608298729
30
-4.7974823473857437e-33
11
-11.56787622077643
21
-28.517576082984103
31
1.1646568482593677e-31
0
LINE
5
222
100
AcDbEntity
8
0
100
AcDbLine
10
-11.56787622077643
20
-28.517576082984103
30
1.1646568482593677e-31
11
-10.853255055850287
21
-28.517576082984103
31
2.1854783949314029e-17
0
LINE
5
223
100
AcDbEntity
8
0
100
AcDbLine
10
-10.853255055850287
20
-28.517576082984103
30
2.1854783949314029e-17
11
-10.853255055850285
21
-27.999914342602647
31
2.1854783949314103e-17
0
LINE
5
224
100
AcDbEntity
8
0
100
AcDbLine
10
-10.853255055850285
20
-27.999914342602647
30
2.1854783949314103e-17
11
-10.728255055850287
21
-27.999914342602644
31
2.1854783949314097e-17
0
LINE
5
225
100
AcDbEntity
8
0
100
AcDbLine
10
-10.728255055850287
20
-27.999914342602644
30
2.1854783949314097e-17
11
-10.72825505585029
21
-28.5175760829841
31
2.1854783949314257e-17
0
LINE
5
226
100
AcDbEntity
8
0
100
AcDbLine
10
-10.72825505585029
20
-28.5175760829841
30
2.1854783949314257e-17
11
-9.9854738106294931
21
-28.517576082984103
31
2.185478394931419e-17
0
LINE
5
227
100
AcDbEntity
8
0
100
AcDbLine
10
-9.9854738106294931
20
-28.517576082984103
30
2.185478394931419e-17
11
-9.9854738106294914
21
-28.017576082987372
31
-7.7643789883957848e-32
0
LINE
5
228
100
AcDbEntity
8
0
100
AcDbLine
10
-9.9854738106294914
20
-28.017576082987372
30
-7.7643789883957848e-32
11
-9.8604738106294931
21
-28.017576082987372
31
-4.7974823473857437e-33
0
LINE
5
229
100
AcDbEntity
8
0
100
AcDbLine
10
-9.8604738106294931
20
-28.017576082987372
30
-4.7974823473857437e-33
11
-9.8604738106294931
21
-28.517576082984103
31
7.7643789883957848e-32
0
LINE
5
230
100
AcDbEntity
8
0
100
AcDbLine
10
-9.8604738106294931
20
-28.517576082984103
30
7.7643789883957848e-32
11
-9.0021073554164328
21
-28.517576082984103
31
-5.493791371569777e-32
0
LINE
5
231
100
AcDbEntity
8
0
100
AcDbLine
10
-9.0021073554164328
20
-28.517576082984103
30
-5.493791371569777e-32
11
-9.0021073554164328
21
-28.267576082997092
31
0
0
LINE
5
232
100
AcDbEntity
8
0
100
AcDbLine
10
-9.0021073554164328
20
-28.267576082997092
30
0
11
-8.8771073554164346
21
-28.267576082997092
31
-4.7974823473857437e-33
0
LINE
5
233
100
AcDbEntity
8
0
100
AcDbLine
10
-8.8771073554164346
20
-28.267576082997092
30
-4.7974823473857437e-33
11
-8.8771073554164346
21
-28.517576082984103
31
0
0
LINE
5
234
100
AcDbEntity
8
0
100
AcDbLine
10
-8.8771073554164346
20
-28.517576082984103
30
0
11
-7.8854738374750415
21
-28.517576082984103
31
-3.9357965129253223e-32
0
LINE
5
235
100
AcDbEntity
8
0
100
AcDbLine
10
-7.8854738374750415
20
-28.517576082984103
30
-3.9357965129253223e-32
11
-7.885473837475045
21
-28.230050917538634
31
0
0
LWPOLYLINE
5
236
100
AcDbEntity
8
0
100
AcDbPolyline
90
4
70
1
43
0.0
10
0.014526189370511153
20
-0.017576082987462733
10
0.014526189370532997
20
-30.017576082987361
10
-19.985473810629514
20
-30.017576082987372
10
-19.985473810629536
20
-0.017576082987472798
0
LINE
5
237
100
AcDbEntity
8
0
100
AcDbLine
10
-8.2553004754957993
20
-23.123721585911444
30
2.1854783949314103e-17
11
-8.5537524173993091
21
-23.123721585911444
31
2.1854783949314097e-17
0
LINE
5
238
100
AcDbEntity
8
0
100
AcDbLine
10
-8.5537524173993091
20
-23.123721585911444
30
2.1854783949314097e-17
11
-8.5537524173993091
21
-22.99872158591144
31
-2.9116421206484193e-32
0
LINE
5
239
100
AcDbEntity
8
0
100
AcDbLine
10
-8.5537524173993091
20
-22.99872158591144
30
-2.9116421206484193e-32
11
-8.255300475495801
21
-22.99872158591144
31
5.5103032364332732e-31
0
LINE
5
240
100
AcDbEntity
8
0
100
AcDbLine
10
-8.255300475495801
20
-22.99872158591144
30
5.5103032364332732e-31
11
-8.255300475495801
21
-22.661450644619553
31
0
0
SPLINE
5
241
100
AcDbEntity
8
0
100
AcDbSpline
70
1064
71
5
72
31
73
25
74
0
42
0.000000001
43
0.0000000001
44
0.0000000001
40
-1
40
-1
40
-1
40
-1
40
-1
40
-1
40
-0.95000000000000029
40
-0.90000000000000024
40
-0.8500000000000002
40
-0.80000000000000016
40
-0.75000000000000011
40
-0.70000000000000007
40
-0.65000000000000002
40
-0.59999999999999998
40
-0.54999999999999993
40
-0.49999999999999994
40
-0.44999999999999996
40
-0.39999999999999997
40
-0.34999999999999998
40
-0.29999999999999999
40
-0.25
40
-0.20000000000000001
40
-0.15000000000000002
40
-0.10000000000000001
40
-0.050000000000000003
40
0
40
0
40
0
40
0
40
0
40
0
10
-8.255300475495801
20
-22.661450644619553
30
0
10
-8.3083499452809537
20
-22.648526519484978
30
2.1854783949314103e-17
10
-8.4125993290641912
20
-22.623498459725543
30
0
10
-8.5634247308910272
20
-22.588416941071817
30
-2.1854783949314103e-17
10
-8.7533826900310387
20
-22.546582809367955
30
0
10
-8.972152702880809
20
-22.502622519542474
30
0
10
-9.1723966852899022
20
-22.46707795954627
30
-2.1854783949314103e-17
10
-9.3547850609528833
20
-22.439953638786999
30
0
10
-9.5208068786849296
20
-22.421098147809918
30
2.1854783949314103e-17
10
-9.6730518726729358
20
-22.410128771395726
30
0
10
-9.8156273284209732
20
-22.406320194452103
30
2.1854783949314103e-17
10
-9.9534372921096104
20
-22.40876719060623
30
0
10
-10.091279370051396
20
-22.416586982996073
30
0
10
-10.233097287446412
20
-22.429082278758266
30
0
10
-10.38095527291334
20
-22.44596100801952
30
0
10
-10.535194158260449
20
-22.467295043234962
30
-2.1854783949314103e-17
10
-10.695108811875068
20
-22.493360554080919
30
0
10
-10.859423266926688
20
-22.524518952455427
30
0
10
-11.026856465132195
20
-22.561069381047052
30
0
10
-11.196567228204252
20
-22.603132328479699
30
0
10
-11.368031508794742
20
-22.650720928771118
30
2.1854783949314103e-17
10
-11.506388745457121
20
-22.693173743816754
30
0
10
-11.61077746014681
20
-22.727450712730239
30
0
10
-11.680644779022737
20
-22.751380863346174
30
0
10
-11.715647145763143
20
-22.763615649885864
30
0
0
LINE
5
242
100
AcDbEntity
8
0
100
AcDbLine
10
-11.715647145763143
20
-22.763615649885871
30
-9.9384061048979683e-33
11
-11.715647145763143
21
-22.998721585911444
31
0
0
LINE
5
243
100
AcDbEntity
8
0
100
AcDbLine
10
-11.715647145763143
20
-22.998721585911444
30
0
11
-11.557032296328936
21
-22.998721585911447
31
-2.7495616320352367e-32
0
LINE
5
244
100
AcDbEntity
8
0
100
AcDbLine
10
-11.557032296328936
20
-22.998721585911447
30
-2.7495616320352367e-32
11
-11.557032296328936
21
-23.123721585911447
31
0
0
LINE
5
245
100
AcDbEntity
8
0
100
AcDbLine
10
-11.557032296328936
20
-23.123721585911447
30
0
11
-11.715647145763143
21
-23.123721585911447
31
2.7495616320352367e-32
0
LINE
5
246
100
AcDbEntity
8
0
100
AcDbLine
10
-11.715647145763143
20
-23.123721585911447
30
2.7495616320352367e-32
11
-11.715647145763143
21
-23.468554186223393
31
0
0
SPLINE
5
247
100
AcDbEntity
8
0
100
AcDbSpline
70
1064
71
5
72
31
73
25
74
0
42
0.000000001
43
0.0000000001
44
0.0000000001
40
0
40
0
40
0
40
0
40
0
40
0
40
0.050000000000000003
40
0.10000000000000001
40
0.15000000000000002
40
0.20000000000000001
40
0.25
40
0.29999999999999999
40
0.34999999999999998
40
0.39999999999999997
40
0.44999999999999996
40
0.49999999999999994
40
0.54999999999999993
40
0.59999999999999998
40
0.65000000000000002
40
0.70000000000000007
40
0.75000000000000011
40
0.80000000000000016
40
0.8500000000000002
40
0.90000000000000024
40
0.95000000000000029
40
1
40
1
40
1
40
1
40
1
40
1
10
-11.715647145763141
20
-23.468554186223393
30
0
10
-11.68423373949949
20
-23.467148390613485
30
0
10
-11.622387570014848
20
-23.464670780515259
30
0
10
-11.532560451778933
20
-23.461956302583523
30
0
10
-11.41869746745845
20
-23.460349102868349
30
0
10
-11.285842626556363
20
-23.461733666080896
30
0
10
-11.161063068182967
20
-23.466548376721878
30
0
10
-11.041409874260621
20
-23.474798679957829
30
0
10
-10.921589571154666
20
-23.486433124446268
30
0
10
-10.79512517457305
20
-23.501271756248549
30
0
10
-10.655910294914538
20
-23.518918979059038
30
2.1854783949314103e-17
10
-10.499571184609851
20
-23.538681408771676
30
0
10
-10.325100333188526
20
-23.559459754748939
30
0
10
-10.134134537321662
20
-23.579877065366791
30
0
10
-9.9300618645971639
20
-23.598424893549581
30
0
10
-9.7172297320625116
20
-23.613602818349879
30
0
10
-9.500169311606907
20
-23.624056012777586
30
0
10
-9.2827772465865923
20
-23.628732441658371
30
0
10
-9.0676773559226564
20
-23.626999765601557
30
0
10
-8.8565522030314927
20
-23.618522498722701
30
0
10
-8.6503351231716081
20
-23.603179634849152
30
0
10
-8.4896184012947167
20
-23.585418137556548
30
0
10
-8.3715161782785703
20
-23.569037242591659
30
-2.1854783949314103e-17
10
-8.2938593761495696
20
-23.556762270294268
30
2.1854783949314103e-17
10
-8.255300475495801
20
-23.550286190436431
30
0
0
LINE
5
248
100
AcDbEntity
8
0
100
AcDbLine
10
-8.255300475495801
20
-23.550286190436431
30
-2.9704830175958987e-32
11
-8.2553004754957993
21
-23.123721585911444
31
2.1854783949314103e-17
0
LWPOLYLINE
5
249
100
AcDbEntity
8
0
100
AcDbPolyline
90
4
70
1
43
0.0
10
-5.3200353725749707
20
-23.721567725068322
10
-5.196934403448445
20
-23.699861702859955
10
-5.1998070196273805
20
-23.683570286949632
10
-5.3229079887539053
20
-23.705276309157998
0
LWPOLYLINE
5
250
100
AcDbEntity
8
0
100
AcDbPolyline
90
16
70
1
43
0.0
10
-5.3123785996824804
20
-23.505736997746936
10
-5.2945120014137599
20
-23.404410483807137
42
-0.39301917389092822
10
-5.0850604678391118
20
-24.334330319970263
10
-5.1196400259544408
20
-24.138219900700363
10
-5.2427409950809665
20
-24.159925922908727
10
-5.1880663669684646
20
-24.470001147317522
42
-0.24933491006462552
10
-5.8138659767948511
20
-24.670966160724735
10
-5.8623728415029479
20
-24.395870060779057
10
-5.9854738106294736
20
-24.417576082987424
10
-5.9475036146378581
20
-24.632915765201975
42
-0.60863875465190465
10
-6.0722695744022701
20
-23.395657787547211
10
-6.1114408033051371
20
-23.617808865876132
10
-5.9883398341786114
20
-23.639514888084499
10
-5.9329829430772776
20
-23.325570357990948
42
-0.19381869459796966
10
-5.4101485700455436
20
-23.340371742778597
10
-5.4354795688090043
20
-23.484030975538573
0
LWPOLYLINE
5
251
100
AcDbEntity
8
0
100
AcDbPolyline
90
12
70
1
43
0.0
10
-2.7518875298340153
20
-26.921623119990162
10
-2.874988498960541
20
-26.899917097781795
10
-2.9030807408376997
20
-27.05923611841202
42
-0.16941142968890247
10
-3.5271079567218218
20
-26.848219359462846
10
-3.4671817485815986
20
-26.508360944718586
10
-3.5902827177081247
20
-26.486654922510219
10
-3.6365679792168626
20
-26.749151684620987
42
-1.3280438485109012
10
-1.9328386315688917
20
-25.859282287695095
10
-2.3161450536739374
20
-25.859282287695095
10
-2.3161450536739374
20
-25.984282287695095
10
-1.9154510632180186
20
-25.984282287695095
42
-0.39572359796367568
10
-2.7744693421648718
20
-27.049690941716147
0
LINE
5
252
100
AcDbEntity
8
0
100
AcDbLine
10
-4.8157357818386037
20
-22.467576082987424
30
0
11
-4.5294905504268721
21
-22.467576082987424
31
-4.2579599221962176e-33
0
LINE
5
253
100
AcDbEntity
8
0
100
AcDbLine
10
-4.5294905504268721
20
-22.467576082987424
30
-4.2579599221962176e-33
11
-4.529490550426873
21
-21.969442491219755
31
-1.8518043887323947e-29
0
SPLINE
5
254
100
AcDbEntity
8
0
100
AcDbSpline
70
1064
71
5
72
31
73
25
74
0
42
0.000000001
43
0.0000000001
44
0.0000000001
40
-1
40
-1
40
-1
40
-1
40
-1
40
-1
40
-0.95000000000000029
40
-0.90000000000000024
40
-0.8500000000000002
40
-0.80000000000000016
40
-0.75000000000000011
40
-0.70000000000000007
40
-0.65000000000000002
40
-0.59999999999999998
40
-0.54999999999999993
40
-0.49999999999999994
40
-0.44999999999999996
40
-0.39999999999999997
40
-0.34999999999999998
40
-0.29999999999999999
40
-0.25
40
-0.20000000000000001
40
-0.15000000000000002
40
-0.10000000000000001
40
-0.050000000000000003
40
0
40
0
40
0
40
0
40
0
40
0
10
-4.529490550426873
20
-21.969442491219755
30
0
10
-4.582543597713002
20
-22.000023709767405
30
0
10
-4.68467861456958
20
-22.056881786302181
30
0
10
-4.8259680325972534
20
-22.1292559325192
30
0
10
-4.9904293866906642
20
-22.199822488814235
30
0
10
-5.1559496612700428
20
-22.244527440059372
30
0
10
-5.2818557887939264
20
-22.245955523020434
30
0
10
-5.3698626743352573
20
-22.205449904059236
30
0
10
-5.4235455706859756
20
-22.12603401821006
30
0
10
-5.4492331163575027
20
-22.01324509466976
30
0
10
-5.4561919964079557
20
-21.875369853771435
30
0
10
-5.4547528710288224
20
-21.721922391980961
30
0
10
-5.4548281209373206
20
-21.562472824177103
30
0
10
-5.4643330140421247
20
-21.405395912767954
30
0
10
-5.4875155599381484
20
-21.256573983633057
30
0
10
-5.5235752439869668
20
-21.11830223142832
30
0
10
-5.5684018199942518
20
-20.990388175098378
30
0
10
-5.61598954923811
20
-20.871017189916937
30
0
10
-5.6599052135691474
20
-20.757654128262601
30
2.1854783949314103e-17
10
-5.6947636478611035
20
-20.647928492440215
30
2.1854783949314103e-17
10
-5.7175684763872239
20
-20.540442828537685
30
0
10
-5.7250729567535705
20
-20.455673010111948
30
-2.1854783949314103e-17
10
-5.7245105799184017
20
-20.392670855634428
30
0
10
-5.7213950784502963
20
-20.350923843973362
30
0
10
-5.7191522010688951
20
-20.330113955194037
30
0
0
SPLINE
5
255
100
AcDbEntity
8
0
100
AcDbSpline
70
1064
71
5
72
20
73
14
74
0
42
0.000000001
43
0.0000000001
44
0.0000000001
40
0
40
0
40
0
40
0
40
0
40
0
40
0.015384615384615385
40
0.030769230769230771
40
0.046153846153846156
40
0.061538461538461542
40
0.076923076923076927
40
0.092307692307692313
40
0.1076923076923077
40
0.12307692307692308
40
0.13809452091635713
40
0.13809452091635713
40
0.13809452091635713
40
0.13809452091635713
40
0.13809452091635713
40
0.13809452091635713
10
-5.7191522010688951
20
-20.330113955194037
30
0
10
-5.71352766374594
20
-20.321609078354879
30
0
10
-5.7028596365352264
20
-20.303046324687401
30
-2.1854783949314103e-17
10
-5.6886006016157378
20
-20.270542831712319
30
0
10
-5.6730770922236458
20
-20.217885665870568
30
0
10
-5.65969120287963
20
-20.137268484720945
30
2.1854783949314103e-17
10
-5.6529454259628578
20
-20.044159795090334
30
0
10
-5.6540343025422413
20
-19.943093514483259
30
0
10
-5.6650367518379889
20
-19.841910379741375
30
0
10
-5.6882215429999574
20
-19.750895067589997
30
0
10
-5.7178931020990467
20
-19.693599502267912
30
0
10
-5.7465495324655684
20
-19.662841043131326
30
2.1854783949314103e-17
10
-5.7682025433759376
20
-19.648300524661359
30
0
10
-5.7794905903197487
20
-19.642575975276671
30
0
0
LINE
5
256
100
AcDbEntity
8
0
100
AcDbLine
10
-5.7794905903197487
20
-19.642575975276671
30
4.2263555990269586e-33
11
-5.9108475300963521
21
-19.642575975276671
31
-4.6712972322632802e-30
0
SPLINE
5
257
100
AcDbEntity
8
0
100
AcDbSpline
70
1064
71
5
72
50
73
44
74
0
42
0.000000001
43
0.0000000001
44
0.0000000001
40
0.16816579925242406
40
0.16816579925242406
40
0.16816579925242406
40
0.16816579925242406
40
0.16816579925242406
40
0.16816579925242406
40
0.16923076923076924
40
0.18461538461538463
40
0.20000000000000001
40
0.2153846153846154
40
0.23076923076923078
40
0.24615384615384617
40
0.26153846153846155
40
0.27692307692307694
40
0.29230769230769232
40
0.30769230769230771
40
0.32307692307692309
40
0.33846153846153848
40
0.35384615384615387
40
0.36923076923076925
40
0.38461538461538464
40
0.40000000000000002
40
0.41538461538461541
40
0.43076923076923079
40
0.44615384615384618
40
0.46153846153846156
40
0.47692307692307695
40
0.49230769230769234
40
0.50769230769230766
40
0.52307692307692299
40
0.53846153846153832
40
0.55384615384615365
40
0.56923076923076898
40
0.58461538461538431
40
0.59999999999999964
40
0.61538461538461497
40
0.6307692307692303
40
0.64615384615384563
40
0.66153846153846096
40
0.67692307692307629
40
0.69230769230769162
40
0.70769230769230695
40
0.72307692307692228
40
0.73846153846153761
40
0.74602691197280702
40
0.74602691197280702
40
0.74602691197280702
40
0.74602691197280702
40
0.74602691197280702
40
0.74602691197280702
10
-5.9108475300963512
20
-19.642575975276671
30
0
10
-5.9118607401144132
20
-19.64295638862848
30
0
10
-5.9275187426612392
20
-19.648925510384355
30
0
10
-5.9580402936659063
20
-19.663249830466555
30
0
10
-6.0031846316922115
20
-19.691806147428149
30
2.1854783949314103e-17
10
-6.0597718073384064
20
-19.741223788580495
30
0
10
-6.1176267927150354
20
-19.814333365150741
30
0
10
-6.1591610563960977
20
-19.896415562303865
30
2.1854783949314103e-17
10
-6.1818135324328365
20
-19.986023546111099
30
0
10
-6.1851927394907253
20
-20.08245868837276
30
0
10
-6.171287545678144
20
-20.184637615916678
30
0
10
-6.1445103872611151
20
-20.290111178767724
30
2.1854783949314103e-17
10
-6.1121171467728006
20
-20.393538606350347
30
0
10
-6.0828710890922233
20
-20.487937074192349
30
0
10
-6.0649909980125223
20
-20.567091710811642
30
0
10
-6.0642071373342326
20
-20.62776870093597
30
0
10
-6.0820371010661427
20
-20.671627476025357
30
0
10
-6.1132733436206497
20
-20.708259690999721
30
0
10
-6.148619698827452
20
-20.750913284621799
30
0
10
-6.1784225119388605
20
-20.810811124843653
30
0
10
-6.1965785611559596
20
-20.890858728119014
30
0
10
-6.2006973739398505
20
-20.986826732623321
30
2.1854783949314103e-17
10
-6.1910693248119317
20
-21.09078641082154
30
0
10
-6.1700390381750925
20
-21.193876949130313
30
0
10
-6.1412320999487919
20
-21.289108058664517
30
0
10
-6.1087971689297351
20
-21.374767557782842
30
0
10
-6.0769539925325233
20
-21.453798484679233
30
0
10
-6.049681478731161
20
-21.531732068264201
30
0
10
-6.0303466063792674
20
-21.615051919288039
30
0
10
-6.0213830147345746
20
-21.709494507524855
30
2.1854783949314103e-17
10
-6.0238809964169482
20
-21.818085140363188
30
0
10
-6.0376152891333801
20
-21.941060247627732
30
2.1854783949314103e-17
10
-6.0612274012173559
20
-22.076493679157295
30
-2.1854783949314103e-17
10
-6.0923530023035912
20
-22.220685850541017
30
2.1854783949314103e-17
10
-6.1277758844354491
20
-22.368650411957624
30
2.1854783949314103e-17
10
-6.1635563518140168
20
-22.514552758278587
30
0
10
-6.1951986863616186
20
-22.652176524901421
30
2.1854783949314103e-17
10
-6.217729507012324
20
-22.775355635101278
30
2.1854783949314103e-17
10
-6.2260535625735551
20
-22.878490915253074
30
0
10
-6.2168051015861856
20
-22.949170896000489
30
0
10
-6.196455834175687
20
-22.987632609712012
30
0
10
-6.1750107169384512
20
-23.006629977738733
30
0
10
-6.1597709343746496
20
-23.015095584013093
30
0
10
-6.1544906022876802
20
-23.017576082987389
30
0
0
LINE
5
258
100
AcDbEntity
8
0
100
AcDbLine
10
-6.1544906022876811
20
-23.017576082987389
30
0
11
-5.9854738106294718
21
-23.017576082987425
31
-2.710907211667024e-29
0
SPLINE
5
259
100
AcDbEntity
8
0
100
AcDbSpline
70
1064
71
5
72
26
73
20
74
0
42
0.000000001
43
0.0000000001
44
0.0000000001
40
0.78089504424741296
40
0.78089504424741296
40
0.78089504424741296
40
0.78089504424741296
40
0.78089504424741296
40
0.78089504424741296
40
0.7846153846153836
40
0.79999999999999893
40
0.81538461538461426
40
0.83076923076922959
40
0.84615384615384492
40
0.86153846153846025
40
0.87692307692307558
40
0.89230769230769091
40
0.90769230769230624
40
0.92307692307692157
40
0.9384615384615369
40
0.95384615384615223
40
0.96923076923076756
40
0.98461538461538289
40
1
40
1
40
1
40
1
40
1
40
1
10
-5.9854738106294718
20
-23.017576082987425
30
0
10
-5.9810609542469688
20
-23.016595599461468
30
0
10
-5.9582447704694772
20
-23.011368292140482
30
0
10
-5.9156899542103147
20
-23.000231732521343
30
0
10
-5.8515492697108478
20
-22.980805458439644
30
0
10
-5.7660041107491651
20
-22.952992350683051
30
0
10
-5.6681073884678828
20
-22.923373598193542
30
0
10
-5.5757784299733659
20
-22.901190947883176
30
-2.1854783949314103e-17
10
-5.4887781163790521
20
-22.888081799243132
30
0
10
-5.4050440905246964
20
-22.883931933240039
30
0
10
-5.3214112475396913
20
-22.887458066570787
30
2.1854783949314103e-17
10
-5.2344087237504446
20
-22.896868511282438
30
0
10
-5.1411565296174233
20
-22.910592519194331
30
0
10
-5.0396753551617444
20
-22.92755775743338
30
0
10
-4.9286330829981875
20
-22.947029142994836
30
0
10
-4.8072510868642366
20
-22.968571986639297
30
0
10
-4.7015669155699298
20
-22.987285993164186
30
0
10
-4.6174252699845058
20
-23.002120490586716
30
0
10
-4.5591633661504956
20
-23.012365064916686
30
-2.1854783949314103e-17
10
-4.5294905504268721
20
-23.017576082987421
30
0
0
LINE
5
260
100
AcDbEntity
8
0
100
AcDbLine
10
-4.5294905504268721
20
-23.017576082987421
30
-5.0610307643686629e-33
11
-4.5294905504268721
21
-22.592576082987421
31
-2.4069574864026934e-30
0
LINE
5
261
100
AcDbEntity
8
0
100
AcDbLine
10
-4.5294905504268721
20
-22.592576082987421
30
-2.4069574864026934e-30
11
-4.8157357818386037
21
-22.592576082987421
31
4.2579599221962176e-33
0
LINE
5
262
100
AcDbEntity
8
0
100
AcDbLine
10
-4.8157357818386037
20
-22.592576082987421
30
4.2579599221962176e-33
11
-4.8157357818386037
21
-22.467576082987424
31
0
0
LINE
5
263
100
AcDbEntity
8
0
100
AcDbLine
10
-0.97087531553952833
20
-22.838908868569543
30
0
11
-0.75530047549580515
21
-22.838908868569543
31
3.8355580455445483e-32
0
LINE
5
264
100
AcDbEntity
8
0
100
AcDbLine
10
-0.75530047549580515
20
-22.838908868569543
30
3.8355580455445483e-32
11
-0.75530047549580459
21
-22.484865975538412
31
0
0
SPLINE
5
265
100
AcDbEntity
8
0
100
AcDbSpline
70
1064
71
5
72
31
73
25
74
0
42
0.000000001
43
0.0000000001
44
0.0000000001
40
-1
40
-1
40
-1
40
-1
40
-1
40
-1
40
-0.95000000000000029
40
-0.90000000000000024
40
-0.8500000000000002
40
-0.80000000000000016
40
-0.75000000000000011
40
-0.70000000000000007
40
-0.65000000000000002
40
-0.59999999999999998
40
-0.54999999999999993
40
-0.49999999999999994
40
-0.44999999999999996
40
-0.39999999999999997
40
-0.34999999999999998
40
-0.29999999999999999
40
-0.25
40
-0.20000000000000001
40
-0.15000000000000002
40
-0.10000000000000001
40
-0.050000000000000003
40
0
40
0
40
0
40
0
40
0
40
0
10
-0.75530047549580426
20
-22.484865975538412
30
0
10
-0.79385937614957169
20
-22.478389895680579
30
0
10
-0.8715161782785722
20
-22.466114923383184
30
-2.1854783949314103e-17
10
-0.98961840129471845
20
-22.449734028418298
30
2.1854783949314103e-17
10
-1.1503351231716106
20
-22.431972531125695
30
0
10
-1.3565522030314963
20
-22.416629667252145
30
0
10
-1.56767735592266
20
-22.408152400373293
30
0
10
-1.7827772465865974
20
-22.406419724316471
30
0
10
-2.0001693116069132
20
-22.41109615319726
30
0
10
-2.2172297320625147
20
-22.421549347624968
30
-2.1854783949314103e-17
10
-2.430061864597167
20
-22.436727272425266
30
0
10
-2.6341345373216623
20
-22.455275100608059
30
2.1854783949314103e-17
10
-2.8251003331885292
20
-22.475692411225911
30
0
10
-2.9995711846098549
20
-22.496470757203173
30
0
10
-3.1559102949145403
20
-22.516233186915809
30
0
10
-3.2951251745730556
20
-22.533880409726301
30
0
10
-3.4215895711546684
20
-22.548719041528582
30
0
10
-3.5414098742606228
20
-22.560353486017021
30
0
10
-3.6610630681829703
20
-22.568603789252972
30
0
10
-3.7858426265563643
20
-22.573418499893954
30
0
10
-3.9186974674584558
20
-22.574803063106501
30
0
10
-4.0325604517789344
20
-22.57319586339133
30
2.1854783949314103e-17
10
-4.1223875700148502
20
-22.570481385459594
30
2.1854783949314103e-17
10
-4.1842337394994917
20
-22.568003775361369
30
0
10
-4.2156471457631408
20
-22.56659797975146
30
0
0
LINE
5
266
100
AcDbEntity
8
0
100
AcDbLine
10
-4.2156471457631408
20
-22.566597979751464
30
-4.0367359313710658e-33
11
-4.2156471457631408
21
-22.838908868569547
31
1.1646568482593677e-31
0
LINE
5
267
100
AcDbEntity
8
0
100
AcDbLine
10
-4.2156471457631408
20
-22.838908868569547
30
1.1646568482593677e-31
11
-3.9532583410404833
21
-22.838908868569547
31
-6.1350339610691281e-32
0
LINE
5
268
100
AcDbEntity
8
0
100
AcDbLine
10
-3.9532583410404833
20
-22.838908868569547
30
-6.1350339610691281e-32
11
-3.9532583410404851
21
-22.963908868569547
31
0
0
LINE
5
269
100
AcDbEntity
8
0
100
AcDbLine
10
-3.9532583410404851
20
-22.963908868569547
30
0
11
-4.2156471457631417
21
-22.963908868569547
31
-5.5115345215245404e-32
0
LINE
5
270
100
AcDbEntity
8
0
100
AcDbLine
10
-4.2156471457631417
20
-22.963908868569547
30
-5.5115345215245404e-32
11
-4.2156471457631408
21
-23.271536516088982
31
0
0
SPLINE
5
271
100
AcDbEntity
8
0
100
AcDbSpline
70
1064
71
5
72
31
73
25
74
0
42
0.000000001
43
0.0000000001
44
0.0000000001
40
0
40
0
40
0
40
0
40
0
40
0
40
0.050000000000000003
40
0.10000000000000001
40
0.15000000000000002
40
0.20000000000000001
40
0.25
40
0.29999999999999999
40
0.34999999999999998
40
0.39999999999999997
40
0.44999999999999996
40
0.49999999999999994
40
0.54999999999999993
40
0.59999999999999998
40
0.65000000000000002
40
0.70000000000000007
40
0.75000000000000011
40
0.80000000000000016
40
0.8500000000000002
40
0.90000000000000024
40
0.95000000000000029
40
1
40
1
40
1
40
1
40
1
40
1
10
-4.2156471457631399
20
-23.271536516088986
30
0
10
-4.1806447790227352
20
-23.283771302628679
30
0
10
-4.1107774601468101
20
-23.307701453244611
30
0
10
-4.0063887454571194
20
-23.341978422158096
30
0
10
-3.8680315087947386
20
-23.384431237203732
30
0
10
-3.6965672282042505
20
-23.432019837495151
30
0
10
-3.5268564651321972
20
-23.474082784927795
30
0
10
-3.359423266926687
20
-23.510633213519423
30
0
10
-3.1951088118750661
20
-23.541791611893931
30
0
10
-3.0351941582604476
20
-23.567857122739884
30
-2.1854783949314103e-17
10
-2.8809552729133414
20
-23.589191157955327
30
0
10
-2.7330972874464128
20
-23.606069887216588
30
-2.1854783949314103e-17
10
-2.5912793700513959
20
-23.618565182978777
30
0
10
-2.4534372921096117
20
-23.626384975368616
30
0
10
-2.3156273284209727
20
-23.628831971522747
30
2.1854783949314103e-17
10
-2.1730518726729362
20
-23.625023394579124
30
2.1854783949314103e-17
10
-2.0208068786849265
20
-23.614054018164932
30
0
10
-1.8547850609528829
20
-23.595198527187843
30
0
10
-1.6723966852899008
20
-23.568074206428577
30
0
10
-1.4721527028808079
20
-23.532529646432373
30
0
10
-1.2533826900310392
20
-23.488569356606892
30
0
10
-1.0634247308910303
20
-23.44673522490303
30
0
10
-0.91259932906419339
20
-23.411653706249304
30
0
10
-0.80834994528095583
20
-23.386625646489868
30
0
10
-0.75530047549580293
20
-23.373701521355294
30
0
0
LINE
5
272
100
AcDbEntity
8
0
100
AcDbLine
10
-0.75530047549580293
20
-23.373701521355294
30
0
11
-0.75530047549580315
21
-22.963908868569547
31
0
0
LINE
5
273
100
AcDbEntity
8
0
100
AcDbLine
10
-0.75530047549580315
20
-22.963908868569547
30
0
11
-0.97087531553952755
21
-22.963908868569543
31
-3.8355580455445959e-32
0
LINE
5
274
100
AcDbEntity
8
0
100
AcDbLine
10
-0.97087531553952755
20
-22.963908868569543
30
-3.8355580455445959e-32
11
-0.97087531553952833
21
-22.838908868569543
31
0
0
LINE
5
275
100
AcDbEntity
8
0
100
AcDbLine
10
-7.2553004754958037
20
-21.201408868569541
30
0
11
-7.369358362188736
21
-21.201408868569541
31
1.2095880770799094e-31
0
LINE
5
276
100
AcDbEntity
8
0
100
AcDbLine
10
-7.369358362188736
20
-21.201408868569541
30
1.2095880770799094e-31
11
-7.3693583621887377
21
-21.076408868569544
31
-2.1854783949314103e-17
0
LINE
5
277
100
AcDbEntity
8
0
100
AcDbLine
10
-7.3693583621887377
20
-21.076408868569544
30
-2.1854783949314103e-17
11
-7.2553004754958055
21
-21.076408868569544
31
-1.2095880770799094e-31
0
LINE
5
278
100
AcDbEntity
8
0
100
AcDbLine
10
-7.2553004754958055
20
-21.076408868569544
30
-1.2095880770799094e-31
11
-7.2553004754958037
21
-20.661450644619553
31
2.1854783949314143e-17
0
SPLINE
5
279
100
AcDbEntity
8
0
100
AcDbSpline
70
1064
71
5
72
31
73
25
74
0
42
0.000000001
43
0.0000000001
44
0.0000000001
40
-1
40
-1
40
-1
40
-1
40
-1
40
-1
40
-0.95000000000000029
40
-0.90000000000000024
40
-0.8500000000000002
40
-0.80000000000000016
40
-0.75000000000000011
40
-0.70000000000000007
40
-0.65000000000000002
40
-0.59999999999999998
40
-0.54999999999999993
40
-0.49999999999999994
40
-0.44999999999999996
40
-0.39999999999999997
40
-0.34999999999999998
40
-0.29999999999999999
40
-0.25
40
-0.20000000000000001
40
-0.15000000000000002
40
-0.10000000000000001
40
-0.050000000000000003
40
0
40
0
40
0
40
0
40
0
40
0
10
-7.2553004754958037
20
-20.661450644619553
30
0
10
-7.3083499452809537
20
-20.648526519484975
30
2.1854783949314103e-17
10
-7.4125993290641912
20
-20.623498459725539
30
0
10
-7.5634247308910298
20
-20.588416941071817
30
0
10
-7.7533826900310432
20
-20.546582809367955
30
0
10
-7.9721527028808126
20
-20.50262251954247
30
0
10
-8.1723966852899039
20
-20.46707795954627
30
0
10
-8.3547850609528851
20
-20.439953638786999
30
0
10
-8.5208068786849278
20
-20.421098147809914
30
0
10
-8.6730518726729375
20
-20.410128771395726
30
0
10
-8.815627328420975
20
-20.406320194452103
30
0
10
-8.9534372921096121
20
-20.40876719060623
30
2.1854783949314103e-17
10
-9.0912793700513976
20
-20.416586982996069
30
0
10
-9.2330972874464123
20
-20.429082278758262
30
0
10
-9.3809552729133436
20
-20.44596100801952
30
2.1854783949314103e-17
10
-9.5351941582604489
20
-20.467295043234962
30
0
10
-9.6951088118750715
20
-20.493360554080919
30
-2.1854783949314103e-17
10
-9.8594232669266884
20
-20.524518952455423
30
0
10
-10.026856465132196
20
-20.561069381047052
30
2.1854783949314103e-17
10
-10.196567228204254
20
-20.603132328479695
30
0
10
-10.368031508794742
20
-20.650720928771118
30
0
10
-10.506388745457121
20
-20.693173743816754
30
0
10
-10.61077746014681
20
-20.727450712730239
30
0
10
-10.680644779022739
20
-20.751380863346171
30
0
10
-10.715647145763141
20
-20.763615649885867
30
0
0
LINE
5
280
100
AcDbEntity
8
0
100
AcDbLine
10
-10.715647145763143
20
-20.763615649885871
30
0
11
-10.715647145763139
21
-21.076408868569548
31
-7.7643789883957848e-32
0
LINE
5
281
100
AcDbEntity
8
0
100
AcDbLine
10
-10.715647145763139
20
-21.076408868569548
30
-7.7643789883957848e-32
11
-10.506157236458728
21
-21.076408868569548
31
-2.4101728790490043e-32
0
LINE
5
282
100
AcDbEntity
8
0
100
AcDbLine
10
-10.506157236458728
20
-21.076408868569548
30
-2.4101728790490043e-32
11
-10.506157236458728
21
-21.201408868569551
31
0
0
LINE
5
283
100
AcDbEntity
8
0
100
AcDbLine
10
-10.506157236458728
20
-21.201408868569551
30
0
11
-10.715647145763139
21
-21.201408868569548
31
2.4101728790490043e-32
0
LINE
5
284
100
AcDbEntity
8
0
100
AcDbLine
10
-10.715647145763139
20
-21.201408868569548
30
2.4101728790490043e-32
11
-10.715647145763139
21
-21.46855418622339
31
-2.1854783949314103e-17
0
SPLINE
5
285
100
AcDbEntity
8
0
100
AcDbSpline
70
1064
71
5
72
31
73
25
74
0
42
0.000000001
43
0.0000000001
44
0.0000000001
40
0
40
0
40
0
40
0
40
0
40
0
40
0.050000000000000003
40
0.10000000000000001
40
0.15000000000000002
40
0.20000000000000001
40
0.25
40
0.29999999999999999
40
0.34999999999999998
40
0.39999999999999997
40
0.44999999999999996
40
0.49999999999999994
40
0.54999999999999993
40
0.59999999999999998
40
0.65000000000000002
40
0.70000000000000007
40
0.75000000000000011
40
0.80000000000000016
40
0.8500000000000002
40
0.90000000000000024
40
0.95000000000000029
40
1
40
1
40
1
40
1
40
1
40
1
10
-10.715647145763139
20
-21.46855418622339
30
0
10
-10.684233739499495
20
-21.467148390613481
30
0
10
-10.622387570014849
20
-21.464670780515256
30
0
10
-10.532560451778934
20
-21.461956302583523
30
0
10
-10.418697467458452
20
-21.460349102868346
30
0
10
-10.285842626556365
20
-21.461733666080896
30
0
10
-10.161063068182967
20
-21.466548376721878
30
0
10
-10.041409874260619
20
-21.474798679957829
30
2.1854783949314103e-17
10
-9.9215895711546676
20
-21.486433124446268
30
0
10
-9.7951251745730499
20
-21.501271756248553
30
0
10
-9.6559102949145377
20
-21.518918979059038
30
-2.1854783949314103e-17
10
-9.4995711846098541
20
-21.538681408771676
30
0
10
-9.3251003331885247
20
-21.559459754748939
30
0
10
-9.134134537321664
20
-21.579877065366787
30
2.1854783949314103e-17
10
-8.9300618645971674
20
-21.598424893549584
30
0
10
-8.7172297320625134
20
-21.613602818349875
30
0
10
-8.5001693116069088
20
-21.624056012777586
30
0
10
-8.2827772465865959
20
-21.628732441658371
30
0
10
-8.0676773559226582
20
-21.626999765601553
30
0
10
-7.8565522030314945
20
-21.618522498722701
30
0
10
-7.6503351231716108
20
-21.603179634849152
30
-2.1854783949314103e-17
10
-7.4896184012947176
20
-21.585418137556548
30
0
10
-7.3715161782785703
20
-21.569037242591659
30
0
10
-7.2938593761495705
20
-21.556762270294268
30
-2.1854783949314103e-17
10
-7.2553004754958037
20
-21.550286190436431
30
2.1854783949314103e-17
0
LINE
5
286
100
AcDbEntity
8
0
100
AcDbLine
10
-7.2553004754958037
20
-21.550286190436431
30
2.1854783949314097e-17
11
-7.2553004754958037
21
-21.201408868569541
31
0
0
LWPOLYLINE
5
287
100
AcDbEntity
8
0
100
AcDbPolyline
90
4
70
1
43
0.0
10
-1.2169637923818746
20
-20.33890886856954
10
-1.2169637923818746
20
-20.463908868569543
10
-0.77184321275644963
20
-20.463908868569547
10
-0.77184321275644963
20
-20.338908868569543
0
LINE
5
288
100
AcDbEntity
8
0
100
AcDbLine
10
-4.0413342365268017
20
-20.463908868569547
30
0
11
-4.2156471457631435
21
-20.463908868569547
31
1.5238407784113965e-32
0
LINE
5
289
100
AcDbEntity
8
0
100
AcDbLine
10
-4.2156471457631435
20
-20.463908868569547
30
1.5238407784113965e-32
11
-4.2156471457631426
21
-20.771536516088986
31
-2.1854783949314008e-17
0
SPLINE
5
290
100
AcDbEntity
8
0
100
AcDbSpline
70
1064
71
5
72
31
73
25
74
0
42
0.000000001
43
0.0000000001
44
0.0000000001
40
0
40
0
40
0
40
0
40
0
40
0
40
0.050000000000000003
40
0.10000000000000001
40
0.15000000000000002
40
0.20000000000000001
40
0.25
40
0.29999999999999999
40
0.34999999999999998
40
0.39999999999999997
40
0.44999999999999996
40
0.49999999999999994
40
0.54999999999999993
40
0.59999999999999998
40
0.65000000000000002
40
0.70000000000000007
40
0.75000000000000011
40
0.80000000000000016
40
0.8500000000000002
40
0.90000000000000024
40
0.95000000000000029
40
1
40
1
40
1
40
1
40
1
40
1
10
-4.2156471457631426
20
-20.771536516088986
30
-2.1854783949314103e-17
10
-4.1806447790227379
20
-20.783771302628679
30
0
10
-4.1107774601468128
20
-20.807701453244615
30
-2.1854783949314103e-17
10
-4.0063887454571221
20
-20.841978422158096
30
0
10
-3.8680315087947426
20
-20.884431237203732
30
2.1854783949314103e-17
10
-3.6965672282042537
20
-20.932019837495151
30
-2.1854783949314103e-17
10
-3.5268564651321985
20
-20.974082784927798
30
0
10
-3.3594232669266884
20
-21.010633213519423
30
-2.1854783949314103e-17
10
-3.1951088118750688
20
-21.041791611893931
30
0
10
-3.035194158260452
20
-21.067857122739884
30
0
10
-2.8809552729133427
20
-21.089191157955327
30
0
10
-2.7330972874464172
20
-21.106069887216584
30
0
10
-2.5912793700513985
20
-21.118565182978777
30
0
10
-2.453437292109613
20
-21.126384975368616
30
0
10
-2.3156273284209741
20
-21.128831971522747
30
0
10
-2.1730518726729375
20
-21.125023394579124
30
0
10
-2.0208068786849309
20
-21.114054018164932
30
0
10
-1.8547850609528844
20
-21.095198527187843
30
-2.1854783949314103e-17
10
-1.6723966852899035
20
-21.068074206428573
30
2.1854783949314103e-17
10
-1.4721527028808115
20
-21.032529646432373
30
0
10
-1.2533826900310407
20
-20.988569356606888
30
0
10
-1.0634247308910316
20
-20.94673522490303
30
0
10
-0.91259932906419616
20
-20.9116537062493
30
0
10
-0.80834994528095727
20
-20.886625646489868
30
0
10
-0.75530047549580503
20
-20.873701521355294
30
0
0
LINE
5
291
100
AcDbEntity
8
0
100
AcDbLine
10
-0.75530047549580503
20
-20.873701521355294
30
0
11
-0.75530047549580692
21
-19.984865975538412
31
0
0
SPLINE
5
292
100
AcDbEntity
8
0
100
AcDbSpline
70
1064
71
5
72
31
73
25
74
0
42
0.000000001
43
0.0000000001
44
0.0000000001
40
-1
40
-1
40
-1
40
-1
40
-1
40
-1
40
-0.95000000000000029
40
-0.90000000000000024
40
-0.8500000000000002
40
-0.80000000000000016
40
-0.75000000000000011
40
-0.70000000000000007
40
-0.65000000000000002
40
-0.59999999999999998
40
-0.54999999999999993
40
-0.49999999999999994
40
-0.44999999999999996
40
-0.39999999999999997
40
-0.34999999999999998
40
-0.29999999999999999
40
-0.25
40
-0.20000000000000001
40
-0.15000000000000002
40
-0.10000000000000001
40
-0.050000000000000003
40
0
40
0
40
0
40
0
40
0
40
0
10
-0.75530047549580637
20
-19.984865975538412
30
0
10
-0.79385937614957525
20
-19.978389895680579
30
2.1854783949314103e-17
10
-0.87151617827857508
20
-19.966114923383184
30
0
10
-0.98961840129472123
20
-19.949734028418298
30
0
10
-1.1503351231716141
20
-19.931972531125695
30
2.1854783949314103e-17
10
-1.3565522030314991
20
-19.916629667252145
30
0
10
-1.5676773559226629
20
-19.908152400373293
30
-2.1854783949314103e-17
10
-1.7827772465866003
20
-19.906419724316475
30
-2.1854783949314103e-17
10
-2.0001693116069146
20
-19.911096153197256
30
0
10
-2.2172297320625165
20
-19.921549347624968
30
0
10
-2.4300618645971697
20
-19.936727272425266
30
0
10
-2.6341345373216654
20
-19.955275100608059
30
0
10
-2.8251003331885323
20
-19.975692411225907
30
0
10
-2.9995711846098563
20
-19.99647075720317
30
0
10
-3.1559102949145417
20
-20.016233186915809
30
2.1854783949314103e-17
10
-3.2951251745730588
20
-20.033880409726297
30
0
10
-3.4215895711546715
20
-20.048719041528582
30
0
10
-3.5414098742606255
20
-20.060353486017021
30
-2.1854783949314103e-17
10
-3.6610630681829717
20
-20.068603789252972
30
-2.1854783949314103e-17
10
-3.7858426265563656
20
-20.073418499893954
30
-2.1854783949314103e-17
10
-3.9186974674584572
20
-20.074803063106501
30
0
10
-4.032560451778938
20
-20.07319586339133
30
0
10
-4.122387570014852
20
-20.070481385459594
30
0
10
-4.1842337394994944
20
-20.068003775361369
30
0
10
-4.2156471457631435
20
-20.06659797975146
30
-2.1854783949314103e-17
0
LINE
5
293
100
AcDbEntity
8
0
100
AcDbLine
10
-4.2156471457631435
20
-20.066597979751464
30
-2.1854783949314109e-17
11
-4.2156471457631435
21
-20.338908868569547
31
-2.1854783949314143e-17
0
LINE
5
294
100
AcDbEntity
8
0
100
AcDbLine
10
-4.2156471457631435
20
-20.338908868569547
30
-2.1854783949314143e-17
11
-4.0413342365268017
21
-20.338908868569547
31
-2.1854783949314119e-17
0
LINE
5
295
100
AcDbEntity
8
0
100
AcDbLine
10
-4.0413342365268017
20
-20.338908868569547
30
-2.1854783949314119e-17
11
-4.0413342365268017
21
-20.463908868569547
31
0
0
LINE
5
296
100
AcDbEntity
8
0
100
AcDbLine
10
-1.8485534949883418
20
-18.467576082987421
30
0
11
-1.5294905504268754
21
-18.467576082987421
31
-3.0215357835127495e-32
0
LINE
5
297
100
AcDbEntity
8
0
100
AcDbLine
10
-1.5294905504268754
20
-18.467576082987421
30
-3.0215357835127495e-32
11
-1.5294905504268759
21
-17.969442491219752
31
2.1854783949295587e-17
0
SPLINE
5
298
100
AcDbEntity
8
0
100
AcDbSpline
70
1064
71
5
72
31
73
25
74
0
42
0.000000001
43
0.0000000001
44
0.0000000001
40
-1
40
-1
40
-1
40
-1
40
-1
40
-1
40
-0.95000000000000029
40
-0.90000000000000024
40
-0.8500000000000002
40
-0.80000000000000016
40
-0.75000000000000011
40
-0.70000000000000007
40
-0.65000000000000002
40
-0.59999999999999998
40
-0.54999999999999993
40
-0.49999999999999994
40
-0.44999999999999996
40
-0.39999999999999997
40
-0.34999999999999998
40
-0.29999999999999999
40
-0.25
40
-0.20000000000000001
40
-0.15000000000000002
40
-0.10000000000000001
40
-0.050000000000000003
40
0
40
0
40
0
40
0
40
0
40
0
10
-1.5294905504268761
20
-17.969442491219752
30
2.1854783949314103e-17
10
-1.5825435977130053
20
-18.000023709767405
30
2.1854783949314103e-17
10
-1.6846786145695836
20
-18.056881786302178
30
0
10
-1.8259680325972565
20
-18.1292559325192
30
2.1854783949314103e-17
10
-1.9904293866906677
20
-18.199822488814231
30
2.1854783949314103e-17
10
-2.1559496612700459
20
-18.244527440059368
30
2.1854783949314103e-17
10
-2.2818557887939299
20
-18.245955523020431
30
0
10
-2.3698626743352604
20
-18.205449904059236
30
2.1854783949314103e-17
10
-2.4235455706859801
20
-18.12603401821006
30
2.1854783949314103e-17
10
-2.4492331163575063
20
-18.013245094669756
30
-2.1854783949314103e-17
10
-2.4561919964079597
20
-17.875369853771435
30
0
10
-2.454752871028826
20
-17.721922391980961
30
0
10
-2.4548281209373246
20
-17.5624728241771
30
0
10
-2.4643330140421287
20
-17.405395912767954
30
0
10
-2.487515559938152
20
-17.256573983633054
30
0
10
-2.5235752439869703
20
-17.118302231428316
30
0
10
-2.5684018199942558
20
-16.990388175098378
30
-2.1854783949314103e-17
10
-2.6159895492381136
20
-16.871017189916937
30
0
10
-2.659905213569151
20
-16.757654128262601
30
-2.1854783949314103e-17
10
-2.6947636478611074
20
-16.647928492440208
30
-2.1854783949314103e-17
10
-2.7175684763872274
20
-16.540442828537682
30
0
10
-2.7250729567535745
20
-16.455673010111948
30
0
10
-2.7245105799184048
20
-16.392670855634421
30
2.1854783949314103e-17
10
-2.7213950784502998
20
-16.350923843973359
30
0
10
-2.7191522010688982
20
-16.330113955194037
30
0
0
SPLINE
5
299
100
AcDbEntity
8
0
100
AcDbSpline
70
1064
71
5
72
20
73
14
74
0
42
0.000000001
43
0.0000000001
44
0.0000000001
40
0
40
0
40
0
40
0
40
0
40
0
40
0.015384615384615385
40
0.030769230769230771
40
0.046153846153846156
40
0.061538461538461542
40
0.076923076923076927
40
0.092307692307692313
40
0.1076923076923077
40
0.12307692307692308
40
0.13809452091635713
40
0.13809452091635713
40
0.13809452091635713
40
0.13809452091635713
40
0.13809452091635713
40
0.13809452091635713
10
-2.7191522010688982
20
-16.330113955194037
30
0
10
-2.713527663745944
20
-16.321609078354875
30
-2.1854783949314103e-17
10
-2.7028596365352295
20
-16.303046324687397
30
0
10
-2.6886006016157409
20
-16.270542831712319
30
2.1854783949314103e-17
10
-2.6730770922236493
20
-16.217885665870568
30
0
10
-2.6596912028796331
20
-16.137268484720941
30
0
10
-2.6529454259628613
20
-16.044159795090334
30
0
10
-2.6540343025422453
20
-15.943093514483257
30
0
10
-2.6650367518379929
20
-15.841910379741377
30
0
10
-2.6882215429999605
20
-15.750895067589996
30
0
10
-2.7178931020990502
20
-15.69359950226791
30
-2.1854783949314103e-17
10
-2.7465495324655724
20
-15.662841043131325
30
0
10
-2.7682025433759407
20
-15.648300524661355
30
0
10
-2.7794905903197522
20
-15.642575975276669
30
2.1854783949314103e-17
0
LINE
5
300
100
AcDbEntity
8
0
100
AcDbLine
10
-2.7794905903197527
20
-15.642575975276669
30
2.1854783949314162e-17
11
-2.9108475300963557
21
-15.642575975276669
31
2.1854783949309432e-17
0
SPLINE
5
301
100
AcDbEntity
8
0
100
AcDbSpline
70
1064
71
5
72
50
73
44
74
0
42
0.000000001
43
0.0000000001
44
0.0000000001
40
0.16816579925242406
40
0.16816579925242406
40
0.16816579925242406
40
0.16816579925242406
40
0.16816579925242406
40
0.16816579925242406
40
0.16923076923076924
40
0.18461538461538463
40
0.20000000000000001
40
0.2153846153846154
40
0.23076923076923078
40
0.24615384615384617
40
0.26153846153846155
40
0.27692307692307694
40
0.29230769230769232
40
0.30769230769230771
40
0.32307692307692309
40
0.33846153846153848
40
0.35384615384615387
40
0.36923076923076925
40
0.38461538461538464
40
0.40000000000000002
40
0.41538461538461541
40
0.43076923076923079
40
0.44615384615384618
40
0.46153846153846156
40
0.47692307692307695
40
0.49230769230769234
40
0.50769230769230766
40
0.52307692307692299
40
0.53846153846153832
40
0.55384615384615365
40
0.56923076923076898
40
0.58461538461538431
40
0.59999999999999964
40
0.61538461538461497
40
0.6307692307692303
40
0.64615384615384563
40
0.66153846153846096
40
0.67692307692307629
40
0.69230769230769162
40
0.70769230769230695
40
0.72307692307692228
40
0.73846153846153761
40
0.74602691197280702
40
0.74602691197280702
40
0.74602691197280702
40
0.74602691197280702
40
0.74602691197280702
40
0.74602691197280702
10
-2.9108475300963548
20
-15.642575975276669
30
0
10
-2.9118607401144168
20
-15.642956388628479
30
0
10
-2.9275187426612428
20
-15.64892551038435
30
0
10
-2.9580402936659107
20
-15.663249830466553
30
0
10
-3.0031846316922146
20
-15.691806147428148
30
-2.1854783949314103e-17
10
-3.0597718073384099
20
-15.741223788580493
30
0
10
-3.117626792715039
20
-15.814333365150739
30
0
10
-3.1591610563961012
20
-15.896415562303863
30
-2.1854783949314103e-17
10
-3.1818135324328396
20
-15.986023546111097
30
0
10
-3.1851927394907293
20
-16.08245868837276
30
0
10
-3.171287545678148
20
-16.184637615916674
30
0
10
-3.1445103872611191
20
-16.29011117876772
30
-2.1854783949314103e-17
10
-3.1121171467728046
20
-16.393538606350344
30
0
10
-3.0828710890922273
20
-16.487937074192352
30
0
10
-3.0649909980125258
20
-16.567091710811638
30
0
10
-3.0642071373342357
20
-16.627768700935967
30
2.1854783949314103e-17
10
-3.0820371010661458
20
-16.671627476025357
30
2.1854783949314103e-17
10
-3.1132733436206532
20
-16.708259690999721
30
0
10
-3.1486196988274555
20
-16.750913284621799
30
0
10
-3.1784225119388645
20
-16.810811124843653
30
0
10
-3.1965785611559641
20
-16.890858728119014
30
0
10
-3.2006973739398537
20
-16.986826732623317
30
0
10
-3.1910693248119353
20
-17.09078641082154
30
0
10
-3.1700390381750965
20
-17.193876949130317
30
0
10
-3.1412320999487959
20
-17.289108058664517
30
0
10
-3.1087971689297387
20
-17.374767557782839
30
0
10
-3.0769539925325269
20
-17.453798484679233
30
0
10
-3.0496814787311646
20
-17.531732068264198
30
2.1854783949314103e-17
10
-3.0303466063792719
20
-17.615051919288035
30
2.1854783949314103e-17
10
-3.0213830147345782
20
-17.709494507524855
30
0
10
-3.0238809964169522
20
-17.818085140363188
30
0
10
-3.0376152891333836
20
-17.941060247627732
30
-2.1854783949314103e-17
10
-3.0612274012173599
20
-18.076493679157288
30
0
10
-3.0923530023035948
20
-18.220685850541013
30
0
10
-3.1277758844354526
20
-18.368650411957621
30
-2.1854783949314103e-17
10
-3.1635563518140208
20
-18.514552758278587
30
0
10
-3.1951986863616226
20
-18.652176524901421
30
-2.1854783949314103e-17
10
-3.2177295070123275
20
-18.775355635101274
30
0
10
-3.2260535625735582
20
-18.878490915253074
30
0
10
-3.21680510158619
20
-18.949170896000489
30
0
10
-3.1964558341756906
20
-18.987632609712012
30
0
10
-3.1750107169384547
20
-19.006629977738733
30
0
10
-3.1597709343746541
20
-19.015095584013093
30
0
10
-3.1544906022876842
20
-19.017576082987386
30
0
0
LINE
5
302
100
AcDbEntity
8
0
100
AcDbLine
10
-3.1544906022876851
20
-19.017576082987386
30
0
11
-2.9854738106294758
21
-19.017576082987425
31
-2.710907211667024e-29
0
SPLINE
5
303
100
AcDbEntity
8
0
100
AcDbSpline
70
1064
71
5
72
26
73
20
74
0
42
0.000000001
43
0.0000000001
44
0.0000000001
40
0.78089504424741296
40
0.78089504424741296
40
0.78089504424741296
40
0.78089504424741296
40
0.78089504424741296
40
0.78089504424741296
40
0.7846153846153836
40
0.79999999999999893
40
0.81538461538461426
40
0.83076923076922959
40
0.84615384615384492
40
0.86153846153846025
40
0.87692307692307558
40
0.89230769230769091
40
0.90769230769230624
40
0.92307692307692157
40
0.9384615384615369
40
0.95384615384615223
40
0.96923076923076756
40
0.98461538461538289
40
1
40
1
40
1
40
1
40
1
40
1
10
-2.9854738106294754
20
-19.017576082987425
30
0
10
-2.9810609542469724
20
-19.016595599461468
30
0
10
-2.9582447704694808
20
-19.011368292140478
30
0
10
-2.9156899542103178
20
-19.000231732521343
30
0
10
-2.8515492697108509
20
-18.980805458439644
30
0
10
-2.7660041107491686
20
-18.952992350683047
30
0
10
-2.6681073884678863
20
-18.923373598193542
30
0
10
-2.575778429973369
20
-18.901190947883176
30
0
10
-2.4887781163790561
20
-18.888081799243132
30
0
10
-2.4050440905246999
20
-18.883931933240035
30
0
10
-2.3214112475396949
20
-18.887458066570783
30
-2.1854783949314103e-17
10
-2.2344087237504482
20
-18.896868511282438
30
0
10
-2.1411565296174269
20
-18.910592519194328
30
0
10
-2.0396753551617475
20
-18.927557757433377
30
0
10
-1.928633082998191
20
-18.947029142994836
30
0
10
-1.8072510868642397
20
-18.968571986639294
30
0
10
-1.7015669155699329
20
-18.987285993164186
30
0
10
-1.6174252699845089
20
-19.002120490586712
30
0
10
-1.5591633661504987
20
-19.012365064916686
30
0
10
-1.5294905504268754
20
-19.017576082987421
30
2.1854783949314103e-17
0
LINE
5
304
100
AcDbEntity
8
0
100
AcDbLine
10
-1.5294905504268757
20
-19.017576082987421
30
2.1854783949314103e-17
11
-1.5294905504268759
21
-18.592576082987421
31
2.1854783949311697e-17
0
LINE
5
305
100
AcDbEntity
8
0
100
AcDbLine
10
-1.5294905504268759
20
-18.592576082987421
30
2.1854783949311697e-17
11
-1.8485534949883418
21
-18.592576082987424
31
2.1854783949314131e-17
0
LINE
5
306
100
AcDbEntity
8
0
100
AcDbLine
10
-1.8485534949883418
20
-18.592576082987424
30
2.1854783949314131e-17
11
-1.8485534949883418
21
-18.467576082987421
31
0
0
LINE
5
307
100
AcDbEntity
8
0
100
AcDbLine
10
-4.8469526367227713
20
-18.467576082987424
30
0
11
-4.5294905504268739
21
-18.467576082987424
31
-3.0842892005694965e-32
0
LINE
5
308
100
AcDbEntity
8
0
100
AcDbLine
10
-4.5294905504268739
20
-18.467576082987424
30
-3.0842892005694965e-32
11
-4.5294905504268748
21
-17.969442491219755
31
-1.8518043887323947e-29
0
SPLINE
5
309
100
AcDbEntity
8
0
100
AcDbSpline
70
1064
71
5
72
31
73
25
74
0
42
0.000000001
43
0.0000000001
44
0.0000000001
40
-1
40
-1
40
-1
40
-1
40
-1
40
-1
40
-0.95000000000000029
40
-0.90000000000000024
40
-0.8500000000000002
40
-0.80000000000000016
40
-0.75000000000000011
40
-0.70000000000000007
40
-0.65000000000000002
40
-0.59999999999999998
40
-0.54999999999999993
40
-0.49999999999999994
40
-0.44999999999999996
40
-0.39999999999999997
40
-0.34999999999999998
40
-0.29999999999999999
40
-0.25
40
-0.20000000000000001
40
-0.15000000000000002
40
-0.10000000000000001
40
-0.050000000000000003
40
0
40
0
40
0
40
0
40
0
40
0
10
-4.5294905504268748
20
-17.969442491219755
30
2.1854783949314103e-17
10
-4.5825435977130038
20
-18.000023709767408
30
0
10
-4.6846786145695827
20
-18.056881786302181
30
-2.1854783949314103e-17
10
-4.8259680325972552
20
-18.129255932519204
30
0
10
-4.9904293866906659
20
-18.199822488814235
30
0
10
-5.1559496612700446
20
-18.244527440059375
30
2.1854783949314103e-17
10
-5.281855788793929
20
-18.245955523020434
30
2.1854783949314103e-17
10
-5.3698626743352582
20
-18.20544990405924
30
0
10
-5.4235455706859792
20
-18.126034018210063
30
0
10
-5.4492331163575045
20
-18.01324509466976
30
-2.1854783949314103e-17
10
-5.4561919964079584
20
-17.875369853771438
30
0
10
-5.4547528710288242
20
-17.721922391980964
30
0
10
-5.4548281209373233
20
-17.562472824177103
30
0
10
-5.4643330140421273
20
-17.405395912767954
30
0
10
-5.4875155599381502
20
-17.256573983633057
30
0
10
-5.5235752439869685
20
-17.11830223142832
30
-2.1854783949314103e-17
10
-5.5684018199942544
20
-16.990388175098381
30
0
10
-5.6159895492381118
20
-16.871017189916941
30
-2.1854783949314103e-17
10
-5.6599052135691501
20
-16.757654128262601
30
0
10
-5.6947636478611061
20
-16.647928492440215
30
0
10
-5.7175684763872257
20
-16.540442828537685
30
2.1854783949314103e-17
10
-5.7250729567535732
20
-16.455673010111951
30
0
10
-5.7245105799184026
20
-16.392670855634428
30
0
10
-5.721395078450298
20
-16.350923843973362
30
0
10
-5.7191522010688969
20
-16.330113955194037
30
-2.1854783949314103e-17
0
SPLINE
5
310
100
AcDbEntity
8
0
100
AcDbSpline
70
1064
71
5
72
20
73
14
74
0
42
0.000000001
43
0.0000000001
44
0.0000000001
40
0
40
0
40
0
40
0
40
0
40
0
40
0.015384615384615385
40
0.030769230769230771
40
0.046153846153846156
40
0.061538461538461542
40
0.076923076923076927
40
0.092307692307692313
40
0.1076923076923077
40
0.12307692307692308
40
0.13809452091635713
40
0.13809452091635713
40
0.13809452091635713
40
0.13809452091635713
40
0.13809452091635713
40
0.13809452091635713
10
-5.7191522010688969
20
-16.330113955194037
30
-2.1854783949314103e-17
10
-5.7135276637459427
20
-16.321609078354879
30
0
10
-5.7028596365352273
20
-16.303046324687404
30
0
10
-5.6886006016157387
20
-16.270542831712319
30
0
10
-5.6730770922236475
20
-16.217885665870568
30
0
10
-5.6596912028796318
20
-16.137268484720945
30
0
10
-5.6529454259628595
20
-16.044159795090337
30
-2.1854783949314103e-17
10
-5.654034302542243
20
-15.943093514483259
30
0
10
-5.6650367518379916
20
-15.841910379741377
30
0
10
-5.6882215429999592
20
-15.750895067589999
30
0
10
-5.7178931020990484
20
-15.693599502267912
30
-2.1854783949314103e-17
10
-5.7465495324655702
20
-15.662841043131328
30
0
10
-5.7682025433759385
20
-15.648300524661359
30
2.1854783949314103e-17
10
-5.7794905903197504
20
-15.642575975276671
30
0
0
LINE
5
311
100
AcDbEntity
8
0
100
AcDbLine
10
-5.7794905903197504
20
-15.642575975276671
30
3.8618349302066066e-32
11
-5.9108475300963539
21
-15.642575975276671
31
-4.6712972322632802e-30
0
SPLINE
5
312
100
AcDbEntity
8
0
100
AcDbSpline
70
1064
71
5
72
50
73
44
74
0
42
0.000000001
43
0.0000000001
44
0.0000000001
40
0.16816579925242406
40
0.16816579925242406
40
0.16816579925242406
40
0.16816579925242406
40
0.16816579925242406
40
0.16816579925242406
40
0.16923076923076924
40
0.18461538461538463
40
0.20000000000000001
40
0.2153846153846154
40
0.23076923076923078
40
0.24615384615384617
40
0.26153846153846155
40
0.27692307692307694
40
0.29230769230769232
40
0.30769230769230771
40
0.32307692307692309
40
0.33846153846153848
40
0.35384615384615387
40
0.36923076923076925
40
0.38461538461538464
40
0.40000000000000002
40
0.41538461538461541
40
0.43076923076923079
40
0.44615384615384618
40
0.46153846153846156
40
0.47692307692307695
40
0.49230769230769234
40
0.50769230769230766
40
0.52307692307692299
40
0.53846153846153832
40
0.55384615384615365
40
0.56923076923076898
40
0.58461538461538431
40
0.59999999999999964
40
0.61538461538461497
40
0.6307692307692303
40
0.64615384615384563
40
0.66153846153846096
40
0.67692307692307629
40
0.69230769230769162
40
0.70769230769230695
40
0.72307692307692228
40
0.73846153846153761
40
0.74602691197280702
40
0.74602691197280702
40
0.74602691197280702
40
0.74602691197280702
40
0.74602691197280702
40
0.74602691197280702
10
-5.910847530096353
20
-15.642575975276671
30
2.1854783949314103e-17
10
-5.911860740114415
20
-15.64295638862848
30
2.1854783949314103e-17
10
-5.927518742661241
20
-15.648925510384355
30
2.1854783949314103e-17
10
-5.9580402936659089
20
-15.663249830466556
30
0
10
-6.0031846316922133
20
-15.691806147428151
30
0
10
-6.0597718073384081
20
-15.741223788580497
30
-2.1854783949314103e-17
10
-6.1176267927150372
20
-15.814333365150743
30
0
10
-6.1591610563960995
20
-15.896415562303869
30
0
10
-6.1818135324328383
20
-15.986023546111102
30
0
10
-6.1851927394907271
20
-16.082458688372764
30
0
10
-6.1712875456781457
20
-16.184637615916682
30
0
10
-6.1445103872611178
20
-16.290111178767724
30
0
10
-6.1121171467728033
20
-16.393538606350347
30
0
10
-6.082871089092226
20
-16.487937074192352
30
0
10
-6.0649909980125241
20
-16.567091710811642
30
0
10
-6.0642071373342334
20
-16.62776870093597
30
0
10
-6.0820371010661445
20
-16.671627476025357
30
0
10
-6.1132733436206514
20
-16.708259690999725
30
0
10
-6.1486196988274537
20
-16.750913284621806
30
0
10
-6.1784225119388632
20
-16.810811124843653
30
0
10
-6.1965785611559623
20
-16.890858728119017
30
0
10
-6.2006973739398523
20
-16.986826732623321
30
2.1854783949314103e-17
10
-6.1910693248119335
20
-17.090786410821543
30
0
10
-6.1700390381750942
20
-17.193876949130317
30
0
10
-6.1412320999487946
20
-17.289108058664521
30
0
10
-6.1087971689297369
20
-17.374767557782842
30
2.1854783949314103e-17
10
-6.0769539925325251
20
-17.453798484679233
30
0
10
-6.0496814787311628
20
-17.531732068264201
30
0
10
-6.030346606379271
20
-17.615051919288039
30
0
10
-6.0213830147345764
20
-17.709494507524855
30
0
10
-6.0238809964169509
20
-17.818085140363191
30
-2.1854783949314103e-17
10
-6.0376152891333819
20
-17.941060247627732
30
0
10
-6.0612274012173586
20
-18.076493679157295
30
0
10
-6.092353002303593
20
-18.220685850541017
30
0
10
-6.1277758844354508
20
-18.368650411957628
30
0
10
-6.1635563518140195
20
-18.51455275827859
30
2.1854783949314103e-17
10
-6.1951986863616213
20
-18.652176524901424
30
0
10
-6.2177295070123257
20
-18.775355635101278
30
0
10
-6.2260535625735569
20
-18.878490915253078
30
-2.1854783949314103e-17
10
-6.2168051015861892
20
-18.949170896000489
30
2.1854783949314103e-17
10
-6.1964558341756888
20
-18.987632609712012
30
2.1854783949314103e-17
10
-6.1750107169384538
20
-19.006629977738733
30
0
10
-6.1597709343746532
20
-19.015095584013096
30
0
10
-6.1544906022876829
20
-19.017576082987389
30
0
0
LINE
5
313
100
AcDbEntity
8
0
100
AcDbLine
10
-6.1544906022876837
20
-19.017576082987389
30
5.5340063315923417e-33
11
-5.9854738106294745
21
-19.017576082987429
31
-2.710907211667024e-29
0
SPLINE
5
314
100
AcDbEntity
8
0
100
AcDbSpline
70
1064
71
5
72
26
73
20
74
0
42
0.000000001
43
0.0000000001
44
0.0000000001
40
0.78089504424741296
40
0.78089504424741296
40
0.78089504424741296
40
0.78089504424741296
40
0.78089504424741296
40
0.78089504424741296
40
0.7846153846153836
40
0.79999999999999893
40
0.81538461538461426
40
0.83076923076922959
40
0.84615384615384492
40
0.86153846153846025
40
0.87692307692307558
40
0.89230769230769091
40
0.90769230769230624
40
0.92307692307692157
40
0.9384615384615369
40
0.95384615384615223
40
0.96923076923076756
40
0.98461538461538289
40
1
40
1
40
1
40
1
40
1
40
1
10
-5.9854738106294736
20
-19.017576082987429
30
2.1854783949314103e-17
10
-5.9810609542469706
20
-19.016595599461471
30
0
10
-5.958244770469479
20
-19.011368292140482
30
0
10
-5.9156899542103156
20
-19.000231732521346
30
-2.1854783949314103e-17
10
-5.8515492697108495
20
-18.980805458439647
30
0
10
-5.7660041107491669
20
-18.952992350683051
30
2.1854783949314103e-17
10
-5.6681073884678845
20
-18.923373598193542
30
-2.1854783949314103e-17
10
-5.5757784299733668
20
-18.90119094788318
30
0
10
-5.4887781163790548
20
-18.888081799243135
30
-2.1854783949314103e-17
10
-5.4050440905246981
20
-18.883931933240039
30
0
10
-5.321411247539694
20
-18.887458066570787
30
0
10
-5.2344087237504473
20
-18.896868511282442
30
0
10
-5.1411565296174251
20
-18.910592519194331
30
2.1854783949314103e-17
10
-5.0396753551617461
20
-18.927557757433384
30
-2.1854783949314103e-17
10
-4.9286330829981901
20
-18.947029142994836
30
2.1854783949314103e-17
10
-4.8072510868642384
20
-18.968571986639297
30
-2.1854783949314103e-17
10
-4.7015669155699316
20
-18.987285993164189
30
0
10
-4.6174252699845075
20
-19.002120490586716
30
0
10
-4.5591633661504973
20
-19.01236506491669
30
0
10
-4.5294905504268739
20
-19.017576082987429
30
0
0
LINE
5
315
100
AcDbEntity
8
0
100
AcDbLine
10
-4.5294905504268739
20
-19.017576082987429
30
-5.1571059321041764e-33
11
-4.5294905504268739
21
-18.592576082987424
31
-2.4069574864026934e-30
0
LINE
5
316
100
AcDbEntity
8
0
100
AcDbLine
10
-4.5294905504268739
20
-18.592576082987424
30
-2.4069574864026934e-30
11
-4.8469526367227713
21
-18.592576082987424
31
3.0842892005694965e-32
0
LINE
5
317
100
AcDbEntity
8
0
100
AcDbLine
10
-4.8469526367227713
20
-18.592576082987424
30
3.0842892005694965e-32
11
-4.8469526367227713
21
-18.467576082987424
31
0
0
LWPOLYLINE
5
318
100
AcDbEntity
8
0
100
AcDbPolyline
90
16
70
1
43
0.0
10
-9.7354700232126028
20
-19.805101248432877
10
-9.7354700232126046
20
-20.017576082987404
10
-10.610470023212605
20
-20.017576082987407
10
-10.610470023212605
20
-19.805101248432877
10
-10.735470023212605
20
-19.805101248432877
10
-10.735470023212606
20
-20.017576082987407
10
-11.985473810629509
20
-20.017576082987407
42
-0.1226303111504559
10
-12.358981626786761
20
-19.017576082987411
10
-11.96612427740385
20
-19.017576082987407
10
-11.96612427740385
20
-18.892576082987411
10
-12.369634694255419
20
-18.892576082987421
42
-0.16603152245196551
10
-11.985473810629504
20
-17.517576082987414
10
-8.343001411346064
20
-17.517576082987404
42
-0.31016039128293038
10
-8.3430014113460587
20
-20.017576082987404
10
-9.6104700232126028
20
-20.017576082961426
10
-9.6104700232126046
20
-19.805101248432877
0
LWPOLYLINE
5
319
100
AcDbEntity
8
0
100
AcDbPolyline
90
12
70
1
43
0.0
10
-9.6583304073242839
20
-16.017576082984114
10
-9.6583304073242839
20
-16.51757608298027
10
-10.533330407324286
20
-16.517576082987379
10
-10.533330407324286
20
-16.017576082986118
10
-10.658330407324284
20
-16.017576082986402
10
-10.658330407324286
20
-16.517576082987379
10
-11.286169134784759
20
-16.517576082987382
42
-0.57625120945453878
10
-10.423433085310801
20
-13.517576082987388
10
-9.5475145359481974
20
-13.517576082987381
42
-0.57625120945453945
10
-8.6847784864742241
20
-16.517576082987379
10
-9.5333304073242822
20
-16.51757608298027
10
-9.5333304073242839
20
-16.017576082983826
0
LWPOLYLINE
5
320
100
AcDbEntity
8
0
100
AcDbPolyline
90
10
70
1
43
0.0
10
-2.3576350831690047
20
-14.535237823368881
10
-2.3576350831690043
20
-15.01757608298742
10
-3.2362857708365755
20
-15.01757608298742
10
-3.2362857708365755
20
-14.535237823368881
10
-3.3612139604174223
20
-14.535237823368881
10
-3.3612139604174236
20
-15.01757608298742
10
-3.9854738106294785
20
-15.017576082987425
42
-2.3479519761382952
10
-1.3840831623189449
20
-15.01757608298742
10
-2.2326350831690029
20
-15.01757608298742
10
-2.2326350831690043
20
-14.535237823368881
0
LWPOLYLINE
5
321
100
AcDbEntity
8
0
100
AcDbPolyline
90
12
70
1
43
0.0
10
-7.5296497427966642
20
-9.2675760830004013
10
-7.5296497427966642
20
-9.0175760829874108
10
-6.98547381062951
20
-9.0175760829874037
42
-0.65084557963752054
10
-6.9854738106294949
20
-13.517576082987395
10
-8.978112481574243
20
-13.517576082987402
42
-0.65084557963752043
10
-8.9781124815742555
20
-9.0175760829874108
10
-8.654649742796666
20
-9.0175760829874108
10
-8.654649742796666
20
-9.2675760829874108
10
-8.5273456560006657
20
-9.2675760829888798
10
-8.5273456560006675
20
-9.0175760829874108
10
-7.6546497427966642
20
-9.0175760830133918
10
-7.6546497427966624
20
-9.2675760829989571
0
LWPOLYLINE
5
322
100
AcDbEntity
8
0
100
AcDbPolyline
90
16
70
1
43
0.0
10
-1.6100664278808432
20
-10.017576082987434
10
-1.3813791984020214
20
-10.017576082987434
42
-0.25092606451812299
10
-2.1847401205734402
20
-11.51757608298743
10
-2.7312831012105403
20
-11.517576082980321
10
-2.7312831012105416
20
-11.017576082983878
10
-2.8562831012105421
20
-11.017576082984251
10
-2.8562831012105407
20
-11.517576082980323
10
-3.731283101210543
20
-11.517576082987429
10
-3.731283101210543
20
-11.017576082986857
10
-3.8562831012105425
20
-11.01757608298723
10
-3.8562831012105434
20
-11.51757608298743
10
-4.1821128884580574
20
-11.517576082987434
42
-0.53557394811428249
10
-4.1821128884580672
20
-8.517576082987441
10
-2.1847401205734358
20
-8.5175760829874321
42
-0.23255613672288561
10
-1.3857197727400201
20
-9.8925760829874356
10
-1.6100664278808425
20
-9.8925760829874338
0
LWPOLYLINE
5
323
100
AcDbEntity
8
0
100
AcDbPolyline
90
14
70
1
43
0.0
10
-7.6583304073242884
20
-7.2675760829865137
10
-7.6583304073242884
20
-8.0175760829874267
10
-8.5333304073242893
20
-8.0175760829874285
10
-8.5333304073242893
20
-7.2675760829873166
10
-8.6583304073242893
20
-7.2675760829874312
10
-8.6583304073242893
20
-8.0175760829874267
10
-9.6014905671293107
20
-8.0175760829874392
42
-0.59718328233337659
10
-9.601490567129332
20
-2.0175760829874503
10
-6.3694570541296915
20
-2.0175760829874374
42
-0.59718328233337681
10
-6.3694570541296711
20
-8.0175760829874267
10
-7.4083304073242884
20
-8.0175760829874267
10
-7.4083304073242884
20
-8.0144217063352396
10
-7.5333304073242875
20
-8.0144217063352396
10
-7.5333304073242893
20
-7.2675760829863991
0
LWPOLYLINE
5
324
100
AcDbEntity
8
0
100
AcDbPolyline
90
8
70
1
43
0.0
10
-2.5333304073242791
20
-7.0278751515585887
10
-2.5333304073242791
20
-6.6855359670769738
10
-2.6583304073242804
20
-6.6855359670769756
10
-2.6583304073242844
20
-7.0749856813844083
42
-0.20735652513537006
10
-3.5333304073242817
20
-6.9793406147550412
10
-3.5333304073242817
20
-6.6855359670769756
10
-3.6583304073242813
20
-6.6855359670769756
10
-3.6583304073242751
20
-6.896440045948979
42
-3.6337126808284546
0
LWPOLYLINE
5
325
100
AcDbEntity
8
0
100
AcDbPolyline
90
12
70
1
43
0.0
10
-2.5333304073242791
20
-4.0175760829874569
10
-2.5333304073242791
20
-3.5196487420943163
10
-2.6583304073242791
20
-3.5194184466379985
10
-2.6583304073242782
20
-4.0175760829874569
10
-3.4599607599844155
20
-4.0175760829874552
42
-0.018816267145698801
10
-3.5338029395574755
20
-3.9790712891519062
10
-3.5338029395574759
20
-3.5178055078675663
10
-3.6583304073242813
20
-3.5175760829874592
10
-3.6583304073242755
20
-3.8964400459489892
42
-0.5610514571292865
10
-3.459960759984412
20
-2.0175760829874645
10
-2.5109868612745778
20
-2.0175760829874614
42
-0.63237251105915726
10
-2.5109868612745734
20
-4.0175760829874569
0
LWPOLYLINE
5
326
100
AcDbEntity
8
0
100
AcDbPolyline
90
12
70
1
43
0.0
10
-15.533330407324321
20
-6.7675760829874285
10
-15.533330407324321
20
-6.1425760829874303
10
-15.658330407324323
20
-6.1425760829860323
10
-15.658330407324323
20
-6.7675760829874285
10
-16.456568531330735
20
-6.7675760829874259
42
-0.0069961475690591751
10
-16.533330407324325
20
-6.7533179175417288
10
-16.533330407324321
20
-6.1425760829762455
10
-16.658330407324321
20
-6.1425760829748484
10
-16.658330407324314
20
-6.7252862292469651
42
-0.81212775988181829
10
-16.456568531330731
20
-1.2675760829874492
10
-15.514379089928349
20
-1.2675760829874447
42
-0.84325980390077848
10
-15.514379089928344
20
-6.7675760829874285
0
LWPOLYLINE
5
327
100
AcDbEntity
8
0
100
AcDbPolyline
90
12
70
1
43
0.0
10
-14.658330407324323
20
-13.142576082974802
10
-14.658330407324323
20
-13.767576082962217
10
-15.533330407324325
20
-13.767576082962217
10
-15.533330407324325
20
-13.142576082974802
10
-15.658330407324327
20
-13.142576082974802
10
-15.658330407324327
20
-13.76757608296222
10
-16.184431578721096
20
-13.767576082987391
42
-0.65492443158289093
10
-16.18443157872111
20
-8.2675760829874019
10
-13.786516042537972
20
-8.2675760829873965
42
-0.65492443158289004
10
-13.786516042537961
20
-13.767576082987382
10
-14.533330407324323
20
-13.767576082962217
10
-14.533330407324323
20
-13.142576082974802
0
LWPOLYLINE
5
328
100
AcDbEntity
8
0
100
AcDbPolyline
90
12
70
1
43
0.0
10
-14.533330407324314
20
-19.017576082961401
10
-14.533330407324314
20
-18.76757608297439
10
-14.658330407324312
20
-18.767576082975836
10
-14.658330407324312
20
-19.017576082961401
10
-15.53919437713189
20
-19.017576082987379
10
-15.53919437713189
20
-18.767576082986004
10
-15.658330407324314
20
-18.767576082987379
10
-15.658330407324314
20
-19.017576082987379
10
-15.934447709339347
20
-19.017576082987382
42
-0.6323725110591577
10
-15.934447709339361
20
-15.017576082987395
10
-14.036499911919705
20
-15.017576082987389
42
-0.63237251105915881
10
-14.036499911919694
20
-19.017576082987379
0
LWPOLYLINE
5
329
100
AcDbEntity
8
0
100
AcDbPolyline
90
12
70
1
43
0.0
10
-15.985473810629516
20
-22.267576082974411
10
-15.985473810629516
20
-22.0175760829874
10
-16.110473810629518
20
-22.0175760829874
10
-16.110473810629518
20
-22.267576082974411
10
-16.985473810629518
20
-22.267576083000392
10
-16.985473810629514
20
-22.0175760829874
10
-17.110473810629518
20
-22.0175760829874
10
-17.110473810629518
20
-22.267576083000392
10
-17.738312538089993
20
-22.267576083000399
42
-0.40261986603914657
10
-17.73831253809
20
-19.767576083000399
10
-15.136921889779465
20
-19.767576083000389
42
-0.40261986603914623
10
-15.136921889779458
20
-22.267576083000392
0
LWPOLYLINE
5
330
100
AcDbEntity
8
0
100
AcDbPolyline
90
20
70
1
43
0.0
10
-12.186759248250047
20
-21.88810370318377
10
-12.186759248250047
20
-22.147281472674116
42
-0.066342408901692934
10
-12.361759248250046
20
-22.207110885431593
10
-12.361759248250046
20
-21.889704561449339
10
-12.486759248250046
20
-21.889704561449342
10
-12.486759248250046
20
-22.22053888778904
42
-0.063123559858481795
10
-12.661759248250048
20
-22.201390331147088
10
-12.66175924825005
20
-21.856886848299606
10
-12.786759248250048
20
-21.856886848299602
10
-12.786759248250046
20
-22.158634562006363
42
-0.52973272048727049
10
-12.985473810629475
20
-21.017576082987425
10
-12.975524874277985
20
-21.07399930484214
10
-12.852423905151459
20
-21.052293282633773
10
-12.874030483626116
20
-20.929756286946311
42
-0.19160816021260174
10
-12.365572638679001
20
-20.833421559803135
10
-12.32274897000662
20
-21.07628665339411
10
-12.199648000880094
20
-21.054580631185743
10
-12.231554055203821
20
-20.873632405363889
42
-0.57118070672248611
10
-12.061759248250047
20
-22.067506717404854
10
-12.061759248250047
20
-21.88810370318377
0
ENDSEC
0
SECTION
2
OBJECTS
0
DICTIONARY
5
C
100
AcDbDictionary
3
ACAD_GROUP
350
D
3
ACAD_MLINESTYLE
350
17
0
DICTIONARY
5
D
100
AcDbDictionary
0
DICTIONARY
5
1A
330
C
100
AcDbDictionary
0
DICTIONARY
5
17
100
AcDbDictionary
0
ENDSEC
0
EOF
