0
SECTION
2
HEADER
9
$INSUNITS
70
1
9
$ACADVER
1
AC1014
9
$HANDSEED
5
FFFF
0
ENDSEC
0
SECTION
2
TABLES
0
TABLE
2
VPORT
5
8
100
AcDbSymbolTable
0
ENDTAB
0
TABLE
2
LTYPE
5
5
100
AcDbSymbolTable
0
LTYPE
5
14
100
AcDbSymbolTableRecord
100
AcDbLinetypeTableRecord
2
BYBLOCK
70
0
0
LTYPE
5
15
100
AcDbSymbolTableRecord
100
AcDbLinetypeTableRecord
2
BYLAYER
70
0
0
ENDTAB
0
TABLE
2
LAYER
5
2
100
AcDbSymbolTable
70
2
0
LAYER
5
50
100
AcDbSymbolTableRecord
100
AcDbLayerTableRecord
2
0
70
0
6
CONTINUOUS
0
ENDTAB
0
TABLE
2
STYLE
5
3
100
AcDbSymbolTable
70
1
0
STYLE
5
11
100
AcDbSymbolTableRecord
100
AcDbTextStyleTableRecord
2
STANDARD
70
0
0
ENDTAB
0
TABLE
2
VIEW
5
6
100
AcDbSymbolTable
70
0
0
ENDTAB
0
TABLE
2
UCS
5
7
100
AcDbSymbolTable
70
0
0
ENDTAB
0
TABLE
2
APPID
5
9
100
AcDbSymbolTable
70
2
0
APPID
5
12
100
AcDbSymbolTableRecord
100
AcDbRegAppTableRecord
2
ACAD
70
0
0
ENDTAB
0
TABLE
2
DIMSTYLE
5
A
100
AcDbSymbolTable
70
1
0
ENDTAB
0
TABLE
2
BLOCK_RECORD
5
1
100
AcDbSymbolTable
70
1
0
BLOCK_RECORD
5
1F
100
AcDbSymbolTableRecord
100
AcDbBlockTableRecord
2
*MODEL_SPACE
0
BLOCK_RECORD
5
1B
100
AcDbSymbolTableRecord
100
AcDbBlockTableRecord
2
*PAPER_SPACE
0
ENDTAB
0
ENDSEC
0
SECTION
2
BLOCKS
0
BLOCK
5
20
100
AcDbEntity
100
AcDbBlockBegin
2
*MODEL_SPACE
0
ENDBLK
5
21
100
AcDbEntity
100
AcDbBlockEnd
0
BLOCK
5
1C
100
AcDbEntity
100
AcDbBlockBegin
2
*PAPER_SPACE
0
ENDBLK
5
1D
100
AcDbEntity
100
AcDbBlockEnd
0
ENDSEC
0
SECTION
2
ENTITIES
0
LWPOLYLINE
5
100
100
AcDbEntity
8
0
100
AcDbPolyline
90
4
70
1
43
0.0
10
67.999999699630138
20
-71.000000375462321
10
19.999999699630134
20
-71.000000375462321
10
19.999999699630134
20
24.999999624537669
10
67.999999699630138
20
24.999999624537669
0
LWPOLYLINE
5
101
100
AcDbEntity
8
0
100
AcDbPolyline
90
4
70
1
43
0.0
10
58.99443781562379
20
16.579038582627629
10
59.431937815623797
20
16.579038582627629
10
59.431937815623797
20
19.792411713787409
10
58.99443781562379
20
19.792411713787409
0
LWPOLYLINE
5
102
100
AcDbEntity
8
0
100
AcDbPolyline
90
4
70
1
43
0.0
10
59.431937815623797
20
12.177718066122845
10
58.99443781562379
20
12.177718066122845
10
58.99443781562379
20
8.9643449349630657
10
59.431937815623797
20
8.9643449349630657
0
LWPOLYLINE
5
103
100
AcDbEntity
8
0
100
AcDbPolyline
90
12
70
1
43
0.0
10
62.999999699630145
20
5.8158783243752357
10
57.999999699630138
20
5.8158783243752374
10
57.999999699630123
20
22.940878324375237
10
62.999999699630131
20
22.940878324375237
10
62.999999699630131
20
20.716295458299278
10
63.437499699630138
20
20.716295458299278
10
63.437499699630138
20
16.756757024212806
10
62.999999699630131
20
16.756757024212806
10
62.999999699630131
20
11.999999624537669
10
63.437499699630138
20
11.999999624537669
10
63.437499699630138
20
8.0404611904511967
10
62.999999699630131
20
8.0404611904511967
0
LWPOLYLINE
5
104
100
AcDbEntity
8
0
100
AcDbPolyline
90
22
70
1
43
0.0
10
55.139547501648011
20
5.9948731990742505
10
55.139547501648011
20
4.4374996245376686
10
53.999999699630123
20
4.4374996245376686
10
53.999999699630123
20
3.999999624537669
10
52.308218103286414
20
3.999999624537669
10
52.308218103286414
20
4.4374996245376686
10
50.13398561764167
20
4.4374996245376686
42
0.38224678692202174
10
51.133985617641677
20
5.5544316997077363
10
51.133985617641677
20
21.903097767187678
42
0.40100297010559305
10
50.133985617641677
20
22.949469839875192
10
52.308218103286414
20
22.949469839875192
10
52.308218103286414
20
23.386969839875192
10
53.999999699630123
20
23.386969839875192
10
53.999999699630123
20
22.949469839875192
10
55.139547501648011
20
22.949469839875192
10
55.139547501648011
20
21.392096265338608
10
55.577047501648018
20
21.392096265338608
10
55.577047501648018
20
18.252201194538063
10
55.139547501648011
20
18.252201194538063
10
55.139547501648011
20
9.1347682698747974
10
55.577047501648018
20
9.1347682698747974
10
55.577047501648018
20
5.9948731990742505
0
LWPOLYLINE
5
105
100
AcDbEntity
8
0
100
AcDbPolyline
90
4
70
1
43
0.0
10
53.505561583636478
20
-2.1484669860501606
10
53.068061583636471
20
-2.1484669860501606
10
53.068061583636464
20
-5.3618401172099404
10
53.505561583636464
20
-5.3618401172099404
0
LWPOLYLINE
5
106
100
AcDbEntity
8
0
100
AcDbPolyline
90
4
70
1
43
0.0
10
53.068061583636464
20
-12.976533764874505
10
53.505561583636464
20
-12.976533764874505
10
53.505561583636478
20
-9.7631606337147243
10
53.068061583636471
20
-9.7631606337147243
0
LWPOLYLINE
5
107
100
AcDbEntity
8
0
100
AcDbPolyline
90
12
70
1
43
0.0
10
49.499999699630138
20
0.99999962453766889
10
54.499999699630131
20
0.99999962453766744
10
54.499999699630131
20
-16.125000375462331
10
49.499999699630138
20
-16.125000375462331
10
49.499999699630138
20
-14.616353022640682
10
49.062499699630138
20
-14.616353022640682
10
49.062499699630138
20
-10.65681458855421
10
49.499999699630138
20
-10.65681458855421
10
49.499999699630138
20
-4.4681861623704542
10
49.062499699630138
20
-4.4681861623704542
10
49.062499699630138
20
-0.50864772828398297
10
49.499999699630138
20
-0.50864772828398297
0
LWPOLYLINE
5
108
100
AcDbEntity
8
0
100
AcDbPolyline
90
36
70
1
43
0.0
10
27.999999939926028
20
-13.56250037546233
10
25.539828078291393
20
-13.56250037546233
10
25.539828078291393
20
-11.2890337648745
10
25.102328078291393
20
-11.2890337648745
10
25.102328078291393
20
-8.0756606337147208
10
25.539828078291393
20
-8.0756606337147208
10
25.539828078291393
20
-3.6743401172099368
10
25.102328078291393
20
-3.6743401172099368
10
25.102328078291393
20
-0.46096698605015551
10
25.539828078291393
20
-0.46096698605015551
10
25.539828078291393
20
1.8124996245376725
10
27.999999939926028
20
1.8124996245376725
10
27.999999939926028
20
2.2499996245376717
10
32.465869014574714
20
2.2499996245376717
10
32.465869014574722
20
1.8124996245376725
10
37.125757357345599
20
1.8124996245376725
10
37.125757357345599
20
2.2499996245376717
10
41.591626431994285
20
2.2499996245376717
10
41.591626431994285
20
1.8124996245376725
10
44.05179829362892
20
1.8124996245376725
10
44.05179829362892
20
-0.46096698605015551
10
44.48929829362892
20
-0.46096698605015551
10
44.48929829362892
20
-3.6743401172099368
10
44.05179829362892
20
-3.6743401172099368
10
44.05179829362892
20
-8.0756606337147208
10
44.48929829362892
20
-8.0756606337147208
10
44.48929829362892
20
-11.2890337648745
10
44.05179829362892
20
-11.2890337648745
10
44.05179829362892
20
-13.56250037546233
10
41.591626431994285
20
-13.56250037546233
10
41.591626431994285
20
-14.00000037546233
10
37.125757357345599
20
-14.00000037546233
10
37.125757357345591
20
-13.56250037546233
10
32.465869014574714
20
-13.56250037546233
10
32.465869014574714
20
-14.00000037546233
10
27.999999939926028
20
-14.00000037546233
0
LWPOLYLINE
5
109
100
AcDbEntity
8
0
100
AcDbPolyline
90
30
70
1
43
0.0
10
22.744014591961374
20
-23.721531317465494
10
22.744014591961374
20
-21.547298831820754
10
22.306514591961374
20
-21.547298831820754
10
22.306514591961374
20
-19.855517235477041
10
22.744014591961374
20
-19.855517235477041
10
22.744014591961374
20
-18.715969433459158
10
24.301388166497958
20
-18.715969433459158
10
24.301388166497958
20
-18.278469433459161
10
27.441283237298503
20
-18.278469433459161
10
27.441283237298503
20
-18.715969433459158
10
36.558716161961769
20
-18.715969433459158
10
36.558716161961769
20
-18.278469433459161
10
39.698611232762318
20
-18.278469433459161
10
39.698611232762318
20
-18.715969433459161
10
41.255984807298901
20
-18.715969433459158
10
41.255984807298901
20
-19.855517235477041
10
41.693484807298901
20
-19.855517235477041
10
41.693484807298901
20
-21.547298831820754
10
41.255984807298901
20
-21.547298831820754
10
41.255984807298901
20
-23.721531317465502
42
0.38224678692201797
10
40.139052732128832
20
-22.721531317465498
10
38.79581294566426
20
-22.721531317465494
10
38.79581294566426
20
-22.284031317465494
10
34.329943871015573
20
-22.284031317465498
10
34.329943871015573
20
-22.721531317465498
10
29.670055528244699
20
-22.721531317465494
10
29.670055528244699
20
-22.284031317465494
10
25.204186453596009
20
-22.284031317465494
10
25.204186453596009
20
-22.721531317465494
10
23.790386664648889
20
-22.721531317465494
42
0.40100297010560287
0
LWPOLYLINE
5
110
100
AcDbEntity
8
0
100
AcDbPolyline
90
4
70
1
43
0.0
10
19.999999699630134
20
-71.000000375462321
10
67.999999699630138
20
-71.000000375462321
10
67.999999699630138
20
24.999999624537669
10
19.999999699630134
20
24.999999624537669
0
LWPOLYLINE
5
111
100
AcDbEntity
8
0
100
AcDbPolyline
90
4
70
1
43
0.0
10
43.707497712902949
20
5.8749996245376686
10
43.707497712902949
20
6.3124996245376694
10
40.567602642102408
20
6.3124996245376694
10
40.567602642102408
20
5.8749996245376686
0
LWPOLYLINE
5
112
100
AcDbEntity
8
0
100
AcDbPolyline
90
4
70
1
43
0.0
10
28.31027464663859
20
6.3124996245376694
10
28.31027464663859
20
5.8749996245376686
10
31.450169717439138
20
5.8749996245376686
10
31.450169717439131
20
6.3124996245376694
0
LWPOLYLINE
5
113
100
AcDbEntity
8
0
100
AcDbPolyline
90
4
70
1
43
0.0
10
28.31027464663859
20
22.124999624537669
10
28.31027464663859
20
21.687499624537669
10
31.450169717439138
20
21.687499624537669
10
31.450169717439131
20
22.124999624537669
0
LWPOLYLINE
5
114
100
AcDbEntity
8
0
100
AcDbPolyline
90
4
70
1
43
0.0
10
40.567602642102408
20
22.124999624537669
10
40.567602642102408
20
21.687499624537669
10
43.707497712902949
20
21.687499624537669
10
43.707497712902949
20
22.124999624537669
0
LWPOLYLINE
5
115
100
AcDbEntity
8
0
100
AcDbPolyline
90
4
70
1
43
0.0
10
45.264871287439533
20
10.905685411445793
10
45.264871287439533
20
6.9461469773593212
10
45.702371287439533
20
6.9461469773593212
10
45.702371287439533
20
10.905685411445793
0
LWPOLYLINE
5
116
100
AcDbEntity
8
0
100
AcDbPolyline
90
4
70
1
43
0.0
10
45.264871287439533
20
21.053852271716021
10
45.264871287439533
20
17.094313837629549
10
45.702371287439533
20
17.094313837629549
10
45.702371287439533
20
21.053852271716021
0
LWPOLYLINE
5
117
100
AcDbEntity
8
0
100
AcDbPolyline
90
4
70
1
43
0.0
10
26.755912102155559
20
11.621620924700101
10
26.318412102155559
20
11.621620924700101
10
26.318412102155559
20
7.6620824906136304
10
26.755912102155559
20
7.6620824906136304
0
LWPOLYLINE
5
118
100
AcDbEntity
8
0
100
AcDbPolyline
90
4
70
1
43
0.0
10
26.318412102155559
20
16.378378324375237
10
26.755912102155559
20
16.378378324375237
10
26.755912102155559
20
20.337916758461709
10
26.318412102155559
20
20.337916758461709
0
LWPOLYLINE
5
119
100
AcDbEntity
8
0
100
AcDbPolyline
90
4
70
1
43
0.0
10
46.577371287439533
20
4.9999996245376703
10
25.422628111820742
20
4.9999996245376712
10
25.42262811182075
20
22.999999624537669
10
46.577371287439533
20
22.999999624537669
0
ENDSEC
0
SECTION
2
OBJECTS
0
DICTIONARY
5
C
100
AcDbDictionary
3
ACAD_GROUP
350
D
3
ACAD_MLINESTYLE
350
17
0
DICTIONARY
5
D
100
AcDbDictionary
0
DICTIONARY
5
1A
330
C
100
AcDbDictionary
0
DICTIONARY
5
17
100
AcDbDictionary
0
ENDSEC
0
EOF
