<?xml version="1.0" encoding="UTF-8" standalone="no"?>
<svg
   xmlns:dc="http://purl.org/dc/elements/1.1/"
   xmlns:cc="http://creativecommons.org/ns#"
   xmlns:rdf="http://www.w3.org/1999/02/22-rdf-syntax-ns#"
   xmlns:svg="http://www.w3.org/2000/svg"
   xmlns="http://www.w3.org/2000/svg"
   xmlns:sodipodi="http://sodipodi.sourceforge.net/DTD/sodipodi-0.dtd"
   xmlns:inkscape="http://www.inkscape.org/namespaces/inkscape"
   width="65"
   height="65"
   viewBox="0 0 17.197916 17.197917"
   version="1.1"
   id="svg1433"
   inkscape:version="1.0.1 (c497b03c, 2020-09-10)"
   sodipodi:docname="logo-1-color.svg">
  <defs
     id="defs1427" />
  <sodipodi:namedview
     id="base"
     pagecolor="#ffffff"
     bordercolor="#666666"
     borderopacity="1.0"
     inkscape:pageopacity="0.0"
     inkscape:pageshadow="2"
     inkscape:zoom="4.0329187"
     inkscape:cx="-37.627745"
     inkscape:cy="17.103278"
     inkscape:document-units="mm"
     inkscape:current-layer="layer1"
     inkscape:document-rotation="0"
     showgrid="false"
     inkscape:window-width="1261"
     inkscape:window-height="776"
     inkscape:window-x="16"
     inkscape:window-y="25"
     inkscape:window-maximized="0"
     units="px" />
  <metadata
     id="metadata1430">
    <rdf:RDF>
      <cc:Work
         rdf:about="">
        <dc:format>image/svg+xml</dc:format>
        <dc:type
           rdf:resource="http://purl.org/dc/dcmitype/StillImage" />
        <dc:title></dc:title>
      </cc:Work>
    </rdf:RDF>
  </metadata>
  <g
     inkscape:label="Capa 1"
     inkscape:groupmode="layer"
     id="layer1"
     transform="translate(-6.5200897,-7.0840349)">
    <g
       id="g4251"
       transform="translate(0,0.56394556)">
      <path
         style="fill:#b36924;fill-opacity:1;stroke:#000000;stroke-width:0.207809;stroke-miterlimit:4;stroke-dasharray:none;stroke-opacity:1"
         d="m 16.680713,22.73173 c 0.742266,-0.364981 1.639934,-1.310254 2.109671,-2.221552 0.612981,-1.189192 1.122381,-1.648363 2.790675,-2.515501 1.44984,-0.753592 1.869248,-1.330169 2.005595,-2.757169 0.06105,-0.638966 0.05024,-0.69568 -0.223913,-1.174852 -0.363778,-0.635819 -0.813851,-1.020838 -2.032465,-1.73869 -1.390123,-0.818883 -1.81359,-1.27341 -2.489691,-2.6723028 C 18.417556,8.776391 18.17014,8.38805 17.799182,8.0170883 16.957469,7.1753676 16.579684,7.0727346 15.087191,7.2803214 c -1.114319,0.1549871 -1.966745,0.7971469 -2.525423,1.9024794 -0.456284,0.9027502 -0.920337,1.6583672 -1.17465,1.9126792 -0.299912,0.299912 -0.784547,0.557725 -1.8327042,0.974949 -2.1249427,0.845843 -2.9297558,1.724077 -2.9304187,3.197751 -2.954e-4,0.65244 0.075412,0.874896 0.5547591,1.630137 0.2312605,0.364366 0.5057248,0.549874 1.8320968,1.238302 1.797681,0.933052 2.055366,1.149009 2.719925,2.279487 0.614523,1.04536 0.743633,1.21316 1.349201,1.753497 1.03333,0.922023 2.426492,1.139516 3.600736,0.562127 z"
         id="path1141" />
      <path
         style="fill:#5f4029;fill-opacity:1;stroke:#000000;stroke-width:0.207809;stroke-miterlimit:4;stroke-dasharray:none;stroke-opacity:1"
         d="M 14.706293,22.51685 C 14.441159,22.475191 14.046321,22.335826 13.828876,22.207148 13.388304,21.94643 12.724056,21.296233 12.536884,20.942488 11.623208,19.215677 11.096118,18.698454 9.344089,17.80946 7.9201514,17.086943 7.6369558,16.862223 7.3022025,16.189194 6.8771153,15.334547 7.1016829,14.208795 7.8336896,13.524862 c 0.2747445,-0.256701 1.1219296,-0.697037 2.4164414,-1.255979 1.259096,-0.54365 1.702224,-0.962265 2.341434,-2.211913 0.881191,-1.7227156 1.529337,-2.2467795 2.936443,-2.3742884 0.628084,-0.056915 0.752745,-0.03968 1.202638,0.1662899 0.67039,0.3069138 1.122184,0.7937549 1.518316,1.6360945 0.180415,0.3836342 0.390333,0.827685 0.466484,0.986779 0.212494,0.443934 0.956017,1.299748 1.367974,1.574572 0.203191,0.135552 0.535686,0.358426 0.738877,0.495275 0.203192,0.13685 0.579886,0.354966 0.837099,0.484704 0.491168,0.247745 0.959232,0.705716 1.321974,1.293468 0.187151,0.303241 0.207987,0.421618 0.154433,0.877417 -0.149184,1.269719 -0.557241,1.81232 -1.895623,2.520648 -1.830854,0.968964 -2.10498,1.215449 -2.83537,2.549465 -0.566104,1.033959 -1.19909,1.761642 -1.798304,2.067339 -0.439473,0.224202 -1.180407,0.295213 -1.900213,0.182117 z"
         id="path1143" />
      <path
         style="fill:#a09074;fill-opacity:1;stroke:#000000;stroke-width:0.207809;stroke-miterlimit:4;stroke-dasharray:none;stroke-opacity:1"
         d="m 16.287578,21.543337 c 0.715966,-0.362246 1.299605,-1.034766 1.844856,-2.125802 0.517969,-1.036448 0.940356,-1.481312 1.800452,-1.89626 0.336783,-0.162479 0.78762,-0.380228 1.001861,-0.483888 1.157056,-0.559837 1.678035,-1.571009 1.28485,-2.493775 C 22.03713,14.115382 21.7376,13.872546 20.519815,13.165556 19.924213,12.819777 19.39534,12.505894 19.344542,12.468041 19.007624,12.216974 18.201717,11.109973 17.77131,10.307036 17.206677,9.2536971 16.939134,8.9282301 16.445228,8.6938568 c -0.610027,-0.2894769 -1.704674,-0.136991 -2.237976,0.311753 -0.308962,0.2599749 -0.81991,0.9960832 -0.81991,1.1812222 0,0.212071 -0.68858,1.260259 -1.107062,1.68522 -0.380209,0.386095 -1.660572,1.127502 -1.947127,1.127502 -0.261032,0 -1.4776619,0.658899 -1.7860444,0.967282 -0.7176304,0.71763 -0.8557551,1.224673 -0.5290377,1.942048 0.2473537,0.543116 0.7847404,0.975217 1.9268233,1.549315 1.8234338,0.916598 2.1520758,1.187832 2.6590718,2.194594 0.413235,0.820574 0.692823,1.207805 1.230617,1.704409 0.522508,0.482488 0.596672,0.509778 1.310527,0.482226 0.452865,-0.01748 0.737704,-0.0913 1.142468,-0.296091 z"
         id="path1145" />
      <path
         style="fill:#af231c;fill-opacity:1;stroke:#000000;stroke-width:0.207809;stroke-miterlimit:4;stroke-dasharray:none;stroke-opacity:1"
         d="m 14.355606,21.233701 c -0.325466,-0.19848 -1.152975,-1.094087 -1.153005,-1.247888 -4.6e-5,-0.229799 -0.538236,-1.103667 -0.926374,-1.50417 C 11.736702,17.92493 11.332279,17.654618 10.108572,17.032809 9.5497955,16.748875 9.0030283,16.44218 8.8935327,16.351264 8.6125164,16.117933 8.3075578,15.501335 8.3075578,15.166479 c 0,-0.65985 1.052281,-1.55691 2.1463872,-1.829775 0.591851,-0.147606 1.5279,-0.688146 2.070309,-1.195543 0.540483,-0.505595 0.979142,-1.157944 1.472273,-2.1894779 0.315325,-0.6596003 0.682143,-0.9467786 1.271794,-0.9956773 0.949081,-0.078705 1.441181,0.2618112 2.011719,1.3920392 0.645025,1.277789 1.611492,2.46344 2.318526,2.844345 0.215872,0.116297 0.670647,0.359466 1.010613,0.540375 0.339964,0.180909 0.765974,0.465009 0.946687,0.631334 0.292813,0.2695 0.328568,0.352918 0.328568,0.766554 0,0.874118 -0.281318,1.161787 -1.886964,1.929567 -1.120324,0.53571 -1.818637,1.14083 -2.152106,1.864899 -0.101593,0.22059 -0.291018,0.634491 -0.420944,0.919776 -0.303535,0.666487 -0.556916,0.933454 -1.214019,1.27911 -0.645158,0.339373 -1.404529,0.384284 -1.854795,0.109696 z"
         id="path1147" />
      <path
         style="fill:#b36924;fill-opacity:1;stroke:#000000;stroke-width:0.207809;stroke-miterlimit:4;stroke-dasharray:none;stroke-opacity:1"
         d="m 15.395987,19.965225 c 0.03086,-1.233688 0.04647,-1.281382 0.459849,-1.404794 0.191662,-0.05722 0.504611,-0.150626 0.695442,-0.207571 0.385885,-0.115149 1.255671,-0.86299 1.532972,-1.318045 0.09877,-0.162081 0.247495,-0.563254 0.330505,-0.891496 0.08301,-0.328241 0.201485,-0.628928 0.263278,-0.668193 0.06179,-0.03927 0.561873,-0.07203 1.11129,-0.07281 1.010879,-0.0014 1.356233,-0.08425 1.356233,-0.325242 0,-0.107248 -0.233392,-0.137538 -1.220382,-0.15838 -1.387125,-0.02929 -1.174967,0.104834 -1.701875,-1.07592 -0.183522,-0.411257 -0.415693,-0.728433 -0.77133,-1.053737 -0.460574,-0.421291 -1.271427,-0.894605 -1.536517,-0.896902 -0.214852,-0.0019 -0.291914,-0.257393 -0.347026,-1.15072 -0.05582,-0.9047724 -0.150342,-1.1949483 -0.330544,-1.0147449 -0.04896,0.048958 -0.100911,0.5435839 -0.11545,1.0991709 l -0.02644,1.010157 -0.554158,0.100758 c -1.142307,0.207694 -2.256525,1.131175 -2.842406,2.355829 l -0.287205,0.600338 -1.096577,0.01459 c -1.2979475,0.01727 -1.5704143,0.06878 -1.5282005,0.288875 0.026579,0.138584 0.184964,0.161559 1.2699915,0.184219 0.721124,0.01506 1.290462,0.06808 1.361166,0.126758 0.06685,0.05548 0.12154,0.21572 0.12154,0.356094 0,0.565124 0.935745,1.830545 1.705374,2.306203 0.184709,0.114157 0.631069,0.283498 0.991911,0.376315 0.360841,0.09282 0.690609,0.223211 0.732815,0.289764 0.04221,0.06655 0.07738,0.540088 0.07816,1.052299 7.33e-4,0.512212 0.02999,0.959867 0.06491,0.994791 0.182959,0.18296 0.261527,-0.07209 0.282674,-0.917614 z"
         id="path1149" />
      <path
         style="fill:#5f4029;fill-opacity:1;stroke:#000000;stroke-width:0.207809;stroke-miterlimit:4;stroke-dasharray:none;stroke-opacity:1"
         d="m 14.035506,18.070405 c -0.50174,-0.163969 -0.692201,-0.292439 -1.176119,-0.793321 -0.475004,-0.491655 -0.610452,-0.704592 -0.763614,-1.200472 -0.247353,-0.800837 -0.235822,-1.035967 0.0842,-1.716781 0.44848,-0.954103 1.264758,-1.675406 2.259803,-1.996872 0.743187,-0.240098 0.744802,-0.24009 1.499111,0.0075 0.747312,0.245325 1.585453,0.969225 1.946021,1.680774 0.215891,0.42604 0.231829,0.536249 0.188022,1.300099 -0.05673,0.989208 -0.211977,1.39334 -0.760507,1.979763 -0.566591,0.605732 -1.070273,0.835151 -1.953938,0.889987 -0.575947,0.03574 -0.8469,0.0049 -1.322976,-0.150709 z"
         id="path1151" />
      <path
         style="fill:#a09074;fill-opacity:1;stroke:#000000;stroke-width:0.207809;stroke-miterlimit:4;stroke-dasharray:none;stroke-opacity:1"
         d="m 16.147226,17.207447 c 0.325706,-0.165048 0.546782,-0.374255 0.80627,-0.762982 0.34276,-0.513472 0.357278,-0.566082 0.351694,-1.274458 -0.0052,-0.656607 -0.03684,-0.788367 -0.284378,-1.183335 -0.402094,-0.641574 -1.240688,-1.079068 -2.063356,-1.07645 -0.734363,0.0024 -1.596939,0.655717 -1.995406,1.511471 -0.255961,0.549707 -0.300818,1.482979 -0.09057,1.884307 0.155234,0.29631 0.654249,0.779706 0.977657,0.947055 0.621441,0.32157 1.612302,0.301904 2.298086,-0.04561 z"
         id="path1153" />
      <path
         style="fill:#af231c;fill-opacity:1;stroke:#000000;stroke-width:0.207809;stroke-miterlimit:4;stroke-dasharray:none;stroke-opacity:1"
         d="m 14.080039,16.889677 c -0.203191,-0.09331 -0.440587,-0.249771 -0.527546,-0.347701 -0.714092,-0.804182 -0.414069,-2.257379 0.609675,-2.953031 0.674332,-0.45822 1.883011,-0.228457 2.406133,0.45739 0.292262,0.383175 0.408955,1.247189 0.238288,1.764316 -0.134634,0.407945 -0.571767,0.931249 -0.934659,1.118908 -0.367969,0.190284 -1.337661,0.168701 -1.791891,-0.03988 z"
         id="path1155" />
      <path
         style="fill:#b36924;fill-opacity:1;stroke:#000000;stroke-width:0.207809;stroke-miterlimit:4;stroke-dasharray:none;stroke-opacity:1"
         d="m 15.482893,15.494129 c 0.09141,-0.184291 0.09027,-0.265927 -0.0057,-0.410525 -0.215701,-0.324863 -0.403937,-0.389374 -0.682119,-0.23377 -0.32085,0.179471 -0.361953,0.449068 -0.109738,0.719789 0.256593,0.27542 0.641623,0.238977 0.797601,-0.07549 z"
         id="path1157" />
    </g>
  </g>
</svg>
