<?xml version="1.0" encoding="UTF-8" standalone="no"?>
<svg
   xmlns:dc="http://purl.org/dc/elements/1.1/"
   xmlns:cc="http://creativecommons.org/ns#"
   xmlns:rdf="http://www.w3.org/1999/02/22-rdf-syntax-ns#"
   xmlns:svg="http://www.w3.org/2000/svg"
   xmlns="http://www.w3.org/2000/svg"
   xmlns:sodipodi="http://sodipodi.sourceforge.net/DTD/sodipodi-0.dtd"
   xmlns:inkscape="http://www.inkscape.org/namespaces/inkscape"
   width="65"
   height="65"
   viewBox="0 0 17.197916 17.197917"
   version="1.1"
   id="svg1433"
   inkscape:version="1.0.1 (c497b03c, 2020-09-10)"
   sodipodi:docname="logo-2.svg">
  <defs
     id="defs1427" />
  <sodipodi:namedview
     id="base"
     pagecolor="#ffffff"
     bordercolor="#666666"
     borderopacity="1.0"
     inkscape:pageopacity="0.0"
     inkscape:pageshadow="2"
     inkscape:zoom="6.2118366"
     inkscape:cx="2.1962257"
     inkscape:cy="43.56232"
     inkscape:document-units="mm"
     inkscape:current-layer="layer1"
     inkscape:document-rotation="0"
     showgrid="false"
     inkscape:window-width="1261"
     inkscape:window-height="776"
     inkscape:window-x="134"
     inkscape:window-y="25"
     inkscape:window-maximized="0"
     units="px" />
  <metadata
     id="metadata1430">
    <rdf:RDF>
      <cc:Work
         rdf:about="">
        <dc:format>image/svg+xml</dc:format>
        <dc:type
           rdf:resource="http://purl.org/dc/dcmitype/StillImage" />
        <dc:title></dc:title>
      </cc:Work>
    </rdf:RDF>
  </metadata>
  <g
     inkscape:label="Capa 1"
     inkscape:groupmode="layer"
     id="layer1"
     transform="translate(-6.1170328,-3.5523189)">
    <g
       id="g4273"
       transform="translate(0,0.58871456)">
      <g
         id="g953">
        <path
           style="fill:#ffffff;fill-opacity:1;stroke:#000000;stroke-width:0.199646;stroke-miterlimit:4;stroke-dasharray:none;stroke-opacity:1"
           d="m 19.555978,19.303509 c 1.557937,-0.416556 2.401757,-1.048325 2.600435,-1.946948 0.183953,-0.832038 0.295448,-3.191526 0.193386,-4.09248 l -0.09152,-0.807923 0.349406,-0.379064 c 0.442127,-0.479647 0.658844,-0.896106 0.596199,-1.145694 -0.03355,-0.133784 -0.203552,-0.258929 -0.542469,-0.399404 -0.731514,-0.303195 -0.931635,-0.6118346 -0.931016,-1.435855 2.66e-4,-0.3614116 0.04578,-0.8168288 0.101127,-1.0120387 0.05534,-0.1952094 0.105036,-0.6743603 0.110418,-1.0647795 0.0084,-0.6099604 -0.02485,-0.7792076 -0.236386,-1.202694 C 21.2683,4.941249 20.423812,4.2816868 19.378513,3.9991628 18.751472,3.8296837 17.041293,3.6098377 16.745326,3.6606614 16.631905,3.6801393 16.179737,3.7304529 15.740518,3.7724713 14.235436,3.9164575 13.059114,4.2031875 12.102517,4.6592351 10.388379,5.4764382 9.3138839,6.3067592 8.8141786,7.2003151 8.3825906,7.9720675 7.9096925,9.0941329 7.6962503,9.8528715 7.470589,10.655046 7.5087702,12.168255 7.7937908,13.718563 c 0.2862833,1.557191 0.30556,1.814149 0.1704117,2.271853 -0.2423019,0.82063 -0.576626,0.643972 -0.546061,-0.288541 0.015443,-0.470558 -0.00865,-0.575895 -0.1488512,-0.650921 -0.2168277,-0.116044 -0.3779935,-0.04916 -0.5949772,0.24691 -0.2679472,0.365605 -0.3878029,0.790786 -0.4447778,1.577837 -0.062891,0.868722 0.1019975,1.46045 0.5292291,1.899213 0.5790961,0.594729 0.4126835,0.577279 5.5882276,0.585965 2.574583,0.0043 4.710796,0.03911 4.747146,0.0773 0.08725,0.0917 2.008234,-0.01339 2.46184,-0.134675 z"
           id="path1161" />
        <path
           style="fill:#ffffff;fill-opacity:1;stroke:#000000;stroke-width:0.199646;stroke-miterlimit:4;stroke-dasharray:none;stroke-opacity:1"
           d="M 11.570129,7.5959755 C 10.911532,7.5293844 10.020532,7.2316759 9.7900619,7.0012026 9.6646627,6.8758034 9.6750958,6.8379809 9.9010337,6.5989905 10.589421,5.8708325 12.498706,4.8544882 13.703706,4.5747621 c 1.103154,-0.2560824 2.87976,-0.4346525 2.87976,-0.2894494 0,0.2023717 -0.363641,1.0287957 -0.610687,1.3878626 -0.29815,0.4333471 -1.269365,1.3028101 -1.70954,1.5304332 C 13.785502,7.4506542 12.930958,7.6851087 12.556803,7.67179 12.35575,7.66463 11.911747,7.630515 11.570129,7.5959755 Z"
           id="path1195" />
        <path
           style="fill:#ffffff;fill-opacity:1;stroke:#000000;stroke-width:0.199646;stroke-miterlimit:4;stroke-dasharray:none;stroke-opacity:1"
           d="m 16.482178,19.000329 c -0.02319,-0.02317 -1.916483,-0.04601 -4.207358,-0.05076 -4.7277731,-0.0098 -4.8077724,-0.01954 -5.3114669,-0.647141 -0.2565835,-0.319706 -0.2753119,-0.393958 -0.303422,-1.202744 -0.024398,-0.701976 -0.00402,-0.883545 0.1098651,-0.978044 0.1155446,-0.09589 0.146014,-0.09505 0.1754724,0.0049 0.183843,0.623443 0.3038798,0.835937 0.5139566,0.909817 0.126672,0.04455 0.2947697,0.05626 0.3735466,0.02603 0.191595,-0.07352 0.4623442,-0.6899 0.5988054,-1.363203 L 8.5426949,15.150924 9.0294921,14.9716 c 0.267736,-0.09863 0.5196713,-0.159005 0.5598495,-0.134173 0.040193,0.02483 0.073057,0.267751 0.073057,0.539822 0,0.762633 0.1469396,1.113026 0.7067544,1.685335 0.96055,0.981995 1.895999,1.109398 7.699641,1.048661 1.789942,-0.01873 2.969755,0.0021 3.001175,0.05291 0.05523,0.08937 -0.666561,0.437598 -1.469623,0.709022 -0.385745,0.130376 -0.759226,0.165403 -1.782028,0.167127 -0.711704,0.0012 -1.312965,-0.01678 -1.33614,-0.03995 z"
           id="path1163" />
        <path
           style="fill:#ffffff;fill-opacity:1;stroke:#000000;stroke-width:0.199646;stroke-miterlimit:4;stroke-dasharray:none;stroke-opacity:1"
           d="m 15.102354,17.643132 c -0.133745,-0.08707 -0.184311,-2.117173 -0.05593,-2.24555 0.0509,-0.0509 0.497315,-0.07744 1.056395,-0.06282 l 0.968247,0.02533 0.06402,0.51382 c 0.03521,0.282601 0.03531,0.801682 1.76e-4,1.153512 l -0.06377,0.639691 -0.931681,0.02244 c -0.512427,0.01234 -0.979279,-0.0086 -1.037456,-0.04643 z"
           id="path1165" />
        <path
           style="fill:#ffffff;fill-opacity:1;stroke:#000000;stroke-width:0.199646;stroke-miterlimit:4;stroke-dasharray:none;stroke-opacity:1"
           d="m 17.577263,17.605011 c -0.07011,-0.07012 -0.10648,-0.445187 -0.10648,-1.098281 0,-0.793457 0.02787,-1.014949 0.13946,-1.107542 0.127738,-0.106015 1.670322,-0.166616 1.767501,-0.06944 0.06998,0.06999 0.08528,2.163009 0.0166,2.270824 -0.09544,0.149814 -1.667857,0.153653 -1.817071,0.0044 z"
           id="path1167" />
        <path
           style="fill:#ffffff;fill-opacity:1;stroke:#000000;stroke-width:0.199646;stroke-miterlimit:4;stroke-dasharray:none;stroke-opacity:1"
           d="M 18.927412,5.5120045 C 18.344307,5.3278797 18.062028,5.1509118 17.665829,4.721087 17.13665,4.1469998 17.1639,4.099549 17.980992,4.1722115 c 0.89845,0.079898 1.651886,0.2774457 2.1728,0.5697016 0.586099,0.3288248 0.592593,0.4287297 0.04447,0.6839267 -0.515299,0.2399095 -0.736453,0.2549043 -1.270834,0.086165 z"
           id="path1197" />
        <path
           style="fill:#ffffff;fill-opacity:1;stroke:#000000;stroke-width:0.199646;stroke-miterlimit:4;stroke-dasharray:none;stroke-opacity:1"
           d="m 12.560032,17.510764 c -0.132442,-0.09684 -0.149736,-0.249887 -0.127874,-1.131329 l 0.0253,-1.019334 h 1.020413 1.020413 l 0.05343,0.576755 c 0.02938,0.317216 0.0336,0.826314 0.0094,1.131329 l -0.04407,0.554573 h -0.901895 c -0.586093,0 -0.95552,-0.03922 -1.055053,-0.111994 z"
           id="path1169" />
        <path
           style="fill:#ffffff;fill-opacity:1;stroke:#000000;stroke-width:0.199646;stroke-miterlimit:4;stroke-dasharray:none;stroke-opacity:1"
           d="M 18.181476,9.2060831 C 17.090506,8.6209903 17.008983,7.2115124 18.037313,6.713706 18.814222,6.337609 19.490129,6.3927533 20.018,6.8753023 c 0.339234,0.3101111 0.421653,0.5835737 0.339994,1.128107 -0.06627,0.4419089 -0.498629,1.0084831 -0.946219,1.2399415 -0.339108,0.1753586 -0.863448,0.159476 -1.230299,-0.037266 z"
           id="path1189" />
        <path
           style="fill:#ffffff;fill-opacity:1;stroke:#000000;stroke-width:0.199646;stroke-miterlimit:4;stroke-dasharray:none;stroke-opacity:1"
           d="m 10.77833,12.187934 c 0.02661,-0.305015 0.08875,-0.819494 0.138031,-1.143287 0.07622,-0.500796 0.06029,-0.726064 -0.106646,-1.5084377 C 10.701782,9.0303608 10.560366,8.4650477 10.495463,8.2799581 10.392544,7.9864687 10.394994,7.9367004 10.514629,7.890799 c 0.07544,-0.028945 0.300323,-0.00372 0.499745,0.056003 0.199428,0.059749 0.805351,0.1096836 1.346497,0.1109659 0.800064,0.00191 1.072036,-0.032919 1.455578,-0.1863211 1.219126,-0.4876041 2.255822,-1.4273119 2.800183,-2.5382061 l 0.343716,-0.7014211 0.239636,0.2682033 c 0.131803,0.1475115 0.458828,0.425158 0.72672,0.6169919 0.267892,0.191834 0.484533,0.3872053 0.481429,0.4341591 -0.003,0.046954 -0.185332,0.1801919 -0.404941,0.2960851 -0.783524,0.4134798 -1.064782,0.8162322 -1.064782,1.5247186 0,0.248003 0.06191,0.5993668 0.137593,0.7808088 0.295006,0.7073002 1.098008,1.261576 1.827691,1.261576 0.409383,0 0.598327,-0.085582 1.120252,-0.5074226 C 20.536811,8.8924206 20.768257,8.4132063 20.784893,7.7313763 20.796564,7.2540071 20.765626,7.1415407 20.541862,6.8475619 20.400858,6.6622987 20.146327,6.4286099 19.976232,6.3282538 19.688505,6.1584885 19.678193,6.1375875 19.82809,6.0279784 c 0.08861,-0.064795 0.23527,-0.1178093 0.325903,-0.1178093 0.09063,0 0.329063,-0.079367 0.529838,-0.1763713 0.434742,-0.2100452 0.527318,-0.1593311 0.743773,0.4074468 0.118815,0.3111151 0.13872,0.5489002 0.0941,1.1243396 -0.03114,0.4013786 -0.09683,0.8692679 -0.146014,1.039754 -0.129006,0.4471497 -0.109905,1.3497368 0.03592,1.6978338 0.153087,0.365424 0.420548,0.618455 0.917245,0.86776 0.428776,0.215213 0.446282,0.274632 0.198864,0.674967 -0.237865,0.384874 -0.486667,0.464906 -1.640755,0.527783 -0.536825,0.02925 -1.035942,0.05678 -1.109145,0.06118 -0.0732,0.0044 -1.251115,0.0029 -2.617583,-0.0034 -2.437145,-0.01119 -4.664244,0.09038 -5.279534,0.240776 -0.170809,0.04175 -0.438349,0.142139 -0.594529,0.223086 -0.506487,0.262495 -0.562415,0.217628 -0.50783,-0.407399 z"
           id="path1187" />
        <path
           style="fill:#ffffff;fill-opacity:1;stroke:#000000;stroke-width:0.199646;stroke-miterlimit:4;stroke-dasharray:none;stroke-opacity:1"
           d="M 8.4367938,14.492825 C 8.2705623,14.292525 7.976497,12.232769 7.976497,11.268699 c 0,-1.12913 0.1158514,-1.5516372 0.8447292,-3.0807676 C 9.003364,7.80582 9.2077514,7.4719366 9.2754261,7.4459683 9.565784,7.3345473 10.032394,8.0683977 10.247527,8.9748205 c 0.21805,0.9187323 0.259757,2.8748985 0.07559,3.5458575 -0.255416,0.930545 -0.6325545,1.532977 -1.1429597,1.825736 -0.5031613,0.288604 -0.6081871,0.309288 -0.7433655,0.146408 z"
           id="path1185" />
        <path
           style="fill:#ffffff;fill-opacity:1;stroke:#000000;stroke-width:0.199646;stroke-miterlimit:4;stroke-dasharray:none;stroke-opacity:1"
           d="m 19.922276,14.542158 c -0.02661,-0.135766 -0.09237,-0.554364 -0.146191,-0.93022 -0.152729,-1.066631 -0.02686,-1.17989 1.24696,-1.122044 0.508368,0.02309 0.737793,0.07036 0.795633,0.163946 0.116968,0.189264 0.194518,0.934824 0.161503,1.55274 l -0.02847,0.532391 -0.990558,0.02502 -0.990557,0.02502 z"
           id="path1183" />
        <path
           style="fill:#ffffff;fill-opacity:1;stroke:#000000;stroke-width:0.199646;stroke-miterlimit:4;stroke-dasharray:none;stroke-opacity:1"
           d="m 17.595,14.768961 c -0.103043,-0.166725 -0.191278,-1.960999 -0.105106,-2.137367 0.06367,-0.130322 0.200992,-0.155281 0.854368,-0.155281 0.488034,0 0.831403,0.04139 0.920281,0.110915 0.112436,0.08796 0.148082,0.331274 0.172238,1.175694 l 0.03048,1.06478 -0.902394,0.02521 c -0.641805,0.01793 -0.921871,-0.0063 -0.969851,-0.08395 z"
           id="path1181" />
        <path
           style="fill:#ffffff;fill-opacity:1;stroke:#000000;stroke-width:0.199646;stroke-miterlimit:4;stroke-dasharray:none;stroke-opacity:1"
           d="m 12.527928,14.764031 c -0.131194,-0.167529 -0.148016,-1.830268 -0.02007,-1.984426 0.05743,-0.0692 0.25259,-0.125819 0.433686,-0.125819 0.181091,0 0.55493,-0.04532 0.83074,-0.100712 0.754105,-0.151445 0.781048,-0.108354 0.750805,1.200719 l -0.0248,1.073918 -0.94062,0.02505 c -0.684564,0.01823 -0.964877,-0.0059 -1.029724,-0.08873 z"
           id="path1179" />
        <path
           style="fill:#ffffff;fill-opacity:1;stroke:#000000;stroke-width:0.199646;stroke-miterlimit:4;stroke-dasharray:none;stroke-opacity:1"
           d="m 10.165213,14.812922 c -0.2366526,-0.23665 0.311048,-1.311319 0.842124,-1.652375 0.211933,-0.136101 0.481349,-0.271751 0.598709,-0.301444 0.268637,-0.06797 0.503846,0.07885 0.472577,0.294986 -0.01313,0.09085 -0.02289,0.460299 -0.02168,0.820997 10e-4,0.360699 -0.04286,0.71008 -0.09789,0.776402 -0.07109,0.08566 -0.33682,0.120588 -0.917374,0.120588 -0.449517,0 -0.84392,-0.02662 -0.876452,-0.05915 z"
           id="path1177" />
        <path
           style="fill:#ffffff;fill-opacity:1;stroke:#000000;stroke-width:0.199646;stroke-miterlimit:4;stroke-dasharray:none;stroke-opacity:1"
           d="M 15.054369,14.858135 C 14.92167,14.7553 14.90344,14.595712 14.921268,13.693022 c 0.01615,-0.816859 0.0498,-1.064358 0.153761,-1.12997 0.165884,-0.104707 1.687104,-0.111366 1.850061,-0.0081 0.08566,0.05428 0.133588,0.395235 0.168193,1.196519 l 0.04839,1.120606 h -0.310082 c -0.170543,0 -0.605592,0.02367 -0.966774,0.05261 -0.481002,0.03853 -0.697829,0.02073 -0.810451,-0.06655 z"
           id="path1175" />
        <path
           style="fill:#ffffff;fill-opacity:1;stroke:#000000;stroke-width:0.199646;stroke-miterlimit:4;stroke-dasharray:none;stroke-opacity:1"
           d="m 11.285647,17.227433 c -0.492573,-0.228212 -1.011132,-0.803811 -1.170477,-1.299217 -0.1637814,-0.509204 -0.07375,-0.610579 0.554955,-0.624884 0.840926,-0.01914 1.248755,0.02189 1.3206,0.132828 0.05158,0.07965 0.04447,1.002187 -0.01388,1.799995 -0.01434,0.196076 -0.255733,0.19303 -0.691194,-0.0087 z"
           id="path1173" />
        <path
           style="fill:#ffffff;fill-opacity:1;stroke:#000000;stroke-width:0.199646;stroke-miterlimit:4;stroke-dasharray:none;stroke-opacity:1"
           d="m 19.855531,17.023819 c -0.01811,-0.984542 0.02329,-1.568314 0.119464,-1.685901 0.139213,-0.17017 1.699344,-0.151688 1.843356,0.02184 0.147231,0.177404 0.03632,1.783399 -0.142483,2.063357 -0.117542,0.184026 -0.193311,0.199646 -0.968424,0.199646 h -0.840906 z"
           id="path1171" />
        <path
           style="fill:#ffffff;fill-opacity:1;stroke:#000000;stroke-width:0.199646;stroke-miterlimit:4;stroke-dasharray:none;stroke-opacity:1"
           d="m 19.370228,8.4612044 c 0.362636,-0.3240273 0.385041,-0.6351258 0.06854,-0.951632 -0.31063,-0.3106347 -0.824019,-0.367591 -1.095859,-0.1215786 -0.249209,0.2255305 -0.212205,0.7229958 0.07617,1.0239896 0.292646,0.3054583 0.644034,0.3236424 0.951158,0.049223 z"
           id="path1191" />
        <path
           style="fill:#ffffff;fill-opacity:1;stroke:#000000;stroke-width:0.199646;stroke-miterlimit:4;stroke-dasharray:none;stroke-opacity:1"
           d="m 18.628789,8.089507 c -0.175075,-0.2109506 -0.04568,-0.4212136 0.239012,-0.3884639 0.194166,0.022335 0.244521,0.073806 0.244521,0.2499543 0,0.2641634 -0.306405,0.3519343 -0.483533,0.1385096 z"
           id="path1193" />
      </g>
    </g>
  </g>
</svg>
