<?xml version="1.0" encoding="UTF-8" standalone="no"?>
<svg
   xmlns:dc="http://purl.org/dc/elements/1.1/"
   xmlns:cc="http://creativecommons.org/ns#"
   xmlns:rdf="http://www.w3.org/1999/02/22-rdf-syntax-ns#"
   xmlns:svg="http://www.w3.org/2000/svg"
   xmlns="http://www.w3.org/2000/svg"
   xmlns:sodipodi="http://sodipodi.sourceforge.net/DTD/sodipodi-0.dtd"
   xmlns:inkscape="http://www.inkscape.org/namespaces/inkscape"
   width="65"
   height="65"
   viewBox="0 0 17.197916 17.197916"
   version="1.1"
   id="svg1433"
   inkscape:version="1.0.1 (c497b03c, 2020-09-10)"
   sodipodi:docname="logo-4.svg">
  <defs
     id="defs1427" />
  <sodipodi:namedview
     id="base"
     pagecolor="#ffffff"
     bordercolor="#666666"
     borderopacity="1.0"
     inkscape:pageopacity="0.0"
     inkscape:pageshadow="2"
     inkscape:zoom="6.4698363"
     inkscape:cx="32.499999"
     inkscape:cy="31.858863"
     inkscape:document-units="mm"
     inkscape:current-layer="layer1"
     inkscape:document-rotation="0"
     showgrid="false"
     inkscape:window-width="1261"
     inkscape:window-height="773"
     inkscape:window-x="134"
     inkscape:window-y="25"
     inkscape:window-maximized="0"
     units="px" />
  <metadata
     id="metadata1430">
    <rdf:RDF>
      <cc:Work
         rdf:about="">
        <dc:format>image/svg+xml</dc:format>
        <dc:type
           rdf:resource="http://purl.org/dc/dcmitype/StillImage" />
        <dc:title></dc:title>
      </cc:Work>
    </rdf:RDF>
  </metadata>
  <g
     inkscape:label="Capa 1"
     inkscape:groupmode="layer"
     id="layer1"
     transform="translate(-6.2922233,-5.4107144)">
    <path
       style="fill:#b36924;fill-opacity:1;stroke:#000000;stroke-width:0.207698;stroke-miterlimit:4;stroke-dasharray:none;stroke-opacity:1"
       d="m 16.434147,22.190523 c 1.488994,-0.332371 2.164548,-0.591903 3.156917,-1.212816 0.541901,-0.339063 1.148224,-0.772942 1.347387,-0.964178 0.908156,-0.872008 1.779762,-2.327072 2.241108,-3.741311 0.182031,-0.558006 0.208622,-0.836354 0.204691,-2.142687 -0.0048,-1.584772 -0.121357,-2.227458 -0.591158,-3.258735 -0.10961,-0.24061 -0.199291,-0.48438 -0.199291,-0.541711 0,-0.296144 -0.783461,-1.5170454 -1.39023,-2.166456 C 20.587721,7.5035045 20.394672,7.3659555 19.32686,6.825468 18.672225,6.4941183 17.798806,6.1018089 17.385929,5.9536734 16.655676,5.6916621 16.585445,5.6843793 14.805451,5.6860869 c -1.767154,0.0016 -1.855491,0.010852 -2.580477,0.2673524 -1.195506,0.4229835 -1.530405,0.6019313 -2.4982359,1.3348789 -1.755495,1.3294526 -2.5484574,2.5385977 -3.1527895,4.8075238 -0.2527187,0.948815 -0.224404,2.904643 0.057265,3.955582 0.3663238,1.366798 1.2905739,2.885295 2.4503937,4.025884 0.5791529,0.569544 0.9242087,0.814202 1.7003937,1.205634 0.880925,0.444257 2.095789,0.889105 2.709753,0.992235 0.615352,0.103369 2.319756,0.05433 2.942393,-0.08465 z"
       id="path1233" />
    <path
       style="fill:#a09074;fill-opacity:1;stroke:#000000;stroke-width:0.207698;stroke-miterlimit:4;stroke-dasharray:none;stroke-opacity:1"
       d="M 12.834905,21.63489 C 10.647877,20.961583 9.8827761,20.461345 8.6571833,18.903401 8.0079184,18.07807 7.2047723,16.6185 7.2047723,16.263908 c 0,-0.121036 -0.073792,-0.355204 -0.1639821,-0.520373 -0.1367075,-0.250356 -0.1640199,-0.550021 -0.164212,-1.801676 -2.106e-4,-1.373772 0.02137,-1.569148 0.25393,-2.298967 C 7.6006204,10.167591 8.4703861,8.9668674 9.8847657,7.8405996 10.848132,7.0734723 11.328607,6.7586725 11.802714,6.5839965 c 0.180634,-0.066551 0.412876,-0.1551363 0.516095,-0.1968596 0.445454,-0.180049 0.623206,-0.2085313 1.735958,-0.278141 1.858935,-0.1162964 2.873005,0.098262 4.838857,1.0238082 1.88951,0.8896001 2.891536,2.1104381 3.71522,4.5265099 0.28626,0.839674 0.298127,0.934159 0.293812,2.33936 -0.0041,1.328836 -0.02803,1.537239 -0.258783,2.252052 -0.401925,1.245053 -0.899778,2.105682 -1.746378,3.018918 -0.417301,0.450146 -0.794524,0.818447 -0.838273,0.818447 -0.04375,0 -0.341984,0.174314 -0.662742,0.387368 -0.909162,0.603883 -1.651358,0.896372 -2.933088,1.155893 -1.523235,0.308422 -2.634647,0.309507 -3.628487,0.0037 z"
       id="path1235" />
    <path
       style="fill:#5f4029;fill-opacity:1;stroke:#000000;stroke-width:0.207698;stroke-miterlimit:4;stroke-dasharray:none;stroke-opacity:1"
       d="m 16.775998,19.992058 c 1.530295,-0.584057 2.715938,-1.614621 3.344105,-2.906707 0.137999,-0.283849 0.307946,-0.583073 0.37766,-0.664934 0.145338,-0.17066 0.428399,-1.302013 0.587938,-2.349904 0.121663,-0.799105 0.06269,-1.185738 -0.341643,-2.239954 C 20.358859,10.826237 20.001434,10.289 19.129343,9.4035175 18.211703,8.4717898 17.977378,8.3272399 16.68242,7.894085 15.720138,7.5722099 14.647825,7.4927053 13.905025,7.6881551 c -0.201494,0.053038 -0.577484,0.146614 -0.835531,0.2079887 -0.953471,0.2267729 -1.738948,0.6849948 -2.509432,1.4639321 -0.399606,0.4039917 -0.8686277,0.9456601 -1.0422712,1.2037031 -0.4435126,0.659098 -0.8811867,1.74286 -1.0675652,2.643494 -0.1384944,0.669242 -0.1425731,0.830385 -0.032063,1.266779 0.5717158,2.257654 1.2863946,3.438646 2.6930044,4.450139 0.832205,0.598436 2.265316,1.215768 3.225106,1.389258 0.626138,0.113179 1.656861,-0.02261 2.439725,-0.321391 z"
       id="path1237" />
    <path
       style="fill:#1fa824;fill-opacity:1;stroke:#000000;stroke-width:0.207698;stroke-miterlimit:4;stroke-dasharray:none;stroke-opacity:1"
       d="M 17.70693,10.618397 C 16.741221,10.310934 15.588393,9.3670608 15.197919,8.5641524 15.06622,8.2933474 15.06447,8.2425326 15.184231,8.1667838 c 0.274633,-0.1737024 0.466242,-0.1305375 2.154783,0.4853902 0.505479,0.1843846 0.743827,0.3543153 1.391792,0.992283 0.967936,0.953002 0.982104,1.099594 0.108606,1.123767 -0.369164,0.01021 -0.815111,-0.04878 -1.13248,-0.149827 z"
       id="path1257" />
    <path
       style="fill:#1e22aa;fill-opacity:1;stroke:#000000;stroke-width:0.207698;stroke-miterlimit:4;stroke-dasharray:none;stroke-opacity:1"
       d="m 10.302981,10.615205 -0.232954,-0.17899 0.708098,-0.6868992 c 0.389455,-0.377797 0.934844,-0.8098774 1.211978,-0.9601726 0.530884,-0.2879188 1.402771,-0.5155057 1.996075,-0.5210383 0.33872,-0.00319 0.351064,0.00761 0.291998,0.2547551 -0.07714,0.3227529 -0.48863,1.1214374 -0.746345,1.4486164 -0.106981,0.1358146 -0.400274,0.3774246 -0.651761,0.5369126 -0.433729,0.275066 -0.50578,0.289876 -1.400693,0.287892 -0.78212,-0.0016 -0.983277,-0.03266 -1.176396,-0.181076 z"
       id="path1255" />
    <path
       style="fill:#af231c;fill-opacity:1;stroke:#000000;stroke-width:0.207698;stroke-miterlimit:4;stroke-dasharray:none;stroke-opacity:1"
       d="m 19.650514,15.842031 c -0.773296,-1.341018 -0.791472,-2.945552 -0.04692,-4.141781 0.278918,-0.448125 0.289025,-0.454307 0.45978,-0.281237 0.09603,0.09733 0.272959,0.48173 0.393185,0.854228 0.193744,0.600288 0.211063,0.780241 0.152353,1.583139 -0.09567,1.30829 -0.384949,2.384451 -0.640962,2.384451 -0.04811,0 -0.190956,-0.179459 -0.317438,-0.3988 z"
       id="path1253" />
    <path
       style="fill:#af231c;fill-opacity:1;stroke:#000000;stroke-width:0.207698;stroke-miterlimit:4;stroke-dasharray:none;stroke-opacity:1"
       d="M 9.3120402,15.89807 C 8.9470581,15.078431 8.7879857,13.965675 8.9368835,13.273738 9.0925741,12.550233 9.422778,11.636721 9.5885204,11.470982 c 0.1672633,-0.167265 0.2695686,-0.101369 0.6093576,0.392496 0.654951,0.951943 0.59106,2.824809 -0.136573,4.003391 -0.3965661,0.642336 -0.4756637,0.645629 -0.7492648,0.03123 z"
       id="path1251" />
    <path
       style="fill:#1fa824;fill-opacity:1;stroke:#000000;stroke-width:0.207698;stroke-miterlimit:4;stroke-dasharray:none;stroke-opacity:1"
       d="m 13.70725,19.66547 c -1.252762,-0.40004 -2.596396,-1.209002 -3.351491,-2.017837 -0.4181399,-0.447896 -0.4465434,-0.505605 -0.301168,-0.611905 0.422599,-0.309012 1.905822,-0.23337 2.733396,0.1394 0.553254,0.249206 1.102787,0.837615 1.445048,1.547267 0.470085,0.97469 0.334545,1.2178 -0.525785,0.943075 z"
       id="path1241" />
    <path
       style="fill:#b36924;fill-opacity:1;stroke:#000000;stroke-width:0.207698;stroke-miterlimit:4;stroke-dasharray:none;stroke-opacity:1"
       d="m 14.737872,18.75093 c -0.04981,-0.06451 -0.185439,-0.317901 -0.301405,-0.563091 -0.213566,-0.451546 -0.94517,-1.178625 -1.460809,-1.451776 -0.468609,-0.248239 -1.182713,-0.399109 -1.894632,-0.400284 -0.371123,-5.32e-4 -0.701342,-0.0441 -0.733821,-0.09666 -0.03248,-0.05256 0.025,-0.232008 0.127739,-0.3988 0.414108,-0.672307 0.620707,-1.478726 0.618593,-2.41455 -0.002,-0.899921 -0.02845,-0.994305 -0.584382,-2.087845 -0.01968,-0.03873 0.294992,-0.0707 0.699267,-0.07109 0.901893,-0.0011 1.826529,-0.26323 2.21404,-0.628206 0.344533,-0.324498 0.923345,-1.0937369 1.143569,-1.5198005 l 0.16485,-0.3189333 0.520875,0.5847429 c 0.667802,0.7496889 1.634934,1.4813809 2.12564,1.6081679 0.21113,0.05455 0.513551,0.138688 0.672044,0.186965 0.158493,0.0483 0.485744,0.08778 0.727225,0.08778 0.241482,0 0.439057,0.03905 0.439057,0.08674 0,0.04772 -0.131161,0.414307 -0.291469,0.81466 -0.460233,1.149372 -0.403341,2.411757 0.159571,3.540728 0.124535,0.249765 0.202666,0.492561 0.173625,0.539551 -0.02904,0.04697 -0.275843,0.08544 -0.548447,0.08544 -0.272604,0 -0.700959,0.06179 -0.951898,0.137315 -0.25094,0.07552 -0.4744,0.119164 -0.496579,0.09699 -0.02218,-0.02218 0.09205,-0.191093 0.253844,-0.375366 0.161793,-0.184272 0.410212,-0.55517 0.552042,-0.824214 0.234731,-0.445273 0.257582,-0.577593 0.254624,-1.474444 -0.0028,-0.855963 -0.03166,-1.033836 -0.219723,-1.355312 -0.351196,-0.600325 -0.844589,-1.152915 -1.296945,-1.452542 -0.513315,-0.340005 -1.662915,-0.617928 -2.200449,-0.531976 -0.967725,0.154748 -2.274551,1.146073 -2.792928,2.118646 -0.25811,0.484263 -0.308197,0.67867 -0.310275,1.204299 -0.0038,0.965243 0.140455,1.345178 0.763815,2.0115 1.005143,1.074416 2.808658,1.649104 3.88232,1.237101 0.291245,-0.111759 0.173734,0.188816 -0.224029,0.573039 -0.211201,0.20401 -0.508812,0.550388 -0.661358,0.769729 -0.294622,0.423627 -0.378887,0.468931 -0.523591,0.281503 z"
       id="path1243" />
    <path
       style="fill:#1e22aa;fill-opacity:1;stroke:#000000;stroke-width:0.207698;stroke-miterlimit:4;stroke-dasharray:none;stroke-opacity:1"
       d="m 15.391924,19.838273 c -0.317594,-0.128154 0.145239,-1.134662 0.842294,-1.831717 0.743263,-0.743263 1.471617,-1.126449 2.246726,-1.181998 0.344211,-0.02468 0.738918,-0.01644 0.877127,0.01825 0.218004,0.05471 0.24286,0.09665 0.187655,0.316603 -0.06276,0.250063 -0.572225,0.938132 -0.939221,1.268493 -0.485649,0.437171 -1.479761,0.994629 -2.179115,1.22196 -0.798497,0.259564 -0.84033,0.267177 -1.035466,0.188439 z"
       id="path1239" />
    <path
       style="fill:#a09074;fill-opacity:1;stroke:#000000;stroke-width:0.207698;stroke-miterlimit:4;stroke-dasharray:none;stroke-opacity:1"
       d="m 14.336274,16.721252 c -0.858333,-0.282269 -1.798586,-1.075591 -2.210359,-1.86495 -0.227075,-0.435299 -0.174907,-1.408505 0.105687,-1.971586 0.418826,-0.840471 1.867896,-1.89523 2.607223,-1.897757 0.396069,-0.0016 1.325095,0.257968 1.685084,0.470367 0.981027,0.578822 1.565892,2.087068 1.281995,3.306007 -0.138017,0.592584 -0.696328,1.378278 -1.230683,1.731896 -0.327376,0.21665 -0.493341,0.255266 -1.192336,0.277423 -0.446612,0.01415 -0.917587,-0.009 -1.046611,-0.05139 z"
       id="path1245" />
    <path
       style="fill:#b36924;fill-opacity:1;stroke:#000000;stroke-width:0.207698;stroke-miterlimit:4;stroke-dasharray:none;stroke-opacity:1"
       d="m 15.818843,15.545978 c 0.583401,-0.303543 0.957155,-0.971945 0.957155,-1.711734 0,-0.646096 -0.156245,-0.978228 -0.631843,-1.343114 -0.358152,-0.274784 -0.514875,-0.330541 -1.019305,-0.362662 -0.79497,-0.05064 -1.006634,0.01511 -1.493099,0.463494 -0.486014,0.447992 -0.652261,0.878396 -0.578816,1.498527 0.07233,0.61073 0.264359,0.948788 0.735926,1.295581 0.359005,0.264017 0.462294,0.291749 1.086654,0.291749 0.409754,0 0.792843,-0.05354 0.943328,-0.131841 z"
       id="path1247" />
    <path
       style="fill:#af231c;fill-opacity:1;stroke:#000000;stroke-width:0.207698;stroke-miterlimit:4;stroke-dasharray:none;stroke-opacity:1"
       d="m 14.586502,15.239919 c -0.03441,-0.03442 -0.06256,-0.215979 -0.06256,-0.403492 0,-0.389272 -0.134535,-0.566139 -0.430632,-0.566139 -0.112984,0 -0.30055,-0.07703 -0.416812,-0.17117 -0.180284,-0.145987 -0.197938,-0.211521 -0.119984,-0.44538 0.07248,-0.217448 0.161637,-0.285626 0.430663,-0.329355 0.404725,-0.06579 0.608885,-0.21765 0.648426,-0.482321 0.07005,-0.468856 0.649931,-0.444422 0.718391,0.03027 0.04673,0.324056 0.175743,0.445252 0.593775,0.557814 0.354124,0.09536 0.368554,0.114248 0.340952,0.446396 -0.0256,0.308006 -0.06032,0.350325 -0.310328,0.378132 -0.390757,0.04346 -0.609931,0.269858 -0.609931,0.630041 0,0.190503 -0.05537,0.325089 -0.148429,0.3608 -0.197248,0.07569 -0.555408,0.07253 -0.633534,-0.0056 z"
       id="path1249" />
  </g>
</svg>
