<?xml version="1.0" encoding="UTF-8" standalone="no"?>
<svg
   xmlns:dc="http://purl.org/dc/elements/1.1/"
   xmlns:cc="http://creativecommons.org/ns#"
   xmlns:rdf="http://www.w3.org/1999/02/22-rdf-syntax-ns#"
   xmlns:svg="http://www.w3.org/2000/svg"
   xmlns="http://www.w3.org/2000/svg"
   xmlns:sodipodi="http://sodipodi.sourceforge.net/DTD/sodipodi-0.dtd"
   xmlns:inkscape="http://www.inkscape.org/namespaces/inkscape"
   width="8.4666891mm"
   height="8.2575378mm"
   viewBox="0 0 8.4666891 8.2575378"
   version="1.1"
   id="svg898"
   inkscape:version="1.0.1 (c497b03c, 2020-09-10)"
   sodipodi:docname="logo-13.svg">
  <defs
     id="defs892" />
  <sodipodi:namedview
     id="base"
     pagecolor="#ffffff"
     bordercolor="#666666"
     borderopacity="1.0"
     inkscape:pageopacity="0.0"
     inkscape:pageshadow="2"
     inkscape:zoom="0.35"
     inkscape:cx="15.999996"
     inkscape:cy="15.604787"
     inkscape:document-units="mm"
     inkscape:current-layer="layer1"
     inkscape:document-rotation="0"
     showgrid="false"
     inkscape:window-width="1261"
     inkscape:window-height="776"
     inkscape:window-x="0"
     inkscape:window-y="25"
     inkscape:window-maximized="0" />
  <metadata
     id="metadata895">
    <rdf:RDF>
      <cc:Work
         rdf:about="">
        <dc:format>image/svg+xml</dc:format>
        <dc:type
           rdf:resource="http://purl.org/dc/dcmitype/StillImage" />
        <dc:title></dc:title>
      </cc:Work>
    </rdf:RDF>
  </metadata>
  <g
     inkscape:label="Capa 1"
     inkscape:groupmode="layer"
     id="layer1"
     transform="translate(-101.6,-144.0379)">
    <path
       style="fill:#ffffff;fill-opacity:1;stroke:none;stroke-width:0.0474104"
       d="m 105.20709,152.28478 c -1.17711,-0.29746 -2.21973,-0.93652 -2.73738,-1.67786 -0.0453,-0.0649 -0.14441,-0.20537 -0.22021,-0.31218 -0.19962,-0.28128 -0.27613,-0.44352 -0.40483,-0.85849 -0.29386,-0.94749 -0.32544,-1.87498 -0.0816,-2.39781 0.0513,-0.11007 0.16215,-0.34946 0.24627,-0.53199 0.18659,-0.40489 0.32639,-0.609 0.72311,-1.05571 0.39531,-0.44512 0.61977,-0.61255 1.17087,-0.87341 0.68082,-0.32226 0.79972,-0.37029 0.91663,-0.37029 0.0591,0 0.12885,-0.0214 0.15501,-0.0476 0.0262,-0.0262 0.22778,-0.0708 0.44803,-0.0992 0.49309,-0.0636 1.39815,0.0147 1.82277,0.15762 0.64445,0.21696 1.50407,0.85738 1.95821,1.45889 0.43623,0.5778 0.57086,0.82974 0.73836,1.38176 0.10584,0.34884 0.12436,0.49848 0.12436,1.00524 0,0.32748 -0.0193,0.64441 -0.0429,0.70431 -0.0236,0.0599 -0.0691,0.23691 -0.10117,0.39337 -0.0684,0.33372 -0.44207,1.11396 -0.6968,1.45487 -0.50575,0.67685 -1.3055,1.21123 -2.21712,1.48145 -0.15645,0.0464 -0.32878,0.10124 -0.38294,0.12194 -0.11885,0.0454 -1.28484,0.0989 -1.41866,0.0651 z m 1.16156,-0.34653 c 0.19556,-0.0269 0.45158,-0.0796 0.56892,-0.1171 0.27286,-0.0871 0.89588,-0.36141 1.04344,-0.45938 l 0.11351,-0.0754 -0.0586,-0.44005 c -0.10291,-0.77296 -0.45649,-1.51536 -0.98465,-2.06744 -0.35577,-0.37188 -0.48234,-0.39522 -0.7326,-0.13511 -0.14948,0.15536 -0.47375,0.3517 -0.58087,0.3517 -0.0242,0 -0.111,0.0587 -0.19276,0.13052 -0.14797,0.12993 -0.15174,0.1305 -0.81224,0.12413 -0.47844,-0.005 -0.72971,-0.0284 -0.90063,-0.0854 -0.13038,-0.0434 -0.36506,-0.10861 -0.52151,-0.14482 -0.41162,-0.0953 -0.72056,-0.21143 -1.03574,-0.38942 -0.15244,-0.0861 -0.29845,-0.15653 -0.32447,-0.15653 -0.0296,0 -0.0351,0.0931 -0.0146,0.24891 0.15639,1.19141 1.09863,2.37584 2.33332,2.93305 0.77053,0.34774 1.20272,0.40585 2.0995,0.28231 z m 2.32333,-1.08189 c 0.25966,-0.28909 0.72922,-1.04259 0.8117,-1.30254 0.0271,-0.0854 0.0673,-0.198 0.0894,-0.25015 0.10366,-0.24514 0.1593,-0.66698 0.15945,-1.20897 1.4e-4,-0.4807 -0.0197,-0.65531 -0.10488,-0.92451 -0.24039,-0.75949 -0.62352,-1.34969 -1.23165,-1.89728 -0.37754,-0.33997 -0.60394,-0.48964 -0.96467,-0.63779 l -0.26853,-0.11028 -0.24389,0.17904 c -0.13414,0.0985 -0.39263,0.35087 -0.57442,0.56089 -0.61321,0.70846 -0.96,1.33668 -1.02009,1.84796 -0.027,0.22976 -0.0191,0.26522 0.0737,0.33024 0.0696,0.0488 0.16508,0.0647 0.28882,0.0481 0.22116,-0.0297 0.43704,0.0616 0.63499,0.2685 0.0919,0.096 0.18536,0.14553 0.27482,0.14553 0.10325,0 0.15482,0.0355 0.21633,0.14896 0.0444,0.0819 0.18772,0.25795 0.31844,0.39114 0.58264,0.59365 1.07667,1.5766 1.14633,2.28082 0.0283,0.2859 0.0592,0.40299 0.10654,0.40299 0.0235,0 0.1529,-0.12267 0.28757,-0.27261 z m -3.60342,-1.95568 c 0.11297,-0.11297 0.11465,-0.14462 0.0236,-0.44469 -0.0417,-0.13732 -0.0584,-0.30479 -0.0413,-0.41207 0.0222,-0.13901 0.007,-0.20841 -0.0653,-0.30056 -0.10809,-0.13741 -0.0984,-0.20768 0.13419,-0.97616 0.1841,-0.60821 0.70535,-1.4065 1.31016,-2.00652 0.36057,-0.35771 0.33107,-0.38314 -0.46792,-0.40343 -0.81767,-0.0207 -1.04159,0.0352 -2.05497,0.51353 -0.70824,0.3343 -1.35151,1.01661 -1.7003,1.80351 -0.0747,0.16844 -0.17743,0.40043 -0.22835,0.51551 -0.10443,0.23599 -0.1602,0.60327 -0.11745,0.77357 0.0287,0.11435 0.28374,0.3029 0.6949,0.51373 0.11734,0.0602 0.5227,0.19943 0.9008,0.30948 0.56152,0.16342 0.76345,0.20089 1.10229,0.2045 0.35521,0.004 0.42848,-0.009 0.50967,-0.0904 z m 0.94457,-0.3598 c 0.11918,-0.10027 0.14587,-0.15828 0.14587,-0.31696 0,-0.27121 -0.14018,-0.41369 -0.40704,-0.41369 -0.16609,0 -0.22211,0.0253 -0.32361,0.14587 -0.13833,0.1644 -0.14474,0.20356 -0.069,0.42095 0.0348,0.0997 0.106,0.177 0.2015,0.21857 0.21244,0.0925 0.2882,0.0833 0.45224,-0.0547 z"
       id="path881" />
  </g>
</svg>
