<?xml version="1.0" encoding="UTF-8" standalone="no"?>
<svg
   xmlns:dc="http://purl.org/dc/elements/1.1/"
   xmlns:cc="http://creativecommons.org/ns#"
   xmlns:rdf="http://www.w3.org/1999/02/22-rdf-syntax-ns#"
   xmlns:svg="http://www.w3.org/2000/svg"
   xmlns="http://www.w3.org/2000/svg"
   xmlns:sodipodi="http://sodipodi.sourceforge.net/DTD/sodipodi-0.dtd"
   xmlns:inkscape="http://www.inkscape.org/namespaces/inkscape"
   width="65"
   height="65"
   viewBox="0 0 17.197917 17.197916"
   version="1.1"
   id="svg8980"
   inkscape:version="1.0.1 (c497b03c, 2020-09-10)"
   sodipodi:docname="logo-7.svg">
  <defs
     id="defs8974" />
  <sodipodi:namedview
     id="base"
     pagecolor="#ffffff"
     bordercolor="#666666"
     borderopacity="1.0"
     inkscape:pageopacity="0.0"
     inkscape:pageshadow="2"
     inkscape:zoom="10.219798"
     inkscape:cx="32.500002"
     inkscape:cy="32.499999"
     inkscape:document-units="mm"
     inkscape:current-layer="layer1"
     inkscape:document-rotation="0"
     showgrid="false"
     inkscape:window-width="1261"
     inkscape:window-height="776"
     inkscape:window-x="0"
     inkscape:window-y="25"
     inkscape:window-maximized="0"
     units="px" />
  <metadata
     id="metadata8977">
    <rdf:RDF>
      <cc:Work
         rdf:about="">
        <dc:format>image/svg+xml</dc:format>
        <dc:type
           rdf:resource="http://purl.org/dc/dcmitype/StillImage" />
        <dc:title></dc:title>
      </cc:Work>
    </rdf:RDF>
  </metadata>
  <g
     inkscape:label="Capa 1"
     inkscape:groupmode="layer"
     id="layer1"
     transform="translate(5.3523812,-108.07515)">
    <path
       style="fill:#a09074;fill-opacity:1;stroke:#000000;stroke-width:0.207698;stroke-miterlimit:4;stroke-dasharray:none;stroke-opacity:1"
       d="m 4.6225502,124.07277 c 0.6719728,-0.077 1.0954366,-0.19431 1.5604432,-0.43231 0.6234375,-0.31908 0.6461193,-0.32254 0.9807694,-0.14949 0.2265989,0.11718 0.4548938,0.15363 0.6743578,0.10768 0.4186504,-0.0877 0.6707698,-0.0876 1.0913213,3.2e-4 0.2323534,0.0486 0.41955,0.0136 0.6156951,-0.11489 0.267968,-0.17557 0.2991869,-0.17532 0.634477,0.005 0.465463,0.25067 0.840083,0.14844 1.120865,-0.30587 0.287756,-0.4656 0.291753,-0.98019 0.0088,-1.13163 -0.161808,-0.0866 -0.212838,-0.22282 -0.212838,-0.56817 0,-0.37671 -0.06164,-0.51401 -0.361028,-0.80419 -0.317831,-0.30806 -0.354466,-0.39884 -0.306189,-0.75877 0.05344,-0.39842 0.03993,-0.41839 -0.5296567,-0.78275 -0.6226646,-0.39831 -0.7141613,-0.56935 -0.7183694,-1.34288 -0.00777,-1.42794 -1.1747112,-3.28131 -2.5541732,-4.05661 -0.3743208,-0.21038 -0.4059614,-0.26725 -0.471622,-0.84761 -0.061539,-0.54393 -0.1180579,-0.66139 -0.4498144,-0.93485 -0.2946704,-0.2429 -0.4006214,-0.42797 -0.4742845,-0.8285 -0.067431,-0.36663 -0.1849106,-0.59263 -0.4063867,-0.78177 -0.1713444,-0.14633 -0.3823553,-0.44102 -0.4689126,-0.65487 -0.1799048,-0.44447 -0.4489407,-0.56788 -1.0108057,-0.46363 -0.498062,0.0924 -0.7622864,0.33135 -0.7622864,0.68939 0,0.17536 -0.121323,0.39909 -0.3192575,0.58872 -0.2512591,0.24072 -0.3196045,0.39796 -0.3208871,0.73824 -0.00193,0.5082 -0.058697,0.6059 -0.4527882,0.77909 -0.3324853,0.14612 -0.50335429,0.50228 -0.50335429,1.04922 0,0.32212 -0.10464843,0.47216 -0.79307566,1.13707 -1.32680595,1.28148 -1.55302295,1.68565 -2.09652045,3.74572 -0.1995725,0.75646 -0.2759735,0.86856 -0.799069,1.17238 -0.59286,0.34435 -0.6706534,0.43523 -0.6728887,0.78611 -0.00103,0.16065 -0.1599645,0.40197 -0.4273057,0.64878 -0.2695656,0.24886 -0.4256749,0.48679 -0.4256719,0.64877 3e-6,0.16351 -0.1391849,0.37265 -0.3858195,0.57972 l -0.3858238,0.32393 0.2254417,0.4419 c 0.292697,0.57373 0.4567569,0.65709 1.0334695,0.52512 0.4011536,-0.0918 0.4990865,-0.0789 0.6859283,0.0902 0.1911798,0.17301 0.2628386,0.18102 0.5832081,0.0652 0.3265981,-0.1181 0.3981574,-0.10775 0.6762594,0.0979 l 0.311012,0.22993 0.55244709,-0.27748 c 0.30384632,-0.15261 0.63533921,-0.27748 0.73665188,-0.27748 0.10131207,0 0.61009384,0.21732 1.1306265,0.48293 1.29247823,0.65951 2.01003073,0.77243 3.68706513,0.58027 z"
       id="path8752" />
    <path
       style="fill:#af231c;fill-opacity:1;stroke:#000000;stroke-width:0.207698;stroke-miterlimit:4;stroke-dasharray:none;stroke-opacity:1"
       d="m 7.9038578,120.26082 c 0,-0.0486 -0.2727101,-0.38963 -0.6060208,-0.75795 -0.6379317,-0.70494 -1.5618332,-1.23739 -2.3549059,-1.35714 -0.2152016,-0.0325 -0.5109971,-0.16641 -0.657323,-0.29759 -0.1463264,-0.13118 -0.3916796,-0.26802 -0.545229,-0.30408 -0.4036151,-0.0948 -0.5569069,-0.55166 -0.4972083,-1.4819 0.059053,-0.92016 0.4145196,-1.7216 0.9130412,-2.05854 0.4270692,-0.28864 0.9734439,-0.20393 1.9293614,0.29913 1.7854083,0.93959 2.6069347,2.58751 2.3655442,4.74511 -0.093794,0.83835 -0.251948,1.30125 -0.4445848,1.30125 -0.056471,0 -0.102675,-0.0398 -0.102675,-0.0883 z"
       id="path8762" />
    <path
       style="fill:#5f4029;fill-opacity:1;stroke:#000000;stroke-width:0.207698;stroke-miterlimit:4;stroke-dasharray:none;stroke-opacity:1"
       d="m 1.7666683,113.05063 c -0.049219,-0.12825 -0.0081,-0.22747 0.1258708,-0.30369 0.4671858,-0.26584 0.6903633,-0.58225 0.6903633,-0.97878 0,-0.31705 0.074529,-0.46462 0.3724669,-0.73752 0.2487136,-0.22781 0.3724668,-0.43622 0.3724668,-0.62727 0,-0.21448 0.046317,-0.27718 0.1850114,-0.25047 0.1017561,0.0196 0.2024769,0.13085 0.2238242,0.24725 0.050631,0.27605 0.3282338,0.58514 0.6287503,0.70008 0.1771103,0.0677 0.242205,0.18229 0.2500512,0.44007 0.01784,0.58611 0.1413075,0.85899 0.4714459,1.04197 0.1738499,0.0964 0.3160895,0.23718 0.3160895,0.31295 0,0.10601 -0.3677772,0.14079 -1.5962865,0.15096 -0.8779581,0.007 -1.6796884,0.0541 -1.7816231,0.10408 -0.13487,0.0661 -0.2052401,0.039 -0.2584307,-0.0996 z"
       id="path8764" />
    <path
       style="fill:#1fa824;fill-opacity:1;stroke:#000000;stroke-width:0.207698;stroke-miterlimit:4;stroke-dasharray:none;stroke-opacity:1"
       d="m -1.0939871,119.98006 c -0.1834017,-0.43894 -0.2073988,-1.98618 -0.039005,-2.51499 0.37108402,-1.16534 0.72964129,-1.76647 1.47050917,-2.46537 0.81923923,-0.77283 1.41113813,-1.09197 2.21878223,-1.19635 0.5068234,-0.0655 0.5587005,-0.053 0.5587005,0.13428 0,0.11355 -0.079516,0.36586 -0.1767012,0.56068 -0.3059773,0.61334 -0.4508678,1.55273 -0.3420414,2.21759 0.05404,0.33015 0.1260597,0.95943 0.1600472,1.39841 0.054697,0.70648 0.035952,0.83077 -0.1632339,1.08226 -0.4738622,0.5983 -1.93034835,1.15254 -3.02873518,1.15254 -0.47466096,0 -0.51313353,-0.0215 -0.65832032,-0.36905 z"
       id="path8760" />
    <path
       style="fill:#5f4029;fill-opacity:1;stroke:#000000;stroke-width:0.207698;stroke-miterlimit:4;stroke-dasharray:none;stroke-opacity:1"
       d="m -1.6522786,122.51025 c -0.1973843,-0.13872 -0.3149939,-0.15016 -0.6106953,-0.0594 -0.3128407,0.096 -0.4065449,0.0807 -0.6427583,-0.10512 -0.2403498,-0.18906 -0.3268171,-0.20208 -0.6609224,-0.0995 -0.4567315,0.14018 -0.5458649,0.0897 -0.3072129,-0.17402 0.096461,-0.10659 0.2314147,-0.3583 0.2998982,-0.55935 0.068484,-0.20106 0.3085245,-0.53779 0.533425,-0.74828 0.2591735,-0.24258 0.4089099,-0.47835 0.4089099,-0.64384 0,-0.30696 0.1798216,-0.51652 0.4432164,-0.51652 0.241259,0 0.3539184,0.22193 0.5131987,1.01098 0.070891,0.35119 0.2733744,0.87576 0.4499628,1.16571 0.23532658,0.38641 0.29340467,0.57114 0.2174779,0.69173 -0.1433376,0.22766 -0.3564142,0.2401 -0.6445,0.0376 z"
       id="path8758" />
    <path
       style="fill:#5f4029;fill-opacity:1;stroke:#000000;stroke-width:0.207698;stroke-miterlimit:4;stroke-dasharray:none;stroke-opacity:1"
       d="m 7.5846003,122.68064 c 0,-0.0639 0.1645443,-0.30834 0.3656541,-0.54329 0.2011104,-0.23495 0.4452913,-0.60173 0.5426245,-0.81506 0.097333,-0.21333 0.268009,-0.58258 0.3792789,-0.82055 0.1112705,-0.23797 0.2023098,-0.51333 0.2023098,-0.6119 0,-0.19044 0.091283,-0.21921 0.3637633,-0.11465 0.114596,0.044 0.1683326,0.2002 0.1683326,0.4894 0,0.33646 0.067593,0.48795 0.3250392,0.72844 0.2770863,0.25883 0.3152453,0.35583 0.2586573,0.65746 -0.05007,0.2669 -0.01227,0.42263 0.153848,0.63381 0.272452,0.34637 0.288244,0.56153 0.03399,0.46317 -0.4264974,-0.165 -0.7997275,-0.18444 -1.0428549,-0.0543 -0.2127974,0.11389 -0.3347189,0.11326 -0.688554,-0.004 -0.3282886,-0.10834 -0.4594132,-0.11246 -0.5544761,-0.0174 -0.1570076,0.157 -0.5076161,0.1628 -0.5076161,0.008 z"
       id="path8756" />
    <path
       style="fill:#1e22aa;fill-opacity:1;stroke:#000000;stroke-width:0.207698;stroke-miterlimit:4;stroke-dasharray:none;stroke-opacity:1"
       d="m 2.2868691,123.27089 c -0.9230183,-0.29034 -1.79024211,-0.79947 -2.6038874,-1.5287 -0.41231738,-0.36954 -0.38954021,-0.64769 0.0532069,-0.64978 0.93601808,-0.004 2.2900802,-0.50829 3.1659683,-1.17811 0.2048571,-0.15666 0.5975931,-0.36797 0.8727479,-0.46958 0.2751535,-0.1016 0.5818801,-0.27491 0.6816127,-0.38511 0.244579,-0.27026 0.4115071,-0.25391 1.159327,0.11353 0.8355634,0.41056 1.3507289,0.88714 1.7055076,1.57777 l 0.2884073,0.56143 -0.296081,0.42725 c -0.2522636,0.36401 -0.5694264,0.67575 -1.182824,1.16258 -0.067928,0.0539 -0.5069054,0.19592 -0.9755036,0.31556 -0.9727133,0.24836 -2.176986,0.27067 -2.8684841,0.0532 z"
       id="path8754" />
  </g>
</svg>
