<?xml version="1.0" encoding="UTF-8" standalone="no"?>
<svg
   xmlns:dc="http://purl.org/dc/elements/1.1/"
   xmlns:cc="http://creativecommons.org/ns#"
   xmlns:rdf="http://www.w3.org/1999/02/22-rdf-syntax-ns#"
   xmlns:svg="http://www.w3.org/2000/svg"
   xmlns="http://www.w3.org/2000/svg"
   xmlns:sodipodi="http://sodipodi.sourceforge.net/DTD/sodipodi-0.dtd"
   xmlns:inkscape="http://www.inkscape.org/namespaces/inkscape"
   width="65"
   height="65"
   viewBox="0 0 17.197915 17.197916"
   version="1.1"
   id="svg11605"
   inkscape:version="1.0.1 (c497b03c, 2020-09-10)"
   sodipodi:docname="logo-11.svg">
  <defs
     id="defs11599" />
  <sodipodi:namedview
     id="base"
     pagecolor="#ffffff"
     bordercolor="#666666"
     borderopacity="1.0"
     inkscape:pageopacity="0.0"
     inkscape:pageshadow="2"
     inkscape:zoom="9.0153846"
     inkscape:cx="32.703644"
     inkscape:cy="32.5"
     inkscape:document-units="mm"
     inkscape:current-layer="layer1"
     inkscape:document-rotation="0"
     showgrid="false"
     inkscape:window-width="1261"
     inkscape:window-height="776"
     inkscape:window-x="80"
     inkscape:window-y="25"
     inkscape:window-maximized="0"
     units="px" />
  <metadata
     id="metadata11602">
    <rdf:RDF>
      <cc:Work
         rdf:about="">
        <dc:format>image/svg+xml</dc:format>
        <dc:type
           rdf:resource="http://purl.org/dc/dcmitype/StillImage" />
        <dc:title></dc:title>
      </cc:Work>
    </rdf:RDF>
  </metadata>
  <g
     inkscape:label="Capa 1"
     inkscape:groupmode="layer"
     id="layer1"
     transform="translate(-80.549543,-179.03327)">
    <g
       id="g7027">
      <path
         style="fill:#ffffff;fill-opacity:1;stroke:#000000;stroke-width:0.206405;stroke-miterlimit:4;stroke-dasharray:none;stroke-opacity:1"
         d="m 92.364547,192.64625 c 2.616776,-0.41803 3.784232,-1.20147 4.78514,-3.21114 l 0.494571,-0.99303 V 187.394 c 0,-1.00819 -0.01394,-1.07624 -0.366283,-1.78745 -0.837677,-1.69088 -2.224942,-2.72928 -4.102321,-3.07069 -1.854494,-0.33724 -5.568167,-0.19803 -8.086167,0.30312 -1.463414,0.29126 -2.859486,1.43329 -3.754005,3.07089 -1.022894,1.87263 -0.927381,2.77039 0.496544,4.66721 0.710596,0.94659 1.691323,1.55593 3.159087,1.96279 1.499575,0.41567 1.315076,0.39889 3.864891,0.35149 1.597529,-0.0297 2.597459,-0.0996 3.508543,-0.24511 z"
         id="path8893" />
      <path
         style="fill:#ffffff;fill-opacity:1;stroke:#000000;stroke-width:0.206405;stroke-miterlimit:4;stroke-dasharray:none;stroke-opacity:1"
         d="m 85.777633,192.19635 c -0.245774,-0.0794 -0.726399,-0.23145 -1.068057,-0.33798 -0.673488,-0.20999 -1.948348,-0.97996 -2.103943,-1.27069 -0.05304,-0.0991 -0.260706,-0.37664 -0.461478,-0.61673 -0.200771,-0.2401 -0.41242,-0.54826 -0.470331,-0.6848 -0.05791,-0.13654 -0.174851,-0.3312 -0.259869,-0.43259 -0.113987,-0.13593 -0.152371,-0.39669 -0.146173,-0.99302 0.008,-0.77092 0.0309,-0.85044 0.489927,-1.70241 0.510132,-0.94682 1.402394,-1.94109 2.037978,-2.27096 0.188901,-0.098 0.473076,-0.24728 0.631498,-0.33164 0.158423,-0.0844 0.538301,-0.1829 0.844172,-0.21896 0.305872,-0.0361 0.603888,-0.0951 0.66226,-0.13117 0.430692,-0.26618 5.481421,-0.38409 6.94413,-0.1621 1.248085,0.18941 2.846448,1.16271 3.361562,2.04698 0.747396,1.283 0.796988,1.43171 0.803167,2.40843 0.0059,0.93051 6.6e-5,0.95421 -0.426797,1.73779 -0.238022,0.43693 -0.540992,0.93842 -0.673269,1.11443 -0.462529,0.61544 -1.857486,1.41104 -2.816407,1.60632 -1.975916,0.40238 -6.397105,0.54624 -7.34837,0.2391 z"
         id="path8895" />
      <path
         style="fill:#ffffff;fill-opacity:1;stroke:#000000;stroke-width:0.206405;stroke-miterlimit:4;stroke-dasharray:none;stroke-opacity:1"
         d="m 92.281934,190.7656 c 1.4112,-0.20001 2.471257,-0.9336 3.066133,-2.12183 0.35828,-0.71565 0.381687,-0.81471 0.337612,-1.4287 -0.05881,-0.81927 -0.30523,-1.31845 -0.947335,-1.91907 -1.047114,-0.97945 -1.778936,-1.11737 -5.534782,-1.0431 -1.420023,0.0281 -2.827633,0.0912 -3.128023,0.14018 -0.953317,0.15555 -2.082743,0.87354 -2.687637,1.70858 -0.794123,1.09625 -0.61779,2.88337 0.357929,3.62759 0.490686,0.37426 1.272549,0.71344 2.081453,0.90294 1.215903,0.28486 4.855363,0.36007 6.45465,0.13341 z"
         id="path8897" />
      <path
         style="fill:#ffffff;fill-opacity:1;stroke:#000000;stroke-width:0.206405;stroke-miterlimit:4;stroke-dasharray:none;stroke-opacity:1"
         d="m 88.409143,190.40871 c -3.670854,-0.32976 -4.909689,-1.02207 -4.91383,-2.74604 -0.002,-0.81431 0.173636,-1.23686 0.756535,-1.82053 0.888022,-0.88919 1.866188,-1.0965 5.276091,-1.11821 2.264157,-0.0144 3.301639,0.0773 3.941836,0.3484 0.165931,0.0703 0.548814,0.36566 0.850851,0.65643 0.588249,0.56631 0.791423,1.018 0.791423,1.75948 0,0.47948 -0.49019,1.53579 -0.786217,1.69422 -0.105226,0.0563 -0.250662,0.16048 -0.32319,0.23146 -0.356587,0.34903 -1.157425,0.68104 -1.865435,0.77338 -0.411946,0.0537 -1.051454,0.14106 -1.421128,0.19408 -0.646891,0.0928 -1.469849,0.10253 -2.306936,0.0273 z"
         id="path8899" />
      <path
         style="fill:#ffffff;fill-opacity:1;stroke:#000000;stroke-width:0.206405;stroke-miterlimit:4;stroke-dasharray:none;stroke-opacity:1"
         d="m 88.989533,187.74749 c 0.592295,-0.0267 1.821161,-0.0601 2.730813,-0.0742 1.385783,-0.0215 1.653913,-0.0495 1.653913,-0.17325 0,-0.35009 -0.404437,-0.38709 -3.128023,-0.28622 -5.256036,0.19467 -5.627136,0.23465 -5.411835,0.58301 0.07096,0.11482 0.672042,0.10768 4.155132,-0.0494 z"
         id="path8901" />
    </g>
  </g>
</svg>
