<?xml version="1.0" encoding="UTF-8" standalone="no"?>
<svg
   xmlns:dc="http://purl.org/dc/elements/1.1/"
   xmlns:cc="http://creativecommons.org/ns#"
   xmlns:rdf="http://www.w3.org/1999/02/22-rdf-syntax-ns#"
   xmlns:svg="http://www.w3.org/2000/svg"
   xmlns="http://www.w3.org/2000/svg"
   xmlns:sodipodi="http://sodipodi.sourceforge.net/DTD/sodipodi-0.dtd"
   xmlns:inkscape="http://www.inkscape.org/namespaces/inkscape"
   width="65"
   height="65"
   viewBox="0 0 17.197917 17.197918"
   version="1.1"
   id="svg10328"
   inkscape:version="1.0.1 (c497b03c, 2020-09-10)"
   sodipodi:docname="logo-9.svg">
  <defs
     id="defs10322" />
  <sodipodi:namedview
     id="base"
     pagecolor="#ffffff"
     bordercolor="#666666"
     borderopacity="1.0"
     inkscape:pageopacity="0.0"
     inkscape:pageshadow="2"
     inkscape:zoom="8.9561067"
     inkscape:cx="37.144514"
     inkscape:cy="32.268486"
     inkscape:document-units="mm"
     inkscape:current-layer="layer1"
     inkscape:document-rotation="0"
     showgrid="false"
     inkscape:window-width="1261"
     inkscape:window-height="776"
     inkscape:window-x="0"
     inkscape:window-y="25"
     inkscape:window-maximized="0"
     units="px" />
  <metadata
     id="metadata10325">
    <rdf:RDF>
      <cc:Work
         rdf:about="">
        <dc:format>image/svg+xml</dc:format>
        <dc:type
           rdf:resource="http://purl.org/dc/dcmitype/StillImage" />
        <dc:title></dc:title>
      </cc:Work>
    </rdf:RDF>
  </metadata>
  <g
     inkscape:label="Capa 1"
     inkscape:groupmode="layer"
     id="layer1"
     transform="translate(-99.048364,-139.51079)">
    <path
       style="fill:#b36924;fill-opacity:1;stroke:#000000;stroke-width:0.206332;stroke-miterlimit:4;stroke-dasharray:none;stroke-opacity:1"
       d="m 105.7288,156.21235 c 2.45551,-0.97827 5.3628,-3.30051 6.25622,-4.99724 0.74781,-1.42022 0.94697,-1.85592 1.3545,-2.96334 0.91248,-2.47956 1.05943,-3.23782 0.8768,-4.52435 -0.19917,-1.40308 -0.85787,-2.44311 -1.9738,-3.11643 -0.83773,-0.50546 -2.4247,-1.00083 -3.19405,-0.99701 -1.02805,0.005 -2.58185,0.16949 -3.04598,0.32226 -0.2356,0.0776 -1.0275,0.3349 -1.75978,0.5719 -0.73228,0.23699 -1.55963,0.56763 -1.83855,0.73476 -1.04349,0.62522 -1.51256,1.7757 -1.36917,3.35808 0.10661,1.17652 0.38255,1.49793 1.51496,1.7646 0.6244,0.14705 0.84331,0.15436 1.81976,0.0608 0.61049,-0.0585 1.58189,-0.13278 2.15867,-0.1651 0.94432,-0.053 1.05502,-0.0423 1.11221,0.10671 0.061,0.15911 -0.0794,0.74358 -0.22569,0.93938 -0.0388,0.0519 -0.10175,0.20068 -0.13986,0.33053 -0.0381,0.12985 -0.12364,0.36358 -0.19008,0.5194 -0.0664,0.15582 -0.19231,0.55213 -0.2797,0.8807 -0.0874,0.32856 -0.28521,0.90226 -0.4396,1.27489 -0.70694,1.7063 -1.67954,4.20935 -1.77761,4.57482 -0.0595,0.22172 -0.19367,0.60257 -0.29816,0.84632 -0.11323,0.26415 -0.16687,0.53524 -0.13277,0.67107 0.0506,0.20166 0.0974,0.22238 0.40657,0.18005 0.19216,-0.0263 0.71646,-0.19409 1.16511,-0.37283 z"
       id="path8852" />
    <path
       style="fill:#af231c;fill-opacity:1;stroke:#000000;stroke-width:0.206332;stroke-miterlimit:4;stroke-dasharray:none;stroke-opacity:1"
       d="m 104.86585,155.81026 c 0,-0.12382 0.26504,-0.92594 0.46923,-1.42009 0.0429,-0.10389 0.21251,-0.5501 0.37685,-0.9916 0.16434,-0.44148 0.3455,-0.90895 0.40256,-1.0388 0.13873,-0.3157 0.43641,-1.13045 0.91432,-2.50258 0.21709,-0.62328 0.43546,-1.20707 0.48526,-1.2973 0.087,-0.15764 0.33724,-0.81619 0.4221,-1.11084 0.0224,-0.0779 0.11152,-0.34578 0.19796,-0.59528 0.19399,-0.55991 0.0877,-0.8647 -0.36788,-1.05506 -0.25058,-0.1047 -0.57201,-0.11191 -1.67605,-0.0376 -0.7513,0.0505 -1.64223,0.12234 -1.97984,0.15951 -0.57095,0.0629 -1.49564,-0.0417 -1.91044,-0.21597 -0.0898,-0.0377 -0.25948,-0.22378 -0.37696,-0.4134 -0.18836,-0.30402 -0.21184,-0.45731 -0.19868,-1.29698 0.0269,-1.71728 0.46521,-2.24153 2.39547,-2.86531 2.50623,-0.80991 2.63335,-0.83867 4.01662,-0.90889 1.31028,-0.0665 1.32123,-0.0654 2.21316,0.23346 0.493,0.16516 1.11894,0.40914 1.39098,0.54216 2.11897,1.03615 2.68918,3.5929 1.44977,6.50059 -0.0443,0.10388 -0.19679,0.5076 -0.3389,0.89715 -0.43626,1.19584 -1.3778,3.00221 -1.84039,3.53083 -1.19978,1.37106 -2.96198,2.66311 -4.84093,3.54941 -1.08937,0.51386 -1.20421,0.54596 -1.20421,0.33659 z"
       id="path8854" />
    <path
       style="fill:#1fa824;fill-opacity:1;stroke:#000000;stroke-width:0.206332;stroke-miterlimit:4;stroke-dasharray:none;stroke-opacity:1"
       d="m 111.0247,145.44398 c 0.2644,-0.28304 0.2816,-0.34393 0.23679,-0.83815 -0.0627,-0.69105 -0.26566,-1.1042 -0.80273,-1.63369 -0.4788,-0.47206 -0.85285,-0.67896 -1.57527,-0.87135 -0.71341,-0.18999 -1.02388,-0.16452 -1.27684,0.10475 -0.20777,0.22116 -0.21429,0.26633 -0.12033,0.83337 0.16104,0.97183 0.84032,1.89261 1.72363,2.33639 0.94814,0.47635 1.41734,0.49411 1.81475,0.0687 z"
       id="path8856" />
    <path
       style="fill:#1e22aa;fill-opacity:1;stroke:#000000;stroke-width:0.206332;stroke-miterlimit:4;stroke-dasharray:none;stroke-opacity:1"
       d="m 108.33275,143.7571 c -0.204,-0.31896 -0.38709,-0.98716 -0.31905,-1.16445 0.0814,-0.212 0.59054,-0.17989 1.09913,0.0693 0.47139,0.23096 0.53086,0.37247 0.1862,0.443 -0.36949,0.0756 -0.54217,0.21621 -0.68617,0.55868 l -0.13481,0.32062 z"
       id="path8860" />
    <path
       style="fill:#1e22aa;fill-opacity:1;stroke:#000000;stroke-width:0.206332;stroke-miterlimit:4;stroke-dasharray:none;stroke-opacity:1"
       d="m 109.68213,145.02822 c -0.311,-0.13828 -0.31937,-0.1534 -0.14165,-0.256 0.10388,-0.06 0.34653,-0.26841 0.53922,-0.46319 0.1927,-0.19478 0.36827,-0.35414 0.39015,-0.35414 0.0219,0 0.0882,0.19236 0.14742,0.42746 0.18948,0.75246 -0.15708,0.99181 -0.93514,0.64587 z"
       id="path8858" />
  </g>
</svg>
