<?xml version="1.0" encoding="UTF-8" standalone="no"?>
<svg
   xmlns:dc="http://purl.org/dc/elements/1.1/"
   xmlns:cc="http://creativecommons.org/ns#"
   xmlns:rdf="http://www.w3.org/1999/02/22-rdf-syntax-ns#"
   xmlns:svg="http://www.w3.org/2000/svg"
   xmlns="http://www.w3.org/2000/svg"
   xmlns:sodipodi="http://sodipodi.sourceforge.net/DTD/sodipodi-0.dtd"
   xmlns:inkscape="http://www.inkscape.org/namespaces/inkscape"
   width="65"
   height="65"
   viewBox="0 0 17.197916 17.197917"
   version="1.1"
   id="svg1433"
   inkscape:version="1.0.1 (c497b03c, 2020-09-10)"
   sodipodi:docname="logo-5.svg">
  <defs
     id="defs1427" />
  <sodipodi:namedview
     id="base"
     pagecolor="#ffffff"
     bordercolor="#666666"
     borderopacity="1.0"
     inkscape:pageopacity="0.0"
     inkscape:pageshadow="2"
     inkscape:zoom="6.5625321"
     inkscape:cx="32.499999"
     inkscape:cy="31.408856"
     inkscape:document-units="mm"
     inkscape:current-layer="layer1"
     inkscape:document-rotation="0"
     showgrid="false"
     inkscape:window-width="1261"
     inkscape:window-height="773"
     inkscape:window-x="134"
     inkscape:window-y="25"
     inkscape:window-maximized="0"
     units="px" />
  <metadata
     id="metadata1430">
    <rdf:RDF>
      <cc:Work
         rdf:about="">
        <dc:format>image/svg+xml</dc:format>
        <dc:type
           rdf:resource="http://purl.org/dc/dcmitype/StillImage" />
        <dc:title></dc:title>
      </cc:Work>
    </rdf:RDF>
  </metadata>
  <g
     inkscape:label="Capa 1"
     inkscape:groupmode="layer"
     id="layer1"
     transform="translate(-4.0147485,-4.8290178)">
    <path
       style="fill:#b36924;fill-opacity:1;stroke:#000000;stroke-width:0.207698;stroke-miterlimit:4;stroke-dasharray:none;stroke-opacity:1"
       d="m 5.3061319,21.283529 c 0.3846457,-0.198243 0.8775361,-0.479863 1.095312,-0.625825 0.2177754,-0.145956 0.7077706,-0.434771 1.0888779,-0.641802 0.3811073,-0.207037 0.8933753,-0.497254 1.1383726,-0.644928 0.2449979,-0.147673 0.7795382,-0.463936 1.1878675,-0.702804 0.4083291,-0.238873 1.2064961,-0.736116 1.7737041,-1.104991 0.567209,-0.368869 1.068341,-0.670676 1.113626,-0.670676 0.111759,0 0.09976,0.362321 -0.02786,0.841409 -0.388047,1.456666 -0.581513,3.046032 -0.385525,3.167161 0.158409,0.0979 0.334298,-0.05017 1.116567,-0.93991 0.40687,-0.462774 0.957032,-1.048041 1.222583,-1.300591 2.105092,-2.002052 4.421514,-4.449293 4.962581,-5.242848 0.878266,-1.288104 1.509069,-2.996248 1.509069,-4.0863792 0,-0.6054812 -0.24246,-1.335318 -0.620033,-1.8663845 C 19.769522,6.4638745 18.212257,5.5836873 16.618159,5.281477 15.878201,5.1411946 15.486196,5.2451676 13.906867,6.0006567 12.458074,6.6936903 11.288728,7.4457113 10.014542,8.503854 8.9926123,9.3525076 8.9601605,9.3784629 8.379258,9.8116061 7.7181572,10.304545 5.6498725,12.036842 4.9333753,12.697708 4.1284923,13.440105 4.0929012,13.658697 4.7689821,13.70738 5.0135097,13.725 5.3694855,13.69532 5.5600394,13.6414 c 0.3030279,-0.08572 1.147418,-0.192109 3.0439096,-0.383544 0.2858306,-0.02885 0.5196921,-0.01639 0.5196921,0.02772 0,0.06633 -0.6168112,1.034034 -1.4157336,2.221112 -0.091604,0.136107 -0.3166824,0.470193 -0.5001743,0.742413 -0.9779948,1.450912 -2.0742474,3.186015 -2.5880912,4.096333 -0.5516736,0.977336 -0.5710159,1.034314 -0.39486,1.16312 0.2574761,0.188271 0.2944045,0.180588 1.0813516,-0.225 z"
       id="path1280" />
    <path
       style="fill:#a09074;fill-opacity:1;stroke:#000000;stroke-width:0.207698;stroke-miterlimit:4;stroke-dasharray:none;stroke-opacity:1"
       d="m 4.9661043,20.721995 c 0,-0.161636 0.8597815,-1.541042 2.2326689,-3.58202 2.5400803,-3.776165 2.6277224,-3.91821 2.5957173,-4.207024 -0.025972,-0.234362 -0.058889,-0.24709 -0.6213568,-0.240226 -0.3266633,0.0039 -1.0616559,0.08113 -1.6333171,0.171417 -1.1371453,0.179612 -2.0787679,0.216684 -2.0787679,0.08185 0,-0.121847 1.5596454,-1.434128 3.4151185,-2.873475 0.8711025,-0.6757428 1.8956378,-1.4815433 2.2767458,-1.7906675 0.66863,-0.5423409 1.660188,-1.1890925 2.276745,-1.485023 0.163332,-0.078394 0.408329,-0.2127442 0.544439,-0.2985569 1.062955,-0.6701479 2.350755,-0.8256669 3.415119,-0.4124294 1.036329,0.4023615 1.274368,0.5189559 1.818745,0.8908612 1.164422,0.7955137 1.537083,1.9047591 1.195318,3.5579616 -0.309791,1.498542 -1.97197,3.81912 -4.399909,6.142746 -0.489995,0.46894 -1.372008,1.332808 -1.960029,1.919708 -0.588022,0.586894 -1.105285,1.067082 -1.149474,1.067082 -0.117072,0 -0.03349,-0.603713 0.24305,-1.755671 0.257545,-1.072817 0.309504,-1.755294 0.141537,-1.859104 -0.05594,-0.03457 -0.230434,0.01846 -0.387765,0.117896 -0.408602,0.258184 -1.721651,1.114076 -2.289472,1.492351 -0.265604,0.176945 -0.500896,0.321717 -0.522872,0.321717 -0.06421,0 -2.4742652,1.397684 -2.6375174,1.529593 -0.081666,0.06599 -0.3934811,0.244188 -0.6929224,0.396003 -0.2994419,0.15181 -0.7248338,0.396761 -0.9453158,0.544328 -0.4676967,0.31303 -0.8364851,0.432369 -0.8364851,0.270688 z"
       id="path1282" />
    <path
       style="fill:#5f4029;fill-opacity:1;stroke:#000000;stroke-width:0.207698;stroke-miterlimit:4;stroke-dasharray:none;stroke-opacity:1"
       d="M 17.304117,12.827232 C 18.374203,12.309214 19.062527,10.822148 18.82121,9.5496842 18.702021,8.9212051 18.598002,8.7390237 17.993246,8.0995845 17.288004,7.3538938 16.859342,7.1484564 16.00337,7.1459254 14.8304,7.1425582 13.977743,7.7422647 13.415499,8.966359 c -0.44726,0.9737668 -0.402092,2.11403 0.114756,2.896984 0.24749,0.374919 0.875138,0.801249 1.517296,1.030633 0.58471,0.208866 1.758985,0.174134 2.256566,-0.06674 z"
       id="path1284" />
    <path
       style="fill:#af231c;fill-opacity:1;stroke:#000000;stroke-width:0.207698;stroke-miterlimit:4;stroke-dasharray:none;stroke-opacity:1"
       d="m 15.017041,12.189707 c -0.738173,-0.312845 -1.114067,-0.667314 -1.253796,-1.18233 -0.229301,-0.845157 -0.08591,-1.6364397 0.444262,-2.4515898 0.554343,-0.8523181 1.698596,-1.1016636 2.703328,-0.589083 0.509002,0.2596715 1.163047,0.9772126 1.3176,1.4455091 0.164746,0.4991849 0.08916,1.4985307 -0.150158,1.9852177 -0.472517,0.960944 -1.832654,1.31296 -3.061236,0.792276 z"
       id="path1286" />
    <path
       style="fill:#1fa824;fill-opacity:1;stroke:#000000;stroke-width:0.207698;stroke-miterlimit:4;stroke-dasharray:none;stroke-opacity:1"
       d="m 16.579064,12.029637 c 0.315629,-0.162618 0.735742,-0.639563 0.972995,-1.104616 0.557877,-1.0935317 -0.248333,-2.5019906 -1.501055,-2.6223617 -0.614972,-0.059094 -0.987995,0.091683 -1.425823,0.5763045 -0.556761,0.6162674 -0.701182,1.4894342 -0.367631,2.2226882 0.225038,0.494712 0.357109,0.603888 1.018221,0.841717 0.609207,0.219154 0.995713,0.244739 1.303293,0.08627 z"
       id="path1288" />
    <path
       style="fill:#1e22aa;fill-opacity:1;stroke:#000000;stroke-width:0.207698;stroke-miterlimit:4;stroke-dasharray:none;stroke-opacity:1"
       d="m 15.409437,11.407364 c -0.445788,-0.19813 -0.752393,-0.586097 -0.811512,-1.026856 -0.153452,-1.1440785 0.784137,-1.8337111 1.822875,-1.3408005 0.469381,0.2227391 0.720114,0.6597041 0.720573,1.2557905 2.97e-4,0.388029 -0.05848,0.555007 -0.304915,0.866152 -0.268753,0.339328 -0.354633,0.384987 -0.71767,0.38158 -0.226811,-0.0022 -0.546019,-0.06327 -0.709351,-0.135866 z"
       id="path1290" />
  </g>
</svg>
