<?xml version="1.0" encoding="UTF-8" standalone="no"?>
<svg
   xmlns:dc="http://purl.org/dc/elements/1.1/"
   xmlns:cc="http://creativecommons.org/ns#"
   xmlns:rdf="http://www.w3.org/1999/02/22-rdf-syntax-ns#"
   xmlns:svg="http://www.w3.org/2000/svg"
   xmlns="http://www.w3.org/2000/svg"
   xmlns:sodipodi="http://sodipodi.sourceforge.net/DTD/sodipodi-0.dtd"
   xmlns:inkscape="http://www.inkscape.org/namespaces/inkscape"
   width="65"
   height="65"
   viewBox="0 0 17.197916 17.197917"
   version="1.1"
   id="svg1433"
   inkscape:version="1.0.1 (c497b03c, 2020-09-10)"
   sodipodi:docname="logo-3.svg">
  <defs
     id="defs1427" />
  <sodipodi:namedview
     id="base"
     pagecolor="#ffffff"
     bordercolor="#666666"
     borderopacity="1.0"
     inkscape:pageopacity="0.0"
     inkscape:pageshadow="2"
     inkscape:zoom="5.7004847"
     inkscape:cx="0.72469579"
     inkscape:cy="22.820223"
     inkscape:document-units="mm"
     inkscape:current-layer="layer1"
     inkscape:document-rotation="0"
     showgrid="false"
     inkscape:window-width="1261"
     inkscape:window-height="776"
     inkscape:window-x="134"
     inkscape:window-y="25"
     inkscape:window-maximized="0"
     units="px" />
  <metadata
     id="metadata1430">
    <rdf:RDF>
      <cc:Work
         rdf:about="">
        <dc:format>image/svg+xml</dc:format>
        <dc:type
           rdf:resource="http://purl.org/dc/dcmitype/StillImage" />
        <dc:title></dc:title>
      </cc:Work>
    </rdf:RDF>
  </metadata>
  <g
     inkscape:label="Capa 1"
     inkscape:groupmode="layer"
     id="layer1"
     transform="translate(-8.7448881,-6.1723222)">
    <g
       id="g1190"
       transform="translate(0,2.3327669)">
      <path
         style="fill:#ffffff;fill-opacity:0.996564;stroke:#000000;stroke-width:0.147576;stroke-miterlimit:4;stroke-dasharray:none;stroke-opacity:1"
         d="m 22.807853,17.394644 c 0.756118,-0.262035 1.789279,-1.069259 2.25984,-1.765656 0.204552,-0.302717 0.48857,-1.122571 0.68291,-1.971308 0.15899,-0.694335 0.157636,-1.830815 -0.0026,-2.262826 -0.592655,-1.5969222 -1.50986,-2.6865238 -2.660464,-3.160527 -0.955918,-0.3937994 -2.295619,0.03373 -2.295619,0.7325823 0,0.3474711 0.141137,0.5698218 0.810712,1.2772127 0.692418,0.731523 0.975615,1.213842 1.132842,1.929379 0.0923,0.420035 0.09804,0.56184 0.03402,0.839246 -0.09356,0.405312 -0.508742,1.306302 -0.801126,1.73852 -0.170922,0.252666 -0.818384,1.047558 -0.979091,1.202032 -0.176202,0.169367 -0.409955,0.571502 -0.440066,0.757067 -0.04399,0.271078 0.08236,0.444706 0.438154,0.602093 0.673618,0.297985 1.137467,0.31892 1.820593,0.08218 z"
         id="path1326" />
      <path
         style="fill:#ffffff;fill-opacity:0.996564;stroke:#000000;stroke-width:0.147576;stroke-miterlimit:4;stroke-dasharray:none;stroke-opacity:1"
         d="m 13.283889,17.738421 c 0.208411,-0.176183 0.358722,-0.422771 0.358722,-0.588491 0,-0.10129 -0.202384,-0.36537 -0.61023,-0.796248 -0.716595,-0.757064 -1.040687,-1.319299 -1.162878,-2.017366 -0.07156,-0.408836 -0.06691,-0.548012 0.03622,-1.082221 0.07249,-0.375511 0.194757,-0.752822 0.315562,-0.973787 0.108471,-0.198407 0.255267,-0.478801 0.326208,-0.623097 0.246119,-0.500595 0.528353,-0.856048 1.197813,-1.50855 C 14.261251,9.6457781 14.43662,9.4299974 14.497034,9.223688 14.604158,8.8578724 14.511052,8.7029091 14.060218,8.4965011 13.743462,8.3514857 13.632162,8.3352101 13.09841,8.3558564 12.215939,8.3899916 11.929968,8.5427005 10.942544,9.5070903 10.494376,9.9448064 10.067882,10.42682 9.9588461,10.61885 c -0.1058714,0.186455 -0.2315249,0.371405 -0.2792325,0.410998 -0.083568,0.06935 -0.3345107,0.627148 -0.6215742,1.381638 -0.3067341,0.806187 -0.3189529,1.607988 -0.039003,2.559647 0.2499757,0.849776 0.3567396,1.030052 0.9383443,1.584482 0.5041573,0.480598 1.3314733,0.980806 1.8487373,1.117774 0.801157,0.212145 1.278883,0.233169 1.477775,0.06503 z"
         id="path1322" />
      <path
         style="fill:#ffffff;fill-opacity:0.996564;stroke:#000000;stroke-width:0.147576;stroke-miterlimit:4;stroke-dasharray:none;stroke-opacity:1"
         d="m 17.704794,18.462085 c 0.07525,-0.0992 0.324437,-0.417733 0.553757,-0.707838 0.22932,-0.290109 0.465995,-0.614777 0.525947,-0.721481 0.304845,-0.542606 0.492742,-0.843041 0.921225,-1.473002 0.518016,-0.761591 0.641282,-1.001428 0.587167,-1.142449 -0.03796,-0.09893 -0.357647,-0.234922 -0.552244,-0.234922 -0.183765,0 -0.240248,-0.134274 -0.283772,-0.674594 -0.04995,-0.620068 -0.0011,-0.66024 0.53216,-0.439145 l 0.365151,0.151348 0.1393,-0.174696 c 0.141721,-0.177739 0.323423,-0.22771 0.396724,-0.109107 0.05843,0.09455 0.397687,0.08075 0.480939,-0.01956 0.08462,-0.101967 0.234801,-1.26097 0.175767,-1.356492 -0.06293,-0.101826 -0.241479,-0.08054 -0.521358,0.06215 -0.289682,0.147687 -0.364909,0.12662 -0.364909,-0.102188 0,-0.245301 -0.137817,-0.251668 -0.628788,-0.02905 -0.245975,0.11153 -0.485517,0.188089 -0.532317,0.170131 -0.06566,-0.0252 -0.08509,-0.321804 -0.08509,-1.298976 V 9.0958867 l 0.35687,-0.5230378 C 19.967601,8.2851781 20.21674,7.9022358 20.324962,7.7218655 20.433187,7.5414955 20.656293,7.2623352 20.820753,7.1015097 21.172733,6.7573094 21.229881,6.4730121 20.96067,6.4054443 20.424847,6.270961 19.282806,6.7222304 18.725769,7.2885498 18.545399,7.4719261 18.363337,7.6223035 18.321188,7.6227215 18.279036,7.6231305 18.181497,7.5214636 18.104436,7.3967746 17.766218,6.8495241 16.864144,6.24611 16.384253,6.24611 c -0.246737,0 -0.446023,0.1620774 -0.446023,0.3627445 0,0.080105 0.07017,0.30432 0.15594,0.4982548 0.181973,0.411468 0.331938,1.0726768 0.267092,1.1776044 -0.02796,0.045245 -0.147618,0.058066 -0.316004,0.03386 -0.595839,-0.085656 -0.631153,0.1119711 -0.424374,2.3749363 0.08996,0.98457 0.07317,1.016954 -0.421058,0.812109 -0.510568,-0.21162 -0.770144,-0.168462 -0.770144,0.128048 0,0.195159 -0.120273,0.202478 -0.476384,0.02899 -0.188916,-0.09203 -0.43878,-0.186126 -0.555256,-0.209091 -0.186971,-0.03687 -0.219623,-0.02112 -0.278757,0.134408 -0.0717,0.188585 -0.09351,1.661883 -0.02718,1.834782 0.05945,0.154929 0.279393,0.124267 0.675752,-0.09421 0.195151,-0.107568 0.39334,-0.195579 0.44042,-0.195579 0.09066,0 0.23911,0.222773 0.184702,0.277181 -0.01763,0.01764 0.01171,0.0684 0.06521,0.112808 0.135493,0.11245 0.434217,0.03418 0.754181,-0.197599 0.426067,-0.308642 0.463489,-0.279163 0.463489,0.365117 v 0.557508 h -0.306381 c -0.335622,0 -0.546276,0.13279 -0.546276,0.344355 0,0.307392 1.701443,3.042837 2.384401,3.833448 0.227792,0.263696 0.319607,0.270401 0.497178,0.03629 z"
         id="path1306" />
      <path
         style="fill:#ffffff;fill-opacity:0.996564;stroke:#000000;stroke-width:0.147576;stroke-miterlimit:4;stroke-dasharray:none;stroke-opacity:1"
         d="m 21.283721,16.977413 c -0.108237,-0.04717 -0.237293,-0.134559 -0.286785,-0.194199 -0.103637,-0.124873 -0.14699,-0.05443 0.551143,-0.895504 0.254516,-0.306629 0.547276,-0.690325 0.650582,-0.852659 0.103306,-0.162333 0.238731,-0.370381 0.300952,-0.462328 0.19051,-0.281533 0.437999,-0.805123 0.486413,-1.029072 0.02525,-0.116828 0.07317,-0.229251 0.106466,-0.249831 0.09751,-0.06026 0.06957,-1.058136 -0.04163,-1.487286 C 22.901818,11.231383 22.633741,10.803109 21.901926,9.9710344 21.543669,9.5636928 21.232268,9.1623698 21.209932,9.0792062 21.153092,8.8675928 21.376105,8.6503709 21.786171,8.517935 c 0.424969,-0.1372495 0.504971,-0.1352244 1.048098,0.026527 1.079544,0.3215029 2.076279,1.492328 2.547038,2.99191 0.118863,0.378628 0.141044,0.568985 0.114643,0.983837 -0.07645,1.201271 -0.388235,2.345261 -0.803529,2.948249 -0.48104,0.698447 -1.349912,1.35619 -2.011159,1.52246 -0.404298,0.101662 -1.149823,0.09446 -1.397541,-0.0135 z"
         id="path1328" />
      <path
         style="fill:#ffffff;fill-opacity:0.996564;stroke:#000000;stroke-width:0.147576;stroke-miterlimit:4;stroke-dasharray:none;stroke-opacity:1"
         d="M 12.134062,17.302821 C 11.063847,17.020521 10.00159,16.257947 9.6081006,15.489492 9.270656,14.830486 9.1101124,13.751525 9.25251,13.099641 c 0.047217,-0.216152 0.088941,-0.407762 0.092727,-0.425799 0.1555126,-0.741187 0.956706,-1.959166 1.881054,-2.8595889 0.728903,-0.7100374 1.021953,-0.90864 1.480076,-1.0030527 0.506652,-0.1044148 1.342632,0.023203 1.416718,0.2162737 0.04439,0.115677 -0.454367,0.7409083 -0.871855,1.0929379 -0.18603,0.156865 -0.466478,0.478272 -0.623218,0.714237 -0.413962,0.623207 -0.993477,1.817096 -1.077384,2.219559 -0.271848,1.303988 0.198539,2.648821 1.29971,3.715868 0.275796,0.267252 0.325367,0.410962 0.188852,0.547477 -0.09644,0.09644 -0.50914,0.08972 -0.905128,-0.01472 z"
         id="path1324" />
      <path
         style="fill:#ffffff;fill-opacity:0.996564;stroke:#000000;stroke-width:0.147576;stroke-miterlimit:4;stroke-dasharray:none;stroke-opacity:1"
         d="m 17.709137,8.5641935 c -0.924516,-0.156562 -0.8589,-0.1066977 -1.022545,-0.7771073 -0.0792,-0.3244655 -0.175064,-0.6874082 -0.213026,-0.8065391 -0.05622,-0.1764076 -0.05078,-0.2236032 0.0293,-0.2543301 0.265336,-0.1018198 1.027449,0.4783515 1.380295,1.0507747 0.17863,0.2897895 0.329554,0.4367887 0.448452,0.4367887 0.03997,0 0.241691,-0.202894 0.448257,-0.450876 0.385751,-0.4630944 0.926851,-0.8222945 1.399171,-0.92882 0.291332,-0.065706 0.32836,0.019615 0.124504,0.2868828 -0.09218,0.1208582 -0.167605,0.239395 -0.167605,0.2634154 0,0.024021 -0.108994,0.1983251 -0.242211,0.3873438 -0.133217,0.1890187 -0.327156,0.4691094 -0.430975,0.6224239 l -0.188766,0.2787539 -0.503667,-0.00715 c -0.27702,-0.00393 -0.754549,-0.049634 -1.061179,-0.101561 z"
         id="path1320" />
      <path
         style="fill:#ffffff;fill-opacity:0.996564;stroke:#000000;stroke-width:0.147576;stroke-miterlimit:4;stroke-dasharray:none;stroke-opacity:1"
         d="m 17.285923,12.067142 c -0.01406,-0.04509 -0.04392,-0.347622 -0.06635,-0.672289 -0.02242,-0.324666 -0.06762,-0.752635 -0.10042,-0.951042 -0.141159,-0.8539095 -0.194478,-1.4718029 -0.132365,-1.5339184 0.07355,-0.073552 1.768854,0.1283713 1.862983,0.2218949 0.0341,0.033879 -0.08408,0.4845896 -0.283933,1.0828345 -0.188291,0.563638 -0.358774,1.192588 -0.378849,1.397665 -0.02008,0.205078 -0.06564,0.409763 -0.101235,0.454855 -0.03751,0.04751 -0.213937,0.08199 -0.419503,0.08199 -0.226453,0 -0.364013,-0.02965 -0.380328,-0.08199 z"
         id="path1318" />
      <path
         style="fill:#ffffff;fill-opacity:0.996564;stroke:#000000;stroke-width:0.147576;stroke-miterlimit:4;stroke-dasharray:none;stroke-opacity:1"
         d="m 20.742636,12.47503 c -0.181114,-0.0728 -0.191322,-0.232286 -0.02071,-0.323594 0.240672,-0.128803 0.332257,-0.08424 0.332257,0.161665 0,0.240963 -0.05012,0.267012 -0.311545,0.161929 z"
         id="path1316" />
      <path
         style="fill:#ffffff;fill-opacity:0.996564;stroke:#000000;stroke-width:0.147576;stroke-miterlimit:4;stroke-dasharray:none;stroke-opacity:1"
         d="m 19.656331,12.536104 c -0.410661,-0.216697 -0.253955,-0.489173 0.389852,-0.677856 0.184178,-0.05398 0.235221,0.08603 0.180835,0.496009 -0.04924,0.371196 -0.150626,0.403502 -0.570687,0.181847 z"
         id="path1314" />
      <path
         style="fill:#ffffff;fill-opacity:0.996564;stroke:#000000;stroke-width:0.147576;stroke-miterlimit:4;stroke-dasharray:none;stroke-opacity:1"
         d="m 13.445846,12.513741 c 0,-0.3045 0.02833,-0.571154 0.06298,-0.592563 0.03466,-0.02141 0.237534,0.04919 0.450872,0.15688 0.559387,0.282377 0.600022,0.487646 0.137798,0.69608 -0.142379,0.0642 -0.291831,0.156449 -0.332113,0.204987 -0.04029,0.04854 -0.128661,0.08825 -0.196389,0.08825 -0.110746,0 -0.123147,-0.05576 -0.123147,-0.553637 z"
         id="path1312" />
      <path
         style="fill:#ffffff;fill-opacity:0.996564;stroke:#000000;stroke-width:0.147576;stroke-miterlimit:4;stroke-dasharray:none;stroke-opacity:1"
         d="m 14.731849,13.029218 c -0.05155,-0.134328 -0.05074,-0.519712 0.0019,-0.903729 0.04895,-0.357123 0.136994,-0.382612 0.567604,-0.164316 0.324152,0.164329 0.372172,0.224515 0.373518,0.468141 7.43e-4,0.151156 -0.06704,0.225782 -0.4027,0.442726 -0.454144,0.293528 -0.484598,0.302387 -0.540319,0.157178 z"
         id="path1310" />
      <path
         style="fill:#ffffff;fill-opacity:0.996564;stroke:#000000;stroke-width:0.147576;stroke-miterlimit:4;stroke-dasharray:none;stroke-opacity:1"
         d="m 17.337107,17.970165 c -0.144863,-0.161298 -0.771952,-1.08855 -1.176254,-1.739273 -0.140479,-0.226104 -0.395612,-0.630941 -0.566965,-0.89964 -0.17135,-0.268698 -0.31155,-0.519053 -0.31155,-0.556344 0,-0.0642 0.09548,-0.09577 0.220835,-0.07301 0.03127,0.0057 0.156724,-0.02263 0.278782,-0.06292 0.150415,-0.04964 0.23518,-0.126063 0.263069,-0.237171 0.04201,-0.167367 -0.07991,-4.668715 -0.140952,-5.2041866 -0.04502,-0.3949261 0.05977,-0.529737 0.36347,-0.4676227 0.25867,0.052904 0.27595,0.0982 0.391058,1.0251305 0.04031,0.3246658 0.106265,0.7526348 0.146551,0.9510428 0.04342,0.21382 0.06869,0.960463 0.06205,1.833276 -0.0062,0.809895 0.0057,1.525636 0.02625,1.590537 0.0206,0.0649 0.09006,0.118 0.154367,0.118 0.103325,0 0.122192,-0.09334 0.162295,-0.802929 0.02495,-0.441611 0.06747,-0.825025 0.09448,-0.852029 0.02699,-0.02701 0.186587,-0.06795 0.354627,-0.09098 0.295188,-0.04046 0.307121,-0.03552 0.352698,0.146074 0.02595,0.103373 0.01116,0.476449 -0.03283,0.829056 -0.0845,0.677082 -0.07037,0.770806 0.116194,0.770806 0.153783,0 0.26975,-0.499153 0.26975,-1.161087 0,-0.272353 0.04551,-0.779237 0.101145,-1.126408 0.104745,-0.653676 0.416889,-1.713443 0.504678,-1.713443 0.02752,0 0.05119,0.317288 0.05257,0.705084 0.0033,0.904705 0.0546,2.360252 0.101807,2.883365 0.04167,0.461682 0.211051,0.740434 0.449931,0.740434 0.353493,0 0.311713,0.135204 -0.355282,1.14967 -0.892288,1.35713 -1.631963,2.392142 -1.709552,2.392142 -0.02238,0 -0.10032,-0.06641 -0.173216,-0.147574 z"
         id="path1308" />
    </g>
  </g>
</svg>
