<?xml version="1.0" encoding="UTF-8" standalone="no"?>
<svg
   xmlns:dc="http://purl.org/dc/elements/1.1/"
   xmlns:cc="http://creativecommons.org/ns#"
   xmlns:rdf="http://www.w3.org/1999/02/22-rdf-syntax-ns#"
   xmlns:svg="http://www.w3.org/2000/svg"
   xmlns="http://www.w3.org/2000/svg"
   xmlns:sodipodi="http://sodipodi.sourceforge.net/DTD/sodipodi-0.dtd"
   xmlns:inkscape="http://www.inkscape.org/namespaces/inkscape"
   width="65"
   height="65"
   viewBox="0 0 17.197916 17.197917"
   version="1.1"
   id="svg9644"
   inkscape:version="1.0.1 (c497b03c, 2020-09-10)"
   sodipodi:docname="logo-8.svg">
  <defs
     id="defs9638" />
  <sodipodi:namedview
     id="base"
     pagecolor="#ffffff"
     bordercolor="#666666"
     borderopacity="1.0"
     inkscape:pageopacity="0.0"
     inkscape:pageshadow="2"
     inkscape:zoom="9.1875232"
     inkscape:cx="33.474297"
     inkscape:cy="31.782233"
     inkscape:document-units="mm"
     inkscape:current-layer="layer1"
     inkscape:document-rotation="0"
     showgrid="false"
     inkscape:window-width="1261"
     inkscape:window-height="776"
     inkscape:window-x="0"
     inkscape:window-y="25"
     inkscape:window-maximized="0"
     units="px" />
  <metadata
     id="metadata9641">
    <rdf:RDF>
      <cc:Work
         rdf:about="">
        <dc:format>image/svg+xml</dc:format>
        <dc:type
           rdf:resource="http://purl.org/dc/dcmitype/StillImage" />
        <dc:title />
      </cc:Work>
    </rdf:RDF>
  </metadata>
  <g
     inkscape:label="Capa 1"
     inkscape:groupmode="layer"
     id="layer1"
     transform="translate(-109.27342,-92.859772)">
    <g
       id="g6939">
      <path
         style="fill:#ffffff;fill-opacity:1;stroke:#000000;stroke-width:0.206349;stroke-miterlimit:4;stroke-dasharray:none;stroke-opacity:1"
         d="m 118.26975,109.25803 c 0.16576,-0.22399 0.4073,-0.58215 0.53676,-0.79593 0.20117,-0.33218 0.27136,-0.38148 0.48291,-0.33917 0.13614,0.0272 0.44559,0.18939 0.68767,0.36037 0.77712,0.54883 1.02132,0.65589 1.16603,0.51119 0.18081,-0.18081 0.29642,-0.75905 0.29902,-1.49566 0.002,-0.51189 0.0309,-0.63588 0.14897,-0.63588 0.0807,0 0.54986,0.13105 1.04259,0.29123 1.01364,0.32953 1.41946,0.31823 1.30968,-0.0364 -0.0354,-0.11423 -0.0971,-0.36322 -0.13713,-0.5533 -0.0401,-0.19009 -0.17124,-0.58805 -0.29151,-0.88437 -0.2069,-0.50978 -0.20976,-0.54526 -0.0531,-0.6598 0.18852,-0.13786 1.45648,-0.27954 1.76937,-0.19772 0.11401,0.0298 0.26159,0.009 0.32797,-0.0459 0.14488,-0.12024 0.11184,-0.1904 -0.59736,-1.26835 -0.27647,-0.42022 -0.50267,-0.80555 -0.50267,-0.85627 0,-0.0507 0.11658,-0.14423 0.25906,-0.20779 0.52356,-0.23353 1.54065,-0.88745 1.62476,-1.04462 0.11708,-0.21876 -0.16555,-0.51323 -0.73554,-0.76634 -0.86281,-0.38317 -1.05408,-0.50365 -1.05408,-0.664005 0,-0.08927 0.0542,-0.196204 0.12034,-0.237637 0.19754,-0.123671 1.10433,-1.211905 1.10433,-1.325305 0,-0.05769 -0.0419,-0.130774 -0.0931,-0.162408 -0.2038,-0.125956 -1.16443,-0.330417 -1.55241,-0.330417 -0.47842,0 -0.70965,-0.07148 -0.70965,-0.219382 0,-0.147378 0.37477,-1.384684 0.49787,-1.643727 0.0692,-0.145514 0.0721,-0.297032 0.009,-0.471023 -0.0792,-0.219169 -0.1391,-0.252693 -0.41123,-0.230278 -0.17517,0.01442 -0.36377,0.0628 -0.41912,0.107494 -0.1516,0.122426 -1.56129,0.415314 -1.63657,0.34003 -0.0361,-0.03605 -0.067,-0.517739 -0.0687,-1.070401 -0.002,-0.552662 -0.036,-1.057836 -0.0762,-1.122603 -0.1473,-0.23737 -0.50444,-0.102463 -1.31134,0.495347 -0.81877,0.606603 -1.10574,0.731641 -1.10574,0.481795 0,-0.07137 -0.0585,-0.178307 -0.12996,-0.237626 -0.0715,-0.05932 -0.15385,-0.223479 -0.18305,-0.364807 -0.0292,-0.141323 -0.182,-0.396585 -0.33954,-0.567254 -0.38281,-0.414705 -0.53696,-0.321909 -1.02564,0.617393 -0.211,0.405573 -0.46375,0.809895 -0.56166,0.898504 -0.1704,0.154214 -0.21046,0.132878 -0.93658,-0.498694 -0.72521,-0.630788 -1.14314,-0.816674 -1.29256,-0.574903 -0.0289,0.04668 -0.0917,0.460018 -0.13968,0.918501 -0.048,0.458483 -0.11769,0.911716 -0.15493,1.007188 -0.074,0.189597 -0.13185,0.185928 -1.12422,-0.07126 -0.73812,-0.19129 -1.35446,-0.194831 -1.42608,-0.0082 -0.0298,0.07768 0.0576,0.420574 0.19431,0.761993 0.13668,0.341419 0.27329,0.801542 0.30357,1.022495 0.0635,0.463023 0.15119,0.41361 -1.26565,0.712847 -1.10359,0.233077 -1.24464,0.307783 -1.24464,0.659216 0,0.231052 0.12451,0.379595 0.75632,0.902301 0.53615,0.443566 0.72964,0.657876 0.66466,0.736166 -0.0504,0.0607 -0.43315,0.27847 -0.85052,0.48384 -1.06205,0.52256 -1.04369,0.64222 0.1815,1.18308 0.67429,0.29766 0.94084,0.46203 0.94205,0.58091 9e-4,0.0912 -0.28909,0.47939 -0.64449,0.86268 -0.67443,0.72738 -0.82839,1.01705 -0.62866,1.1828 0.0653,0.0542 0.53787,0.1155 1.05008,0.13617 0.51221,0.0207 1.02668,0.0414 1.14325,0.0462 0.1625,0.007 0.21197,0.065 0.21197,0.25032 0,0.13294 -0.0464,0.32839 -0.1031,0.43434 -0.16829,0.31446 -0.47493,1.50986 -0.42241,1.64673 0.0769,0.20038 0.54848,0.14929 1.48065,-0.16041 0.47505,-0.15783 0.89246,-0.25321 0.92757,-0.21196 0.12442,0.1462 0.27542,0.83833 0.3389,1.55346 0.0413,0.46472 0.10906,0.74197 0.18896,0.77263 0.13904,0.0533 1.06629,-0.60533 1.49232,-1.06008 0.25626,-0.27354 0.28795,-0.28379 0.44312,-0.14336 0.0919,0.0832 0.30151,0.47498 0.46576,0.87067 0.16425,0.39568 0.34253,0.7473 0.39618,0.78137 0.16318,0.10361 0.34535,-0.0193 0.6611,-0.44591 z"
         id="path8777" />
      <path
         style="fill:#ffffff;fill-opacity:1;stroke:#000000;stroke-width:0.206349;stroke-miterlimit:4;stroke-dasharray:none;stroke-opacity:1"
         d="m 117.39357,95.001832 c 0,-0.160656 0.37959,-0.311078 0.6278,-0.248778 0.12838,0.0322 0.21652,0.110009 0.19586,0.172864 -0.0461,0.140142 -0.82366,0.211804 -0.82366,0.07591 z"
         id="path8821" />
      <path
         style="fill:#ffffff;fill-opacity:1;stroke:#000000;stroke-width:0.206349;stroke-miterlimit:4;stroke-dasharray:none;stroke-opacity:1"
         d="m 120.10493,95.459583 c -0.55972,-0.288935 -0.63724,-0.48853 -0.23196,-0.59722 0.60298,-0.161718 1.10039,0.123687 1.10039,0.631385 0,0.329969 -0.1765,0.323026 -0.86843,-0.03418 z"
         id="path8819" />
      <path
         style="fill:#ffffff;fill-opacity:1;stroke:#000000;stroke-width:0.206349;stroke-miterlimit:4;stroke-dasharray:none;stroke-opacity:1"
         d="m 114.66197,95.676087 c 5.3e-4,-0.249873 0.35408,-0.777193 0.52107,-0.777193 0.19574,0 0.70324,0.265938 0.70324,0.368507 0,0.0446 -0.15897,0.151523 -0.35327,0.237659 -0.19429,0.08613 -0.42688,0.196941 -0.51684,0.246247 -0.24294,0.133123 -0.35459,0.10941 -0.3542,-0.07522 z"
         id="path8817" />
      <path
         style="fill:#ffffff;fill-opacity:1;stroke:#000000;stroke-width:0.206349;stroke-miterlimit:4;stroke-dasharray:none;stroke-opacity:1"
         d="m 122.33589,96.967911 c -0.38292,-0.388765 -0.44187,-0.490656 -0.32618,-0.563787 0.37531,-0.237253 0.89735,-0.03867 0.98842,0.375974 0.0638,0.290345 -0.008,0.662334 -0.12701,0.662334 -0.0373,0 -0.27817,-0.213534 -0.53523,-0.474521 z"
         id="path8815" />
      <path
         style="fill:#ffffff;fill-opacity:1;stroke:#000000;stroke-width:0.206349;stroke-miterlimit:4;stroke-dasharray:none;stroke-opacity:1"
         d="m 112.58911,97.065615 c 0,-0.451327 0.25613,-0.754313 0.63588,-0.752199 0.55968,0.0032 0.57576,0.145173 0.0741,0.654495 -0.57291,0.581657 -0.70998,0.600521 -0.70998,0.0977 z"
         id="path8813" />
      <path
         style="fill:#ffffff;fill-opacity:1;stroke:#000000;stroke-width:0.206349;stroke-miterlimit:4;stroke-dasharray:none;stroke-opacity:1"
         d="m 123.74425,99.274421 c -0.19341,-0.462889 -0.26964,-0.889942 -0.15885,-0.889942 0.20847,0 0.73444,0.445719 0.76336,0.646889 0.0303,0.210923 -0.21111,0.57778 -0.38024,0.57778 -0.0464,0 -0.14735,-0.150631 -0.22427,-0.334727 z"
         id="path8811" />
      <path
         style="fill:#ffffff;fill-opacity:1;stroke:#000000;stroke-width:0.206349;stroke-miterlimit:4;stroke-dasharray:none;stroke-opacity:1"
         d="m 111.32661,99.693639 c -0.24602,-0.493166 -0.19772,-0.812159 0.15558,-1.027579 0.42506,-0.259155 0.67195,-0.2492 0.60952,0.02457 -0.0981,0.429943 -0.43115,1.24372 -0.52141,1.273804 -0.0512,0.01709 -0.16087,-0.104796 -0.24369,-0.270808 z"
         id="path8809" />
      <path
         style="fill:#ffffff;fill-opacity:1;stroke:#000000;stroke-width:0.206349;stroke-miterlimit:4;stroke-dasharray:none;stroke-opacity:1"
         d="m 111.707,104.25944 c -0.27356,-0.27356 -0.3161,-0.56504 -0.12134,-0.83139 0.17544,-0.23993 0.29511,-0.13391 0.47718,0.42274 0.22446,0.68626 0.0836,0.84806 -0.35584,0.40865 z"
         id="path8801" />
      <path
         style="fill:#ffffff;fill-opacity:1;stroke:#000000;stroke-width:0.206349;stroke-miterlimit:4;stroke-dasharray:none;stroke-opacity:1"
         d="m 122.06697,106.36394 c -0.15367,-0.11237 -0.13227,-0.15424 0.26696,-0.52223 0.23872,-0.22004 0.47119,-0.37711 0.51661,-0.34904 0.0454,0.0281 0.12751,0.17993 0.18242,0.33746 0.0843,0.24174 0.071,0.31525 -0.0849,0.4712 -0.2116,0.2116 -0.63606,0.24176 -0.88106,0.0626 z"
         id="path8799" />
      <path
         style="fill:#ffffff;fill-opacity:1;stroke:#000000;stroke-width:0.206349;stroke-miterlimit:4;stroke-dasharray:none;stroke-opacity:1"
         d="m 113.06013,106.2977 c -0.20063,-0.20064 -0.26762,-0.84785 -0.0878,-0.84785 0.14973,0 0.94184,0.85575 0.88189,0.95275 -0.0947,0.15316 -0.60325,0.086 -0.79413,-0.1049 z"
         id="path8797" />
      <path
         style="fill:#ffffff;fill-opacity:1;stroke:#000000;stroke-width:0.206349;stroke-miterlimit:4;stroke-dasharray:none;stroke-opacity:1"
         d="m 117.34646,107.13508 c -0.63011,-0.0666 -1.34902,-0.25965 -1.84106,-0.49432 -0.83284,-0.39721 -2.3328,-1.86996 -2.79592,-2.74522 -0.25203,-0.4763 -0.58436,-1.63117 -0.64792,-2.25153 -0.14681,-1.43293 0.47006,-3.087404 1.56712,-4.203094 1.23986,-1.260917 3.50781,-2.058768 5.08376,-1.788435 1.01675,0.174413 2.4987,0.986701 3.20592,1.757223 0.83437,0.909057 1.13163,1.430609 1.56925,2.753296 0.21173,0.63994 0.23165,0.81951 0.18343,1.65318 -0.0513,0.88782 -0.0779,0.98194 -0.52334,1.85585 -0.25809,0.50633 -0.54555,0.99998 -0.63881,1.09701 -0.0932,0.097 -0.28036,0.3005 -0.41578,0.45217 -0.61798,0.69209 -2.35787,1.73594 -2.89349,1.73594 -0.0918,0 -0.20716,0.0374 -0.25638,0.0832 -0.12648,0.11752 -0.93037,0.16523 -1.59678,0.0948 z"
         id="path8785" />
      <path
         style="fill:#ffffff;fill-opacity:1;stroke:#000000;stroke-width:0.206349;stroke-miterlimit:4;stroke-dasharray:none;stroke-opacity:1"
         d="m 119.77225,107.74261 c -0.20525,-0.0828 -0.12739,-0.31467 0.1413,-0.4208 0.14249,-0.0563 0.33608,-0.14227 0.4302,-0.19111 0.0941,-0.0488 0.27429,-0.128 0.40037,-0.17594 0.21101,-0.0802 0.22924,-0.0649 0.22924,0.19313 0,0.39582 -0.29556,0.65882 -0.73009,0.64967 -0.1943,-0.004 -0.40626,-0.0288 -0.47102,-0.055 z"
         id="path8783" />
      <path
         style="fill:#ffffff;fill-opacity:1;stroke:#000000;stroke-width:0.206349;stroke-miterlimit:4;stroke-dasharray:none;stroke-opacity:1"
         d="m 115.15325,107.59142 c -0.29301,-0.3119 -0.27401,-0.4826 0.0448,-0.40257 0.85887,0.21556 1.12672,0.54221 0.48957,0.59705 -0.24349,0.021 -0.37798,-0.028 -0.5344,-0.19448 z"
         id="path8781" />
      <path
         style="fill:#ffffff;fill-opacity:1;stroke:#000000;stroke-width:0.206349;stroke-miterlimit:4;stroke-dasharray:none;stroke-opacity:1"
         d="m 117.60553,108.17888 c -0.11658,-0.0468 -0.21196,-0.15015 -0.21196,-0.22954 0,-0.11362 0.12032,-0.14434 0.56523,-0.14434 0.60054,0 0.69545,0.0865 0.35586,0.32437 -0.23366,0.16367 -0.3968,0.17505 -0.70913,0.0495 z"
         id="path8779" />
      <path
         style="fill:#ffffff;fill-opacity:1;stroke:#000000;stroke-width:0.206349;stroke-miterlimit:4;stroke-dasharray:none;stroke-opacity:1"
         d="m 118.66026,104.03321 c 0.30808,-0.10305 0.65309,-0.24826 0.76667,-0.32268 0.44084,-0.28885 1.17821,-1.1446 1.26117,-1.46363 0.32008,-1.23103 0.31794,-1.20581 0.14239,-1.67299 -0.71448,-1.901382 -2.21507,-2.634269 -4.04926,-1.977643 -1.10317,0.394933 -2.02541,1.655883 -2.02541,2.769293 0,0.59728 0.4588,1.52903 0.96782,1.96548 0.8509,0.7296 1.18413,0.89435 1.80383,0.89184 0.31495,-0.001 0.8247,-0.0866 1.13279,-0.18967 z"
         id="path8787" />
      <path
         style="fill:#ffffff;fill-opacity:1;stroke:#000000;stroke-width:0.206349;stroke-miterlimit:4;stroke-dasharray:none;stroke-opacity:1"
         d="m 124.33334,101.90147 c -0.0693,-0.0694 -0.0884,-1.25607 -0.0201,-1.25607 0.19028,0 0.52955,0.26049 0.61829,0.4747 0.12458,0.30078 0.0166,0.589 -0.28011,0.74781 -0.21234,0.11364 -0.23552,0.11609 -0.31805,0.0335 z"
         id="path8807" />
      <path
         style="fill:#ffffff;fill-opacity:1;stroke:#000000;stroke-width:0.206349;stroke-miterlimit:4;stroke-dasharray:none;stroke-opacity:1"
         d="m 123.6111,104.21447 c 0,-0.25985 0.37881,-0.93133 0.5254,-0.93133 0.12922,0 0.22825,0.20957 0.22825,0.48301 0,0.22 -0.40145,0.64745 -0.60806,0.64745 -0.0854,0 -0.14559,-0.0823 -0.14559,-0.19913 z"
         id="path8803" />
      <path
         style="fill:#ffffff;fill-opacity:1;stroke:#000000;stroke-width:0.206349;stroke-miterlimit:4;stroke-dasharray:none;stroke-opacity:1"
         d="m 116.73621,100.89715 c -0.36814,-0.14754 -0.56267,-0.29397 -0.6971,-0.52476 -0.18457,-0.31686 -0.18461,-0.32358 -0.005,-0.659434 0.19428,-0.362846 0.61249,-0.615058 1.19439,-0.720308 0.31124,-0.0563 0.35326,-0.04161 0.35326,0.123489 0,0.103066 -0.0675,0.34889 -0.14995,0.54628 -0.10757,0.257457 -0.1326,0.497783 -0.0886,0.850303 0.0338,0.27027 0.0259,0.51338 -0.0176,0.54023 -0.0434,0.0269 -0.30879,-0.0433 -0.58964,-0.1558 z"
         id="path8793" />
      <path
         style="fill:#ffffff;fill-opacity:1;stroke:#000000;stroke-width:0.206349;stroke-miterlimit:4;stroke-dasharray:none;stroke-opacity:1"
         d="m 118.21862,103.60578 c -0.0298,-0.0298 -0.009,-0.18878 0.0452,-0.35327 0.0546,-0.16449 0.12497,-0.57463 0.15625,-0.91141 0.0487,-0.52405 0.0848,-0.61633 0.25082,-0.64007 0.242,-0.0346 0.65895,0.28548 0.84798,0.65101 0.13055,0.25246 0.12831,0.30252 -0.0254,0.56669 -0.099,0.17007 -0.36075,0.383 -0.63374,0.5155 -0.49524,0.24037 -0.55598,0.25662 -0.64105,0.17155 z"
         id="path8789" />
      <path
         style="fill:#ffffff;fill-opacity:1;stroke:#000000;stroke-width:0.206349;stroke-miterlimit:4;stroke-dasharray:none;stroke-opacity:1"
         d="m 119.11281,100.85805 c -0.64236,-0.0306 -0.68299,-0.0455 -0.68299,-0.25119 0,-0.49362 0.6831,-0.934104 1.1961,-0.771285 0.18075,0.05736 0.4202,0.400305 0.58839,0.842695 0.089,0.23415 0.0789,0.24856 -0.16178,0.23101 -0.1412,-0.0103 -0.56408,-0.0333 -0.93972,-0.0512 z"
         id="path8795" />
      <path
         style="fill:#ffffff;fill-opacity:1;stroke:#000000;stroke-width:0.206349;stroke-miterlimit:4;stroke-dasharray:none;stroke-opacity:1"
         d="m 111.19487,101.94543 c -0.25218,-0.25218 -0.0239,-1.14811 0.24948,-0.97915 0.15634,0.0966 0.14361,1.0922 -0.014,1.0922 -0.0674,0 -0.17334,-0.0509 -0.23551,-0.11305 z"
         id="path8805" />
      <path
         style="fill:#ffffff;fill-opacity:1;stroke:#000000;stroke-width:0.206349;stroke-miterlimit:4;stroke-dasharray:none;stroke-opacity:1"
         d="m 115.85754,102.62766 c -0.13657,-0.15328 -0.27535,-0.38643 -0.3084,-0.51813 l -0.0601,-0.23946 h 0.99936 c 0.95243,0 0.99937,0.009 0.99937,0.19784 0,0.1088 -0.14413,0.34196 -0.3203,0.51813 -0.43431,0.4343 -0.94557,0.45055 -1.30993,0.0416 z"
         id="path8791" />
    </g>
  </g>
</svg>
