<?xml version="1.0" encoding="UTF-8" standalone="no"?>
<svg
   xmlns:dc="http://purl.org/dc/elements/1.1/"
   xmlns:cc="http://creativecommons.org/ns#"
   xmlns:rdf="http://www.w3.org/1999/02/22-rdf-syntax-ns#"
   xmlns:svg="http://www.w3.org/2000/svg"
   xmlns="http://www.w3.org/2000/svg"
   xmlns:sodipodi="http://sodipodi.sourceforge.net/DTD/sodipodi-0.dtd"
   xmlns:inkscape="http://www.inkscape.org/namespaces/inkscape"
   width="126.16252"
   height="141.44182"
   viewBox="0 0 33.380499 37.423147"
   version="1.1"
   id="svg1433"
   inkscape:version="1.0.1 (c497b03c, 2020-09-10)"
   sodipodi:docname="logo-4-cont-color.svg">
  <defs
     id="defs1427" />
  <sodipodi:namedview
     id="base"
     pagecolor="#ffffff"
     bordercolor="#666666"
     borderopacity="1.0"
     inkscape:pageopacity="0.0"
     inkscape:pageshadow="2"
     inkscape:zoom="1.6832178"
     inkscape:cx="134.69544"
     inkscape:cy="68.639336"
     inkscape:document-units="mm"
     inkscape:current-layer="layer1"
     inkscape:document-rotation="0"
     showgrid="false"
     inkscape:window-width="1261"
     inkscape:window-height="773"
     inkscape:window-x="66"
     inkscape:window-y="25"
     inkscape:window-maximized="0"
     units="px" />
  <metadata
     id="metadata1430">
    <rdf:RDF>
      <cc:Work
         rdf:about="">
        <dc:format>image/svg+xml</dc:format>
        <dc:type
           rdf:resource="http://purl.org/dc/dcmitype/StillImage" />
        <dc:title />
      </cc:Work>
    </rdf:RDF>
  </metadata>
  <g
     inkscape:label="Capa 1"
     inkscape:groupmode="layer"
     id="layer1"
     transform="translate(-22.674891,-10.625455)">
    <path
       id="path1012"
       style="fill:none;stroke:none;stroke-width:0.207698"
       d="M 47.788025,35.866348 A 12.182255,12.182255 0 0 1 35.60577,48.048603 12.182255,12.182255 0 0 1 23.423515,35.866348 12.182255,12.182255 0 0 1 35.60577,23.684093 12.182255,12.182255 0 0 1 47.788025,35.866348 Z" />
    <path
       d="m 30.151196,35.357515 q 0.171782,0.267016 0.10512,0.574173 -0.06666,0.307159 -0.333676,0.478941 l -2.56334,1.649118 q -0.267016,0.171783 -0.574173,0.105122 -0.307158,-0.06666 -0.478942,-0.333676 l -2.054526,-3.193496 0.432563,-0.278288 2.054527,3.193495 q 0.05497,0.08545 0.160285,0.108297 0.09654,0.02095 0.18198,-0.03402 l 2.563338,-1.649116 q 0.08545,-0.05497 0.111737,-0.154941 0.01751,-0.101873 -0.03745,-0.18732 l -2.054527,-3.193494 0.432565,-0.278289 z"
       style="font-style:normal;font-variant:normal;font-weight:normal;font-stretch:normal;font-size:6.35px;line-height:1.25;font-family:Orbitron;-inkscape-font-specification:Orbitron;fill:#000000;fill-opacity:1;stroke:none;stroke-width:0.264583"
       id="path928" />
    <path
       d="m 27.840188,30.726563 q 0.08686,0.305389 -0.06437,0.586069 -0.159074,0.276312 -0.464467,0.363167 l -3.963935,1.127431 -0.142449,-0.500836 3.963935,-1.127431 q 0.09772,-0.02779 0.151906,-0.115829 0.04634,-0.0924 0.01854,-0.190126 l -0.170243,-0.59856 0.500836,-0.142449 z"
       style="font-style:normal;font-variant:normal;font-weight:normal;font-stretch:normal;font-size:6.35px;line-height:1.25;font-family:Orbitron;-inkscape-font-specification:Orbitron;fill:#000000;fill-opacity:1;stroke:none;stroke-width:0.264583"
       id="path930" />
    <path
       d="m 27.587739,29.60068 -3.642785,0.542769 -0.07674,-0.515015 3.642786,-0.542769 z m -4.321097,0.643837 -0.515015,0.07674 -0.07674,-0.515015 0.515015,-0.07674 z"
       style="font-style:normal;font-variant:normal;font-weight:normal;font-stretch:normal;font-size:6.35px;line-height:1.25;font-family:Orbitron;-inkscape-font-specification:Orbitron;fill:#000000;fill-opacity:1;stroke:none;stroke-width:0.264583"
       id="path932" />
    <path
       d="m 27.367425,27.618283 q -0.02457,0.316548 -0.263843,0.527264 -0.245115,0.203891 -0.561661,0.179325 l -2.139864,-0.166086 q -0.316548,-0.02457 -0.520933,-0.26335 -0.210222,-0.245607 -0.185655,-0.562152 l 0.229963,-2.962889 0.519139,0.04029 -0.229964,2.962889 q -0.0079,0.1013 0.06221,0.183167 0.06427,0.07502 0.165528,0.08291 l 2.13987,0.166081 q 0.1013,0.0079 0.182669,-0.05588 0.07553,-0.07058 0.0834,-0.17186 l 0.230948,-2.975552 0.519139,0.04029 z"
       style="font-style:normal;font-variant:normal;font-weight:normal;font-stretch:normal;font-size:6.35px;line-height:1.25;font-family:Orbitron;-inkscape-font-specification:Orbitron;fill:#000000;fill-opacity:1;stroke:none;stroke-width:0.264583"
       id="path934" />
    <path
       d="m 27.779248,24.079309 -4.459936,-2.00404 0.213417,-0.474955 2.542743,1.142563 0.416423,-0.92674 -0.848835,-1.968665 0.281086,-0.625549 0.0058,0.0025 0.989429,2.275494 2.355817,-0.765371 0.0058,0.0025 -0.278483,0.619757 -2.035642,0.672546 -0.416424,0.92674 1.442239,0.648059 z"
       style="font-style:normal;font-variant:normal;font-weight:normal;font-stretch:normal;font-size:6.35px;line-height:1.25;font-family:Orbitron;-inkscape-font-specification:Orbitron;fill:#000000;fill-opacity:1;stroke:none;stroke-width:0.264583"
       id="path936" />
    <path
       d="m 31.30965,18.581526 q -0.240863,0.216482 -0.554729,0.199742 -0.318109,-0.02146 -0.530341,-0.257603 l -2.754783,-3.065134 0.387276,-0.34806 0.806482,0.897346 1.185435,-1.065411 0.348061,0.387276 -1.185436,1.065412 1.600238,1.780516 q 0.06792,0.07556 0.170799,0.08555 0.103365,0.001 0.178932,-0.0669 l 1.001242,-0.899871 0.34806,0.387276 z"
       style="font-style:normal;font-variant:normal;font-weight:normal;font-stretch:normal;font-size:6.35px;line-height:1.25;font-family:Orbitron;-inkscape-font-specification:Orbitron;fill:#000000;fill-opacity:1;stroke:none;stroke-width:0.264583"
       id="path938" />
    <path
       d="m 33.359047,16.98806 q -0.286642,0.136538 -0.5886,0.0342 -0.298957,-0.110806 -0.435493,-0.39745 l -0.922993,-1.937702 q -0.136538,-0.286642 -0.03146,-0.582868 0.108076,-0.304689 0.394716,-0.441229 l 1.99503,-0.9503 q 0.292375,-0.139268 0.591332,-0.02846 0.301958,0.102342 0.438496,0.388984 l 0.922993,1.937702 q 0.136537,0.286642 0.02846,0.591332 -0.105073,0.296225 -0.39745,0.435492 z m -0.223921,-0.470093 1.995031,-0.9503 q 0.09172,-0.04369 0.124759,-0.13678 0.03603,-0.101562 -0.0077,-0.193289 l -0.922992,-1.937702 q -0.04369,-0.09172 -0.142524,-0.122018 -0.09583,-0.03876 -0.187556,0.0049 l -1.99503,0.9503 q -0.09173,0.04369 -0.127748,0.145257 -0.03302,0.0931 0.01067,0.184825 l 0.922993,1.937702 q 0.04369,0.09173 0.139527,0.130476 0.09883,0.03029 0.190558,-0.0134 z"
       style="font-style:normal;font-variant:normal;font-weight:normal;font-stretch:normal;font-size:6.35px;line-height:1.25;font-family:Orbitron;-inkscape-font-specification:Orbitron;fill:#000000;fill-opacity:1;stroke:none;stroke-width:0.264583"
       id="path940" />
    <path
       d="m 39.220486,15.247816 q -0.316184,-0.02888 -0.517295,-0.270429 -0.201111,-0.241544 -0.172228,-0.557729 l 0.27727,-3.035363 q 0.02888,-0.316183 0.270428,-0.517294 0.241545,-0.201113 0.55773,-0.172229 l 3.781556,0.345432 -0.04679,0.512218 -3.781556,-0.345432 q -0.10118,-0.0092 -0.183992,0.05971 -0.07592,0.06319 -0.08516,0.164383 l -0.27727,3.035362 q -0.0092,0.10118 0.05338,0.18342 0.06955,0.07648 0.170712,0.08573 l 3.781556,0.345432 -0.04679,0.512218 z"
       style="font-style:normal;font-variant:normal;font-weight:normal;font-stretch:normal;font-size:6.35px;line-height:1.25;font-family:Orbitron;-inkscape-font-specification:Orbitron;fill:#000000;fill-opacity:1;stroke:none;stroke-width:0.264583"
       id="path942" />
    <path
       d="m 44.308138,16.228751 q -0.281308,-0.147213 -0.380799,-0.450124 -0.09092,-0.305592 0.05629,-0.586901 l 0.995155,-1.90165 q 0.147212,-0.281308 0.447176,-0.375178 0.308535,-0.09655 0.589844,0.05066 l 1.957912,1.024596 q 0.286937,0.150154 0.377856,0.45575 0.09949,0.30291 -0.04772,0.584219 l -0.995153,1.90165 q -0.147213,0.281309 -0.455751,0.377856 -0.299965,0.09387 -0.5869,-0.05629 z m 0.241428,-0.461347 1.957911,1.024596 q 0.09002,0.04711 0.184294,0.01761 0.102849,-0.03218 0.149951,-0.122205 l 0.995153,-1.90165 q 0.04711,-0.09001 0.01198,-0.187237 -0.02656,-0.0999 -0.116576,-0.14701 l -1.957912,-1.024596 q -0.09002,-0.04711 -0.192864,-0.01492 -0.09427,0.0295 -0.141383,0.119519 l -0.995154,1.90165 q -0.04711,0.09001 -0.02055,0.18992 0.03513,0.09721 0.125149,0.144325 z"
       style="font-style:normal;font-variant:normal;font-weight:normal;font-stretch:normal;font-size:6.35px;line-height:1.25;font-family:Orbitron;-inkscape-font-specification:Orbitron;fill:#000000;fill-opacity:1;stroke:none;stroke-width:0.264583"
       id="path944" />
    <path
       d="m 47.413109,17.989163 2.739626,-2.461493 1.994657,2.220042 q 0.212201,0.236171 0.19069,0.554278 -0.01254,0.318584 -0.248714,0.530782 l -2.168084,1.947974 -0.348007,-0.387323 2.168083,-1.947974 q 0.07556,-0.06792 0.0766,-0.171271 0.01,-0.102884 -0.0579,-0.178464 l -1.476896,-1.643775 q -0.06792,-0.07556 -0.175515,-0.08133 -0.102884,-0.01 -0.178464,0.0579 l -2.168082,1.947974 z"
       style="font-style:normal;font-variant:normal;font-weight:normal;font-stretch:normal;font-size:6.35px;line-height:1.25;font-family:Orbitron;-inkscape-font-specification:Orbitron;fill:#000000;fill-opacity:1;stroke:none;stroke-width:0.264583"
       id="path946" />
    <path
       d="m 50.516471,22.107292 q -0.138537,-0.292722 -0.03272,-0.588684 0.111553,-0.298679 0.398536,-0.4345 l 3.725032,-1.762953 0.222747,0.470651 -1.090534,0.516119 0.68182,1.440652 -0.470651,0.222746 -0.68182,-1.440652 -2.163849,1.024089 q -0.09183,0.04347 -0.13084,0.139184 -0.03054,0.09876 0.01292,0.190591 l 0.57588,1.216806 -0.470652,0.222746 z"
       style="font-style:normal;font-variant:normal;font-weight:normal;font-stretch:normal;font-size:6.35px;line-height:1.25;font-family:Orbitron;-inkscape-font-specification:Orbitron;fill:#000000;fill-opacity:1;stroke:none;stroke-width:0.264583"
       id="path948" />
    <path
       d="m 51.214449,23.837386 3.537136,-1.026239 0.145088,0.500077 -3.537134,1.02624 z m 4.195775,-1.217332 0.500077,-0.145088 0.145089,0.500077 -0.500078,0.145089 z"
       style="font-style:normal;font-variant:normal;font-weight:normal;font-stretch:normal;font-size:6.35px;line-height:1.25;font-family:Orbitron;-inkscape-font-specification:Orbitron;fill:#000000;fill-opacity:1;stroke:none;stroke-width:0.264583"
       id="path950" />
    <path
       d="m 51.664804,25.023889 3.678132,-0.18928 0.153382,2.980556 q 0.01632,0.317081 -0.200559,0.550785 -0.210206,0.239721 -0.527288,0.256037 l -2.910798,0.149792 -0.02676,-0.520011 2.910799,-0.149793 q 0.101469,-0.0052 0.167305,-0.08491 0.07251,-0.07367 0.06729,-0.175137 l -0.113567,-2.20688 q -0.0052,-0.10147 -0.08523,-0.173651 -0.07367,-0.07251 -0.175138,-0.06729 L 51.691574,25.5439 Z"
       style="font-style:normal;font-variant:normal;font-weight:normal;font-stretch:normal;font-size:6.35px;line-height:1.25;font-family:Orbitron;-inkscape-font-specification:Orbitron;fill:#000000;fill-opacity:1;stroke:none;stroke-width:0.264583"
       id="path952" />
    <path
       d="m 51.528106,30.189554 q 0.09566,-0.302746 0.376461,-0.453761 0.284941,-0.143043 0.587686,-0.04738 l 2.779203,0.878191 -0.156888,0.496501 -2.779203,-0.87819 q -0.09688,-0.03061 -0.190584,0.01303 -0.08956,0.05162 -0.120177,0.14849 l -0.665817,2.107107 q -0.03061,0.09688 0.01303,0.190584 0.0497,0.09562 0.14658,0.126229 l 2.779202,0.87819 -0.156888,0.496503 -2.779203,-0.878191 q -0.302745,-0.09566 -0.451843,-0.382518 -0.144959,-0.278885 -0.04738,-0.587687 z"
       style="font-style:normal;font-variant:normal;font-weight:normal;font-stretch:normal;font-size:6.35px;line-height:1.25;font-family:Orbitron;-inkscape-font-specification:Orbitron;fill:#000000;fill-opacity:1;stroke:none;stroke-width:0.264583"
       id="path954" />
    <path
       d="m 49.870211,34.154754 q 0.195824,-0.249917 0.511757,-0.292789 0.317018,-0.03395 0.566938,0.161868 l 1.689465,1.323749 q 0.249918,0.195824 0.28779,0.50784 0.03895,0.320934 -0.156869,0.570855 l -1.362913,1.739449 q -0.199737,0.25492 -0.516755,0.288873 -0.315936,0.04287 -0.565857,-0.152953 L 49.2741,37.479198 51.267557,34.935004 50.627761,34.433702 q -0.07997,-0.06266 -0.183034,-0.05468 -0.101979,0.0169 -0.164643,0.09687 l -1.840718,2.349256 -0.409872,-0.321145 z m 1.807217,1.101397 -1.668395,2.129325 0.639796,0.501303 q 0.07997,0.06266 0.181953,0.04576 0.103061,-0.008 0.165726,-0.08796 l 1.362914,-1.739449 q 0.06266,-0.07997 0.04968,-0.186954 -0.0119,-0.09807 -0.09188,-0.160724 z"
       style="font-style:normal;font-variant:normal;font-weight:normal;font-stretch:normal;font-size:6.35px;line-height:1.25;font-family:Orbitron;-inkscape-font-specification:Orbitron;fill:#000000;fill-opacity:1;stroke:none;stroke-width:0.264583"
       id="path956" />
    <path
       style="fill:#b36924;fill-opacity:1;stroke:#000000;stroke-width:0.207698;stroke-miterlimit:4;stroke-dasharray:none;stroke-opacity:1"
       d="m 40.908077,35.380947 c 1.488994,-0.332372 2.164548,-0.591903 3.156917,-1.212817 0.541901,-0.339063 1.148224,-0.772941 1.347387,-0.964177 0.908156,-0.872009 1.779762,-2.327073 2.241108,-3.741311 0.182031,-0.558006 0.208622,-0.836354 0.204691,-2.142688 -0.0048,-1.584772 -0.121357,-2.227458 -0.591158,-3.258735 -0.10961,-0.24061 -0.199291,-0.484379 -0.199291,-0.541711 0,-0.296144 -0.783461,-1.517045 -1.39023,-2.166456 -0.61585,-0.659124 -0.808899,-0.796673 -1.876711,-1.337161 -0.654635,-0.331349 -1.528054,-0.723659 -1.940931,-0.871794 -0.730253,-0.262012 -0.800484,-0.269294 -2.580478,-0.267587 -1.767154,0.0016 -1.855491,0.01085 -2.580477,0.267353 -1.195506,0.422983 -1.530405,0.601931 -2.498236,1.334879 -1.755495,1.329452 -2.548457,2.538597 -3.152789,4.807523 -0.252719,0.948815 -0.224404,2.904644 0.05727,3.955583 0.366323,1.366797 1.290574,2.885295 2.450393,4.025883 0.579153,0.569545 0.924209,0.814202 1.700394,1.205634 0.880925,0.444258 2.095789,0.889105 2.709753,0.992236 0.615352,0.103369 2.319756,0.05433 2.942393,-0.08465 z"
       id="path1233-9" />
    <path
       style="fill:#a09074;fill-opacity:1;stroke:#000000;stroke-width:0.207698;stroke-miterlimit:4;stroke-dasharray:none;stroke-opacity:1"
       d="m 37.308835,34.825313 c -2.187028,-0.673307 -2.952129,-1.173544 -4.177722,-2.731489 -0.649265,-0.825331 -1.452411,-2.284901 -1.452411,-2.639492 0,-0.121036 -0.07379,-0.355205 -0.163982,-0.520373 -0.136707,-0.250357 -0.16402,-0.550022 -0.164212,-1.801677 -2.1e-4,-1.373772 0.02137,-1.569148 0.25393,-2.298967 0.470112,-1.475301 1.339878,-2.676024 2.754258,-3.802292 0.963366,-0.767127 1.443841,-1.081927 1.917948,-1.256603 0.180634,-0.06655 0.412876,-0.155136 0.516095,-0.19686 0.445454,-0.180049 0.623206,-0.208531 1.735958,-0.278141 1.858935,-0.116296 2.873005,0.09826 4.838857,1.023808 1.88951,0.889601 2.891536,2.110439 3.71522,4.526511 0.28626,0.839674 0.298127,0.934158 0.293812,2.339359 -0.0041,1.328837 -0.02803,1.53724 -0.258783,2.252052 -0.401925,1.245053 -0.899778,2.105682 -1.746378,3.018919 -0.417301,0.450145 -0.794524,0.818447 -0.838273,0.818447 -0.04375,0 -0.341984,0.174314 -0.662742,0.387368 -0.909162,0.603882 -1.651358,0.896372 -2.933088,1.155892 -1.523235,0.308423 -2.634647,0.309508 -3.628487,0.0037 z"
       id="path1235-3" />
    <path
       style="fill:#5f4029;fill-opacity:1;stroke:#000000;stroke-width:0.207698;stroke-miterlimit:4;stroke-dasharray:none;stroke-opacity:1"
       d="m 41.249928,33.182482 c 1.530295,-0.584058 2.715938,-1.614621 3.344105,-2.906708 0.137999,-0.283849 0.307946,-0.583072 0.37766,-0.664933 0.145338,-0.17066 0.428399,-1.302013 0.587938,-2.349905 0.121663,-0.799105 0.06269,-1.185738 -0.341643,-2.239954 -0.385199,-1.004322 -0.742624,-1.541559 -1.614715,-2.427041 -0.91764,-0.931728 -1.151965,-1.076278 -2.446923,-1.509433 -0.962282,-0.321875 -2.034595,-0.401379 -2.777395,-0.20593 -0.201494,0.05304 -0.577484,0.146614 -0.835531,0.207989 -0.953471,0.226773 -1.738948,0.684995 -2.509432,1.463932 -0.399606,0.403992 -0.868628,0.94566 -1.042271,1.203703 -0.443513,0.659098 -0.881187,1.74286 -1.067565,2.643494 -0.138495,0.669242 -0.142573,0.830385 -0.03206,1.26678 0.571716,2.257653 1.286394,3.438645 2.693004,4.450139 0.832205,0.598435 2.265316,1.215767 3.225106,1.389258 0.626138,0.113179 1.656861,-0.02261 2.439725,-0.321391 z"
       id="path1237-7" />
    <path
       style="fill:#1fa824;fill-opacity:1;stroke:#000000;stroke-width:0.207698;stroke-miterlimit:4;stroke-dasharray:none;stroke-opacity:1"
       d="m 42.18086,23.80882 c -0.965709,-0.307463 -2.118537,-1.251336 -2.509011,-2.054244 -0.131699,-0.270805 -0.133449,-0.32162 -0.01369,-0.397369 0.274633,-0.173702 0.466242,-0.130537 2.154783,0.48539 0.505479,0.184385 0.743827,0.354316 1.391792,0.992283 0.967936,0.953002 0.982104,1.099594 0.108606,1.123767 -0.369164,0.01021 -0.815111,-0.04878 -1.13248,-0.149827 z"
       id="path1257-2" />
    <path
       style="fill:#1e22aa;fill-opacity:1;stroke:#000000;stroke-width:0.207698;stroke-miterlimit:4;stroke-dasharray:none;stroke-opacity:1"
       d="m 34.776911,23.805628 -0.232954,-0.17899 0.708098,-0.686899 c 0.389455,-0.377797 0.934844,-0.809877 1.211978,-0.960172 0.530884,-0.287919 1.402771,-0.515506 1.996075,-0.521039 0.33872,-0.0032 0.351064,0.0076 0.291998,0.254755 -0.07714,0.322753 -0.48863,1.121438 -0.746345,1.448617 -0.106981,0.135814 -0.400274,0.377425 -0.651761,0.536912 -0.433729,0.275066 -0.50578,0.289876 -1.400693,0.287893 -0.78212,-0.0016 -0.983277,-0.03266 -1.176396,-0.181077 z"
       id="path1255-3" />
    <path
       style="fill:#af231c;fill-opacity:1;stroke:#000000;stroke-width:0.207698;stroke-miterlimit:4;stroke-dasharray:none;stroke-opacity:1"
       d="m 44.124444,29.032454 c -0.773296,-1.341018 -0.791472,-2.945552 -0.04692,-4.141781 0.278918,-0.448124 0.289025,-0.454306 0.45978,-0.281237 0.09603,0.09733 0.272959,0.48173 0.393185,0.854229 0.193744,0.600287 0.211063,0.78024 0.152353,1.583138 -0.09567,1.30829 -0.384949,2.384452 -0.640962,2.384452 -0.04811,0 -0.190956,-0.17946 -0.317438,-0.398801 z"
       id="path1253-8" />
    <path
       style="fill:#af231c;fill-opacity:1;stroke:#000000;stroke-width:0.207698;stroke-miterlimit:4;stroke-dasharray:none;stroke-opacity:1"
       d="m 33.78597,29.088493 c -0.364982,-0.819638 -0.524054,-1.932394 -0.375156,-2.624331 0.15569,-0.723505 0.485894,-1.637018 0.651637,-1.802756 0.167263,-0.167266 0.269568,-0.10137 0.609357,0.392495 0.654951,0.951943 0.59106,2.82481 -0.136573,4.003391 -0.396566,0.642337 -0.475664,0.64563 -0.749265,0.03123 z"
       id="path1251-3" />
    <path
       style="fill:#1fa824;fill-opacity:1;stroke:#000000;stroke-width:0.207698;stroke-miterlimit:4;stroke-dasharray:none;stroke-opacity:1"
       d="m 38.18118,32.855893 c -1.252762,-0.40004 -2.596396,-1.209001 -3.351491,-2.017836 -0.41814,-0.447897 -0.446543,-0.505605 -0.301168,-0.611905 0.422599,-0.309013 1.905822,-0.233371 2.733396,0.1394 0.553254,0.249206 1.102787,0.837615 1.445048,1.547266 0.470085,0.974691 0.334545,1.217801 -0.525785,0.943075 z"
       id="path1241-5" />
    <path
       style="fill:#b36924;fill-opacity:1;stroke:#000000;stroke-width:0.207698;stroke-miterlimit:4;stroke-dasharray:none;stroke-opacity:1"
       d="m 39.211802,31.941353 c -0.04981,-0.06451 -0.185439,-0.317901 -0.301405,-0.563091 -0.213566,-0.451546 -0.94517,-1.178625 -1.460809,-1.451775 -0.468609,-0.24824 -1.182713,-0.39911 -1.894632,-0.400285 -0.371123,-5.29e-4 -0.701342,-0.0441 -0.733821,-0.09666 -0.03248,-0.05256 0.025,-0.232008 0.127739,-0.3988 0.414108,-0.672306 0.620707,-1.478725 0.618593,-2.41455 -0.002,-0.899921 -0.02845,-0.994305 -0.584382,-2.087845 -0.01968,-0.03873 0.294992,-0.0707 0.699267,-0.07109 0.901893,-0.0011 1.826529,-0.26323 2.21404,-0.628207 0.344533,-0.324497 0.923345,-1.093736 1.143569,-1.5198 l 0.16485,-0.318933 0.520875,0.584743 c 0.667802,0.749688 1.634934,1.481381 2.12564,1.608167 0.21113,0.05455 0.513551,0.138689 0.672044,0.186965 0.158493,0.0483 0.485744,0.08778 0.727225,0.08778 0.241482,0 0.439057,0.03905 0.439057,0.08674 0,0.04772 -0.131161,0.414307 -0.291469,0.81466 -0.460233,1.149372 -0.403341,2.411757 0.159571,3.540728 0.124535,0.249765 0.202666,0.492561 0.173625,0.539551 -0.02904,0.04697 -0.275843,0.08544 -0.548447,0.08544 -0.272604,0 -0.700959,0.06179 -0.951898,0.137316 -0.25094,0.07552 -0.4744,0.119163 -0.496579,0.09699 -0.02218,-0.02218 0.09205,-0.191092 0.253844,-0.375366 0.161793,-0.184271 0.410212,-0.555169 0.552042,-0.824214 0.234731,-0.445273 0.257582,-0.577592 0.254624,-1.474443 -0.0028,-0.855964 -0.03166,-1.033837 -0.219723,-1.355313 -0.351196,-0.600324 -0.844589,-1.152915 -1.296945,-1.452542 -0.513315,-0.340004 -1.662915,-0.617928 -2.200449,-0.531976 -0.967725,0.154748 -2.274551,1.146073 -2.792928,2.118646 -0.25811,0.484263 -0.308197,0.67867 -0.310275,1.204299 -0.0038,0.965243 0.140455,1.345179 0.763815,2.0115 1.005143,1.074416 2.808658,1.649104 3.88232,1.237101 0.291245,-0.111759 0.173734,0.188817 -0.224029,0.573039 -0.211201,0.204011 -0.508812,0.550389 -0.661358,0.769729 -0.294622,0.423627 -0.378887,0.468932 -0.523591,0.281503 z"
       id="path1243-1" />
    <path
       style="fill:#1e22aa;fill-opacity:1;stroke:#000000;stroke-width:0.207698;stroke-miterlimit:4;stroke-dasharray:none;stroke-opacity:1"
       d="m 39.865854,33.028697 c -0.317594,-0.128155 0.145239,-1.134662 0.842294,-1.831718 0.743263,-0.743263 1.471617,-1.126448 2.246726,-1.181998 0.344211,-0.02468 0.738918,-0.01644 0.877127,0.01825 0.218004,0.05471 0.24286,0.09665 0.187655,0.316604 -0.06276,0.250063 -0.572225,0.938132 -0.939221,1.268492 -0.485649,0.437171 -1.479761,0.99463 -2.179115,1.221961 -0.798497,0.259564 -0.84033,0.267177 -1.035466,0.188438 z"
       id="path1239-5" />
    <path
       style="fill:#a09074;fill-opacity:1;stroke:#000000;stroke-width:0.207698;stroke-miterlimit:4;stroke-dasharray:none;stroke-opacity:1"
       d="m 38.810204,29.911675 c -0.858333,-0.282268 -1.798586,-1.075591 -2.210359,-1.86495 -0.227075,-0.435299 -0.174907,-1.408505 0.105687,-1.971586 0.418826,-0.840471 1.867896,-1.89523 2.607223,-1.897757 0.396069,-0.0016 1.325095,0.257969 1.685084,0.470367 0.981027,0.578822 1.565892,2.087069 1.281995,3.306007 -0.138017,0.592585 -0.696328,1.378278 -1.230683,1.731897 -0.327376,0.216649 -0.493341,0.255266 -1.192336,0.277423 -0.446612,0.01415 -0.917587,-0.009 -1.046611,-0.05139 z"
       id="path1245-4" />
    <path
       style="fill:#b36924;fill-opacity:1;stroke:#000000;stroke-width:0.207698;stroke-miterlimit:4;stroke-dasharray:none;stroke-opacity:1"
       d="m 40.292773,28.736401 c 0.583401,-0.303543 0.957155,-0.971944 0.957155,-1.711733 0,-0.646097 -0.156245,-0.978229 -0.631843,-1.343115 -0.358152,-0.274784 -0.514875,-0.330541 -1.019305,-0.362662 -0.79497,-0.05064 -1.006634,0.01511 -1.493099,0.463494 -0.486014,0.447993 -0.652261,0.878396 -0.578816,1.498528 0.07233,0.61073 0.264359,0.948787 0.735926,1.295581 0.359005,0.264016 0.462294,0.291748 1.086654,0.291748 0.409754,0 0.792843,-0.05354 0.943328,-0.131841 z"
       id="path1247-2" />
    <path
       style="fill:#af231c;fill-opacity:1;stroke:#000000;stroke-width:0.207698;stroke-miterlimit:4;stroke-dasharray:none;stroke-opacity:1"
       d="m 39.060432,28.430342 c -0.03441,-0.03442 -0.06256,-0.215979 -0.06256,-0.403492 0,-0.389271 -0.134535,-0.566139 -0.430632,-0.566139 -0.112984,0 -0.30055,-0.07703 -0.416812,-0.17117 -0.180284,-0.145987 -0.197938,-0.21152 -0.119984,-0.44538 0.07248,-0.217448 0.161637,-0.285626 0.430663,-0.329355 0.404725,-0.06579 0.608885,-0.217649 0.648426,-0.482321 0.07005,-0.468856 0.649931,-0.444422 0.718391,0.03027 0.04673,0.324055 0.175743,0.445251 0.593775,0.557813 0.354124,0.09536 0.368554,0.114249 0.340952,0.446396 -0.0256,0.308006 -0.06032,0.350325 -0.310328,0.378132 -0.390757,0.04346 -0.609931,0.269858 -0.609931,0.630042 0,0.190502 -0.05537,0.325089 -0.148429,0.360799 -0.197248,0.07569 -0.555408,0.07253 -0.633534,-0.0056 z"
       id="path1249-2" />
  </g>
</svg>
