<?xml version="1.0" encoding="UTF-8" standalone="no"?>
<svg
   xmlns:dc="http://purl.org/dc/elements/1.1/"
   xmlns:cc="http://creativecommons.org/ns#"
   xmlns:rdf="http://www.w3.org/1999/02/22-rdf-syntax-ns#"
   xmlns:svg="http://www.w3.org/2000/svg"
   xmlns="http://www.w3.org/2000/svg"
   xmlns:sodipodi="http://sodipodi.sourceforge.net/DTD/sodipodi-0.dtd"
   xmlns:inkscape="http://www.inkscape.org/namespaces/inkscape"
   width="65"
   height="65"
   viewBox="0 0 17.197916 17.197916"
   version="1.1"
   id="svg1433"
   inkscape:version="1.0.1 (c497b03c, 2020-09-10)"
   sodipodi:docname="logo-6.svg">
  <defs
     id="defs1427" />
  <sodipodi:namedview
     id="base"
     pagecolor="#ffffff"
     bordercolor="#666666"
     borderopacity="1.0"
     inkscape:pageopacity="0.0"
     inkscape:pageshadow="2"
     inkscape:zoom="6.3422039"
     inkscape:cx="32.5"
     inkscape:cy="32.5"
     inkscape:document-units="mm"
     inkscape:current-layer="layer1"
     inkscape:document-rotation="0"
     showgrid="false"
     inkscape:window-width="1261"
     inkscape:window-height="773"
     inkscape:window-x="134"
     inkscape:window-y="25"
     inkscape:window-maximized="0"
     units="px" />
  <metadata
     id="metadata1430">
    <rdf:RDF>
      <cc:Work
         rdf:about="">
        <dc:format>image/svg+xml</dc:format>
        <dc:type
           rdf:resource="http://purl.org/dc/dcmitype/StillImage" />
        <dc:title></dc:title>
      </cc:Work>
    </rdf:RDF>
  </metadata>
  <g
     inkscape:label="Capa 1"
     inkscape:groupmode="layer"
     id="layer1"
     transform="translate(-2.7884155,-3.1949659)">
    <g
       id="g2293"
       style="stroke-width:0.20769792;stroke-miterlimit:4;stroke-dasharray:none;stroke:#000000;stroke-opacity:1">
      <path
         style="fill:#ffffff;fill-opacity:1;stroke:#000000;stroke-width:0.20769792;stroke-miterlimit:4;stroke-dasharray:none;stroke-opacity:1"
         d="m 13.157496,20.10544 c 0.35614,-0.217125 0.738274,-0.647977 0.889432,-1.002829 l 0.107028,-0.251262 0.345583,0.187738 c 0.304205,0.165266 0.391546,0.175217 0.729447,0.0831 0.381539,-0.10401 0.713282,-0.366471 0.982445,-0.777262 0.167534,-0.255687 0.396303,-1.075457 0.397812,-1.425516 0.001,-0.236872 0.02217,-0.248938 0.435933,-0.248938 0.37269,0 0.474976,-0.04208 0.715498,-0.294202 0.506949,-0.531439 0.791406,-1.869239 0.707189,-3.325936 -0.02448,-0.423621 -0.07036,-1.202729 -0.101936,-1.73135 L 18.30851,10.35785 18.650162,9.6665589 18.99182,8.9752734 18.938257,7.535111 C 18.9088,6.7430227 18.846415,6.0201446 18.799627,5.9287129 18.752823,5.8372812 18.664706,5.5995362 18.603774,5.4003838 18.443681,4.8771815 18.108059,4.3962772 17.693347,4.0958602 17.100924,3.6667121 16.204964,3.512829 14.256724,3.5056083 c -1.556356,-0.00575 -1.704979,0.00821 -2.103669,0.1974742 -0.541369,0.257026 -0.66057,0.255081 -0.982762,-0.016012 C 10.866889,3.4317742 10.038117,3.2341974 9.6156202,3.3164428 8.1704079,3.5977636 7.8108241,3.7378672 7.3040391,4.2170985 6.8777187,4.6202377 6.5622906,5.2274097 6.5622906,5.6448825 c 0,0.3874814 -0.4088716,1.5447731 -0.8354588,2.3647178 -0.2614446,0.5025306 -0.5896566,0.9351428 -1.12029,1.4766355 -0.4127821,0.4212346 -0.7763792,0.8473752 -0.8079923,0.9469822 -0.085848,0.270472 0.1641213,0.576729 0.5699804,0.698327 0.6373534,0.190956 1.7959024,0.132308 2.5105898,-0.127094 0.348509,-0.126494 0.7456796,-0.252269 0.8825963,-0.279504 l 0.2489379,-0.04952 0.00308,1.798097 c 0.00462,2.553431 0.079726,4.713321 0.1814264,5.220752 0.2206504,1.100927 0.6742011,1.605367 1.5053901,1.674295 0.4165336,0.03454 0.5379266,0.0051 0.8638236,-0.210741 0.208549,-0.138009 0.393429,-0.214384 0.410853,-0.169715 0.30229,0.775138 0.910729,1.303462 1.500499,1.302933 0.220691,-1.8e-4 0.504003,-0.07735 0.68156,-0.185599 z"
         id="path1350" />
      <path
         style="fill:#ffffff;fill-opacity:1;stroke:#000000;stroke-width:0.20769792;stroke-miterlimit:4;stroke-dasharray:none;stroke-opacity:1"
         d="M 8.5711093,13.26296 C 8.5207131,13.168813 8.4771373,12.522171 8.4742582,11.825981 8.471179,11.12979 8.4345879,10.417607 8.3925209,10.24335 8.3247631,9.9627266 8.2843383,9.9279112 8.0387362,9.9386524 7.7895006,9.9495836 7.7503332,9.9136596 7.6515678,9.584021 7.5366162,9.2003526 6.8408299,8.3855193 6.5491065,8.2929278 6.3367802,8.2255395 6.3361849,8.0180117 6.5470537,7.6168535 6.686603,7.3515086 7.0688036,5.9919751 7.2337769,5.174078 7.3195736,4.7487224 7.8699652,4.3020177 8.5787971,4.08244 9.9170482,3.6678822 10.660772,3.7538124 11.048346,4.3677638 c 0.122804,0.1945336 0.242544,0.3536974 0.266084,0.3536974 0.02356,0 0.29587,-0.1323902 0.605171,-0.294197 l 0.562369,-0.294197 1.905702,0.00154 c 2.24135,0.00154 2.597844,0.071874 3.172895,0.6244669 0.274182,0.2634717 0.427875,0.5129998 0.534457,0.867698 0.08228,0.2738332 0.187928,0.6200842 0.234778,0.7694459 0.04686,0.1493617 0.0932,0.7400241 0.10302,1.3125808 0.01545,0.9010612 -0.009,1.1014145 -0.181668,1.4903174 -0.109727,0.2471161 -0.254773,0.5118965 -0.322325,0.5883992 -0.08561,0.096954 -0.124297,0.4205106 -0.127705,1.0681126 -0.0026,0.510957 -0.02971,0.969229 -0.06011,1.018379 -0.07837,0.126811 -0.982285,0.111159 -1.11271,-0.01925 -0.05975,-0.05975 -0.108629,-0.337106 -0.108629,-0.616359 0,-0.30248 -0.05307,-0.578766 -0.131287,-0.683449 -0.128946,-0.172573 -0.136629,-0.172676 -0.429984,-0.0055 -0.807192,0.459981 -1.888027,0.948578 -2.327167,1.052004 -0.595487,0.140247 -1.922458,0.07241 -2.38793,-0.12208 -0.189648,-0.07924 -0.425376,-0.288521 -0.568379,-0.504609 -0.251992,-0.380785 -0.381739,-0.443113 -0.557192,-0.267665 -0.1386307,0.138636 -0.06026,0.322279 0.349884,0.819919 0.324209,0.393363 0.349023,0.46442 0.347734,0.995745 -5.13e-4,0.314689 -0.03803,0.630071 -0.08284,0.700856 -0.05949,0.09399 -0.349638,0.13975 -1.0756829,0.169664 -0.9061726,0.03736 -1.0023412,0.02581 -1.0858388,-0.130219 z"
         id="path1372" />
      <path
         style="fill:#ffffff;fill-opacity:1;stroke:#000000;stroke-width:0.20769792;stroke-miterlimit:4;stroke-dasharray:none;stroke-opacity:1"
         d="m 6.2229576,10.630631 c -0.077432,-0.02756 -0.095609,-0.1491 -0.05772,-0.38605 C 6.2005975,10.023495 6.1648582,9.7310579 6.0661955,9.4340075 5.805608,8.6494581 6.0421265,8.480333 6.6419751,9.0222722 c 0.4026311,0.3637562 0.5808963,0.726681 0.5382955,1.0958878 -0.024428,0.2117 -0.1005564,0.282172 -0.4369385,0.404509 -0.2240426,0.08148 -0.4582106,0.130065 -0.5203745,0.107962 z"
         id="path1386" />
      <path
         style="fill:#ffffff;fill-opacity:1;stroke:#000000;stroke-width:0.20769792;stroke-miterlimit:4;stroke-dasharray:none;stroke-opacity:1"
         d="M 4.520704,10.567846 C 4.3535291,10.445607 4.3675189,10.418612 4.8255551,9.9794518 5.0895862,9.7262954 5.3599656,9.5191679 5.4263942,9.5191679 c 0.2557584,0 0.3158182,0.6528521 0.089748,0.9756081 -0.1663332,0.237479 -0.7154726,0.277791 -0.9954382,0.07307 z"
         id="path1384" />
      <path
         style="fill:#ffffff;fill-opacity:1;stroke:#000000;stroke-width:0.20769792;stroke-miterlimit:4;stroke-dasharray:none;stroke-opacity:1"
         d="m 14.680078,8.8804186 c 0.442383,-0.1996656 0.781804,-0.610164 0.949014,-1.1477564 0.08773,-0.2820393 0.184496,-0.4061516 0.36601,-0.4694291 0.346076,-0.1206431 0.415887,-0.4661293 0.165301,-0.818046 -0.107844,-0.1514504 -0.236944,-0.2753574 -0.286899,-0.2753574 -0.04993,0 -0.149044,-0.058223 -0.220204,-0.1293829 -0.308957,-0.3089567 -2.124268,-0.453212 -3.04247,-0.2417736 -1.045738,0.2408037 -2.427631,1.1502864 -2.427631,1.5977199 0,0.2553118 0.23424,0.4015841 0.650342,0.4061105 0.230658,0.00257 0.411766,0.1056679 0.782256,0.4455551 0.26516,0.243262 0.622296,0.5088122 0.793633,0.5901184 0.716324,0.3399181 1.575683,0.3559042 2.270648,0.042236 z"
         id="path1374" />
      <path
         style="fill:#ffffff;fill-opacity:1;stroke:#000000;stroke-width:0.20769792;stroke-miterlimit:4;stroke-dasharray:none;stroke-opacity:1"
         d="M 13.052592,8.573756 C 12.698797,8.4475601 11.993794,7.9991208 11.993481,7.9000783 c -1.8e-4,-0.043468 -0.414635,-0.340852 -0.985847,-0.7073281 -0.08193,-0.052567 0.219742,-0.3128057 0.523249,-0.4513697 0.17984,-0.082112 0.388092,-0.1975974 0.462773,-0.2566411 0.47162,-0.3728551 2.555438,-0.4100211 3.236187,-0.05772 0.434537,0.2248792 0.457831,0.2822446 0.206861,0.5093716 -0.09783,0.088532 -0.240511,0.376463 -0.317081,0.6398526 -0.158255,0.544382 -0.498394,0.8877026 -1.024126,1.0337131 -0.433962,0.120525 -0.621798,0.1140074 -1.042905,-0.036181 z"
         id="path1376" />
      <path
         style="fill:#ffffff;fill-opacity:1;stroke:#000000;stroke-width:0.20769792;stroke-miterlimit:4;stroke-dasharray:none;stroke-opacity:1"
         d="M 13.956635,8.3363445 C 14.573209,8.1027307 14.832981,7.5637065 14.582934,7.0367784 14.40432,6.6603719 14.023161,6.4938847 13.480144,6.555094 c -0.475777,0.053624 -0.781988,0.2975842 -0.914188,0.7283437 -0.148715,0.484543 0.09579,0.8795479 0.649757,1.0497096 0.3713,0.1140587 0.447459,0.1143871 0.740922,0.00308 z"
         id="path1378" />
      <path
         style="fill:#ffffff;fill-opacity:1;stroke:#000000;stroke-width:0.20769792;stroke-miterlimit:4;stroke-dasharray:none;stroke-opacity:1"
         d="M 13.32893,7.9178966 C 13.135002,7.8671925 13.020163,7.4618876 13.14387,7.2647213 13.277723,7.0513738 13.6909,6.9260401 13.876781,7.042398 c 0.245931,0.1539548 0.247583,0.6219522 0.0026,0.793402 -0.209606,0.1468163 -0.269086,0.1556844 -0.550653,0.082097 z"
         id="path1380" />
      <path
         style="fill:#ffffff;fill-opacity:1;stroke:#000000;stroke-width:0.20769792;stroke-miterlimit:4;stroke-dasharray:none;stroke-opacity:1"
         d="m 13.790389,7.6285904 c 0.178584,-0.113176 0.08818,-0.4133005 -0.134094,-0.4451702 -0.226988,-0.032537 -0.355565,0.2192647 -0.204751,0.4009837 0.119319,0.143773 0.171049,0.1505215 0.338845,0.044187 z"
         id="path1382" />
      <path
         style="fill:#ffffff;fill-opacity:1;stroke:#000000;stroke-width:0.20769792;stroke-miterlimit:4;stroke-dasharray:none;stroke-opacity:1"
         d="m 14.18463,12.957354 c -0.05992,-0.349438 -0.108953,-0.695375 -0.108953,-0.768751 0,-0.130522 1.612028,-0.949502 1.868941,-0.949502 0.06741,0 0.125288,0.07129 0.128618,0.158415 0.0031,0.08713 0.02525,0.559727 0.0487,1.05022 0.02879,0.602015 0.0085,0.932931 -0.0624,1.018379 -0.07601,0.09159 -0.334601,0.126576 -0.935507,0.126576 h -0.830455 z"
         id="path1370" />
      <path
         style="fill:#ffffff;fill-opacity:1;stroke:#000000;stroke-width:0.20769792;stroke-miterlimit:4;stroke-dasharray:none;stroke-opacity:1"
         d="m 16.76035,14.701598 c -0.02294,-0.03736 -0.07127,-0.52545 -0.107408,-1.084684 -0.07346,-1.136759 -0.110851,-1.067892 0.617846,-1.13797 0.62553,-0.06015 0.697373,0.04532 0.697373,1.023798 0,0.441291 -0.03972,0.906835 -0.08829,1.034545 -0.0799,0.210165 -0.135239,0.232202 -0.583052,0.232202 -0.272129,0 -0.513539,-0.03054 -0.536473,-0.06789 z"
         id="path1368" />
      <path
         style="fill:#ffffff;fill-opacity:1;stroke:#000000;stroke-width:0.20769792;stroke-miterlimit:4;stroke-dasharray:none;stroke-opacity:1"
         d="m 11.315149,14.384769 c -0.03074,-0.211598 -0.04347,-0.812442 -0.02817,-1.335213 l 0.02776,-0.950486 0.362094,0.01442 c 0.199147,0.008 0.695837,0.02345 1.103754,0.03444 0.575595,0.01555 0.753799,0.05165 0.795855,0.161245 0.02982,0.07767 0.07915,0.663014 0.109656,1.300762 l 0.05546,1.15954 h -1.18523 -1.185235 z"
         id="path1366" />
      <path
         style="fill:#ffffff;fill-opacity:1;stroke:#000000;stroke-width:0.20769792;stroke-miterlimit:4;stroke-dasharray:none;stroke-opacity:1"
         d="m 16.828297,15.901023 c -0.137358,-0.209637 -0.137358,-0.242974 0,-0.452611 0.159821,-0.243914 0.326262,-0.280536 0.602677,-0.132601 0.234886,0.125708 0.220942,0.374795 -0.03444,0.614696 -0.270523,0.254141 -0.386358,0.248132 -0.568261,-0.02946 z"
         id="path1364" />
      <path
         style="fill:#ffffff;fill-opacity:1;stroke:#000000;stroke-width:0.20769792;stroke-miterlimit:4;stroke-dasharray:none;stroke-opacity:1"
         d="m 14.306982,16.950122 c -0.02802,-0.04531 -0.04716,-0.177731 -0.0426,-0.294197 0.0046,-0.116471 0.02299,-0.680221 0.0409,-1.252777 0.01786,-0.572557 0.03464,-1.085788 0.03726,-1.14051 0.0046,-0.09457 1.709541,-0.262625 1.795215,-0.176947 0.05855,0.05855 0.02001,2.479346 -0.04203,2.641056 -0.04229,0.110235 -0.13353,0.131112 -0.392193,0.08975 -0.196129,-0.03136 -0.52175,0.0021 -0.778765,0.0801 -0.521837,0.158318 -0.551403,0.160878 -0.617749,0.05353 z"
         id="path1362" />
      <path
         style="fill:#ffffff;fill-opacity:1;stroke:#000000;stroke-width:0.20769792;stroke-miterlimit:4;stroke-dasharray:none;stroke-opacity:1"
         d="m 8.6385182,17.019743 c -0.00308,-0.06763 -0.038131,-0.71363 -0.077642,-1.435549 -0.039516,-0.721918 -0.037926,-1.404233 0.00359,-1.516254 0.072187,-0.194996 0.1196526,-0.203679 1.1133156,-0.203679 0.7309202,0 1.0595682,0.03346 1.1111452,0.113155 0.04029,0.06223 0.08535,0.800946 0.100146,1.641583 l 0.02694,1.528428 -0.298483,-0.07619 c -0.389606,-0.09945 -1.4073072,-0.102414 -1.7242185,-0.0051 -0.1862043,0.05722 -0.2503954,0.04552 -0.2547319,-0.04644 z"
         id="path1360" />
      <path
         style="fill:#ffffff;fill-opacity:1;stroke:#000000;stroke-width:0.20769792;stroke-miterlimit:4;stroke-dasharray:none;stroke-opacity:1"
         d="m 13.459806,17.614172 c -0.32989,-0.231063 -1.135526,-0.273648 -1.559553,-0.08244 -0.198583,0.08955 -0.377176,0.146257 -0.396883,0.126021 -0.03233,-0.03326 -0.08649,-1.959613 -0.06272,-2.231973 0.0073,-0.08396 0.301792,-0.113156 1.141408,-0.113156 h 1.131534 v 1.222058 c 0,0.672133 -0.01129,1.222057 -0.02515,1.222057 -0.0138,0 -0.116712,-0.06415 -0.228661,-0.142567 z"
         id="path1358" />
      <path
         style="fill:#ffffff;fill-opacity:1;stroke:#000000;stroke-width:0.20769792;stroke-miterlimit:4;stroke-dasharray:none;stroke-opacity:1"
         d="m 14.578685,18.37026 c -0.0775,-0.110657 -0.140914,-0.327155 -0.140914,-0.48111 0,-0.231299 0.05557,-0.306422 0.319903,-0.432474 0.895359,-0.426967 1.403032,0.13412 0.73016,0.806992 -0.36256,0.36256 -0.701986,0.402359 -0.909149,0.106592 z"
         id="path1356" />
      <path
         style="fill:#ffffff;fill-opacity:1;stroke:#000000;stroke-width:0.20769792;stroke-miterlimit:4;stroke-dasharray:none;stroke-opacity:1"
         d="m 9.4965988,18.712148 c -0.3179274,-0.135926 -0.6712399,-0.54256 -0.6712399,-0.77254 0,-0.633515 1.5540311,-0.700924 1.9301601,-0.08372 0.314864,0.516675 -0.59914,1.138345 -1.2589202,0.856264 z"
         id="path1354" />
      <path
         style="fill:#ffffff;fill-opacity:1;stroke:#000000;stroke-width:0.20769792;stroke-miterlimit:4;stroke-dasharray:none;stroke-opacity:1"
         d="m 12.27627,19.61925 c -0.670671,-0.232552 -0.959335,-0.986756 -0.531506,-1.388678 0.29839,-0.280321 0.583452,-0.358784 1.04758,-0.288347 0.556077,0.08439 0.871172,0.435409 0.79763,0.888575 -0.09452,0.582482 -0.758484,0.980966 -1.313704,0.78845 z"
         id="path1352" />
    </g>
  </g>
</svg>
