<?xml version="1.0" encoding="UTF-8" standalone="no"?>
<svg
   xmlns:dc="http://purl.org/dc/elements/1.1/"
   xmlns:cc="http://creativecommons.org/ns#"
   xmlns:rdf="http://www.w3.org/1999/02/22-rdf-syntax-ns#"
   xmlns:svg="http://www.w3.org/2000/svg"
   xmlns="http://www.w3.org/2000/svg"
   xmlns:sodipodi="http://sodipodi.sourceforge.net/DTD/sodipodi-0.dtd"
   xmlns:inkscape="http://www.inkscape.org/namespaces/inkscape"
   width="65"
   height="65"
   viewBox="0 0 17.197916 17.197917"
   version="1.1"
   id="svg10975"
   inkscape:version="1.0.1 (c497b03c, 2020-09-10)"
   sodipodi:docname="logo-10.svg">
  <defs
     id="defs10969" />
  <sodipodi:namedview
     id="base"
     pagecolor="#ffffff"
     bordercolor="#666666"
     borderopacity="1.0"
     inkscape:pageopacity="0.0"
     inkscape:pageshadow="2"
     inkscape:zoom="8.950201"
     inkscape:cx="31.902281"
     inkscape:cy="32.05309"
     inkscape:document-units="mm"
     inkscape:current-layer="layer1"
     inkscape:document-rotation="0"
     showgrid="false"
     inkscape:window-width="1261"
     inkscape:window-height="776"
     inkscape:window-x="8"
     inkscape:window-y="25"
     inkscape:window-maximized="0"
     units="px" />
  <metadata
     id="metadata10972">
    <rdf:RDF>
      <cc:Work
         rdf:about="">
        <dc:format>image/svg+xml</dc:format>
        <dc:type
           rdf:resource="http://purl.org/dc/dcmitype/StillImage" />
        <dc:title />
      </cc:Work>
    </rdf:RDF>
  </metadata>
  <g
     inkscape:label="Capa 1"
     inkscape:groupmode="layer"
     id="layer1"
     transform="translate(32.272522,-192.42175)">
    <g
       id="g7064">
      <path
         style="fill:#ffffff;fill-opacity:1;stroke:#000000;stroke-width:0.206196;stroke-miterlimit:4;stroke-dasharray:none;stroke-opacity:1"
         d="m -20.923797,209.16042 c 0.763912,-0.38184 1.688206,-1.26903 2.012356,-1.93157 0.124094,-0.25364 0.252508,-0.47777 0.285365,-0.49808 0.03286,-0.0203 0.104593,-0.26806 0.159412,-0.55056 0.05482,-0.2825 0.132928,-0.67928 0.173572,-0.88174 0.04064,-0.20245 0.09309,-0.60736 0.116545,-0.89979 0.139746,-1.7423 0.230331,-2.08019 0.686954,-2.5624 0.162974,-0.1721 0.42386,-0.36678 0.579746,-0.43261 0.546861,-0.23096 0.542393,-0.43297 -0.01758,-0.79489 -0.236195,-0.15266 -0.58344,-0.4303 -0.771653,-0.61698 -0.450993,-0.4473 -0.595937,-1.0246 -0.552246,-2.19956 0.043,-1.15644 -0.133396,-2.34994 -0.428614,-2.89996 -0.34295,-0.63896 -1.269674,-1.53346 -1.908004,-1.84166 -0.929532,-0.44879 -0.949787,-0.45253 -2.617576,-0.48244 -0.877297,-0.0157 -1.68711,-0.0344 -1.799584,-0.0416 -0.34614,-0.0219 -1.157047,0.1785 -1.677876,0.41465 -0.358629,0.16261 -0.597321,0.34718 -0.862985,0.66729 -0.428636,0.51648 -0.73111,1.04904 -0.73111,1.28725 0,0.0925 -0.0338,0.18898 -0.07512,0.21451 -0.121353,0.075 -0.569416,1.60022 -0.613983,2.09001 -0.02252,0.24744 -0.06479,0.78118 -0.09393,1.18609 -0.03895,0.54106 -0.104349,0.83376 -0.246739,1.10429 -0.346836,0.65897 -0.644469,1.01706 -1.099722,1.32313 -0.559394,0.37609 -0.577838,0.54636 -0.07909,0.73011 0.202453,0.0746 0.525549,0.27234 0.717989,0.43944 0.553953,0.48101 0.660081,0.77141 0.754217,2.0638 0.121268,1.66488 0.26818,2.37574 0.643685,3.11458 0.479931,0.9443 1.568482,1.83092 2.587567,2.10756 0.857695,0.23282 1.355371,0.2741 2.820722,0.23395 l 1.430134,-0.0392 z"
         id="path8871" />
      <path
         style="fill:#ffffff;fill-opacity:1;stroke:#000000;stroke-width:0.206196;stroke-miterlimit:4;stroke-dasharray:none;stroke-opacity:1"
         d="m -24.555211,209.06446 c -1.392056,-0.1727 -2.057651,-0.45543 -2.790342,-1.18527 -0.862585,-0.85924 -1.146412,-1.62925 -1.267844,-3.43961 -0.04527,-0.67485 -0.138743,-1.42013 -0.207725,-1.65619 -0.135358,-0.4632 -0.701213,-1.22406 -1.048609,-1.40998 -0.271932,-0.14553 -0.261221,-0.28346 0.03927,-0.50562 0.293991,-0.21736 0.864836,-1.07323 0.945751,-1.41796 0.03168,-0.13497 0.0908,-0.28775 0.131378,-0.33951 0.04058,-0.0518 0.10812,-0.60483 0.150092,-1.22905 0.08702,-1.29412 0.276839,-2.00681 0.820035,-3.07881 0.481211,-0.94968 0.767597,-1.2484 1.471521,-1.53486 0.584153,-0.23772 0.596494,-0.23901 2.276196,-0.23737 0.928873,9.3e-4 1.920983,0.0352 2.204689,0.0762 0.755707,0.10928 1.490167,0.48631 2.115229,1.08584 0.904512,0.86757 1.090808,1.42779 1.090808,3.28024 0,0.69823 0.04364,1.46557 0.09697,1.7052 0.126613,0.56886 0.459915,1.05206 1.014531,1.4708 0.246588,0.18617 0.437866,0.36592 0.425063,0.39942 -0.0128,0.0335 -0.212797,0.21008 -0.444432,0.39238 -0.281591,0.22162 -0.494324,0.48101 -0.641959,0.78277 -0.240742,0.49206 -0.448635,1.63742 -0.449596,2.47697 -0.0018,1.58959 -0.758735,3.0883 -1.922861,3.80732 -0.642182,0.39665 -1.229633,0.53764 -2.413078,0.57918 -0.607359,0.0213 -1.325148,0.0114 -1.595085,-0.0221 z"
         id="path8873" />
      <path
         style="fill:#ffffff;fill-opacity:1;stroke:#000000;stroke-width:0.206196;stroke-miterlimit:4;stroke-dasharray:none;stroke-opacity:1"
         d="m -21.985974,206.73467 c 0.243351,-0.12383 0.560949,-0.35079 0.705772,-0.50434 0.276622,-0.29331 0.795367,-1.29099 0.888571,-1.70895 0.14883,-0.66742 0.387505,-1.3963 0.673686,-2.05734 0.06138,-0.14177 0.111589,-0.29525 0.111589,-0.34106 0,-0.0458 0.184049,-0.28467 0.408997,-0.5308 0.399132,-0.43671 0.516114,-0.71087 0.303329,-0.71087 -0.126845,0 -0.794125,-0.66402 -0.794125,-0.79024 0,-0.0488 -0.07117,-0.24987 -0.158161,-0.4468 -0.147406,-0.3337 -0.257154,-0.7764 -0.49433,-1.99403 -0.260241,-1.33605 -0.653334,-1.91648 -1.637888,-2.41848 -0.330369,-0.16844 -0.485474,-0.18811 -1.513286,-0.19193 -1.425884,-0.005 -2.022271,0.16062 -2.552211,0.71007 -0.451813,0.46843 -0.641424,0.8697 -0.878659,1.85944 -0.288193,1.20235 -0.67035,2.10414 -1.109263,2.61758 -0.134607,0.15746 -0.244827,0.31338 -0.244933,0.34648 -1.06e-4,0.0331 -0.14743,0.15763 -0.327389,0.27672 -0.439226,0.29067 -0.423914,0.46981 0.06135,0.71775 0.775945,0.39647 1.060662,0.86115 1.659271,2.70811 0.639267,1.9724 1.730178,2.77623 3.678131,2.71019 0.654394,-0.0222 0.846954,-0.0619 1.219549,-0.2515 z"
         id="path8875" />
      <path
         style="fill:#ffffff;fill-opacity:1;stroke:#000000;stroke-width:0.206196;stroke-miterlimit:4;stroke-dasharray:none;stroke-opacity:1"
         d="m -24.187114,206.49271 c -0.981621,-0.27602 -1.07403,-0.32405 -1.481784,-0.7702 -0.498223,-0.54513 -0.700834,-0.93586 -1.089442,-2.10092 -0.374692,-1.12335 -0.695704,-1.70513 -1.177753,-2.13447 l -0.375996,-0.33489 0.387444,-0.44221 c 0.213094,-0.24321 0.549974,-0.75651 0.748621,-1.14066 0.328704,-0.63566 0.465667,-1.02366 0.835004,-2.36548 0.257385,-0.9351 0.47902,-1.194 1.327415,-1.55061 0.402138,-0.16904 0.544013,-0.18306 1.595085,-0.15768 1.112728,0.0269 1.169661,0.0368 1.603584,0.28015 0.371116,0.2081 0.497057,0.34025 0.71922,0.75467 0.160099,0.29865 0.316745,0.76028 0.386257,1.13831 0.306047,1.66437 0.641374,2.60033 1.146835,3.20104 l 0.224365,0.26664 -0.24793,0.261 c -0.136361,0.14355 -0.320457,0.40824 -0.409102,0.5882 -0.210595,0.42753 -0.726153,1.95414 -0.801118,2.37218 -0.03227,0.17996 -0.157745,0.54806 -0.278832,0.81799 -0.257725,0.57455 -0.917713,1.21874 -1.380235,1.34721 -0.403845,0.11217 -1.279526,0.0969 -1.731638,-0.0303 z"
         id="path8877" />
      <path
         style="fill:#ffffff;fill-opacity:1;stroke:#000000;stroke-width:0.206196;stroke-miterlimit:4;stroke-dasharray:none;stroke-opacity:1"
         d="m -22.715209,205.05242 c 0.327015,-0.23444 0.555758,-0.51052 0.690821,-0.83376 0.191178,-0.45756 0.197845,-5.95578 0.0078,-6.41069 -0.34903,-0.83535 -0.900186,-1.20709 -1.8024,-1.21567 -0.775406,-0.007 -1.231507,0.26853 -1.613678,0.97614 l -0.26507,0.4908 -0.0013,1.88138 c -0.0017,2.36951 0.0321,3.13981 0.166059,3.78821 0.159369,0.77144 0.413663,1.09686 1.073297,1.3735 0.406155,0.17034 0.556115,0.19243 1.008325,0.14857 0.307169,-0.0298 0.617667,-0.11351 0.736194,-0.19848 z"
         id="path8879" />
      <path
         style="fill:#ffffff;fill-opacity:1;stroke:#000000;stroke-width:0.206196;stroke-miterlimit:4;stroke-dasharray:none;stroke-opacity:1"
         d="m -24.340435,204.70703 c -0.364673,-0.12215 -0.710759,-0.61227 -0.842878,-1.19367 -0.07287,-0.32068 -0.10592,-1.19837 -0.106807,-2.83655 -0.0013,-2.29891 0.0044,-2.38376 0.183487,-2.74714 0.305366,-0.6197 0.511732,-0.76032 1.170373,-0.79754 0.329053,-0.0186 0.668674,0.009 0.80327,0.0644 0.339329,0.14055 0.705105,0.56862 0.807081,0.94453 0.107815,0.39742 0.125791,5.1694 0.02124,5.63731 -0.04542,0.20328 -0.192176,0.44094 -0.401563,0.65033 -0.308032,0.30803 -0.364171,0.33134 -0.844079,0.35039 -0.282756,0.0112 -0.63831,-0.0212 -0.790121,-0.072 z"
         id="path8881" />
    </g>
  </g>
</svg>
