<?xml version="1.0" encoding="UTF-8" standalone="no"?>
<svg
   xmlns:dc="http://purl.org/dc/elements/1.1/"
   xmlns:cc="http://creativecommons.org/ns#"
   xmlns:rdf="http://www.w3.org/1999/02/22-rdf-syntax-ns#"
   xmlns:svg="http://www.w3.org/2000/svg"
   xmlns="http://www.w3.org/2000/svg"
   xmlns:sodipodi="http://sodipodi.sourceforge.net/DTD/sodipodi-0.dtd"
   xmlns:inkscape="http://www.inkscape.org/namespaces/inkscape"
   width="65"
   height="65"
   viewBox="0 0 17.197917 17.197917"
   version="1.1"
   id="svg12243"
   inkscape:version="1.0.1 (c497b03c, 2020-09-10)"
   sodipodi:docname="logo-12.svg">
  <defs
     id="defs12237" />
  <sodipodi:namedview
     id="base"
     pagecolor="#ffffff"
     bordercolor="#666666"
     borderopacity="1.0"
     inkscape:pageopacity="0.0"
     inkscape:pageshadow="2"
     inkscape:zoom="9.700957"
     inkscape:cx="33.847952"
     inkscape:cy="31.95561"
     inkscape:document-units="mm"
     inkscape:current-layer="layer1"
     inkscape:document-rotation="0"
     showgrid="false"
     inkscape:window-width="1321"
     inkscape:window-height="776"
     inkscape:window-x="0"
     inkscape:window-y="25"
     inkscape:window-maximized="0"
     units="px" />
  <metadata
     id="metadata12240">
    <rdf:RDF>
      <cc:Work
         rdf:about="">
        <dc:format>image/svg+xml</dc:format>
        <dc:type
           rdf:resource="http://purl.org/dc/dcmitype/StillImage" />
        <dc:title></dc:title>
      </cc:Work>
    </rdf:RDF>
  </metadata>
  <g
     inkscape:label="Capa 1"
     inkscape:groupmode="layer"
     id="layer1"
     transform="translate(-169.73554,-168.14564)">
    <path
       style="fill:#a09074;fill-opacity:1;stroke:#000000;stroke-width:0.126735;stroke-miterlimit:4;stroke-dasharray:none;stroke-opacity:1"
       d="m 179.154,184.27838 c 0.0425,-0.11544 0.11605,-0.29606 0.16341,-0.40139 0.0474,-0.10532 0.13486,-0.34948 0.19444,-0.54257 0.0596,-0.19309 0.14664,-0.43725 0.19348,-0.54257 0.0468,-0.10532 0.18846,-0.47874 0.31473,-0.82982 0.12628,-0.35108 0.25686,-0.6882 0.2902,-0.74916 0.0855,-0.15638 0.0752,-0.40396 -0.02,-0.48303 -0.0444,-0.0368 -0.21287,-0.10021 -0.37447,-0.14091 l -0.29383,-0.074 -0.0404,-0.38692 c -0.0222,-0.21281 -0.0404,-0.64022 -0.0404,-0.94981 0,-0.50525 0.0136,-0.57017 0.13313,-0.63413 0.18119,-0.097 0.19506,-0.066 0.129,0.28758 -0.0894,0.47851 0.0474,0.83287 0.4073,1.05533 0.12332,0.0762 0.22422,0.18138 0.22422,0.2337 0,0.15517 0.3123,0.64127 0.48446,0.75408 0.0878,0.0575 0.30087,0.12129 0.47356,0.14174 0.26385,0.0312 0.33716,0.071 0.4592,0.24913 0.14382,0.20989 0.52965,0.40914 0.79226,0.40914 0.0719,0 0.26889,-0.07 0.43782,-0.15549 0.24041,-0.12171 0.37105,-0.14829 0.60127,-0.12233 0.50753,0.0572 0.96185,-0.23233 1.05909,-0.67504 0.0329,-0.14965 0.0813,-0.18754 0.28075,-0.21942 0.4969,-0.0795 0.9157,-0.51065 0.99233,-1.0217 0.0356,-0.2372 0.0737,-0.29541 0.23836,-0.3636 0.25253,-0.1046 0.56412,-0.53409 0.56412,-0.77757 0,-0.10353 -0.0479,-0.28924 -0.10651,-0.41269 -0.089,-0.18758 -0.093,-0.24613 -0.0241,-0.35636 0.2305,-0.3691 0.18819,-0.75738 -0.11165,-1.0244 -0.11687,-0.10408 -0.12809,-0.16744 -0.0965,-0.5448 l 0.0358,-0.42702 -0.23269,-0.20431 c -0.12798,-0.11236 -0.30007,-0.22121 -0.38242,-0.24188 -0.10788,-0.0271 -0.17164,-0.11207 -0.22814,-0.30412 -0.11532,-0.39205 -0.34017,-0.59938 -0.70433,-0.64946 -0.27856,-0.0383 -0.31229,-0.0623 -0.39913,-0.28333 -0.0764,-0.19443 -0.16518,-0.27589 -0.45575,-0.41805 -0.30126,-0.1474 -0.41129,-0.16989 -0.66589,-0.13611 -0.28819,0.0382 -0.31705,0.028 -0.52363,-0.18511 -0.27947,-0.28834 -0.62029,-0.39879 -0.88818,-0.28783 -0.16221,0.0672 -0.23581,0.0635 -0.45143,-0.0228 -0.32099,-0.12843 -0.70231,-0.13256 -0.86519,-0.009 -0.0752,0.0569 -0.27064,0.0945 -0.49694,0.0958 l -0.37302,0.002 0.0414,-0.33512 c 0.10417,-0.84251 0.34488,-1.49925 0.68872,-1.87907 0.15052,-0.16626 0.2254,-0.68076 0.11793,-0.81025 -0.21078,-0.25398 -0.65647,-0.096 -0.91756,0.32522 -0.24136,0.38939 -0.31573,0.64163 -0.46651,1.58216 -0.0379,0.23614 -0.0453,0.24387 -0.0988,0.10288 -0.11771,-0.31026 0.13014,-1.25337 0.43487,-1.65471 0.43335,-0.57075 0.2691,-1.22487 -0.30756,-1.22487 -0.0717,0 -0.20604,0.0862 -0.29846,0.1915 -0.19207,0.21889 -0.30624,0.24273 -0.35944,0.0751 -0.11822,-0.37246 -0.5178,-0.50309 -0.78141,-0.25545 -0.21076,0.198 -0.19077,0.51982 0.0745,1.19864 0.23946,0.6128 0.35488,1.33713 0.34632,2.17333 l -0.005,0.47875 -0.11932,-0.67024 c -0.28372,-1.59364 -0.52023,-2.15003 -1.04454,-2.45729 -0.36567,-0.2143 -0.62808,-0.2095 -0.80444,0.0147 -0.16915,0.21505 -0.13834,0.42644 0.1169,0.80192 0.51215,0.75345 0.83739,1.53851 0.83839,2.02366 0.001,0.44879 -0.0619,0.50105 -0.39942,0.33246 -0.15524,-0.0775 -0.33821,-0.14096 -0.4066,-0.14096 -0.0838,0 -0.16116,-0.0834 -0.23718,-0.25574 -0.22806,-0.51692 -0.73678,-0.72375 -1.25358,-0.50968 -0.17321,0.0717 -0.21097,0.0662 -0.33624,-0.0495 -0.15628,-0.14431 -0.57779,-0.33441 -0.73937,-0.33344 -0.24144,0.001 -0.75792,0.30912 -0.89718,0.53446 -0.13015,0.21058 -0.16827,0.2309 -0.43317,0.2309 -0.38804,0 -0.66529,0.18099 -0.85498,0.55812 -0.17008,0.33815 -0.22834,0.39697 -0.39466,0.39839 -0.3068,0.003 -0.74745,0.53531 -0.74745,0.90358 0,0.14494 -0.0609,0.29121 -0.18286,0.43929 -0.19976,0.2425 -0.34649,0.78015 -0.29081,1.06555 0.0251,0.12847 -0.0106,0.23872 -0.12882,0.39762 -0.14255,0.19169 -0.16349,0.28339 -0.16349,0.71589 0,0.46012 0.0139,0.51182 0.19149,0.71413 0.15616,0.17785 0.1915,0.27493 0.1915,0.52594 0,0.38559 0.27147,1.00061 0.49432,1.11987 0.0896,0.048 0.2216,0.22732 0.30342,0.41232 0.15533,0.35123 0.49679,0.66449 0.7243,0.66449 0.0757,0 0.1376,0.0265 0.1376,0.0589 0,0.22986 0.66689,0.70705 0.98812,0.70705 0.0899,0 0.2798,0.0735 0.42208,0.1633 0.31959,0.20175 0.77294,0.22702 1.13596,0.0633 0.25106,-0.11321 0.25509,-0.11289 0.46531,0.0369 0.14533,0.1036 0.29996,0.15118 0.49146,0.15125 0.25617,6e-5 0.30417,-0.0276 0.57728,-0.33248 0.23738,-0.26503 0.32676,-0.32504 0.44001,-0.29542 0.16164,0.0423 0.62659,-0.24412 0.67632,-0.41658 0.0165,-0.0574 0.0602,-0.22098 0.0969,-0.36347 0.0515,-0.1999 0.11569,-0.28238 0.28086,-0.36115 0.28316,-0.13503 0.3934,-0.39882 0.30456,-0.72877 -0.0489,-0.18139 -0.21182,-0.3905 -0.61095,-0.78393 -0.29938,-0.2951 -0.54433,-0.5562 -0.54433,-0.58023 0,-0.024 -0.0718,-0.12715 -0.15951,-0.22916 -0.16335,-0.18994 -0.20755,-0.34505 -0.0983,-0.34505 0.0337,0 0.0909,0.0359 0.12701,0.0798 0.0362,0.0439 0.20962,0.25635 0.38552,0.47214 0.20602,0.25275 0.48848,0.49747 0.79383,0.68779 0.52038,0.32434 0.60338,0.47365 0.51116,0.91961 -0.0267,0.12891 -0.0538,0.2631 -0.0603,0.29821 -0.007,0.0351 -0.0162,0.23061 -0.0215,0.43446 l -0.01,0.37062 -0.27881,0.12333 c -0.39484,0.17466 -0.45396,0.26325 -0.37079,0.55564 0.15719,0.55262 0.59379,1.80979 0.75153,2.16403 0.0493,0.11063 0.0896,0.2297 0.0896,0.2646 0,0.13307 0.39865,1.00599 0.49309,1.07971 0.13906,0.10856 0.30228,0.005 0.39651,-0.25041 z"
       id="path8914" />
    <path
       style="fill:#5f4029;fill-opacity:1;stroke:#000000;stroke-width:0.126735;stroke-miterlimit:4;stroke-dasharray:none;stroke-opacity:1"
       d="m 178.82067,174.35428 c -0.0575,-0.0967 -0.1094,-0.68419 -0.17368,-1.96709 -0.0686,-1.36923 -0.16831,-1.93911 -0.41714,-2.38431 -0.16898,-0.30234 -0.20175,-0.54866 -0.0828,-0.62219 0.0425,-0.0263 0.12476,0.0198 0.19279,0.10794 0.28269,0.36646 0.37075,0.44102 0.5209,0.44102 0.1131,0 0.1992,-0.0647 0.29728,-0.22341 0.16711,-0.27038 0.383,-0.30565 0.383,-0.0626 0,0.0885 -0.0748,0.27931 -0.16618,0.4241 -0.39039,0.61841 -0.42627,0.83182 -0.44139,2.62482 -0.0129,1.52684 -0.0313,1.79865 -0.11281,1.66169 z"
       id="path8938" />
    <path
       style="fill:#5f4029;fill-opacity:1;stroke:#000000;stroke-width:0.126735;stroke-miterlimit:4;stroke-dasharray:none;stroke-opacity:1"
       d="m 176.30623,175.44518 c -0.13065,-0.0582 0.04,-0.37035 0.55473,-1.01484 0.69985,-0.87624 0.87788,-2.07696 0.43543,-2.9368 -0.20672,-0.40171 -0.51046,-0.94549 -0.60516,-1.08339 -0.14737,-0.2146 -0.10959,-0.35283 0.0964,-0.35283 0.57019,0 0.89841,0.79969 1.20512,2.93627 0.22905,1.59561 0.2501,1.44576 -0.23903,1.70122 -0.2282,0.11918 -0.51545,0.32962 -0.63832,0.46764 -0.17025,0.19121 -0.28418,0.25871 -0.47875,0.28358 -0.14043,0.0179 -0.28913,0.0176 -0.33045,-7.2e-4 z"
       id="path8936" />
    <path
       style="fill:#5f4029;fill-opacity:1;stroke:#000000;stroke-width:0.126735;stroke-miterlimit:4;stroke-dasharray:none;stroke-opacity:1"
       d="m 180.59494,175.43519 c -0.46948,-0.55151 -0.65984,-0.74198 -0.82717,-0.82767 -0.10714,-0.0549 -0.21591,-0.13165 -0.2417,-0.17063 -0.0692,-0.10455 -0.0591,-1.37082 0.0173,-2.17735 0.0961,-1.01387 0.23622,-1.47591 0.57121,-1.88305 0.15507,-0.18847 0.19041,-0.20629 0.226,-0.11397 0.0254,0.0659 -0.0119,0.18534 -0.0935,0.3 -0.35832,0.50321 -0.48471,0.98343 -0.62367,2.36955 -0.0427,0.42572 0.19589,0.90785 0.76664,1.54936 0.57345,0.64454 0.70854,0.8429 0.66006,0.96923 -0.0504,0.13133 -0.33856,0.12154 -0.45519,-0.0154 z"
       id="path8934" />
    <path
       style="fill:#5f4029;fill-opacity:1;stroke:#000000;stroke-width:0.126735;stroke-miterlimit:4;stroke-dasharray:none;stroke-opacity:1"
       d="m 181.52055,176.55494 c 3.6e-4,-0.11558 0.0185,-0.31786 0.0403,-0.44951 l 0.0396,-0.23937 h 0.47239 c 0.55063,0 0.57774,0.0292 0.49267,0.53052 l -0.0562,0.33121 -0.49469,0.0186 -0.49471,0.0186 7.3e-4,-0.21014 z"
       id="path8932" />
    <path
       style="fill:#5f4029;fill-opacity:1;stroke:#000000;stroke-width:0.126735;stroke-miterlimit:4;stroke-dasharray:none;stroke-opacity:1"
       d="m 180.7962,176.71184 c -0.016,-0.0264 -0.0469,-0.22741 -0.0687,-0.44683 l -0.0397,-0.39895 0.20854,0.001 c 0.33746,0.001 0.39124,0.0687 0.33852,0.42283 -0.0254,0.17064 -0.0757,0.34616 -0.11187,0.39005 -0.072,0.0875 -0.2808,0.1079 -0.32686,0.0319 z"
       id="path8930" />
    <path
       style="fill:#5f4029;fill-opacity:1;stroke:#000000;stroke-width:0.126735;stroke-miterlimit:4;stroke-dasharray:none;stroke-opacity:1"
       d="m 176.09628,176.60584 c -0.0602,-0.15845 -0.0419,-0.62389 0.0292,-0.73882 0.0465,-0.0752 0.45729,-0.0883 0.50201,-0.0159 0.0421,0.0681 -0.13101,0.71264 -0.22029,0.82022 -0.11143,0.13426 -0.24568,0.10597 -0.31088,-0.0655 z"
       id="path8928" />
    <path
       style="fill:#5f4029;fill-opacity:1;stroke:#000000;stroke-width:0.126735;stroke-miterlimit:4;stroke-dasharray:none;stroke-opacity:1"
       d="m 174.37527,176.66953 c -0.045,-0.0542 -0.0672,-0.25141 -0.0557,-0.4947 l 0.0191,-0.40452 0.60641,-0.0178 c 0.90628,-0.0266 0.89365,-0.0335 0.89365,0.49091 0,0.34122 -0.0224,0.44739 -0.10097,0.47752 -0.0555,0.0213 -0.36799,0.0387 -0.69434,0.0387 -0.43327,0 -0.61356,-0.0243 -0.66821,-0.0902 z"
       id="path8926" />
    <path
       style="fill:#5f4029;fill-opacity:1;stroke:#000000;stroke-width:0.126735;stroke-miterlimit:4;stroke-dasharray:none;stroke-opacity:1"
       d="m 180.4347,177.82065 c 0,-0.0133 0.0739,-0.18565 0.16426,-0.38299 0.15049,-0.32871 0.25987,-0.42404 0.36543,-0.31848 0.0388,0.0388 -0.0597,0.27687 -0.14177,0.34268 -0.0219,0.0175 -0.0901,0.11091 -0.1515,0.20746 -0.0934,0.14683 -0.23642,0.23836 -0.23642,0.15133 z"
       id="path8924" />
    <path
       style="fill:#1fa824;fill-opacity:1;stroke:#000000;stroke-width:0.126735;stroke-miterlimit:4;stroke-dasharray:none;stroke-opacity:1"
       d="m 178.55165,178.23624 c -0.52612,-0.0677 -1.21971,-0.56456 -1.57111,-1.12545 -0.1582,-0.25253 -0.15175,-0.4262 0.0381,-1.02426 0.31601,-0.99567 1.1606,-1.46487 2.23528,-1.24177 0.29957,0.0622 0.42273,0.12807 0.61654,0.32979 0.13321,0.13864 0.26942,0.35813 0.3027,0.48775 0.0333,0.12962 0.0914,0.35391 0.12912,0.49841 0.0377,0.1445 0.0686,0.37959 0.0686,0.52241 0,0.26519 -0.29097,1.03407 -0.39133,1.03407 -0.0305,0 -0.0555,0.0416 -0.0555,0.0925 0,0.0509 -0.0933,0.16272 -0.20745,0.24855 -0.23449,0.17638 -0.66563,0.24226 -1.16494,0.178 z"
       id="path8922" />
    <path
       style="fill:#1e22aa;fill-opacity:1;stroke:#000000;stroke-width:0.126735;stroke-miterlimit:4;stroke-dasharray:none;stroke-opacity:1"
       d="m 174.97291,180.94071 c -0.23084,-0.24475 -0.35033,-0.27473 -0.49972,-0.12534 -0.0539,0.0539 -0.20067,0.14094 -0.32606,0.19333 -0.28785,0.12027 -0.64197,0.0383 -0.86579,-0.20039 -0.13095,-0.13965 -0.19271,-0.15981 -0.39219,-0.12804 -0.20251,0.0322 -0.26947,0.009 -0.46278,-0.16074 -0.12997,-0.11411 -0.22602,-0.25803 -0.22602,-0.33865 0,-0.20159 -0.12007,-0.29339 -0.38373,-0.29339 -0.30779,0 -0.50992,-0.19044 -0.50992,-0.48043 0,-0.18638 -0.0381,-0.24417 -0.24847,-0.37698 -0.47105,-0.29736 -0.63512,-0.72961 -0.43972,-1.15846 0.0722,-0.15841 0.0612,-0.18514 -0.15255,-0.37004 -0.28554,-0.24706 -0.37207,-0.41233 -0.37207,-0.71059 0,-0.23183 0.0385,-0.28392 0.43682,-0.59073 l 0.14958,-0.11522 -0.14053,-0.23819 c -0.22443,-0.38036 -0.14009,-0.65203 0.31778,-1.02366 0.1219,-0.0989 0.13822,-0.15673 0.10425,-0.36918 -0.0222,-0.13853 -0.0114,-0.30579 0.0238,-0.37169 0.0957,-0.17889 0.4688,-0.38656 0.69442,-0.38656 0.16492,0 0.20521,-0.0299 0.23702,-0.17554 0.12196,-0.55869 0.36109,-0.75979 0.82746,-0.69587 0.26286,0.036 0.27069,0.0315 0.46756,-0.27236 0.16877,-0.26044 0.24653,-0.32066 0.49482,-0.38318 0.37393,-0.0942 0.67322,-0.005 0.8585,0.25491 0.15654,0.21984 0.26857,0.23338 0.48996,0.0592 0.30362,-0.23882 0.87797,-0.0849 0.95058,0.25469 0.0742,0.34726 0.15491,0.43119 0.44595,0.464 0.34683,0.0391 0.47202,0.13756 0.47202,0.37127 0,0.19342 -0.11911,0.50585 -0.19285,0.50585 -0.0565,0 -0.5161,0.72065 -0.65975,1.03456 -0.0596,0.13016 -0.13705,0.25443 -0.1722,0.27615 -0.0351,0.0217 -0.43646,0.0391 -0.8918,0.0386 -0.76742,-7.2e-4 -0.83297,0.009 -0.89731,0.12877 -0.0967,0.18067 -0.0478,1.28546 0.0628,1.41871 0.0709,0.0854 0.22767,0.10336 0.90229,0.10336 h 0.81651 l 0.23681,0.43087 c 0.15347,0.27922 0.425,0.6142 0.77148,0.95177 0.66471,0.6476 0.71717,0.92909 0.18439,0.98946 -0.18338,0.0208 -0.19094,0.0343 -0.19722,0.35232 -0.0103,0.52203 -0.32002,0.84348 -0.64506,0.66952 -0.13958,-0.0747 -0.33941,0.0121 -0.33941,0.14737 0,0.14753 -0.41868,0.54395 -0.57449,0.54395 -0.0825,0 -0.23498,-0.0959 -0.35521,-0.22342 z"
       id="path8920" />
    <path
       style="fill:#af231c;fill-opacity:1;stroke:#000000;stroke-width:0.126735;stroke-miterlimit:4;stroke-dasharray:none;stroke-opacity:1"
       d="m 182.33326,181.15876 c -0.0617,-0.0359 -0.17149,-0.18161 -0.24402,-0.32377 -0.12992,-0.25467 -0.13586,-0.25786 -0.40574,-0.21738 -0.15572,0.0233 -0.33961,0.0111 -0.42622,-0.0285 -0.21022,-0.0959 -0.45192,-0.48433 -0.43021,-0.69129 0.0233,-0.2223 -0.0479,-0.3292 -0.2206,-0.33095 -0.0769,-7.2e-4 -0.21002,-0.0553 -0.29576,-0.12125 -0.13099,-0.10067 -0.15513,-0.17212 -0.15098,-0.44691 0.005,-0.31909 0.0172,-0.33991 0.50721,-0.85219 0.27625,-0.28881 0.55583,-0.64502 0.62128,-0.79158 l 0.119,-0.26647 0.69446,0.003 c 0.46507,0.002 0.72615,-0.0232 0.79038,-0.0765 0.074,-0.0615 0.0959,-0.23043 0.0959,-0.74081 0,-0.77142 0.0618,-0.71769 -0.85465,-0.74344 l -0.56741,-0.016 -0.26241,-0.42919 c -0.14433,-0.23605 -0.46349,-0.64916 -0.70924,-0.91801 -0.59456,-0.65043 -0.60164,-0.66287 -0.48366,-0.84924 0.0478,-0.0756 0.0891,-0.0767 0.25804,-0.007 0.18049,0.0748 0.22006,0.0693 0.38631,-0.0536 0.24672,-0.18242 0.50463,-0.17356 0.69178,0.0237 0.17206,0.18139 0.24661,0.19216 0.42041,0.0607 0.27306,-0.20653 0.8165,-0.0423 0.89499,0.27045 0.0598,0.2382 0.15221,0.28249 0.36251,0.17374 0.25797,-0.1334 0.53545,-0.11164 0.8133,0.0638 0.19438,0.1227 0.26055,0.21545 0.31882,0.44683 l 0.0735,0.29198 h 0.36831 c 0.33884,0 0.37707,0.0148 0.47782,0.18538 0.0602,0.10197 0.10951,0.27493 0.10951,0.38437 0,0.20591 0.0353,0.23284 0.47859,0.3654 0.26795,0.0801 0.39818,0.36204 0.28873,0.62504 -0.128,0.30759 -0.11481,0.49951 0.0397,0.57774 0.38122,0.19298 0.4229,0.34512 0.20045,0.73163 l -0.14147,0.24582 0.15014,0.32057 c 0.1501,0.32046 0.15011,0.32065 0.0269,0.53281 -0.0854,0.14707 -0.20371,0.23799 -0.38528,0.29609 -0.27184,0.087 -0.33603,0.18995 -0.33775,0.54169 -0.001,0.1958 -0.13356,0.49092 -0.27233,0.60609 -0.0486,0.0403 -0.23004,0.0872 -0.40316,0.10408 -0.35724,0.0349 -0.53819,0.1965 -0.53819,0.48069 0,0.096 -0.0525,0.22207 -0.11674,0.28017 -0.13584,0.12293 -0.50762,0.13835 -0.74359,0.0308 -0.14732,-0.0671 -0.18564,-0.054 -0.37308,0.12767 -0.16428,0.15922 -0.26278,0.20205 -0.46118,0.20053 -0.13876,-0.001 -0.30276,-0.0313 -0.36445,-0.0673 z"
       id="path8918" />
    <path
       style="fill:#b36924;fill-opacity:1;stroke:#000000;stroke-width:0.126735;stroke-miterlimit:4;stroke-dasharray:none;stroke-opacity:1"
       d="m 178.55434,183.12977 c -0.12972,-0.3965 -0.27288,-0.77864 -0.31814,-0.8492 -0.0453,-0.0706 -0.11605,-0.28561 -0.15728,-0.47791 -0.0412,-0.19229 -0.11219,-0.40745 -0.15767,-0.47812 -0.11122,-0.17283 -0.1612,-0.38649 -0.10986,-0.46956 0.0231,-0.0374 0.15522,-0.10519 0.29361,-0.15069 0.14628,-0.0481 0.28298,-0.14577 0.32656,-0.23331 0.0431,-0.0867 0.0789,-0.47941 0.0841,-0.92556 0.006,-0.51198 0.0354,-0.80014 0.0864,-0.84909 0.0493,-0.0473 0.16956,-0.0585 0.33256,-0.0309 l 0.25533,0.0432 0.02,0.92041 c 0.011,0.50622 0.0463,0.96941 0.0783,1.0293 0.0321,0.0599 0.18809,0.16229 0.34675,0.22754 0.1613,0.0663 0.28842,0.16084 0.28835,0.21438 -1.3e-4,0.12954 -0.12057,0.56302 -0.22163,0.79791 -0.0453,0.10532 -0.14557,0.36384 -0.22277,0.57449 -0.25153,0.6863 -0.54522,1.33011 -0.61782,1.3543 -0.0413,0.0138 -0.16985,-0.27832 -0.30689,-0.69723 z"
       id="path8916" />
  </g>
</svg>
