<?xml version="1.0" encoding="UTF-8" standalone="no"?>
<svg
   xmlns:dc="http://purl.org/dc/elements/1.1/"
   xmlns:cc="http://creativecommons.org/ns#"
   xmlns:rdf="http://www.w3.org/1999/02/22-rdf-syntax-ns#"
   xmlns:svg="http://www.w3.org/2000/svg"
   xmlns="http://www.w3.org/2000/svg"
   xmlns:sodipodi="http://sodipodi.sourceforge.net/DTD/sodipodi-0.dtd"
   xmlns:inkscape="http://www.inkscape.org/namespaces/inkscape"
   width="32"
   height="32"
   viewBox="0 0 8.4666665 8.4666669"
   version="1.1"
   id="svg8"
   inkscape:export-filename="/Users/jean-lucpierite/Desktop/favicon.ico.png"
   inkscape:export-xdpi="96"
   inkscape:export-ydpi="96"
   inkscape:version="1.0.1 (c497b03c, 2020-09-10)"
   sodipodi:docname="uktena-logo.svg">
  <defs
     id="defs2" />
  <sodipodi:namedview
     id="base"
     pagecolor="#ffffff"
     bordercolor="#666666"
     borderopacity="1.0"
     inkscape:pageopacity="0.0"
     inkscape:pageshadow="2"
     inkscape:zoom="7.329584"
     inkscape:cx="-9.0902804"
     inkscape:cy="32.084247"
     inkscape:document-units="mm"
     inkscape:current-layer="layer1"
     inkscape:document-rotation="0"
     showgrid="false"
     units="px"
     inkscape:window-width="1261"
     inkscape:window-height="776"
     inkscape:window-x="0"
     inkscape:window-y="25"
     inkscape:window-maximized="0" />
  <metadata
     id="metadata5">
    <rdf:RDF>
      <cc:Work
         rdf:about="">
        <dc:format>image/svg+xml</dc:format>
        <dc:type
           rdf:resource="http://purl.org/dc/dcmitype/StillImage" />
        <dc:title></dc:title>
      </cc:Work>
    </rdf:RDF>
  </metadata>
  <g
     inkscape:label="Capa 1"
     inkscape:groupmode="layer"
     id="layer1">
    <g
       id="g1193"
       transform="matrix(0.08002228,0,0,0.08391614,-2.3373604,-3.4925146)"
       style="stroke-width:1;stroke-miterlimit:4;stroke-dasharray:none;fill:#000000;fill-opacity:1;stroke:none">
      <path
         style="fill:#000000;fill-opacity:1;stroke-width:1;stroke-miterlimit:4;stroke-dasharray:none;stroke:none"
         d="m 113.46309,103.94518 c 0.17741,0.16056 0.52992,0.29192 0.78334,0.29192 0.25342,0 0.50983,0.0794 0.56978,0.17639 0.06,0.097 0.25459,0.17639 0.43251,0.17639 0.17793,0 0.36919,0.11906 0.42503,0.26458 0.0575,0.14976 0.32024,0.26458 0.60549,0.26458 0.30948,0 0.66381,0.17017 0.91822,0.44098 0.24133,0.25688 0.61094,0.44097 0.88536,0.44097 0.25909,0 0.61475,0.15875 0.79034,0.35278 0.17559,0.19402 0.40699,0.35277 0.51421,0.35277 0.10722,0 0.40895,0.19844 0.67052,0.44098 0.26156,0.24253 0.59809,0.44097 0.74785,0.44097 0.14975,0 0.27228,0.12769 0.27228,0.28375 0,0.34779 1.8064,2.18569 2.14822,2.18569 0.13546,0 0.6372,0.39688 1.11497,0.88195 0.47778,0.48507 0.97338,0.88194 1.10134,0.88194 0.12796,0 0.28168,0.13891 0.3416,0.30868 0.0599,0.16978 0.2495,0.46743 0.42131,0.66146 0.1718,0.19403 0.33857,0.5909 0.37059,0.88194 0.0426,0.38732 0.1617,0.5439 0.44425,0.58411 0.24049,0.0342 0.40674,0.20049 0.44097,0.44098 0.0348,0.24428 0.20067,0.40672 0.45182,0.44239 0.21828,0.031 0.39687,0.15771 0.39687,0.28158 0,0.45181 0.5764,1.36444 0.95193,1.50721 0.21202,0.0806 0.49116,0.2739 0.62032,0.42952 0.12916,0.15563 0.34797,0.28296 0.48625,0.28296 0.13827,0 0.43531,0.19844 0.66008,0.44098 0.22478,0.24253 0.5143,0.44097 0.64339,0.44097 0.12909,0 0.46021,0.21605 0.73584,0.48012 0.41986,0.40225 0.55016,0.44509 0.8034,0.26416 0.16624,-0.11878 0.48086,-0.29318 0.69914,-0.38756 0.27641,-0.11952 0.39687,-0.32172 0.39687,-0.66619 0,-0.29225 0.14433,-0.59862 0.35278,-0.74886 0.32096,-0.23134 0.35278,-0.45662 0.35278,-2.49798 0,-1.30553 -0.0738,-2.28929 -0.17639,-2.35272 -0.097,-0.06 -0.17639,-0.26308 -0.17639,-0.45138 0,-0.1883 -0.075,-0.34237 -0.16672,-0.34237 -0.0917,0 -0.19092,-0.37703 -0.22049,-0.83785 -0.0459,-0.71499 -0.11196,-0.84611 -0.45064,-0.89421 -0.34228,-0.0486 -0.39687,-0.16217 -0.39687,-0.82558 0,-0.66229 -0.0549,-0.77705 -0.39507,-0.82558 -0.21858,-0.0312 -0.42339,-0.20479 -0.45845,-0.3886 -0.0349,-0.18273 -0.41269,-0.67175 -0.83964,-1.0867 -0.64942,-0.63116 -0.77628,-0.86421 -0.77628,-1.42603 0,-0.48879 -0.11433,-0.76982 -0.42004,-1.0325 -0.23101,-0.19851 -0.45011,-0.51854 -0.48687,-0.71117 -0.0377,-0.19759 -0.23431,-0.3742 -0.45106,-0.40519 -0.23862,-0.0341 -0.40505,-0.20124 -0.43917,-0.44098 -0.0348,-0.24428 -0.20067,-0.40672 -0.45182,-0.44239 -0.21828,-0.031 -0.39688,-0.13022 -0.39688,-0.22049 0,-0.0903 -0.15406,-0.16412 -0.34236,-0.16412 -0.18831,0 -0.39143,-0.0794 -0.45139,-0.17639 -0.06,-0.097 -0.40799,-0.17639 -0.77341,-0.17639 -0.48063,0 -0.77898,-0.12197 -1.07867,-0.44097 -0.23987,-0.25532 -0.61116,-0.44097 -0.88194,-0.44097 -0.27079,0 -0.64208,-0.18565 -0.88195,-0.44097 -0.25233,-0.26859 -0.60911,-0.44097 -0.91269,-0.44097 -0.27413,0 -0.49842,-0.07937 -0.49842,-0.176394 0,-0.09701 -0.14903,-0.176389 -0.33118,-0.176389 -0.18215,0 -0.42999,-0.119062 -0.55076,-0.264583 -0.12504,-0.150655 -0.50961,-0.264583 -0.89314,-0.264583 -0.37045,0 -0.7226,-0.07937 -0.78256,-0.176389 -0.06,-0.09701 -0.25459,-0.176389 -0.43251,-0.176389 -0.17792,0 -0.36918,-0.119062 -0.42503,-0.264583 -0.0778,-0.202646 -0.41125,-0.264584 -1.42461,-0.264584 -0.99613,0 -1.4783,-0.08718 -1.95118,-0.352777 -0.8609,-0.483537 -1.40842,-0.442707 -2.03008,0.151387 l -0.52756,0.504167 v 2.555307 c 0,2.25152 0.0384,2.59 0.32257,2.84722 z"
         id="path1148" />
      <path
         style="fill:#000000;fill-opacity:1;stroke-width:1;stroke-miterlimit:4;stroke-dasharray:none;stroke:none"
         d="m 107.11989,95.037887 c 0.20629,0.237854 0.53586,0.379767 0.88194,0.379767 0.30392,0 0.55258,0.07937 0.55258,0.176389 0,0.100651 0.5257,0.176389 1.22431,0.176389 0.67337,0 1.27337,-0.07938 1.33333,-0.176389 0.06,-0.09701 0.22248,-0.176389 0.36117,-0.176389 0.31927,0 0.96174,-0.542008 0.96174,-0.811353 0,-0.112081 -0.11906,-0.302597 -0.26458,-0.423369 -0.16145,-0.133992 -0.26458,-0.520566 -0.26458,-0.991736 0,-0.424684 -0.0794,-0.772153 -0.17639,-0.772153 -0.097,0 -0.17639,-0.146448 -0.17639,-0.325439 0,-0.418659 -0.72376,-1.092772 -0.83422,-0.776991 -0.092,0.263124 -0.68684,0.294296 -0.84147,0.0441 -0.06,-0.09701 -0.4484,-0.176389 -0.8632,-0.176389 -1.0697,0 -1.69444,0.706861 -1.69444,1.917153 0,0.550924 -0.0955,0.941097 -0.26459,1.081458 -0.34203,0.283861 -0.33356,0.395658 0.0648,0.854955 z"
         id="path1146" />
      <path
         style="fill:#000000;fill-opacity:1;stroke-width:1;stroke-miterlimit:4;stroke-dasharray:none;stroke:none"
         d="m 106.55533,102.53201 c 0.0647,0.0647 0.49883,0.11759 0.96478,0.11759 0.52022,0 1.08958,0.13615 1.47527,0.35278 0.41524,0.23322 0.95505,0.35277 1.59287,0.35277 0.8374,0 0.96477,-0.0452 0.96477,-0.34236 0,-0.1883 0.0794,-0.39143 0.17639,-0.45139 0.10379,-0.0642 0.17639,-1.10984 0.17639,-2.54071 0,-2.926458 -0.0509,-3.015536 -1.72327,-3.015536 -0.59298,0 -1.12719,-0.07937 -1.18715,-0.176389 -0.06,-0.09701 -0.32688,-0.176389 -0.59317,-0.176389 -0.48717,0 -1.2686,0.690476 -1.74398,1.54101 -0.2322,0.415439 -0.32009,4.121424 -0.1029,4.338624 z"
         id="path1144" />
      <path
         style="fill:#000000;fill-opacity:1;stroke-width:1;stroke-miterlimit:4;stroke-dasharray:none;stroke:none"
         d="m 101.7444,95.108974 c 0.13325,0.175542 0.46685,0.30868 0.77344,0.30868 0.29651,0 0.57549,0.09922 0.61996,0.220486 0.0647,0.176389 0.12759,0.176389 0.31456,0 0.12854,-0.121267 0.44366,-0.220486 0.70027,-0.220486 0.45891,0 1.05039,-0.467452 1.05039,-0.830139 0,-0.101748 0.12218,-0.286399 0.27151,-0.410332 0.21009,-0.17436 0.25997,-0.528387 0.22049,-1.565001 l -0.051,-1.339667 -1.05141,-0.05401 c -0.57827,-0.02971 -1.21327,0.02652 -1.41111,0.124954 -0.19784,0.09843 -0.55814,0.202108 -0.80067,0.230397 -0.30305,0.03535 -0.4586,0.175564 -0.49734,0.44831 -0.031,0.218281 -0.13022,0.396875 -0.22049,0.396875 -0.25728,0 -0.18654,2.336931 0.0814,2.689931 z"
         id="path1142" />
      <path
         style="fill:#000000;fill-opacity:1;stroke-width:1;stroke-miterlimit:4;stroke-dasharray:none;stroke:none"
         d="m 101.7706,101.90736 c 0.17596,0.15521 0.69421,0.21147 1.62489,0.17639 l 1.36653,-0.0515 0.0553,-0.57327 c 0.0304,-0.31529 0.12962,-0.57326 0.22049,-0.57326 0.0909,0 0.16521,-0.74138 0.16521,-1.648358 0,-2.08667 -0.12275,-2.2322 -1.88273,-2.2322 -1.74898,0 -1.82322,0.108818 -1.81473,2.659722 0.005,1.541446 0.0674,2.068106 0.26507,2.242476 z"
         id="path1140" />
      <path
         style="fill:#000000;fill-opacity:1;stroke-width:1;stroke-miterlimit:4;stroke-dasharray:none;stroke:none"
         d="m 96.878266,95.296459 c 0.52945,0.50725 1.39007,0.635293 1.76305,0.262306 0.16463,-0.164629 0.21167,-0.164629 0.21167,0 0,0.116417 0.19844,0.211667 0.44097,0.211667 0.31507,0 0.44097,-0.09533 0.44097,-0.333906 0,-0.183649 0.12206,-0.380744 0.271254,-0.437991 0.22237,-0.08533 0.26209,-0.398583 0.22048,-1.738664 l -0.0507,-1.634578 -1.634584,-0.05076 c -1.44177,-0.04477 -1.64615,-0.01356 -1.73267,0.264584 -0.054,0.173436 -0.17167,0.453167 -0.2616,0.621626 -0.0899,0.168458 -0.16351,0.768764 -0.16351,1.334013 0,0.895763 0.0635,1.088586 0.49472,1.501699 z"
         id="path1136" />
      <path
         style="fill:#000000;fill-opacity:1;stroke-width:1;stroke-miterlimit:4;stroke-dasharray:none;stroke:none"
         d="m 96.207156,99.210015 c 0.097,0.05996 0.17639,0.739331 0.17639,1.509715 v 1.4007 h 1.38377 c 1.90812,0 1.96761,-0.0791 1.96761,-2.615623 v -1.970486 h -1.08854 c -0.75625,0 -1.185,-0.0873 -1.40454,-0.285976 -0.39042,-0.353323 -0.8583,-0.200447 -0.8583,0.280441 0,0.197072 -0.0794,0.358313 -0.17639,0.358313 -0.097,0 -0.17639,0.273127 -0.17639,0.60695 0,0.333823 0.0794,0.656008 0.17639,0.715966 z"
         id="path1134" />
      <path
         style="fill:#000000;fill-opacity:1;stroke-width:1;stroke-miterlimit:4;stroke-dasharray:none;stroke:none"
         d="m 91.385856,95.300061 c 0.0647,0.06468 0.70299,0.117593 1.41849,0.117593 1.86221,0 2.0217,-0.181515 1.95482,-2.224699 l -0.0513,-1.567662 -1.12874,-0.0532 c -1.06661,-0.05027 -1.16128,-0.02166 -1.71979,0.519672 -0.56176,0.544473 -0.59105,0.635264 -0.59105,1.831784 0,0.692404 0.0529,1.311834 0.11759,1.376509 z"
         id="path1132" />
      <path
         style="fill:#000000;fill-opacity:1;stroke-width:1;stroke-miterlimit:4;stroke-dasharray:none;stroke:none"
         d="m 91.068526,101.29187 c 0.44703,0.45504 0.57599,0.49011 1.62151,0.44097 1.02455,-0.0481 1.14139,-0.0923 1.19223,-0.45025 0.031,-0.21829 0.13022,-0.39688 0.22049,-0.39688 0.0903,0 0.16412,-0.34747 0.16412,-0.77215 0,-0.471173 0.10313,-0.857747 0.26458,-0.991739 0.40857,-0.339087 0.3299,-1.288258 -0.14366,-1.733143 -0.33846,-0.317969 -0.61818,-0.383524 -1.63649,-0.383524 -1.0123,0 -1.28166,0.06238 -1.53204,0.354794 -0.16708,0.195137 -0.30378,0.468265 -0.30378,0.606951 0,0.138687 -0.0794,0.301214 -0.17639,0.361172 -0.097,0.05996 -0.17185,0.640112 -0.16631,1.28923 0.009,1.043509 0.0663,1.237479 0.49574,1.674569 z"
         id="path1130" />
      <path
         style="fill:#000000;fill-opacity:1;stroke-width:1;stroke-miterlimit:4;stroke-dasharray:none;stroke:none"
         d="m 85.769996,96.007677 c 0.40207,0.363864 1.15025,0.378054 1.44132,0.02734 0.12323,-0.148477 0.50773,-0.264583 0.87621,-0.264583 0.76633,0 1.24046,-0.4227 1.24046,-1.105909 0,-0.253425 0.0794,-0.509827 0.17639,-0.569785 0.31401,-0.194074 0.17655,-0.697359 -0.28164,-1.031156 -0.41029,-0.2989 -0.47245,-0.302516 -0.758,-0.0441 -0.17108,0.154827 -0.4989,0.281503 -0.72849,0.281503 -0.45568,0 -1.40687,0.803179 -1.40687,1.18795 0,0.132003 -0.19844,0.423911 -0.44097,0.648685 -0.52699,0.488394 -0.52843,0.498986 -0.11841,0.870055 z"
         id="path1128" />
      <path
         style="fill:#000000;fill-opacity:1;stroke-width:1;stroke-miterlimit:4;stroke-dasharray:none;stroke:none"
         d="m 85.888406,99.474599 c 0.24253,0.22785 0.44097,0.507195 0.44097,0.620771 0,0.4604 0.65012,0.79034 1.55729,0.79034 0.77473,0 0.91215,-0.0499 0.91215,-0.33118 0,-0.18215 0.11907,-0.42999 0.26459,-0.55076 0.14958,-0.124146 0.26458,-0.508673 0.26458,-0.884676 0,-0.42847 -0.0941,-0.701206 -0.26458,-0.766616 -0.14552,-0.05584 -0.26459,-0.26277 -0.26459,-0.459844 0,-0.322519 -0.11182,-0.358313 -1.11942,-0.358313 -1.44477,0 -2.23197,0.36698 -2.23197,1.040506 0,0.289801 0.17775,0.652487 0.44098,0.899772 z"
         id="path1126" />
      <path
         style="fill:#000000;fill-opacity:1;stroke-width:1;stroke-miterlimit:4;stroke-dasharray:none;stroke:none"
         d="m 67.249167,125.8174 c 0.17741,0.16056 0.42628,0.29192 0.553039,0.29192 0.12675,0 0.41437,0.19844 0.63914,0.44097 0.22478,0.24254 0.52685,0.44098 0.67128,0.44098 0.14443,0 0.31165,0.0794 0.37161,0.17638 0.06,0.097 0.25459,0.17639 0.43251,0.17639 0.17792,0 0.36918,0.11907 0.42503,0.26459 0.0558,0.14552 0.20751,0.26458 0.33704,0.26458 0.31374,0 1.36306,-1.0945 1.36306,-1.42174 0,-0.14213 0.19844,-0.40744 0.44097,-0.58957 0.3637,-0.27313 0.44097,-0.48032 0.44097,-1.18232 0,-0.70569 -0.0894,-0.94263 -0.52322,-1.3864 -0.28777,-0.29439 -0.64027,-0.53525 -0.78334,-0.53525 -0.14306,0 -0.30607,-0.0743 -0.36223,-0.16522 -0.16554,-0.26784 -1.17455,-0.71672 -1.61109,-0.71672 -0.22191,0 -0.45252,-0.0794 -0.51248,-0.17639 -0.15991,-0.25875 -0.78039,-0.21495 -1.07093,0.0756 -0.13859,0.13859 -0.25198,0.46451 -0.25198,0.72427 0,0.29367 -0.166769,0.60346 -0.440979,0.81915 -0.37075,0.29163 -0.44097,0.49496 -0.44097,1.27686 0,0.67696 0.0878,1.00943 0.32257,1.22192 z"
         id="path1122" />
      <path
         style="fill:#000000;fill-opacity:1;stroke-width:1;stroke-miterlimit:4;stroke-dasharray:none;stroke:none"
         d="m 63.906377,132.8121 c 0.18215,0 0.42999,0.11906 0.55077,0.26458 0.12077,0.14552 0.36861,0.26459 0.55076,0.26459 0.18215,0 0.33118,0.0794 0.33118,0.17638 0,0.097 0.14491,0.17639 0.32203,0.17639 0.17713,0 0.50846,0.19844 0.73631,0.44098 0.22785,0.24253 0.58331,0.44097 0.7899,0.44097 0.51746,0 1.503159,-1.05526 1.503159,-1.60925 0,-0.24759 0.19613,-0.63018 0.44097,-0.8602 0.32134,-0.30188 0.44097,-0.59735 0.44097,-1.08908 0,-0.55721 0.0615,-0.67481 0.35278,-0.67481 0.66384,0 0.41379,-0.74554 -0.57881,-1.72581 -0.82675,-0.81649 -1.01532,-0.92002 -1.675689,-0.92002 -0.40926,0 -0.74411,-0.0794 -0.74411,-0.17639 0,-0.097 -0.10687,-0.17639 -0.23748,-0.17639 -0.40489,0 -1.35003,0.54322 -1.35003,0.77593 0,0.1215 -0.19844,0.40733 -0.44097,0.63518 -0.25533,0.23987 -0.44097,0.61116 -0.44097,0.88195 0,0.27078 -0.18565,0.64208 -0.44098,0.88194 -0.36331,0.34132 -0.44097,0.57971 -0.44097,1.35367 0,0.80138 0.0487,0.93939 0.33118,0.93939 z"
         id="path1118" />
      <path
         style="fill:#000000;fill-opacity:1;stroke-width:1;stroke-miterlimit:4;stroke-dasharray:none;stroke:none"
         d="m 61.781097,122.46601 c 0.17742,0.16056 0.43966,0.29192 0.58276,0.29192 0.14311,0 0.52946,0.27781 0.85856,0.61736 0.46857,0.48344 0.738,0.61736 1.24199,0.61736 0.62328,0 1.22746,-0.4086 1.22746,-0.83013 0,-0.10175 0.11907,-0.28382 0.26459,-0.40459 0.41301,-0.34277 0.36884,-2.67319 -0.058,-3.05947 -0.17742,-0.16055 -0.44412,-0.29192 -0.59267,-0.29192 -0.14854,0 -0.4191,-0.19843 -0.60124,-0.44097 -0.26154,-0.34827 -0.48748,-0.44097 -1.07476,-0.44097 -0.67645,0 -0.77007,0.0558 -1.03657,0.61736 -0.16113,0.33955 -0.36329,0.61736 -0.44925,0.61736 -0.086,0 -0.15629,0.16124 -0.15629,0.35831 0,0.19708 -0.11906,0.40401 -0.26458,0.45985 -0.39489,0.15153 -0.35298,1.51662 0.058,1.88853 z"
         id="path1116" />
      <path
         style="fill:#000000;fill-opacity:1;stroke-width:1;stroke-miterlimit:4;stroke-dasharray:none;stroke:none"
         d="m 59.311657,140.1049 c 0.17741,0.16056 0.44971,0.29192 0.60509,0.29192 0.1587,0 0.30723,0.17395 0.33889,0.39688 0.043,0.30261 0.19037,0.40984 0.62058,0.45147 0.37989,0.0368 0.73827,0.25285 1.09704,0.66146 0.29306,0.33377 0.64202,0.60686 0.77546,0.60686 0.27215,0 0.82648,-0.55065 0.82648,-0.82099 0,-0.0967 0.19844,-0.36227 0.44097,-0.59012 0.24254,-0.22785 0.44098,-0.54535 0.44098,-0.70556 0,-0.16021 0.19843,-0.47771 0.44097,-0.70555 0.24253,-0.22785 0.44097,-0.50393 0.44097,-0.61351 0,-0.10958 0.27781,-0.4685 0.61737,-0.79761 0.33955,-0.3291 0.61736,-0.74155 0.61736,-0.91654 0,-0.175 0.0794,-0.31818 0.17639,-0.31818 0.097,0 0.17639,-0.26551 0.17639,-0.59002 0,-0.69668 -0.44881,-1.17387 -1.10405,-1.17387 -0.34163,0 -0.47333,-0.10144 -0.51529,-0.39687 -0.0481,-0.33868 -0.17922,-0.40476 -0.89421,-0.45064 -0.46082,-0.0296 -0.83785,-0.12879 -0.83785,-0.22049 0,-0.0917 -0.23526,-0.16672 -0.52279,-0.16672 -0.78576,0 -1.9363,1.27383 -1.94224,2.15035 -0.002,0.35808 -0.0788,0.697 -0.16963,0.75316 -0.21258,0.13139 -0.71673,1.13925 -0.71673,1.43285 0,0.12387 -0.17859,0.25058 -0.39687,0.28158 -0.25505,0.0362 -0.41702,0.19819 -0.45324,0.45324 -0.031,0.21828 -0.13022,0.39688 -0.22049,0.39688 -0.26366,0 -0.18986,0.2748 0.15845,0.59002 z"
         id="path1114" />
      <path
         style="fill:#000000;fill-opacity:1;stroke-width:1;stroke-miterlimit:4;stroke-dasharray:none;stroke:none"
         d="m 57.342787,129.34312 c 0.0647,0.0647 0.26312,0.11759 0.44098,0.11759 0.17786,0 0.32338,0.0794 0.32338,0.17639 0,0.097 0.2284,0.17639 0.50757,0.17639 0.27916,0 0.60638,0.11906 0.72715,0.26458 0.12077,0.14552 0.34977,0.26458 0.5089,0.26458 0.15912,0 0.43833,0.19844 0.62047,0.44098 0.18213,0.24253 0.42526,0.44097 0.54028,0.44097 0.36563,0 0.97618,-0.79928 0.97618,-1.27792 0,-0.34423 0.10081,-0.47575 0.39688,-0.5178 0.25505,-0.0362 0.41701,-0.19819 0.45324,-0.45324 0.031,-0.21828 0.13022,-0.39687 0.22048,-0.39687 0.0903,0 0.16412,-0.15407 0.16412,-0.34237 0,-0.1883 0.0794,-0.39143 0.17639,-0.45138 0.097,-0.06 0.17639,-0.25459 0.17639,-0.43252 0,-0.17792 0.11906,-0.36918 0.26459,-0.42502 0.58115,-0.22301 0.0666,-1.7001 -0.59228,-1.7001 -0.23246,0 -1.24199,-0.53403 -1.35491,-0.71673 -0.0562,-0.0909 -0.4943,-0.16522 -0.97364,-0.16522 -0.88901,0 -1.57709,0.40986 -1.57709,0.93939 0,0.12861 -0.19844,0.42026 -0.44097,0.64811 -0.25689,0.24133 -0.44098,0.61093 -0.44098,0.88536 0,0.25909 -0.15875,0.61474 -0.35277,0.79034 -0.19403,0.17559 -0.35278,0.4163 -0.35278,0.5349 0,0.11861 -0.11906,0.31446 -0.26458,0.43524 -0.27916,0.23168 -0.34376,0.56758 -0.147,0.76435 z"
         id="path1112" />
      <path
         id="path1106"
         style="fill:#000000;fill-opacity:1;stroke-width:1;stroke-miterlimit:4;stroke-dasharray:none;stroke:none"
         d="m 56.431417,80.071821 c 0.25101,0.23581 0.44097,0.61177 0.44097,0.87273 0,0.33746 0.36183,0.81816 1.37092,1.82134 0.754,0.74958 1.4717,1.36287 1.59488,1.36287 0.12317,0 0.39435,0.15875 0.60262,0.35278 0.31165,0.29036 0.62247,0.35278 1.75651,0.35278 1.24371,0 1.37785,-0.0331 1.37785,-0.34051 0,-0.21883 0.14183,-0.36065 0.39688,-0.39687 0.25115,-0.0357 0.41705,-0.19811 0.45182,-0.4424 0.0342,-0.24049 0.20048,-0.40674 0.44097,-0.44097 0.24049,-0.0342 0.40674,-0.20048 0.44097,-0.44097 0.0341,-0.23974 0.20055,-0.40685 0.43918,-0.44098 0.21676,-0.031 0.41336,-0.2076 0.45106,-0.40519 0.0368,-0.19263 0.21617,-0.47976 0.39868,-0.63805 0.18251,-0.15829 0.33184,-0.48705 0.33184,-0.73058 0,-0.24353 0.11906,-0.5416 0.26458,-0.66237 0.14552,-0.12077 0.26459,-0.48875 0.26459,-0.81774 0,-0.32899 0.0985,-0.75583 0.21882,-0.94854 0.174159,-0.27888 0.174159,-0.42189 0,-0.70077 -0.12035,-0.19271 -0.21882,-0.61955 -0.21882,-0.94854 0,-0.32899 -0.11907,-0.69697 -0.26459,-0.81774 -0.14552,-0.12077 -0.26458,-0.42515 -0.26458,-0.67638 0,-0.51496 -1.30105,-1.96946 -1.76168,-1.96946 -0.15242,0 -0.39154,-0.15875 -0.53138,-0.35277 -0.13985,-0.19403 -0.38166,-0.35278 -0.53736,-0.35278 -0.1557,0 -0.46952,-0.19844 -0.69737,-0.44097 -0.34131,-0.36331 -0.57971,-0.44098 -1.35366,-0.44098 -0.51667,0 -0.93939,0.0794 -0.93939,0.17639 0,0.097 -0.15407,0.17639 -0.34237,0.17639 -0.1883,0 -0.39445,0.0843 -0.45811,0.18727 -0.0637,0.103 -0.30646,0.25978 -0.53957,0.34841 -0.23311,0.0886 -0.42384,0.27635 -0.42384,0.41716 0,0.14081 -0.11862,0.28168 -0.26361,0.31305 -0.14498,0.0314 -0.89904,0.68562 -1.67569,1.45389 l -1.41209,1.39687 v 1.87968 c 0,1.77693 0.0241,1.90232 0.44097,2.29395 z m 3.35139,-2.46944 c 0.24254,-0.22785 0.44097,-0.55919 0.44097,-0.73631 0,-0.28027 0.15584,-0.32203 1.20172,-0.32203 1.0864,0 1.24721,0.0475 1.6757,0.49472 0.49397,0.5156 0.62653,1.34096 0.31046,1.93302 -0.0899,0.16846 -0.2065,0.4452 -0.25905,0.61497 -0.0629,0.20332 -0.27449,0.30868 -0.61983,0.30868 -0.28836,0 -0.57334,0.0794 -0.6333,0.17639 -0.18203,0.29452 -0.79375,0.20327 -0.79375,-0.1184 0,-0.36544 -0.50186,-0.93993 -0.82109,-0.93993 -0.28521,0 -0.9075,-0.54116 -0.9281,-0.8071 -0.008,-0.10436 0.18374,-0.37616 0.42627,-0.60401 z" />
      <path
         style="fill:#000000;fill-opacity:1;stroke-width:1;stroke-miterlimit:4;stroke-dasharray:none;stroke:none"
         d="m 55.532337,119.75281 c 0.23311,0.0886 0.47592,0.24541 0.53958,0.34841 0.0637,0.103 0.2698,0.18727 0.45811,0.18727 0.22477,0 0.34236,0.12117 0.34236,0.35278 0,0.31917 0.1176,0.35277 1.23473,0.35277 0.90778,0 1.23472,-0.0619 1.23472,-0.23383 0,-0.12861 0.19414,-0.41622 0.43142,-0.63914 0.23728,-0.22291 0.45556,-0.65347 0.48507,-0.95679 0.0406,-0.41733 0.15019,-0.5652 0.45052,-0.60785 0.5701,-0.081 0.4965,-0.57163 -0.18478,-1.23195 -0.43799,-0.42451 -0.74041,-0.56377 -1.22432,-0.56377 -0.35345,0 -0.6917,-0.0794 -0.75166,-0.17639 -0.06,-0.097 -0.62223,-0.17639 -1.2495,-0.17639 -1.02016,0 -1.1565,0.0419 -1.29226,0.39688 -0.0835,0.21828 -0.31964,0.54808 -0.5248,0.73289 -0.2827,0.25466 -0.37302,0.544 -0.37302,1.19499 0,0.74468 0.0564,0.88042 0.42383,1.02012 z"
         id="path1104" />
      <path
         style="fill:#000000;fill-opacity:1;stroke-width:1;stroke-miterlimit:4;stroke-dasharray:none;stroke:none"
         d="m 54.579337,44.176677 c 0.097,0.06 0.17639,0.69496 0.17639,1.41111 0,0.71616 0.0794,1.35116 0.17639,1.41111 0.097,0.06 0.17639,0.61055 0.17639,1.22354 0,0.7755 0.0805,1.18131 0.26458,1.3341 0.14552,0.12077 0.26458,0.36862 0.26458,0.55077 0,0.18215 0.0794,0.33118 0.17639,0.33118 0.097,0 0.17639,0.22429 0.17639,0.49842 0,0.30358 0.17238,0.66036 0.44097,0.91269 0.24254,0.22785 0.44097,0.54007 0.44097,0.69383 0,0.15376 0.63047,0.89399 1.40104,1.64495 l 1.40104,1.36539 h 1.39959 c 1.58817,0 1.85251,-0.16353 1.76349,-1.09091 -0.0433,-0.45104 -0.1469,-0.59768 -0.453,-0.64115 -0.23952,-0.034 -0.39688,-0.17919 -0.39688,-0.36613 0,-0.17037 -0.19844,-0.49619 -0.44097,-0.72404 -0.24254,-0.22785 -0.44097,-0.50566 -0.44097,-0.61736 0,-0.1117 -0.19844,-0.38951 -0.44097,-0.61736 -0.33857,-0.31806 -0.44098,-0.59147 -0.44098,-1.17727 0,-0.41966 -0.0794,-0.76301 -0.17639,-0.76301 -0.097,0 -0.17638,-0.15406 -0.17638,-0.34236 0,-0.18831 -0.0743,-0.38832 -0.16522,-0.44448 -0.21693,-0.13407 -0.71673,-1.14181 -0.71673,-1.44512 0,-0.13061 -0.0794,-0.23748 -0.17639,-0.23748 -0.097,0 -0.17639,-0.22841 -0.17639,-0.50757 0,-0.27916 -0.11906,-0.60638 -0.26458,-0.72715 -0.14552,-0.12078 -0.26458,-0.36862 -0.26458,-0.55077 0,-0.18215 -0.0794,-0.33118 -0.17639,-0.33118 -0.097,0 -0.17639,-0.0794 -0.17639,-0.17639 0,-0.097 0.27781,-0.17639 0.61736,-0.17639 0.39986,0 0.61736,0.0837 0.61736,0.23749 0,0.30331 0.4998,1.31105 0.71673,1.44511 0.0909,0.0562 0.16522,0.25618 0.16522,0.44448 0,0.1883 0.0794,0.34237 0.17638,0.34237 0.097,0 0.17639,0.10687 0.17639,0.23748 0,0.30331 0.4998,1.31105 0.71673,1.44512 0.0909,0.0562 0.16522,0.25617 0.16522,0.44448 0,0.22653 0.12122,0.34236 0.35831,0.34236 0.19707,0 0.40207,0.13891 0.45555,0.30868 0.0535,0.16978 0.24943,0.61384 0.43544,0.98681 0.18601,0.37297 0.3382,0.79218 0.3382,0.93158 0,0.1394 0.11906,0.29914 0.26458,0.35498 0.14552,0.0558 0.26458,0.2471 0.26458,0.42503 0,0.17792 0.0794,0.37255 0.17639,0.43251 0.097,0.06 0.17639,0.21668 0.17639,0.34828 0,0.13159 0.45641,0.68278 1.01424,1.22485 l 1.01423,0.98558 1.49932,-0.0446 1.499309,-0.0446 0.0513,-1.56566 c 0.0354,-1.08134 -0.0191,-1.65427 -0.17639,-1.85209 -0.42704,-0.53722 -0.66864,-1.07488 -0.66864,-1.488 0,-0.22694 -0.198439,-0.59904 -0.440979,-0.82689 -0.32133,-0.30188 -0.44097,-0.59735 -0.44097,-1.08908 0,-0.4871 -0.0748,-0.67481 -0.26895,-0.67481 -0.14792,0 -0.34439,-0.19843 -0.4366,-0.44097 -0.0922,-0.24253 -0.29711,-0.44097 -0.45532,-0.44097 -0.15823,0 -0.44376,-0.19844 -0.63454,-0.44097 -0.21993,-0.2796 -0.52459,-0.44098 -0.83249,-0.44098 -0.28992,0 -0.65256,-0.1777 -0.89989,-0.44097 -0.22785,-0.24253 -0.54034,-0.44097 -0.69443,-0.44097 -0.15409,0 -0.42919,-0.19844 -0.61132,-0.44097 -0.18214,-0.24254 -0.43669,-0.44097 -0.56567,-0.44097 -0.12898,0 -0.51715,-0.15875 -0.8626,-0.35278 -0.34546,-0.19403 -0.74724,-0.35278 -0.89285,-0.35278 -0.14561,0 -0.31044,-0.11906 -0.36628,-0.26458 -0.0559,-0.14552 -0.24711,-0.26459 -0.42503,-0.26459 -0.17792,0 -0.37255,-0.0794 -0.43251,-0.17639 -0.06,-0.097 -0.23181,-0.17638 -0.3819,-0.17638 -0.15009,0 -0.42898,-0.19844 -0.61975,-0.44098 -0.27668,-0.35174 -0.5049,-0.44097 -1.12782,-0.44097 -0.42952,0 -0.78095,-0.0794 -0.78095,-0.17639 0,-0.097 -0.27781,-0.17639 -0.61736,-0.17639 h -0.61736 v 1.22431 c 0,0.67338 0.0794,1.27337 0.17639,1.33333 z"
         id="path1102" />
      <path
         style="fill:#000000;fill-opacity:1;stroke-width:1;stroke-miterlimit:4;stroke-dasharray:none;stroke:none"
         d="m 52.608847,136.75351 c 0.17742,0.16056 0.40171,0.29192 0.49842,0.29192 0.0967,0 0.36227,0.19844 0.59012,0.44097 0.22785,0.24254 0.52282,0.44098 0.65549,0.44098 0.13266,0 0.41161,0.15875 0.61987,0.35277 0.20827,0.19403 0.55242,0.35278 0.76478,0.35278 0.21236,0 0.48659,0.12107 0.60939,0.26903 0.20011,0.24112 0.25412,0.24112 0.52056,0 0.1635,-0.14796 0.42993,-0.26903 0.59207,-0.26903 0.16781,0 0.29479,-0.13871 0.29479,-0.32203 0,-0.17712 0.19844,-0.50845 0.44097,-0.7363 0.25149,-0.23627 0.44097,-0.61171 0.44097,-0.87375 0,-0.25714 0.15536,-0.57146 0.35278,-0.71375 0.20045,-0.14448 0.35278,-0.45662 0.35278,-0.7229 0,-0.25774 0.11906,-0.56744 0.26458,-0.68821 0.14751,-0.12242 0.26459,-0.50692 0.26459,-0.86894 0,-0.80762 -0.89461,-1.7769 -1.64,-1.7769 -0.26217,0 -0.47667,-0.0794 -0.47667,-0.17638 0,-0.097 -0.14903,-0.17639 -0.33118,-0.17639 -0.18215,0 -0.43326,-0.123 -0.55801,-0.27332 -0.15336,-0.18478 -0.46033,-0.2562 -0.94764,-0.22049 -0.58238,0.0427 -0.73117,0.12551 -0.77476,0.43129 -0.0297,0.20815 -0.20827,0.51811 -0.39688,0.6888 -0.1886,0.17068 -0.34292,0.40326 -0.34292,0.51684 0,0.11357 -0.19844,0.39292 -0.44097,0.62077 -0.24254,0.22784 -0.44097,0.55366 -0.44097,0.72403 0,0.18694 -0.15736,0.33211 -0.39688,0.36613 -0.25505,0.0362 -0.41702,0.19819 -0.45324,0.45324 -0.031,0.21828 -0.13022,0.39687 -0.22049,0.39687 -0.30131,0 -0.17538,1.16985 0.15845,1.47197 z"
         id="path1100" />
      <path
         style="fill:#000000;fill-opacity:1;stroke-width:1;stroke-miterlimit:4;stroke-dasharray:none;stroke:none"
         d="m 51.726907,126.69934 c 0.17741,0.16056 0.52076,0.29193 0.763,0.29193 0.24224,0 0.62686,0.19843 0.85471,0.44097 0.22785,0.24253 0.55918,0.44097 0.7363,0.44097 0.17712,0 0.32203,0.0794 0.32203,0.17639 0,0.097 0.10687,0.17639 0.23748,0.17639 0.41245,0 1.35002,-0.54522 1.35002,-0.78507 0,-0.12654 0.11906,-0.32888 0.26458,-0.44965 0.14552,-0.12078 0.26459,-0.36862 0.26459,-0.55077 0,-0.18215 0.0794,-0.33118 0.17639,-0.33118 0.097,0 0.17638,-0.14491 0.17638,-0.32203 0,-0.17712 0.19844,-0.50845 0.44098,-0.7363 0.25322,-0.23789 0.44097,-0.61146 0.44097,-0.87742 0,-0.25472 0.0873,-0.55045 0.19403,-0.65717 0.14111,-0.14111 -0.003,-0.39126 -0.52917,-0.91722 -0.60199,-0.60199 -0.8397,-0.72319 -1.41834,-0.72319 -0.38233,0 -0.7442,-0.0794 -0.80416,-0.17639 -0.06,-0.097 -0.3456,-0.17639 -0.63476,-0.17639 -0.68152,0 -1.92288,1.21233 -1.92288,1.87792 0,0.27264 -0.17531,0.59046 -0.44097,0.79943 -0.24254,0.19078 -0.44097,0.49985 -0.44097,0.68684 0,0.18699 -0.0794,0.33998 -0.17639,0.33998 -0.31061,0 -0.1951,1.16311 0.14618,1.47196 z"
         id="path1098" />
      <path
         style="fill:#000000;fill-opacity:1;stroke-width:1;stroke-miterlimit:4;stroke-dasharray:none;stroke:none"
         d="m 47.640597,109.13189 c 0.0489,0.12127 0.2288,0.22049 0.39971,0.22049 0.17091,0 0.45441,0.15875 0.63,0.35277 0.17559,0.19403 0.53125,0.35278 0.79034,0.35278 0.27442,0 0.64403,0.18409 0.88536,0.44097 0.34131,0.36332 0.57971,0.44098 1.35366,0.44098 0.9133,0 0.93939,-0.0139 0.93939,-0.49842 0,-0.30358 0.17238,-0.66036 0.44097,-0.91269 0.319,-0.29969 0.44098,-0.59805 0.44098,-1.07868 0,-0.36541 0.0794,-0.71345 0.17638,-0.77341 0.097,-0.06 0.17639,-0.26557 0.17639,-0.45692 0,-0.19134 0.11907,-0.39359 0.26459,-0.44943 0.17887,-0.0686 0.26458,-0.34919 0.26458,-0.866 0,-0.42046 0.0794,-0.81352 0.17639,-0.87348 0.097,-0.06 0.17639,-0.49149 0.17639,-0.95895 0,-0.54032 0.0964,-0.92993 0.26458,-1.06952 0.16145,-0.134 0.26458,-0.52057 0.26458,-0.99174 0,-0.42468 0.0794,-0.77215 0.17639,-0.77215 0.097,0 0.17639,-0.15407 0.17639,-0.34237 0,-0.1883 0.0794,-0.39142 0.17639,-0.45138 0.097,-0.06 0.17639,-0.34495 0.17639,-0.633309 0,-0.303322 0.11151,-0.567085 0.26458,-0.625823 0.14552,-0.05584 0.26459,-0.247103 0.26459,-0.425026 0,-0.177924 0.0794,-0.372553 0.17639,-0.432511 0.097,-0.05996 0.17638,-0.412112 0.17638,-0.782562 0,-0.383524 0.11393,-0.768099 0.26459,-0.893133 0.14552,-0.120771 0.26458,-0.368615 0.26458,-0.550763 0,-0.18215 0.0794,-0.331181 0.17639,-0.331181 0.10731,0 0.17639,-0.79028 0.17639,-2.018062 0,-1.155107 -0.0754,-2.064679 -0.17639,-2.127077 -0.0982,-0.0607 -0.17639,-0.876577 -0.17639,-1.840895 0,-1.324264 -0.0623,-1.783563 -0.26458,-1.951466 -0.17516,-0.145371 -0.26459,-0.540161 -0.26459,-1.168121 0,-0.5217 -0.0794,-0.94855 -0.17638,-0.94855 -0.097,0 -0.17639,-0.14903 -0.17639,-0.33118 0,-0.18214 -0.11907,-0.42999 -0.26459,-0.55076 -0.15065,-0.12503 -0.26458,-0.50961 -0.26458,-0.89313 0,-0.37045 -0.0794,-0.72261 -0.17639,-0.78256 -0.097,-0.06 -0.17639,-0.26308 -0.17639,-0.45139 0,-0.1883 -0.0794,-0.34236 -0.17639,-0.34236 -0.097,0 -0.17639,-0.42273 -0.17639,-0.9394 0,-0.77395 -0.0777,-1.01235 -0.44097,-1.35366 -0.42766,-0.40177 -0.44097,-0.48535 -0.44097,-2.76914 0,-2.34956 0.001,-2.35525 0.44097,-2.52253 0.24254,-0.0922 0.44097,-0.27638 0.44097,-0.40926 0,-0.13289 0.15875,-0.38528 0.35278,-0.56088 0.19403,-0.17559 0.35278,-0.4534 0.35278,-0.61736 0,-0.35756 0.54058,-0.88194 0.90918,-0.88194 0.14523,0 0.45047,-0.19844 0.67832,-0.44097 0.22785,-0.24254 0.50566,-0.44098 0.61736,-0.44098 0.1117,0 0.38951,-0.19843 0.61736,-0.44097 0.22785,-0.24253 0.59646,-0.44097 0.81913,-0.44097 0.22268,0 0.6875,-0.15875 1.03296,-0.35278 0.66024,-0.37084 1.93104,-0.47674 2.11666,-0.17639 0.06,0.097 0.41715,0.17639 0.79375,0.17639 0.37661,0 0.73379,0.0794 0.79375,0.17639 0.06,0.097 0.25196,0.17639 0.42668,0.17639 0.17471,0 0.46668,0.19844 0.64881,0.44097 0.18214,0.24254 0.45724,0.44097 0.61133,0.44097 0.1541,0 0.46659,0.19844 0.69444,0.44098 0.22785,0.24253 0.52146,0.44097 0.65247,0.44097 0.13102,0 0.30651,0.17859 0.389989,0.39687 0.0835,0.21829 0.31964,0.54809 0.5248,0.7329 0.29133,0.26243 0.37302,0.54248 0.37302,1.27882 0,0.51854 0.0794,0.9428 0.17639,0.9428 0.097,0 0.17639,0.12014 0.17639,0.26697 0,0.14684 0.0985,0.42465 0.21882,0.61737 0.17416,0.27888 0.17416,0.42188 0,0.70076 -0.12853,0.2058 -0.21882,0.95552 -0.21882,1.81681 0,0.80653 -0.0741,1.54183 -0.1646,1.63399 -0.0905,0.0922 -0.18975,0.48507 -0.22049,0.87313 -0.0452,0.57028 -0.1299,0.71609 -0.44191,0.76049 -0.24049,0.0342 -0.40675,0.20049 -0.44098,0.44098 -0.0348,0.24428 -0.200659,0.40672 -0.451809,0.44239 -0.24574,0.0349 -0.39688,0.17876 -0.39688,0.37775 0,0.19571 -0.17244,0.36467 -0.44097,0.43207 -0.28472,0.0715 -0.44097,0.23449 -0.44097,0.46009 0,0.22763 -0.11869,0.34942 -0.34052,0.34942 -0.21883,0 -0.36066,0.14182 -0.39688,0.39688 -0.0357,0.25114 -0.19811,0.41704 -0.44239,0.45181 -0.23974,0.0341 -0.40685,0.20055 -0.44097,0.43917 -0.0302,0.21133 -0.19981,0.41185 -0.37687,0.44561 -0.42205,0.0805 -2.00844,1.663464 -2.08868,2.08421 -0.0343,0.180102 -0.24023,0.352824 -0.45752,0.383824 -0.29997,0.0428 -0.39507,0.173387 -0.39507,0.542517 0,0.290497 -0.17747,0.652877 -0.44097,0.900423 -0.25533,0.239866 -0.44098,0.61116 -0.44098,0.881945 0,0.270785 -0.18564,0.642078 -0.44097,0.881944 -0.319,0.299685 -0.44097,0.598043 -0.44097,1.078671 0,0.365418 -0.0794,0.713454 -0.17639,0.773413 -0.097,0.05996 -0.17639,0.332736 -0.17639,0.606172 0,0.273438 -0.11906,0.595972 -0.26458,0.716744 -0.17998,0.149372 -0.26459,0.549367 -0.26459,1.250955 0,0.704415 -0.11183,1.230482 -0.35277,1.659462 -0.19403,0.34545 -0.35278,0.814396 -0.35278,1.0421 0,0.227706 -0.11906,0.512823 -0.26458,0.633599 -0.14553,0.12077 -0.26459,0.36861 -0.26459,0.55076 0,0.18215 -0.0794,0.33118 -0.17639,0.33118 -0.097,0 -0.17639,0.43188 -0.17639,0.95973 0,0.52785 -0.0794,1.00878 -0.17638,1.06874 -0.097,0.06 -0.17639,0.41211 -0.17639,0.78256 0,0.38353 -0.11393,0.7681 -0.26459,0.89314 -0.15065,0.12503 -0.26458,0.50961 -0.26458,0.89313 0,0.37045 -0.0794,0.7226 -0.17639,0.78256 -0.097,0.06 -0.17639,0.53118 -0.17639,1.04715 0,0.6187 -0.0901,1.01289 -0.26458,1.15771 -0.14552,0.12077 -0.26458,0.31967 -0.26458,0.442 0,0.12233 -0.15875,0.26393 -0.35278,0.31467 -0.27807,0.0727 -0.35278,0.24059 -0.35278,0.79272 0,0.40746 -0.11068,0.79233 -0.26458,0.92006 -0.14552,0.12077 -0.26459,0.31921 -0.26459,0.44097 0,0.12176 0.11907,0.3202 0.26459,0.44097 0.14552,0.12077 0.26458,0.36862 0.26458,0.55076 0,0.28268 0.13809,0.33119 0.9428,0.33119 0.73634,0 1.01639,-0.0817 1.27882,-0.37302 0.18481,-0.20517 0.51461,-0.44133 0.73289,-0.52481 0.31934,-0.12212 0.39688,-0.28843 0.39688,-0.85129 0,-0.38473 0.0794,-0.74857 0.17639,-0.80852 0.097,-0.06 0.17639,-0.25459 0.17639,-0.43251 0,-0.17793 0.11906,-0.36919 0.26458,-0.42503 0.19481,-0.0747 0.26458,-0.38272 0.26458,-1.16779 0,-0.58645 0.0794,-1.22394 0.17639,-1.41665 0.097,-0.19271 0.25577,-0.50806 0.35278,-0.70077 0.097,-0.19271 0.17639,-0.62459 0.17639,-0.95973 0,-0.33514 0.0744,-0.65529 0.16522,-0.71145 0.26481,-0.16367 0.71672,-1.17245 0.71672,-1.59991 0,-0.21575 0.11907,-0.49109 0.26459,-0.61186 0.14552,-0.12077 0.26458,-0.4433 0.26458,-0.71674 0,-0.27344 0.0794,-0.54622 0.17639,-0.60617 0.097,-0.06 0.17639,-0.408 0.17639,-0.77342 0,-0.480625 0.12197,-0.778983 0.44097,-1.078668 0.2635,-0.247546 0.44097,-0.609926 0.44097,-0.900423 0,-0.369865 0.0949,-0.499634 0.39688,-0.542518 0.30093,-0.04274 0.4099,-0.19048 0.45077,-0.611157 0.0296,-0.305137 0.20823,-0.69447 0.39687,-0.865186 0.18864,-0.170716 0.34298,-0.522379 0.34298,-0.781473 0,-0.274422 0.18409,-0.644026 0.44097,-0.885354 0.24254,-0.22785 0.44098,-0.521462 0.44098,-0.652473 0,-0.131013 0.19843,-0.31365 0.44097,-0.40586 0.31239,-0.118772 0.44097,-0.299756 0.44097,-0.620694 0,-0.24917 0.19844,-0.667042 0.44098,-0.928606 0.24254,-0.261562 0.44098,-0.575597 0.44098,-0.697856 0,-0.122259 0.15875,-0.222289 0.35277,-0.222289 0.22752,0 0.35278,-0.117593 0.35278,-0.331181 0,-0.182148 0.11906,-0.429992 0.26458,-0.550763 0.14552,-0.120772 0.26459,-0.339852 0.26459,-0.486846 0,-0.146995 0.277809,-0.504564 0.617359,-0.794598 0.33955,-0.290037 0.61736,-0.670465 0.61736,-0.845401 0,-0.195553 0.15287,-0.339773 0.39687,-0.374433 0.25506,-0.0362 0.41702,-0.19818 0.45324,-0.45324 0.0362,-0.25505 0.17805,-0.39687 0.39688,-0.39687 0.21947,0 0.34051,-0.12171 0.34051,-0.34237 0,-0.1883 0.0744,-0.38832 0.16522,-0.44448 0.26784,-0.16553 0.71672,-1.17455 0.71672,-1.61109 0,-0.22191 0.0744,-0.44941 0.16522,-0.50557 0.26785,-0.16554 0.71673,-1.17456 0.71673,-1.6111 0,-0.2219 0.0794,-0.45252 0.17639,-0.51247 0.097,-0.06 0.17639,-0.25459 0.17639,-0.43252 0,-0.17792 0.11906,-0.36918 0.26458,-0.42502 0.21698,-0.0833 0.26458,-0.52705 0.26458,-2.46672 0,-1.8872 -0.0535,-2.40956 -0.26458,-2.58477 -0.14552,-0.12077 -0.26458,-0.36862 -0.26458,-0.55077 0,-0.18215 -0.0794,-0.33118 -0.17639,-0.33118 -0.097,0 -0.17639,-0.3053 -0.17639,-0.67845 0,-0.66311 -0.38739,-1.68255 -0.71673,-1.88609 -0.0909,-0.0562 -0.16522,-0.23734 -0.16522,-0.40261 0,-0.16528 -0.19843,-0.44952 -0.44097,-0.63166 -0.28659,-0.21522 -0.44097,-0.50412 -0.44097,-0.82521 0,-0.27172 -0.0794,-0.5431 -0.17639,-0.60306 -0.097,-0.06 -0.17639,-0.2295 -0.17639,-0.37676 0,-0.33663 -0.94723,-1.29893 -1.2786,-1.29893 -0.13607,0 -0.43383,-0.19844 -0.66168,-0.44098 -0.299679,-0.319 -0.598039,-0.44097 -1.078669,-0.44097 -0.36541,0 -0.71345,-0.0794 -0.77341,-0.17639 -0.06,-0.097 -0.25459,-0.17639 -0.43252,-0.17639 -0.17792,0 -0.36918,-0.11906 -0.42503,-0.26458 -0.0851,-0.22169 -0.61857,-0.26458 -3.29048,-0.26458 -3.17499,0 -3.19075,0.002 -3.59764,0.44097 -0.22478,0.24253 -0.60402,0.44097 -0.84278,0.44097 -0.23875,0 -0.62051,0.19844 -0.84836,0.44097 -0.22786,0.24254 -0.53024,0.44098 -0.67198,0.44098 -0.14174,0 -0.44162,0.19843 -0.66639,0.44097 -0.22477,0.24253 -0.53153,0.44097 -0.68168,0.44097 -0.15214,0 -0.27301,0.15076 -0.27301,0.34051 0,0.21829 -0.1418,0.36074 -0.39507,0.39688 -0.21921,0.0313 -0.4234,0.20483 -0.45869,0.38988 -0.035,0.18344 -0.25408,0.51004 -0.48688,0.72579 -0.23571,0.21845 -0.42325,0.59361 -0.42325,0.84669 0,0.24994 -0.0794,0.50349 -0.17639,0.56344 -0.097,0.06 -0.17639,0.26558 -0.17639,0.45692 0,0.19135 -0.11906,0.39359 -0.26458,0.44944 -0.14552,0.0558 -0.26458,0.29255 -0.26458,0.52602 0,0.23347 -0.0794,0.58217 -0.17639,0.77488 -0.097,0.19271 -0.25577,0.50806 -0.35278,0.70077 -0.097,0.19271 -0.17639,0.69893 -0.17639,1.12493 0,0.4733 -0.1029,0.85995 -0.26458,0.99413 -0.22358,0.18556 -0.26459,0.97998 -0.26459,5.12646 0,3.08099 -0.0656,4.94745 -0.17638,5.0159 -0.10081,0.0623 -0.17639,0.965679 -0.17639,2.108204 0,1.614341 -0.0509,2.018736 -0.26459,2.100721 -0.15307,0.05874 -0.26458,0.322501 -0.26458,0.625823 0,0.28836 -0.0794,0.573348 -0.17639,0.633306 -0.097,0.05996 -0.17639,0.814021 -0.17639,1.675695 0,0.861674 -0.0794,1.615736 -0.17639,1.675694 -0.0982,0.0607 -0.17639,0.876577 -0.17639,1.840895 0,1.324264 -0.0623,1.783563 -0.26458,1.951471 -0.21972,0.18235 -0.26458,0.84394 -0.26458,3.90215 0,2.33745 -0.0644,3.68257 -0.17639,3.68257 -0.097,0 -0.17639,0.14903 -0.17639,0.33118 0,0.18215 -0.11906,0.42999 -0.26458,0.55076 -0.27725,0.2301 -0.29314,0.3012 -0.14777,0.66146 z"
         id="path1096" />
      <path
         style="fill:#000000;fill-opacity:1;stroke-width:1;stroke-miterlimit:4;stroke-dasharray:none;stroke:none"
         d="m 47.489407,116.11224 c 0.1797,0.16263 0.4509,0.29569 0.60265,0.29569 0.15176,0 0.32161,0.11906 0.37745,0.26459 0.0577,0.15033 0.32063,0.26458 0.6089,0.26458 0.28335,0 0.64832,0.15576 0.82662,0.35278 0.21664,0.23938 0.54328,0.35277 1.01619,0.35277 0.5333,0 0.77837,0.10354 1.0438,0.44098 0.19078,0.24253 0.48755,0.44097 0.6595,0.44097 0.35239,0 0.89649,-0.5283 0.89649,-0.87045 0,-0.12392 0.19843,-0.3814 0.44097,-0.57218 0.37075,-0.29163 0.44097,-0.49496 0.44097,-1.27686 0,-1.05244 -0.33707,-1.51384 -1.10591,-1.51384 -0.25342,0 -0.50983,-0.0794 -0.56978,-0.17639 -0.06,-0.097 -0.26558,-0.17639 -0.45692,-0.17639 -0.19135,0 -0.3936,-0.11906 -0.44944,-0.26459 -0.0689,-0.17962 -0.35034,-0.26458 -0.87641,-0.26458 -0.42618,0 -0.77487,-0.0794 -0.77487,-0.17639 0,-0.097 -0.35916,-0.17639 -0.79812,-0.17639 -0.66511,0 -0.82341,0.0661 -0.9499,0.39688 -0.0835,0.21828 -0.31964,0.54808 -0.5248,0.73289 -0.20516,0.18481 -0.37302,0.54597 -0.37302,0.80257 0,0.2566 -0.0813,0.5478 -0.18055,0.64711 -0.12315,0.12315 -0.0767,0.27457 0.14618,0.47625 z"
         id="path1094" />
      <path
         style="fill:#000000;fill-opacity:1;stroke-width:1;stroke-miterlimit:4;stroke-dasharray:none;stroke:none"
         d="m 47.140797,134.28407 c 0.17741,0.16055 0.52991,0.29192 0.78334,0.29192 0.25342,0 0.50982,0.0794 0.56978,0.17639 0.06,0.097 0.26308,0.17639 0.45138,0.17639 0.18831,0 0.34237,0.0794 0.34237,0.17638 0,0.097 0.39688,0.17639 0.88195,0.17639 0.75541,0 0.88194,-0.0491 0.88194,-0.34236 0,-0.18831 0.0794,-0.39143 0.17639,-0.45139 0.097,-0.06 0.17639,-0.25458 0.17639,-0.43251 0,-0.17792 0.11906,-0.36918 0.26458,-0.42502 0.15033,-0.0577 0.26459,-0.32063 0.26459,-0.6089 0,-0.28335 0.15575,-0.64832 0.35277,-0.82662 0.19403,-0.1756 0.35278,-0.42981 0.35278,-0.56493 0,-0.13512 0.19844,-0.42957 0.44097,-0.65435 0.28971,-0.26849 0.44098,-0.59838 0.44098,-0.96171 0,-0.51113 -0.0454,-0.55304 -0.59849,-0.55304 -0.36928,0 -0.63738,-0.10133 -0.70002,-0.26458 -0.0559,-0.14552 -0.26277,-0.26459 -0.45985,-0.26459 -0.19707,0 -0.35831,-0.0794 -0.35831,-0.17639 0,-0.097 -0.43075,-0.17638 -0.95722,-0.17638 -0.89769,0 -0.97448,0.0346 -1.23472,0.55626 -0.15263,0.30595 -0.27751,0.66563 -0.27751,0.79929 0,0.13366 -0.11906,0.2887 -0.26458,0.34455 -0.14552,0.0558 -0.26458,0.24253 -0.26458,0.41486 0,0.17233 -0.1478,0.35199 -0.32845,0.39923 -0.32772,0.0857 -0.90627,1.03157 -0.90627,1.48166 0,0.13061 -0.0794,0.23748 -0.17639,0.23748 -0.31061,0 -0.1951,1.16311 0.14618,1.47197 z"
         id="path1092" />
      <path
         style="fill:#000000;fill-opacity:1;stroke-width:1;stroke-miterlimit:4;stroke-dasharray:none;stroke:none"
         d="m 44.289987,122.64034 c 0.0647,0.0647 0.25759,0.11759 0.4287,0.11759 0.18834,0 0.33336,0.15662 0.36748,0.39688 0.0481,0.33868 0.17922,0.40475 0.89421,0.45063 0.69396,0.0445 0.83785,0.11269 0.83785,0.39688 0,0.25894 0.12227,0.34311 0.49842,0.34311 0.30358,0 0.66036,0.17238 0.91269,0.44097 0.22785,0.24254 0.54433,0.44098 0.7033,0.44098 0.35819,0 1.23698,-0.89353 1.23698,-1.25773 0,-0.14755 0.19843,-0.4547 0.44097,-0.68255 0.24253,-0.22785 0.44097,-0.50566 0.44097,-0.61736 0,-0.1117 0.2022,-0.39304 0.44932,-0.62521 0.6374,-0.5988 0.54999,-1.52165 -0.18474,-1.95053 -0.29104,-0.16989 -0.66807,-0.3147 -0.83784,-0.32179 -0.16978,-0.007 -0.30868,-0.0923 -0.30868,-0.18928 0,-0.097 -0.22429,-0.17639 -0.49842,-0.17639 -0.30359,0 -0.66037,-0.17238 -0.91269,-0.44097 -0.35767,-0.38071 -0.56756,-0.44097 -1.536,-0.44097 -1.01665,0 -1.17074,0.0501 -1.64495,0.53525 -0.28777,0.29438 -0.52322,0.64689 -0.52322,0.78334 0,0.13645 -0.0794,0.29715 -0.17639,0.3571 -0.097,0.06 -0.17639,0.25459 -0.17639,0.43251 0,0.17793 -0.11906,0.36919 -0.26458,0.42503 -0.26958,0.10345 -0.38487,1.34464 -0.14699,1.58251 z"
         id="path1090" />
      <path
         style="fill:#000000;fill-opacity:1;stroke-width:1;stroke-miterlimit:4;stroke-dasharray:none;stroke:none"
         d="m 40.802187,112.39508 c 0.17214,0.16978 0.4314,0.30869 0.57613,0.30869 0.14472,0 0.44956,0.19843 0.67741,0.44097 0.22785,0.24253 0.50719,0.44097 0.62077,0.44097 0.11357,0 0.35016,0.15875 0.52576,0.35278 0.17559,0.19403 0.45721,0.35278 0.62582,0.35278 0.16861,0 0.35226,0.11906 0.4081,0.26458 0.2482,0.6468 1.7001,0.0805 1.7001,-0.66308 0,-0.15869 0.17395,-0.30723 0.39688,-0.33889 0.36841,-0.0523 0.39687,-0.14493 0.39687,-1.29109 v -1.23472 l -0.70555,-0.0547 c -0.5583,-0.0433 -0.88963,-0.22755 -1.5875,-0.88271 -1.03856,-0.97499 -1.52006,-1.2674 -2.08694,-1.2674 -0.41727,0 -0.99987,0.4837 -0.99987,0.83014 0,0.10174 -0.11906,0.28381 -0.26458,0.40458 -0.14552,0.12077 -0.26458,0.36861 -0.26458,0.55076 0,0.18215 -0.0794,0.33118 -0.17639,0.33118 -0.29713,0 -0.17508,1.12714 0.15757,1.45521 z"
         id="path1088" />
      <path
         style="fill:#000000;fill-opacity:1;stroke-width:1;stroke-miterlimit:4;stroke-dasharray:none;stroke:none"
         d="m 40.352927,130.34265 c 0.30331,0 1.31105,0.49981 1.44512,0.71673 0.0562,0.0909 0.2186,0.16522 0.36098,0.16522 0.14238,0 0.53112,0.24774 0.86387,0.55053 1.14634,1.04314 1.96975,1.29859 2.06327,0.64009 0.0362,-0.25505 0.19819,-0.41701 0.45324,-0.45324 0.30194,-0.0429 0.39687,-0.17265 0.39687,-0.54251 0,-0.2905 0.17747,-0.65288 0.44098,-0.90043 0.24253,-0.22785 0.44097,-0.54034 0.44097,-0.69443 0,-0.15409 0.19843,-0.42919 0.44097,-0.61133 0.24253,-0.18213 0.44097,-0.46648 0.44097,-0.63188 0,-0.16541 0.15875,-0.4444 0.35278,-0.62 0.41631,-0.37675 0.46758,-0.97013 0.0838,-0.97013 -0.14792,0 -0.3444,-0.19844 -0.43661,-0.44098 -0.12658,-0.33292 -0.29524,-0.44097 -0.68839,-0.44097 -0.34535,0 -0.63755,-0.14851 -0.86759,-0.44097 -0.19078,-0.24254 -0.46052,-0.44097 -0.59942,-0.44097 -0.1389,0 -0.43897,-0.19844 -0.66682,-0.44098 -0.33146,-0.35282 -0.5853,-0.44097 -1.26983,-0.44097 -0.72469,0 -0.87879,0.0607 -1.00735,0.39688 -0.0835,0.21828 -0.31964,0.54808 -0.5248,0.73289 -0.20516,0.18481 -0.37302,0.548 -0.37302,0.8071 0,0.27442 -0.18409,0.64402 -0.44097,0.88535 -0.2686,0.25233 -0.44097,0.60911 -0.44097,0.91269 0,0.38083 -0.0832,0.49842 -0.35278,0.49842 -0.30574,0 -0.35278,0.1176 -0.35278,0.88195 0,0.62163 0.0701,0.88194 0.23748,0.88194 z"
         id="path1086" />
      <path
         style="fill:#000000;fill-opacity:1;stroke-width:1;stroke-miterlimit:4;stroke-dasharray:none;stroke:none"
         d="m 37.873167,118.66426 c 0.41598,0.40826 0.89223,0.74228 1.05833,0.74228 0.1661,0 0.30201,0.0794 0.30201,0.17639 0,0.097 0.15406,0.17639 0.34236,0.17639 0.1883,0 0.38832,0.0743 0.44448,0.16522 0.13407,0.21692 1.14181,0.71673 1.44512,0.71673 0.13061,0 0.23748,0.0794 0.23748,0.17638 0,0.097 0.19844,0.17639 0.44097,0.17639 0.31785,0 0.44097,-0.0949 0.44097,-0.33997 0,-0.18699 0.19844,-0.49607 0.44098,-0.68685 0.28728,-0.22597 0.44097,-0.52322 0.44097,-0.85288 0,-0.33384 0.15004,-0.61868 0.44097,-0.83717 0.70572,-0.52997 0.57159,-1.06672 -0.53705,-2.1491 -0.53792,-0.52517 -1.08124,-0.95486 -1.20739,-0.95486 -0.12614,0 -0.37356,-0.15934 -0.5498,-0.35409 -0.41223,-0.4555 -1.26653,-0.88063 -1.76964,-0.88063 -0.86527,0 -1.84515,0.90353 -1.84515,1.70139 0,0.13748 -0.11906,0.29565 -0.26458,0.35149 -0.14552,0.0558 -0.26458,0.2471 -0.26458,0.42502 0,0.17793 -0.0794,0.37256 -0.17639,0.43251 -0.42765,0.2643 -0.16602,1.08326 0.57994,1.81536 z"
         id="path1084" />
      <path
         style="fill:#000000;fill-opacity:1;stroke-width:1;stroke-miterlimit:4;stroke-dasharray:none;stroke:none"
         d="m 36.602367,103.57564 c 0.37997,0.3638 0.79608,0.66146 0.92469,0.66146 0.12861,0 0.42026,0.19844 0.64811,0.44097 0.22785,0.24254 0.55919,0.44097 0.7363,0.44097 0.17712,0 0.32204,0.0794 0.32204,0.17639 0,0.097 0.14903,0.17639 0.33118,0.17639 0.18214,0 0.42999,0.11906 0.55076,0.26458 0.12077,0.14553 0.44799,0.26459 0.72715,0.26459 0.27917,0 0.50757,0.0794 0.50757,0.17639 0,0.097 0.14288,0.17639 0.3175,0.17639 0.17463,0 0.39291,0.0733 0.48507,0.16281 0.0922,0.0895 0.4057,0.18877 0.69674,0.22049 0.39254,0.0428 0.54372,0.16014 0.58553,0.45454 0.0354,0.24894 0.17852,0.39688 0.38407,0.39688 0.18024,0 0.48757,0.20323 0.68295,0.45162 0.29949,0.38073 0.47453,0.44302 1.11524,0.39687 l 0.75999,-0.0547 0.0489,-2.51354 c 0.0288,-1.47725 0.11966,-2.51354 0.22048,-2.51354 0.0967,0 0.17155,-0.61086 0.17155,-1.4007 0,-0.77039 0.0794,-1.44976 0.17639,-1.50972 0.097,-0.06 0.17639,-0.34494 0.17639,-0.633305 0,-0.303322 0.11151,-0.567085 0.26458,-0.625823 0.22347,-0.08575 0.26458,-0.672569 0.26458,-3.776415 0,-2.259655 0.0679,-3.716869 0.17639,-3.7839 0.097,-0.05996 0.17639,-0.26308 0.17639,-0.451383 0,-0.188302 0.0794,-0.342367 0.17639,-0.342367 0.0992,0 0.17639,-0.492569 0.17639,-1.124931 0,-0.78475 0.08,-1.19133 0.26458,-1.344513 0.14552,-0.120772 0.26458,-0.409381 0.26458,-0.641352 0,-0.23198 0.0985,-0.57944 0.21882,-0.77216 0.17417,-0.27888 0.17417,-0.42188 0,-0.70077 -0.30269,-0.48468 -0.30127,-3.82331 0.002,-3.93439 0.17639,-0.0647 0.17639,-0.12759 0,-0.31456 -0.26353,-0.27935 -0.29305,-1.15583 -0.0441,-1.30969 0.10331,-0.0639 0.17639,-1.08236 0.17639,-2.45825 0,-1.87303 0.0536,-2.39376 0.26459,-2.56883 0.14552,-0.12077 0.26458,-0.44331 0.26458,-0.71675 0,-0.27343 0.0794,-0.54621 0.17639,-0.60617 0.097,-0.06 0.17639,-0.40799 0.17639,-0.77341 0,-0.48063 0.12197,-0.77899 0.44097,-1.07867 0.25533,-0.23987 0.44097,-0.61116 0.44097,-0.88195 0,-0.27078 0.18565,-0.64207 0.44097,-0.88194 0.24254,-0.22785 0.44098,-0.5195 0.44098,-0.64811 0,-0.12861 0.12102,-0.23384 0.26894,-0.23384 0.14793,0 0.34147,-0.19072 0.4301,-0.42383 0.0886,-0.23311 0.24541,-0.47592 0.34841,-0.53958 0.10308,-0.0637 0.18735,-0.23321 0.18735,-0.3768 0,-0.34445 1.30844,-1.6584 1.65145,-1.6584 0.1474,0 0.31706,-0.0794 0.37702,-0.17639 0.06,-0.097 0.33134,-0.17638 0.60306,-0.17638 0.32109,0 0.60999,-0.15439 0.82521,-0.44098 0.21848,-0.29093 0.50332,-0.440974 0.83717,-0.440974 0.32965,0 0.6269,-0.15369 0.85288,-0.44097 0.34396,-0.43727 0.37036,-0.44097 3.14588,-0.44097 1.67574,0 2.84276,0.0708 2.90802,0.17639 0.06,0.097 0.41211,0.17638 0.78256,0.17638 0.38353,0 0.76811,0.11393 0.89315,0.26459 0.12077,0.14552 0.36861,0.26458 0.55076,0.26458 0.18215,0 0.33118,0.0794 0.33118,0.176394 0,0.097 0.14903,0.17639 0.33118,0.17639 0.18215,0 0.42999,0.11906 0.550769,0.26458 0.14105,0.16997 0.53176,0.26459 1.09252,0.26459 0.88137,0 1.37692,0.27006 1.37692,0.7504 0,0.13554 0.19844,0.43286 0.44097,0.66071 0.24254,0.22785 0.44097,0.50566 0.44097,0.61736 0,0.1117 0.19844,0.38951 0.44098,0.61736 0.25688,0.24133 0.44097,0.61093 0.44097,0.88535 0,0.2591 0.15875,0.61475 0.35278,0.79034 0.19402,0.1756 0.35277,0.5404 0.35277,0.81068 0,0.27028 0.0743,0.53737 0.16522,0.59353 0.30745,0.19001 0.71673,1.20436 0.71673,1.7763 0,0.31276 0.11906,0.66747 0.26458,0.78824 0.14552,0.12078 0.26459,0.44331 0.26459,0.71675 0,0.27343 0.0794,0.54621 0.17638,0.60617 0.10223,0.0632 0.17639,1.0273 0.17639,2.29306 0,1.26575 -0.0742,2.22987 -0.17639,2.29305 -0.097,0.06 -0.17638,0.34495 -0.17638,0.63331 0,0.30332 -0.11152,0.56708 -0.26459,0.62582 -0.17318,0.0665 -0.26458,0.3414 -0.26458,0.79591 0,0.49627 -0.12582,0.83007 -0.44097,1.16996 -0.30089,0.32449 -0.44098,0.67758 -0.44098,1.11148 0,0.41192 -0.12427,0.74839 -0.35277,0.95519 -0.19403,0.17559 -0.35278,0.40816 -0.35278,0.51682 0,0.10866 -0.59531,0.7889 -1.32292,1.511654 -0.7276,0.722748 -1.32291,1.454981 -1.32291,1.627182 0,0.195503 -0.1325,0.313096 -0.35278,0.313096 -0.22633,0 -0.35278,0.117593 -0.35278,0.328071 0,0.180438 -0.19844,0.477089 -0.44097,0.659227 -0.24254,0.182135 -0.44097,0.45723 -0.44097,0.61132 0,0.154091 -0.198439,0.466587 -0.440979,0.694437 -0.24253,0.227851 -0.44097,0.559187 -0.44097,0.736302 0,0.177118 -0.0794,0.322032 -0.17639,0.322032 -0.097,0 -0.17639,0.149031 -0.17639,0.33118 0,0.182148 -0.11906,0.429992 -0.26458,0.550764 -0.14552,0.120772 -0.26458,0.316625 -0.26458,0.435233 0,0.118605 -0.15875,0.359312 -0.35279,0.534906 -0.19403,0.175593 -0.35278,0.454589 -0.35278,0.619991 0,0.165403 -0.19844,0.449753 -0.44097,0.63189 -0.2715,0.203885 -0.44097,0.506619 -0.44097,0.787709 0,0.258926 -0.19089,0.63588 -0.44098,0.870826 -0.24253,0.227851 -0.44097,0.507304 -0.44097,0.621009 0,0.279021 -0.51086,1.287133 -0.71672,1.41437 -0.0909,0.0562 -0.16522,0.29345 -0.16522,0.52731 0,0.23385 -0.15875,0.70783 -0.35278,1.05328 -0.19403,0.34545 -0.35278,0.89378 -0.35278,1.21849 0,0.32472 -0.11906,0.68921 -0.26458,0.80999 -0.14552,0.12077 -0.26458,0.36393 -0.26458,0.54035 0,0.17642 -0.0794,0.36983 -0.17639,0.42979 -0.097,0.06 -0.17639,0.41211 -0.17639,0.78256 0,0.38352 -0.11393,0.7681 -0.26459,0.89313 -0.14552,0.12077 -0.26458,0.44799 -0.26458,0.72715 0,0.27917 -0.0794,0.50757 -0.17639,0.50757 -0.097,0 -0.17639,0.3525 -0.17639,0.78334 0,0.43084 -0.0794,0.8324 -0.17639,0.89236 -0.097,0.06 -0.17638,0.34494 -0.17638,0.6333 0,0.30332 -0.11152,0.56709 -0.26459,0.62583 -0.16991,0.0652 -0.26458,0.33753 -0.26458,0.76111 0,0.64738 -0.39095,1.66587 -0.71673,1.86722 -0.34616,0.21394 -0.17391,0.96866 0.25862,1.13311 0.23311,0.0886 0.47592,0.24541 0.53958,0.34841 0.0636,0.10299 0.2698,0.18727 0.45811,0.18727 0.1883,0 0.34236,0.0794 0.34236,0.17639 0,0.097 0.15407,0.17638 0.34237,0.17638 0.1883,0 0.39142,0.0794 0.45138,0.17639 0.06,0.097 0.26557,0.17639 0.45692,0.17639 0.19135,0 0.39359,0.11906 0.44943,0.26459 0.0686,0.17873 0.34899,0.26458 0.86415,0.26458 0.65656,0 0.77044,0.0552 0.81897,0.39687 0.0362,0.25505 0.19819,0.41702 0.45324,0.45324 0.21828,0.031 0.39688,0.13022 0.39688,0.22049 0,0.0903 0.15406,0.16412 0.34236,0.16412 0.18831,0 0.39143,0.0794 0.45139,0.17639 0.0599,0.097 0.22718,0.17639 0.37161,0.17639 0.14443,0 0.44651,0.19844 0.67128,0.44097 0.23216,0.25051 0.60496,0.44097 0.86311,0.44097 0.24994,0 0.50349,0.0794 0.563449,0.17639 0.06,0.097 0.26557,0.17639 0.45692,0.17639 0.19135,0 0.39359,0.11906 0.44943,0.26458 0.0558,0.14552 0.24627,0.26459 0.42317,0.26459 0.19926,0 0.34308,0.15101 0.378,0.39687 0.0419,0.2948 0.20307,0.41956 0.62673,0.48507 0.3137,0.0485 0.73133,0.2271 0.92806,0.39688 0.20804,0.17953 0.64416,0.30868 1.04236,0.30868 0.44588,0 0.72008,0.0923 0.7862,0.26458 0.0558,0.14552 0.25809,0.26458 0.44944,0.26458 0.19134,0 0.39695,0.0794 0.45691,0.17639 0.18458,0.29866 0.61058,0.19696 1.10833,-0.26458 0.26156,-0.24254 0.6659,-0.44097 0.89852,-0.44097 0.26534,0 0.61947,-0.23007 0.95029,-0.61736 0.29004,-0.33955 0.66042,-0.61737 0.82307,-0.61737 0.16265,0 0.565,-0.27781 0.8941,-0.61736 0.36179,-0.37327 0.76847,-0.61736 1.02861,-0.61736 0.23663,0 0.61415,-0.19843 0.83892,-0.44097 0.30431,-0.32836 0.58835,-0.44097 1.11225,-0.44097 0.38696,0 0.75262,-0.0794 0.81258,-0.17639 0.06,-0.097 0.41715,-0.17639 0.79375,-0.17639 0.3766,0 0.73379,-0.0794 0.79375,-0.17639 0.068,-0.11006 1.78487,-0.17639 4.56577,-0.17639 h 4.45676 l 0.41428,-0.44097 c 0.22785,-0.24253 0.52146,-0.44097 0.65247,-0.44097 0.13101,0 0.31365,-0.19844 0.40586,-0.44097 0.0922,-0.24254 0.29117,-0.44098 0.44214,-0.44098 0.15097,0 0.32332,-0.1389 0.383,-0.30868 0.15001,-0.42671 0.95942,-1.27882 1.21473,-1.27882 0.11549,0 0.3088,-0.11906 0.42957,-0.26458 0.12077,-0.14552 0.44331,-0.26458 0.71675,-0.26458 0.27343,0 0.54621,-0.0794 0.60617,-0.17639 0.06,-0.097 0.61055,-0.17639 1.22353,-0.17639 0.775504,0 1.181324,-0.0805 1.334114,-0.26458 0.32353,-0.38984 4.61856,-0.38597 4.94258,0.004 0.20011,0.24111 0.25412,0.24111 0.52056,0 0.19818,-0.17935 0.65667,-0.26904 1.37541,-0.26904 0.59297,0 1.12718,-0.0794 1.18714,-0.17639 0.06,-0.097 0.69496,-0.17639 1.41111,-0.17639 0.71616,0 1.35116,-0.0794 1.41112,-0.17638 0.06,-0.097 0.26557,-0.17639 0.45691,-0.17639 0.19135,0 0.3936,-0.11907 0.44944,-0.26459 0.0558,-0.14552 0.25178,-0.26458 0.43543,-0.26458 0.21804,0 0.33391,-0.12434 0.33391,-0.35831 0,-0.19708 0.11906,-0.40401 0.26458,-0.45985 0.14552,-0.0558 0.26459,-0.2471 0.26459,-0.42502 0,-0.17793 0.0794,-0.37256 0.17639,-0.43251 0.097,-0.06 0.17638,-0.5324 0.17638,-1.04988 0,-0.6736 0.0752,-0.96969 0.26459,-1.04238 0.64945,-0.24922 -0.18645,-1.34733 -1.02561,-1.34733 -0.26053,0 -0.4737,-0.0794 -0.4737,-0.17639 0,-0.097 -0.27781,-0.17639 -0.61736,-0.17639 -0.33955,0 -0.61736,-0.0794 -0.61736,-0.17638 0,-0.097 -0.14903,-0.17639 -0.33118,-0.17639 -0.18215,0 -0.42999,-0.11907 -0.55076,-0.26459 -0.12504,-0.15065 -0.50961,-0.26458 -0.89314,-0.26458 -0.37045,0 -0.7226,-0.0794 -0.78256,-0.17639 -0.06,-0.097 -0.61055,-0.17639 -1.22353,-0.17639 -0.7755,0 -1.18132,-0.0805 -1.33411,-0.26458 -0.17354,-0.20911 -0.67735,-0.26458 -2.40285,-0.26458 -1.33791,0 -2.18326,-0.0683 -2.18326,-0.17639 0,-0.23011 -1.53348,-0.23011 -1.67569,0 -0.14154,0.22901 -1.093194,0.22901 -1.234734,0 -0.06,-0.097 -0.5167,-0.17639 -1.01499,-0.17639 -0.73798,0 -0.99577,0.086 -1.39017,0.46388 -0.50014,0.47916 -0.57637,0.47399 -1.47539,-0.10015 -0.40611,-0.25936 -0.86813,-0.34095 -1.98677,-0.35084 -0.83159,-0.007 -1.60808,-0.10687 -1.80799,-0.23171 -0.27888,-0.17417 -0.42188,-0.17417 -0.70076,0 -0.42199,0.26354 -0.88434,0.28572 -0.88434,0.0424 0,-0.097 -0.14903,-0.17639 -0.33118,-0.17639 -0.18215,0 -0.43,-0.11906 -0.55077,-0.26458 -0.15318,-0.18458 -0.55976,-0.26459 -1.34451,-0.26459 -0.99383,0 -1.12493,-0.0397 -1.12493,-0.34051 0,-0.21882 -0.14183,-0.36065 -0.39688,-0.39687 -0.25115,-0.0357 -0.41705,-0.19811 -0.45181,-0.44239 -0.0341,-0.23974 -0.20055,-0.40686 -0.43918,-0.44098 -0.21132,-0.0302 -0.41302,-0.2059 -0.44822,-0.39042 -0.0352,-0.18451 -0.2146,-0.497135 -0.39867,-0.694717 -0.25572,-0.27448 -0.33469,-0.623217 -0.33469,-1.478045 0,-0.831774 -0.0679,-1.14485 -0.26458,-1.220332 -0.14552,-0.05584 -0.26458,-0.202382 -0.26458,-0.325644 0,-0.123264 0.11906,-0.322928 0.26458,-0.443699 0.15382,-0.127655 0.26458,-0.512514 0.26458,-0.919276 0,-0.595051 0.1161,-0.812521 0.77628,-1.454148 0.42696,-0.414951 0.8048,-0.903965 0.83965,-1.086697 0.0351,-0.183813 0.23987,-0.357422 0.45845,-0.388605 0.25327,-0.03614 0.39507,-0.178584 0.39507,-0.396875 0,-0.256084 0.12358,-0.34051 0.49842,-0.34051 0.30358,0 0.66036,-0.17238 0.91269,-0.440973 0.24374,-0.259452 0.61055,-0.440972 0.89109,-0.440972 0.26225,0 0.57564,-0.119062 0.69641,-0.264583 0.12077,-0.145521 0.44799,-0.264583 0.72715,-0.264583 0.27917,0 0.50757,-0.07937 0.50757,-0.176389 0,-0.108547 0.88195,-0.176389 2.29306,-0.176389 1.41111,0 2.29305,-0.06784 2.29305,-0.176389 0,-0.105214 0.67616,-0.176389 1.6757,-0.176389 0.99953,0 1.67569,0.07117 1.67569,0.176389 0,0.108546 0.88195,0.176389 2.293064,0.176389 1.41111,0 2.29305,-0.06784 2.29305,-0.176389 0,-0.273211 4.80977,-0.231639 5.10205,0.0441 0.18697,0.176389 0.24989,0.176389 0.31456,0 0.096,-0.261853 1.21754,-0.297838 1.37437,-0.0441 0.0639,0.103374 1.08609,0.176389 2.46944,0.176389 1.38335,0 2.40556,-0.07301 2.46944,-0.176389 0.17811,-0.288186 0.65572,-0.201849 1.07801,0.194869 0.40812,0.383411 0.77408,0.328059 0.77408,-0.117085 0,-0.165407 0.18673,-0.254173 0.5347,-0.254173 0.31257,0 0.57688,-0.109915 0.63623,-0.264583 0.0558,-0.145521 0.23949,-0.264584 0.4081,-0.264584 0.72005,0 0.89041,-0.530064 0.89041,-2.770417 0,-1.67395 -0.0562,-2.17191 -0.26458,-2.34486 -0.18457,-0.15319 -0.26458,-0.55977 -0.26458,-1.34452 0,-0.63236 -0.0772,-1.12493 -0.17639,-1.12493 -0.097,0 -0.17639,-0.43905 -0.17639,-0.97567 0,-1.08457 -0.30241,-1.40089 -0.85831,-0.8978 -0.1738,0.15728 -0.39589,0.28597 -0.49353,0.28597 -0.0977,0 -0.53984,0.35719 -0.98266,0.79375 -0.54235,0.53468 -0.95625,0.79375 -1.26815,0.79375 -0.3316,0 -0.51062,0.12517 -0.63069,0.44097 -0.16036,0.42178 -0.23176,0.44098 -1.64058,0.44098 -1.34305,0 -1.50945,-0.0389 -1.88719,-0.44098 -0.24755,-0.2635 -0.60993,-0.44097 -0.90043,-0.44097 -0.36913,0 -0.49972,-0.0951 -0.54251,-0.39507 -0.0328,-0.23011 -0.20367,-0.4214 -0.40915,-0.45813 -0.47873,-0.0856 -1.32291,-0.90504 -1.32291,-1.2842 0,-0.1846 -0.15863,-0.33004 -0.39688,-0.36387 -0.37176,-0.0528 -0.40007,-0.15233 -0.44744,-1.5728 -0.0398,-1.19371 0.007,-1.56431 0.22048,-1.74139 0.14908,-0.12373 0.27106,-0.37399 0.27106,-0.55614 0,-0.18215 0.0794,-0.33118 0.17639,-0.33118 0.097,0 0.17639,-0.14491 0.17639,-0.32203 0,-0.17711 0.19843,-0.50845 0.44097,-0.7363 0.24253,-0.22785 0.44097,-0.51368 0.44097,-0.63519 0,-0.50064 1.07345,-0.77592 3.02571,-0.77592 h 1.91318 v 0.79375 0.79375 h -0.78334 c -0.43084,0 -0.8324,-0.0794 -0.89235,-0.17639 -0.06,-0.097 -0.40531,-0.17639 -0.76744,-0.17639 -0.54743,0 -0.77618,0.12636 -1.35702,0.74965 -1.01548,1.08969 -1.13874,1.39709 -1.13874,2.83988 0,1.17077 0.0466,1.34789 0.46503,1.76628 0.25576,0.25576 0.56354,0.46502 0.68395,0.46502 0.12042,0 0.31775,0.11907 0.43852,0.26459 0.12077,0.14552 0.34978,0.26458 0.5089,0.26458 0.15912,0 0.43833,0.19844 0.62047,0.44097 0.29175,0.3885 0.46312,0.44098 1.44017,0.44098 0.97287,0 1.15161,-0.0541 1.45589,-0.44098 0.19078,-0.24253 0.45749,-0.44097 0.5927,-0.44097 0.1352,0 0.63673,-0.39687 1.11451,-0.88194 0.47778,-0.48507 0.97088,-0.88195 1.0958,-0.88195 0.12491,0 0.54462,-0.3175 0.93267,-0.70555 l 0.70556,-0.70556 v -1.75348 c 0,-0.97872 -0.0779,-1.80164 -0.17639,-1.86249 -0.097,-0.06 -0.17639,-0.34495 -0.17639,-0.63331 0,-0.30332 -0.11151,-0.56708 -0.26458,-0.62582 -0.14552,-0.0558 -0.26459,-0.3162 -0.26459,-0.57857 0,-0.26236 -0.15875,-0.64743 -0.35277,-0.85569 -0.19403,-0.20827 -0.35278,-0.46887 -0.35278,-0.57911 0,-0.11025 -0.33327,-0.55013 -0.7406,-0.97752 -0.50832,-0.53336 -0.88592,-0.77706 -1.20397,-0.77706 -0.26621,0 -0.63966,-0.18764 -0.87765,-0.44098 -0.29969,-0.319 -0.59805,-0.44097 -1.07868,-0.44097 -0.36541,0 -0.71345,-0.0794 -0.77341,-0.17639 -0.06,-0.097 -0.25336,-0.17639 -0.42978,-0.17639 -0.17643,0 -0.41959,-0.11906 -0.54036,-0.26458 -0.1787,-0.21533 -0.75335,-0.26458 -3.0868,-0.26458 -2.33346,0 -2.9081,0.0493 -3.08681,0.26458 -0.12077,0.14552 -0.36861,0.26458 -0.55076,0.26458 -0.18215,0 -0.33118,0.0739 -0.33118,0.16412 0,0.0903 -0.1786,0.18949 -0.39688,0.22049 -0.25505,0.0362 -0.41701,0.19819 -0.45324,0.45324 -0.045,0.31695 -0.1698,0.39688 -0.61959,0.39688 -0.39487,0 -0.66221,0.13181 -0.89438,0.44097 -0.21522,0.28659 -0.50412,0.44097 -0.82521,0.44097 -0.27173,0 -0.54311,0.0794 -0.60306,0.17639 -0.06,0.097 -0.263084,0.17639 -0.451394,0.17639 -0.1883,0 -0.34236,0.0794 -0.34236,0.17639 0,0.097 -0.22841,0.17639 -0.50757,0.17639 -0.27917,0 -0.60638,0.11906 -0.72716,0.26458 -0.12077,0.14552 -0.36393,0.26458 -0.54035,0.26458 -0.17642,0 -0.36983,0.0794 -0.42978,0.17639 -0.06,0.097 -0.81022,0.17639 -1.66724,0.17639 -1.22236,0 -1.5801,0.057 -1.65975,0.26458 -0.14539,0.3789 -2.32404,0.3789 -2.46944,0 -0.0755,-0.19679 -0.38884,-0.26458 -1.22285,-0.26458 -0.968,0 -1.17796,-0.0603 -1.53559,-0.44097 -0.25233,-0.26859 -0.60911,-0.44097 -0.91269,-0.44097 -0.32904,0 -0.49842,-0.0914 -0.49842,-0.26895 0,-0.14792 -0.19843,-0.3444 -0.44097,-0.43661 -0.26997,-0.10264 -0.44097,-0.30615 -0.44097,-0.5248 0,-0.24101 -0.11614,-0.35714 -0.35714,-0.35714 -0.21866,0 -0.42216,-0.171 -0.52481,-0.44098 -0.0922,-0.24253 -0.27484,-0.44097 -0.40586,-0.44097 -0.13101,0 -0.42462,-0.19844 -0.65247,-0.44097 -0.22785,-0.24254 -0.53003,-0.44097 -0.67152,-0.44097 -0.14148,0 -0.38675,-0.14933 -0.54504,-0.33184 -0.15829,-0.18251 -0.44542,-0.361924 -0.63805,-0.398684 -0.20125,-0.0384 -0.37423,-0.23491 -0.40662,-0.46191 -0.0334,-0.234 -0.17992,-0.39507 -0.3594,-0.39507 -0.16668,0 -0.69395,-0.39688 -1.17173,-0.88195 -0.47778,-0.48507 -0.95858,-0.88194 -1.06846,-0.88194 -0.10988,0 -0.33943,-0.15432 -0.51012,-0.34292 -0.17069,-0.18861 -0.48065,-0.36721 -0.6888,-0.39688 -0.23677,-0.0337 -0.39956,-0.20253 -0.43482,-0.45083 -0.0355,-0.25011 -0.17843,-0.39687 -0.38646,-0.39687 -0.18156,0 -0.37605,-0.0744 -0.43221,-0.16522 -0.13139,-0.21258 -1.13925,-0.71673 -1.43285,-0.71673 -0.12387,0 -0.25058,-0.17778 -0.28158,-0.39507 -0.0324,-0.227 -0.20537,-0.42351 -0.40661,-0.46191 -0.19264,-0.0368 -0.51267,-0.25585 -0.71118,-0.48687 -0.27412,-0.31903 -0.53984,-0.42004 -1.10496,-0.42004 -0.40922,0 -0.74403,-0.0794 -0.74403,-0.17638 0,-0.097 -0.15407,-0.17639 -0.34237,-0.17639 -0.1883,0 -0.39143,-0.0794 -0.45138,-0.17639 -0.06,-0.097 -0.5324,-0.17639 -1.04988,-0.17639 -0.6736,0 -0.96969,-0.0752 -1.04238,-0.26458 -0.0769,-0.20048 -0.40206,-0.26459 -1.34179,-0.26459 -0.709249,0 -1.240259,-0.0755 -1.240259,-0.17639 0,-0.11127 -1.21156,-0.17638 -3.28192,-0.17638 h -3.2819 l -0.34687,0.44097 c -0.29303,0.37253 -0.49383,0.44097 -1.29379,0.44097 -0.52081,0 -0.99599,0.0794 -1.05595,0.17639 -0.0599,0.097 -0.40198,0.18219 -0.76006,0.18928 -0.35808,0.007 -0.88917,0.16497 -1.18021,0.35084 -0.29105,0.18586 -0.64823,0.38429 -0.79375,0.44095 -0.14552,0.0567 -0.40242,0.1766 -0.57087,0.26653 -0.16846,0.0899 -0.49469,0.16351 -0.72495,0.16351 -0.24067,0 -0.55945,0.18748 -0.74982,0.44097 -0.18213,0.24254 -0.45308,0.44097 -0.6021,0.44097 -0.36476,0 -2.99671,2.66501 -2.99671,3.03435 0,0.16858 -0.16738,0.31639 -0.39507,0.34887 -0.227,0.0324 -0.42351,0.20537 -0.46191,0.40661 -0.0368,0.19264 -0.25586,0.51267 -0.48687,0.71118 -0.23102,0.1985 -0.42004,0.485 -0.42004,0.63665 0,0.151654 -0.15875,0.419394 -0.35277,0.594984 -0.19403,0.1756 -0.35278,0.42799 -0.35278,0.56087 0,0.13289 -0.19844,0.31706 -0.44097,0.40927 -0.24254,0.0922 -0.44098,0.27485 -0.44098,0.40586 0,0.13101 -0.19843,0.42462 -0.44097,0.65247 -0.24253,0.22786 -0.44097,0.53311 -0.44097,0.67835 0,0.14524 -0.35719,0.60632 -0.79375,1.02462 -0.48568,0.46536 -0.79375,0.91643 -0.79375,1.16219 0,0.2209 -0.19844,0.61565 -0.44097,0.87721 -0.31927,0.34431 -0.44098,0.67243 -0.44098,1.18883 0,0.39228 -0.0641,0.71325 -0.14244,0.71325 -0.23102,0 -0.7395,1.30709 -0.7395,1.90094 0,0.30123 -0.0794,0.59674 -0.17639,0.6567 -0.097,0.06 -0.17639,0.25459 -0.17639,0.43251 0,0.17792 -0.11906,0.36918 -0.26458,0.42503 -0.20798,0.0798 -0.26458,0.44009 -0.26458,1.68415 0,0.87045 -0.0794,1.63168 -0.17639,1.69164 -0.097,0.06 -0.17639,0.41715 -0.17639,0.79375 0,0.37661 -0.0794,0.73379 -0.17639,0.79375 -0.0982,0.0607 -0.17639,0.87658 -0.17639,1.8409 0,1.32426 -0.0623,1.78356 -0.26458,1.95146 -0.19422,0.16118 -0.26459,0.58916 -0.26459,1.609103 0,0.80875 -0.0737,1.389514 -0.17639,1.389514 -0.10266,0 -0.17638,0.580764 -0.17638,1.389514 0,1.019937 -0.0704,1.447917 -0.26459,1.609097 -0.14552,0.120772 -0.26458,0.447991 -0.26458,0.727153 0,0.279164 -0.0794,0.50757 -0.17639,0.50757 -0.10521,0 -0.17639,0.676156 -0.17639,1.675694 0,0.999538 -0.0712,1.675694 -0.17639,1.675694 -0.097,0 -0.17639,0.359679 -0.17639,0.799285 0,0.54776 -0.0833,0.831238 -0.26458,0.900817 -0.18859,0.07237 -0.26458,0.366906 -0.26458,1.025459 0,0.685419 -0.087,1.002639 -0.33692,1.228829 -0.1853,0.1677 -0.38525,0.4975 -0.44433,0.7329 -0.0591,0.23539 -0.18528,0.42799 -0.28045,0.42799 -0.0952,0 -0.17303,0.15406 -0.17303,0.34237 0,0.1883 -0.0794,0.39142 -0.17638,0.45138 -0.27205,0.16813 -0.20051,0.30154 0.54386,1.01423 z"
         id="path1082" />
      <path
         style="fill:#000000;fill-opacity:1;stroke-width:1;stroke-miterlimit:4;stroke-dasharray:none;stroke:none"
         d="m 34.026897,48.998127 c 0.12477,0.22645 0.31543,0.50029 0.42368,0.60854 0.10825,0.10825 0.19681,0.33969 0.19681,0.51432 0,0.17462 0.0739,0.3175 0.16413,0.3175 0.0903,0 0.18948,0.17859 0.22048,0.39687 0.0362,0.25505 0.19819,0.41702 0.45324,0.45324 0.25012,0.0355 0.39688,0.17844 0.39688,0.38647 0,0.18155 0.0794,0.37915 0.17639,0.43911 0.097,0.06 0.17638,0.25459 0.17638,0.43251 0,0.17793 0.11907,0.36919 0.26459,0.42503 0.14552,0.0558 0.26458,0.26277 0.26458,0.45984 0,0.24072 0.11578,0.35832 0.35278,0.35832 0.22239,0 0.35278,0.11759 0.35278,0.31817 0,0.39847 1.0602,1.44572 1.4636,1.44572 0.17909,0 0.30029,0.13743 0.30029,0.3405 0,0.21883 0.14182,0.36066 0.39687,0.39688 0.25505,0.0362 0.41702,0.19819 0.45324,0.45324 0.0362,0.25505 0.17805,0.39688 0.39688,0.39688 0.18728,0 0.34051,0.0779 0.34051,0.17302 0,0.0952 0.19259,0.22137 0.42799,0.28045 0.23539,0.0591 0.56519,0.25903 0.73289,0.44433 0.1677,0.18531 0.40194,0.33692 0.52055,0.33692 0.11861,0 0.31446,0.11906 0.43523,0.26458 0.12077,0.14552 0.44331,0.26458 0.71675,0.26458 0.27343,0 0.54621,0.0794 0.60617,0.17639 0.06,0.097 0.26308,0.17639 0.45138,0.17639 0.1883,0 0.34237,0.0794 0.34237,0.17639 0,0.097 0.42684,0.17639 0.94854,0.17639 0.62796,0 1.02275,0.0894 1.16813,0.26458 0.12077,0.14552 0.4433,0.26459 0.71674,0.26459 0.27344,0 0.54621,0.0794 0.60617,0.17638 0.19872,0.32153 0.72133,0.18309 1.20172,-0.31833 0.35785,-0.3735 0.47398,-0.67302 0.47398,-1.22245 0,-0.62039 -0.0585,-0.73605 -0.39688,-0.7841 -0.25505,-0.0362 -0.41702,-0.19819 -0.45324,-0.45324 -0.0338,-0.23825 -0.17927,-0.39687 -0.36387,-0.39687 -0.37916,0 -1.19865,-0.84419 -1.28421,-1.32292 -0.0367,-0.20548 -0.22801,-0.37631 -0.45812,-0.40914 -0.24744,-0.0353 -0.39507,-0.17903 -0.39507,-0.38461 0,-0.20611 -0.14768,-0.34922 -0.39688,-0.38461 -0.25115,-0.0357 -0.41705,-0.19811 -0.45182,-0.44239 -0.0342,-0.24049 -0.20048,-0.40674 -0.44097,-0.44097 -0.24428,-0.0348 -0.40672,-0.20067 -0.44239,-0.45182 -0.0488,-0.34338 -0.16172,-0.39688 -0.83785,-0.39688 -0.42982,0 -0.78148,-0.0794 -0.78148,-0.17639 0,-0.097 -0.34747,-0.17639 -0.77215,-0.17639 -0.47117,0 -0.85775,-0.10313 -0.99174,-0.26458 -0.12077,-0.14552 -0.41397,-0.26458 -0.65156,-0.26458 -0.23758,0 -0.55452,-0.12255 -0.70429,-0.27232 -0.2455,-0.2455 -0.24157,-0.3063 0.0399,-0.61736 0.37143,-0.41044 1.00967,-0.44946 1.31591,-0.0805 0.16012,0.19294 0.58451,0.26458 1.56723,0.26458 1.23159,0 1.37617,0.038 1.6788,0.44097 0.18214,0.24254 0.46001,0.44098 0.6175,0.44098 0.15748,0 1.39546,1.11125 2.75105,2.46944 1.3556,1.3582 2.55528,2.46945 2.66597,2.46945 0.11069,0 0.3034,0.12307 0.42824,0.2735 0.12631,0.15219 0.42926,0.24998 0.68306,0.22048 0.38814,-0.0451 0.46422,-0.15152 0.51081,-0.71447 0.0317,-0.3829 -0.024,-0.66146 -0.13229,-0.66146 -0.10287,0 -0.18704,-0.15406 -0.18704,-0.34237 0,-0.1883 -0.0794,-0.39142 -0.17639,-0.45138 -0.097,-0.06 -0.17638,-0.41715 -0.17638,-0.79375 0,-0.3766 -0.0743,-0.73069 -0.16522,-0.78685 -0.32704,-0.20211 -0.71673,-1.22093 -0.71673,-1.87382 0,-0.55656 -0.0653,-0.67546 -0.39687,-0.72255 -0.25115,-0.0357 -0.41705,-0.19811 -0.45182,-0.44239 -0.0342,-0.24049 -0.20048,-0.40674 -0.44097,-0.44097 -0.24429,-0.0348 -0.40673,-0.20067 -0.4424,-0.45182 -0.034,-0.23952 -0.17919,-0.39688 -0.36613,-0.39688 -0.17037,0 -0.49618,-0.19843 -0.72403,-0.44097 -0.34131,-0.36331 -0.57971,-0.44097 -1.35366,-0.44097 -0.51667,0 -0.9394,-0.0794 -0.9394,-0.17639 0,-0.097 -0.15406,-0.17639 -0.34236,-0.17639 -0.18831,0 -0.39143,-0.0794 -0.45139,-0.17639 -0.06,-0.097 -0.34494,-0.17639 -0.6333,-0.17639 -0.30333,0 -0.56709,-0.11151 -0.62583,-0.26458 -0.0558,-0.14552 -0.2471,-0.26458 -0.42502,-0.26458 -0.17793,0 -0.37256,-0.0794 -0.43251,-0.17639 -0.06,-0.097 -0.33274,-0.17639 -0.60618,-0.17639 -0.27343,0 -0.59597,-0.11906 -0.71674,-0.26458 -0.12503,-0.15066 -0.50961,-0.26459 -0.89313,-0.26459 -0.37045,0 -0.72261,-0.0794 -0.78256,-0.17639 -0.06,-0.097 -0.33778,-0.17639 -0.61737,-0.17639 -0.27959,0 -0.5574,0.0794 -0.61736,0.17639 -0.06,0.097 -0.49148,0.17639 -0.95895,0.17639 -0.54031,0 -0.92993,0.0964 -1.06952,0.26459 -0.15213,0.18331 -0.55673,0.26458 -1.31718,0.26458 -0.83931,0 -1.16628,0.0759 -1.38951,0.32257 -0.34005,0.37575 -0.35211,1.00472 -0.0305,1.58846 z"
         id="path1080" />
      <path
         style="fill:#000000;fill-opacity:1;stroke-width:1;stroke-miterlimit:4;stroke-dasharray:none;stroke:none"
         d="m 33.929597,125.22738 c 0.0903,0 0.18949,0.17778 0.22049,0.39507 0.0319,0.22359 0.20512,0.42345 0.39908,0.46046 0.1885,0.036 0.49192,0.25506 0.67426,0.48687 0.18235,0.23182 0.46801,0.42149 0.63479,0.42149 0.16679,0 0.65381,0.35718 1.08226,0.79375 0.6835,0.69643 0.87182,0.79375 1.53603,0.79375 h 0.75703 v -0.72943 c 0,-0.55148 0.10757,-0.82913 0.44097,-1.13811 0.28451,-0.26368 0.44097,-0.59941 0.44097,-0.94626 0,-0.29568 0.0794,-0.53759 0.17639,-0.53759 0.097,0 0.17639,-0.14903 0.17639,-0.33118 0,-0.18215 0.11906,-0.43 0.26458,-0.55077 0.14552,-0.12077 0.26458,-0.44137 0.26458,-0.71245 0,-0.27108 0.0988,-0.52582 0.21964,-0.56609 0.27208,-0.0907 -0.78615,-1.1909 -1.14546,-1.1909 -0.13607,0 -0.43383,-0.19844 -0.66168,-0.44097 -0.22785,-0.24254 -0.60219,-0.44098 -0.83187,-0.44098 -0.22968,0 -0.59182,-0.1623 -0.80475,-0.36068 -0.54295,-0.50584 -1.33846,-0.87842 -1.45902,-0.68335 -0.0551,0.0891 -0.25673,0.16209 -0.44808,0.16209 -0.19135,0 -0.39089,0.1389 -0.44344,0.30868 -0.0525,0.16977 -0.16911,0.44651 -0.25905,0.61497 -0.0899,0.16846 -0.16351,0.58049 -0.16351,0.91563 0,0.33514 -0.0794,0.6584 -0.17639,0.71836 -0.097,0.06 -0.17639,0.25458 -0.17639,0.43251 0,0.17792 -0.11906,0.36918 -0.26458,0.42503 -0.14552,0.0558 -0.26458,0.25808 -0.26458,0.44943 0,0.19135 -0.0794,0.39696 -0.17639,0.45692 -0.22252,0.13752 -0.23267,0.79375 -0.0123,0.79375 z"
         id="path1078" />
      <path
         style="fill:#000000;fill-opacity:1;stroke-width:1;stroke-miterlimit:4;stroke-dasharray:none;stroke:none"
         d="m 33.460737,108.75708 c 0.31313,0.28852 0.80745,0.62913 1.09849,0.75691 0.29104,0.12778 0.66699,0.30244 0.83545,0.38813 0.16846,0.0857 0.49731,0.15581 0.73078,0.15581 0.23348,0 0.47019,0.11906 0.52603,0.26459 0.0558,0.14552 0.25809,0.26458 0.44943,0.26458 0.19135,0 0.39696,0.0794 0.45692,0.17639 0.19874,0.32157 0.79375,0.19894 0.79375,-0.16359 0,-0.18699 0.19844,-0.49606 0.44097,-0.68684 0.30128,-0.23699 0.44098,-0.52044 0.44098,-0.89475 0,-0.30133 0.0794,-0.54788 0.17638,-0.54788 0.24711,0 0.22065,-0.76713 -0.0353,-1.02305 -0.11642,-0.11642 -0.35704,-0.21167 -0.53471,-0.21167 -0.17767,0 -0.36872,-0.11906 -0.42456,-0.26458 -0.0558,-0.14552 -0.24711,-0.26459 -0.42503,-0.26459 -0.17792,0 -0.37255,-0.0794 -0.43251,-0.17639 -0.06,-0.097 -0.25459,-0.17638 -0.43251,-0.17638 -0.17792,0 -0.36918,-0.11907 -0.42503,-0.26459 -0.0558,-0.14552 -0.25808,-0.26458 -0.44943,-0.26458 -0.19135,0 -0.39696,-0.0794 -0.45692,-0.17639 -0.33249,-0.53799 -1.67569,0.0642 -1.67569,0.75127 0,0.1587 -0.17395,0.30723 -0.39688,0.33889 -0.29381,0.0417 -0.41238,0.19378 -0.45658,0.58553 -0.0328,0.29105 -0.13028,0.61454 -0.21654,0.71888 -0.0999,0.12084 0.0498,0.38014 0.41248,0.7143 z"
         id="path1076" />
      <path
         style="fill:#000000;fill-opacity:1;stroke-width:1;stroke-miterlimit:4;stroke-dasharray:none;stroke:none"
         d="m 31.328047,114.68814 c 0.28563,0.26679 0.61956,0.48507 0.74207,0.48507 0.12252,0 0.40918,0.19844 0.63703,0.44097 0.22785,0.24254 0.54034,0.44097 0.69443,0.44097 0.15409,0 0.42919,0.19844 0.61132,0.44098 0.18214,0.24253 0.42353,0.44097 0.53644,0.44097 0.29077,0 1.33281,-1.11156 1.33281,-1.42174 0,-0.14213 0.19843,-0.40744 0.44097,-0.58957 0.35231,-0.26458 0.44097,-0.48579 0.44097,-1.1002 0,-0.42298 0.0794,-0.76905 0.17639,-0.76905 0.097,0 0.17639,-0.14645 0.17639,-0.32544 0,-0.34328 -0.51674,-0.90928 -0.83014,-0.90928 -0.10175,0 -0.28381,-0.11906 -0.40458,-0.26458 -0.12078,-0.14552 -0.36862,-0.26459 -0.55077,-0.26459 -0.18215,0 -0.33118,-0.0794 -0.33118,-0.17638 0,-0.097 -0.27781,-0.17639 -0.61736,-0.17639 -0.33955,0 -0.61736,-0.0794 -0.61736,-0.17639 0,-0.097 -0.27313,-0.17639 -0.60695,-0.17639 -0.33382,0 -0.65601,0.0794 -0.71597,0.17639 -0.06,0.097 -0.26308,0.17639 -0.45138,0.17639 -0.27956,0 -0.34237,0.12447 -0.34237,0.67845 0,0.66311 -0.38739,1.68255 -0.71672,1.88609 -0.30026,0.18557 -0.13102,0.6915 0.39596,1.18372 z"
         id="path1074" />
      <path
         style="fill:#000000;fill-opacity:1;stroke-width:1;stroke-miterlimit:4;stroke-dasharray:none;stroke:none"
         d="m 29.472287,122.27286 c 0.14052,0.26679 0.35465,0.48507 0.47585,0.48507 0.1212,0 0.48963,0.27781 0.81873,0.61736 0.3291,0.33955 0.71736,0.61736 0.8628,0.61736 0.37894,0 1.25387,-0.88845 1.25387,-1.27326 0,-0.17892 0.11906,-0.371 0.26458,-0.42684 0.14552,-0.0558 0.26458,-0.29255 0.26458,-0.52602 0,-0.40894 0.0568,-0.57115 0.50163,-1.43155 0.32824,-0.63496 0.25782,-2.05971 -0.11864,-2.4004 -0.17742,-0.16056 -0.4017,-0.29193 -0.49842,-0.29193 -0.0967,0 -0.36227,-0.19843 -0.59012,-0.44097 -0.24829,-0.26428 -0.60981,-0.44097 -0.90229,-0.44097 -0.2684,0 -0.53606,-0.0778 -0.59479,-0.17278 -0.0659,-0.10664 -0.22181,-0.11157 -0.40728,-0.0129 -0.16528,0.0879 -0.43941,0.20289 -0.60919,0.25544 -0.26018,0.0805 -0.30868,0.31648 -0.30868,1.50177 0,0.77343 -0.0794,1.45529 -0.17638,1.51525 -0.097,0.06 -0.17639,0.41715 -0.17639,0.79375 0,0.37661 -0.0794,0.73379 -0.17639,0.79375 -0.21783,0.13463 -0.2049,0.2276 0.11653,0.83785 z"
         id="path1072" />
    </g>
  </g>
</svg>
